%TF.GenerationSoftware,KiCad,Pcbnew,(5.1.8)-1*%
%TF.CreationDate,2020-11-30T17:03:09-06:00*%
%TF.ProjectId,customKeyboardV2.5,63757374-6f6d-44b6-9579-626f61726456,rev?*%
%TF.SameCoordinates,Original*%
%TF.FileFunction,Paste,Bot*%
%TF.FilePolarity,Positive*%
%FSLAX46Y46*%
G04 Gerber Fmt 4.6, Leading zero omitted, Abs format (unit mm)*
G04 Created by KiCad (PCBNEW (5.1.8)-1) date 2020-11-30 17:03:09*
%MOMM*%
%LPD*%
G01*
G04 APERTURE LIST*
%ADD10R,0.900000X1.200000*%
G04 APERTURE END LIST*
D10*
%TO.C,D66*%
X292162500Y-83343750D03*
X288862500Y-83343750D03*
%TD*%
%TO.C,D92*%
X385782500Y-140493750D03*
X382482500Y-140493750D03*
%TD*%
%TO.C,D91*%
X385825000Y-121443750D03*
X382525000Y-121443750D03*
%TD*%
%TO.C,D90*%
X385825000Y-102393750D03*
X382525000Y-102393750D03*
%TD*%
%TO.C,D89*%
X385825000Y-83343750D03*
X382525000Y-83343750D03*
%TD*%
%TO.C,D88*%
X385825000Y-64293750D03*
X382525000Y-64293750D03*
%TD*%
%TO.C,D87*%
X385825000Y-37306250D03*
X382525000Y-37306250D03*
%TD*%
%TO.C,D86*%
X366775000Y-140493750D03*
X363475000Y-140493750D03*
%TD*%
%TO.C,D85*%
X366775000Y-121443750D03*
X363475000Y-121443750D03*
%TD*%
%TO.C,D84*%
X366775000Y-102393750D03*
X363475000Y-102393750D03*
%TD*%
%TO.C,D83*%
X366775000Y-83343750D03*
X363475000Y-83343750D03*
%TD*%
%TO.C,D82*%
X366775000Y-64293750D03*
X363475000Y-64293750D03*
%TD*%
%TO.C,D81*%
X366775000Y-37306250D03*
X363475000Y-37306250D03*
%TD*%
%TO.C,D80*%
X347725000Y-140493750D03*
X344425000Y-140493750D03*
%TD*%
%TO.C,D79*%
X347725000Y-121443750D03*
X344425000Y-121443750D03*
%TD*%
%TO.C,D78*%
X347725000Y-102393750D03*
X344425000Y-102393750D03*
%TD*%
%TO.C,D77*%
X347725000Y-83343750D03*
X344425000Y-83343750D03*
%TD*%
%TO.C,D76*%
X347725000Y-64293750D03*
X344425000Y-64293750D03*
%TD*%
%TO.C,D75*%
X347725000Y-37306250D03*
X344425000Y-37306250D03*
%TD*%
%TO.C,D73*%
X311212500Y-64293750D03*
X307912500Y-64293750D03*
%TD*%
%TO.C,D74*%
X320737500Y-37306250D03*
X317437500Y-37306250D03*
%TD*%
%TO.C,D72*%
X315975000Y-83343750D03*
X312675000Y-83343750D03*
%TD*%
%TO.C,D71*%
X308831250Y-102393750D03*
X305531250Y-102393750D03*
%TD*%
%TO.C,D70*%
X318356250Y-140493750D03*
X315056250Y-140493750D03*
%TD*%
%TO.C,D69*%
X304068750Y-121443750D03*
X300768750Y-121443750D03*
%TD*%
%TO.C,D67*%
X282637500Y-64293750D03*
X279337500Y-64293750D03*
%TD*%
%TO.C,D68*%
X301687500Y-37306250D03*
X298387500Y-37306250D03*
%TD*%
%TO.C,D65*%
X277875000Y-102393750D03*
X274575000Y-102393750D03*
%TD*%
%TO.C,D62*%
X273112500Y-83343750D03*
X269812500Y-83343750D03*
%TD*%
%TO.C,D63*%
X294606250Y-140493750D03*
X291306250Y-140493750D03*
%TD*%
%TO.C,D61*%
X263650000Y-64293750D03*
X260350000Y-64293750D03*
%TD*%
%TO.C,D64*%
X282637500Y-37306250D03*
X279337500Y-37306250D03*
%TD*%
%TO.C,D60*%
X268350000Y-121443750D03*
X265050000Y-121443750D03*
%TD*%
%TO.C,D59*%
X258825000Y-102393750D03*
X255525000Y-102393750D03*
%TD*%
%TO.C,D57*%
X254062500Y-83343750D03*
X250762500Y-83343750D03*
%TD*%
%TO.C,D56*%
X244537500Y-64293750D03*
X241237500Y-64293750D03*
%TD*%
%TO.C,D58*%
X263587500Y-37306250D03*
X260287500Y-37306250D03*
%TD*%
%TO.C,D55*%
X249300000Y-121443750D03*
X246000000Y-121443750D03*
%TD*%
%TO.C,D54*%
X270731250Y-140493750D03*
X267431250Y-140493750D03*
%TD*%
%TO.C,D53*%
X239775000Y-102393750D03*
X236475000Y-102393750D03*
%TD*%
%TO.C,D52*%
X235012500Y-83343750D03*
X231712500Y-83343750D03*
%TD*%
%TO.C,D51*%
X225550000Y-64293750D03*
X222250000Y-64293750D03*
%TD*%
%TO.C,D50*%
X230250000Y-121443750D03*
X226950000Y-121443750D03*
%TD*%
%TO.C,D49*%
X232631250Y-37306250D03*
X229331250Y-37306250D03*
%TD*%
%TO.C,D48*%
X246918750Y-140493750D03*
X243618750Y-140493750D03*
%TD*%
%TO.C,D47*%
X220725000Y-102393750D03*
X217425000Y-102393750D03*
%TD*%
%TO.C,D46*%
X215962500Y-83343750D03*
X212662500Y-83343750D03*
%TD*%
%TO.C,D45*%
X206437500Y-64293750D03*
X203137500Y-64293750D03*
%TD*%
%TO.C,D44*%
X211262500Y-121443750D03*
X207962500Y-121443750D03*
%TD*%
%TO.C,D43*%
X213643750Y-37306250D03*
X210343750Y-37306250D03*
%TD*%
%TO.C,D42*%
X201675000Y-102393750D03*
X198375000Y-102393750D03*
%TD*%
%TO.C,D41*%
X196912500Y-83343750D03*
X193612500Y-83343750D03*
%TD*%
%TO.C,D40*%
X187387500Y-64293750D03*
X184087500Y-64293750D03*
%TD*%
%TO.C,D39*%
X192212500Y-121443750D03*
X188912500Y-121443750D03*
%TD*%
%TO.C,D38*%
X194593750Y-37306250D03*
X191293750Y-37306250D03*
%TD*%
%TO.C,D37*%
X182625000Y-102393750D03*
X179325000Y-102393750D03*
%TD*%
%TO.C,D36*%
X177862500Y-83343750D03*
X174562500Y-83343750D03*
%TD*%
%TO.C,D35*%
X168337500Y-64293750D03*
X165037500Y-64293750D03*
%TD*%
%TO.C,D34*%
X173162500Y-121443750D03*
X169862500Y-121443750D03*
%TD*%
%TO.C,D33*%
X175481250Y-140493750D03*
X172181250Y-140493750D03*
%TD*%
%TO.C,D32*%
X175543750Y-37306250D03*
X172243750Y-37306250D03*
%TD*%
%TO.C,D31*%
X163575000Y-102393750D03*
X160275000Y-102393750D03*
%TD*%
%TO.C,D30*%
X158812500Y-83343750D03*
X155512500Y-83343750D03*
%TD*%
%TO.C,D29*%
X149350000Y-64293750D03*
X146050000Y-64293750D03*
%TD*%
%TO.C,D28*%
X154112500Y-121443750D03*
X150812500Y-121443750D03*
%TD*%
%TO.C,D27*%
X144525000Y-102393750D03*
X141225000Y-102393750D03*
%TD*%
%TO.C,D26*%
X139825000Y-83343750D03*
X136525000Y-83343750D03*
%TD*%
%TO.C,D24*%
X142937500Y-37306250D03*
X139637500Y-37306250D03*
%TD*%
%TO.C,D25*%
X130300000Y-64293750D03*
X127000000Y-64293750D03*
%TD*%
%TO.C,D23*%
X135000000Y-121443750D03*
X131700000Y-121443750D03*
%TD*%
%TO.C,D22*%
X125475000Y-102393750D03*
X122175000Y-102393750D03*
%TD*%
%TO.C,D21*%
X120775000Y-83343750D03*
X117475000Y-83343750D03*
%TD*%
%TO.C,D19*%
X123950000Y-37306250D03*
X120650000Y-37306250D03*
%TD*%
%TO.C,D20*%
X111250000Y-64293750D03*
X107950000Y-64293750D03*
%TD*%
%TO.C,D18*%
X104043750Y-140493750D03*
X100743750Y-140493750D03*
%TD*%
%TO.C,D17*%
X115950000Y-121443750D03*
X112650000Y-121443750D03*
%TD*%
%TO.C,D16*%
X106487500Y-102393750D03*
X103187500Y-102393750D03*
%TD*%
%TO.C,D15*%
X101662500Y-83343750D03*
X98362500Y-83343750D03*
%TD*%
%TO.C,D13*%
X104837500Y-37306250D03*
X101537500Y-37306250D03*
%TD*%
%TO.C,D14*%
X92200000Y-64293750D03*
X88900000Y-64293750D03*
%TD*%
%TO.C,D12*%
X96900000Y-121443750D03*
X93600000Y-121443750D03*
%TD*%
%TO.C,D11*%
X80231250Y-140493750D03*
X76931250Y-140493750D03*
%TD*%
%TO.C,D10*%
X87375000Y-102393750D03*
X84075000Y-102393750D03*
%TD*%
%TO.C,D9*%
X82612500Y-83343750D03*
X79312500Y-83343750D03*
%TD*%
%TO.C,D7*%
X85850000Y-37306250D03*
X82550000Y-37306250D03*
%TD*%
%TO.C,D8*%
X73087500Y-64293750D03*
X69787500Y-64293750D03*
%TD*%
%TO.C,D6*%
X65943750Y-121443750D03*
X62643750Y-121443750D03*
%TD*%
%TO.C,D5*%
X56418750Y-140493750D03*
X53118750Y-140493750D03*
%TD*%
%TO.C,D4*%
X61181250Y-102393750D03*
X57881250Y-102393750D03*
%TD*%
%TO.C,D3*%
X58800000Y-83343750D03*
X55500000Y-83343750D03*
%TD*%
%TO.C,D2*%
X54037500Y-64293750D03*
X50737500Y-64293750D03*
%TD*%
%TO.C,D1*%
X54037500Y-37306250D03*
X50737500Y-37306250D03*
%TD*%
M02*
