M48
; DRILL file {KiCad (5.1.8)-1} date 11/30/20 17:03:18
; FORMAT={-:-/ absolute / inch / decimal}
; #@! TF.CreationDate,2020-11-30T17:03:18-06:00
; #@! TF.GenerationSoftware,Kicad,Pcbnew,(5.1.8)-1
; #@! TF.FileFunction,Plated,1,2,PTH
FMAT,2
INCH
T1C0.0157
T2C0.0430
T3C0.0579
%
G90
G05
T1
X1.995Y-1.93
X3.015Y-1.8914
X3.805Y-1.8628
X4.545Y-1.8585
X5.315Y-1.8406
X6.055Y-1.8228
X6.82Y-1.8049
X7.5938Y-1.7812
X8.36Y-1.7691
X9.16Y-1.7513
X9.92Y-1.7334
X10.695Y-1.7155
X11.45Y-1.6964
X12.6926Y-1.5339
X12.732Y-1.5339
X12.894Y-2.55
X12.925Y-5.53
X12.994Y-3.302
X13.094Y-4.056
X13.194Y-4.812
X13.268Y-1.5599
X13.294Y-5.564
X13.32Y-1.568
X13.566Y-2.042
X14.32Y-1.944
T2
X12.7937Y-1.0437
X12.7937Y-1.1438
X12.7937Y-1.2437
X12.7937Y-1.3438
X12.7937Y-1.4437
X12.7937Y-1.5437
X12.7937Y-1.6438
X12.7937Y-1.7437
X12.7937Y-1.8438
X12.7937Y-1.9437
X12.7937Y-2.0437
X12.7937Y-2.1437
X12.8937Y-2.1437
X12.9938Y-2.1437
X13.0938Y-2.1437
X13.1937Y-2.1437
X13.2937Y-2.1437
X13.3848Y-2.1437
X13.3937Y-1.0437
X13.3937Y-1.1438
X13.3937Y-1.2437
X13.3937Y-1.3438
X13.3937Y-1.4437
X13.3937Y-1.5437
X13.3937Y-1.6438
X13.3937Y-1.7437
X13.3937Y-1.8438
X13.3937Y-1.9437
X13.3937Y-2.0437
T3
X15.0266Y-1.0925
X15.2234Y-1.0728
X14.2766Y-1.0925
X14.4734Y-1.0728
X9.6516Y-4.405
X9.8484Y-4.3853
X15.0266Y-3.655
X15.2234Y-3.6353
X10.4016Y-4.405
X10.5984Y-4.3853
X8.9016Y-4.405
X9.0984Y-4.3853
X1.9641Y-1.0925
X2.1609Y-1.0728
X2.2453Y-3.655
X2.4422Y-3.6353
X4.7141Y-1.0925
X4.9109Y-1.0728
X4.9641Y-2.155
X5.1609Y-2.1353
X8.5266Y-3.655
X8.7234Y-3.6353
X7.5891Y-2.905
X7.7859Y-2.8853
X5.1516Y-4.405
X5.3484Y-4.3853
X4.4016Y-4.405
X4.5984Y-4.3853
X13.5266Y-3.655
X13.7234Y-3.6353
X14.2766Y-2.905
X14.4734Y-2.8853
X13.5266Y-2.155
X13.7234Y-2.1353
X9.2766Y-3.655
X9.4734Y-3.6353
X10.2141Y-2.155
X10.4109Y-2.1353
X8.7141Y-2.155
X8.9109Y-2.1353
X11.9953Y-3.655
X12.1922Y-3.6353
X6.7453Y-1.0925
X6.9422Y-1.0728
X5.7141Y-2.155
X5.9109Y-2.1353
X2.7141Y-2.155
X2.9109Y-2.1353
X6.7453Y-5.155
X6.9422Y-5.1353
X3.2766Y-3.655
X3.4734Y-3.6353
X3.8391Y-2.905
X4.0359Y-2.8853
X7.7766Y-3.655
X7.9734Y-3.6353
X14.2766Y-5.155
X14.4734Y-5.1353
X11.8078Y-4.405
X12.0047Y-4.3853
X10.2141Y-1.0925
X10.4109Y-1.0728
X11.7141Y-1.0925
X11.9109Y-1.0728
X6.6516Y-4.405
X6.8484Y-4.3853
X3.6516Y-4.405
X3.8484Y-4.3853
X5.9016Y-4.405
X6.0984Y-4.3853
X3.0891Y-2.905
X3.2859Y-2.8853
X5.5266Y-3.655
X5.7234Y-3.6353
X9.5578Y-5.155
X9.7547Y-5.1353
X7.9641Y-2.155
X8.1609Y-2.1353
X12.2766Y-2.905
X12.4734Y-2.8853
X14.2766Y-3.655
X14.4734Y-3.6353
X9.4641Y-2.155
X9.6609Y-2.1353
X10.0266Y-3.655
X10.2234Y-3.6353
X1.9641Y-2.155
X2.1609Y-2.1353
X6.8391Y-2.905
X7.0359Y-2.8853
X6.0891Y-2.905
X6.2859Y-2.8853
X6.2766Y-3.655
X6.4734Y-3.6353
X4.2141Y-2.155
X4.4109Y-2.1353
X7.0266Y-3.655
X7.2234Y-3.6353
X15.0266Y-5.155
X15.2234Y-5.1353
X12.0891Y-2.155
X12.2859Y-2.1353
X15.0266Y-2.155
X15.2234Y-2.1353
X13.5266Y-2.905
X13.7234Y-2.8853
X9.8391Y-2.905
X10.0359Y-2.8853
X10.5891Y-2.905
X10.7859Y-2.8853
X3.2141Y-1.0925
X3.4109Y-1.0728
X8.2453Y-1.0925
X8.4422Y-1.0728
X7.4953Y-1.0925
X7.6922Y-1.0728
X2.0578Y-5.155
X2.2547Y-5.1353
X7.2141Y-2.155
X7.4109Y-2.1353
X2.1516Y-2.905
X2.3484Y-2.8853
X4.7766Y-3.655
X4.9734Y-3.6353
X3.4641Y-2.155
X3.6609Y-2.1353
X12.3703Y-5.155
X12.5672Y-5.1353
X10.9641Y-2.155
X11.1609Y-2.1353
X15.0266Y-2.905
X15.2234Y-2.8853
X13.5266Y-5.155
X13.7234Y-5.1353
X10.7766Y-3.655
X10.9734Y-3.6353
X10.9641Y-1.0925
X11.1609Y-1.0728
X10.4953Y-5.155
X10.6922Y-5.1353
X13.5266Y-1.0925
X13.7234Y-1.0728
X7.4016Y-4.405
X7.5984Y-4.3853
X8.3391Y-2.905
X8.5359Y-2.8853
X8.1516Y-4.405
X8.3484Y-4.3853
X2.4328Y-4.405
X2.6297Y-4.3853
X5.4641Y-1.0925
X5.6609Y-1.0728
X3.9328Y-5.155
X4.1297Y-5.1353
X12.4641Y-1.0925
X12.6609Y-1.0728
X13.5266Y-4.405
X13.7234Y-4.3853
X15.0266Y-4.405
X15.2234Y-4.3853
X14.2766Y-4.405
X14.4734Y-4.3853
X9.0891Y-2.905
X9.2859Y-2.8853
X11.3391Y-2.905
X11.5359Y-2.8853
X11.4328Y-5.155
X11.6297Y-5.1353
X8.9953Y-1.0925
X9.1922Y-1.0728
X4.5891Y-2.905
X4.7859Y-2.8853
X5.3391Y-2.905
X5.5359Y-2.8853
X2.9953Y-5.155
X3.1922Y-5.1353
X3.9641Y-1.0925
X4.1609Y-1.0728
X6.4641Y-2.155
X6.6609Y-2.1353
X4.0266Y-3.655
X4.2234Y-3.6353
X14.2766Y-2.155
X14.4734Y-2.1353
T0
M30
