%TF.GenerationSoftware,KiCad,Pcbnew,(5.1.8)-1*%
%TF.CreationDate,2020-11-30T17:03:09-06:00*%
%TF.ProjectId,customKeyboardV2.5,63757374-6f6d-44b6-9579-626f61726456,rev?*%
%TF.SameCoordinates,Original*%
%TF.FileFunction,Legend,Top*%
%TF.FilePolarity,Positive*%
%FSLAX46Y46*%
G04 Gerber Fmt 4.6, Leading zero omitted, Abs format (unit mm)*
G04 Created by KiCad (PCBNEW (5.1.8)-1) date 2020-11-30 17:03:09*
%MOMM*%
%LPD*%
G01*
G04 APERTURE LIST*
%ADD10C,0.381000*%
%ADD11C,0.150000*%
%ADD12C,1.852600*%
G04 APERTURE END LIST*
D10*
%TO.C,U1*%
X338931250Y-25241250D02*
X341471250Y-25241250D01*
X323691250Y-22701250D02*
X341471250Y-22701250D01*
X341471250Y-22701250D02*
X341471250Y-55721250D01*
X341471250Y-55721250D02*
X323691250Y-55721250D01*
X323691250Y-55721250D02*
X323691250Y-22701250D01*
D11*
G36*
X326736615Y-31130280D02*
G01*
X326736615Y-31230280D01*
X326236615Y-31230280D01*
X326236615Y-31130280D01*
X326736615Y-31130280D01*
G37*
X326736615Y-31130280D02*
X326736615Y-31230280D01*
X326236615Y-31230280D01*
X326236615Y-31130280D01*
X326736615Y-31130280D01*
G36*
X326736615Y-31130280D02*
G01*
X326736615Y-31430280D01*
X326636615Y-31430280D01*
X326636615Y-31130280D01*
X326736615Y-31130280D01*
G37*
X326736615Y-31130280D02*
X326736615Y-31430280D01*
X326636615Y-31430280D01*
X326636615Y-31130280D01*
X326736615Y-31130280D01*
G36*
X326736615Y-31730280D02*
G01*
X326736615Y-31930280D01*
X326636615Y-31930280D01*
X326636615Y-31730280D01*
X326736615Y-31730280D01*
G37*
X326736615Y-31730280D02*
X326736615Y-31930280D01*
X326636615Y-31930280D01*
X326636615Y-31730280D01*
X326736615Y-31730280D01*
G36*
X326336615Y-31130280D02*
G01*
X326336615Y-31930280D01*
X326236615Y-31930280D01*
X326236615Y-31130280D01*
X326336615Y-31130280D01*
G37*
X326336615Y-31130280D02*
X326336615Y-31930280D01*
X326236615Y-31930280D01*
X326236615Y-31130280D01*
X326336615Y-31130280D01*
G36*
X326536615Y-31530280D02*
G01*
X326536615Y-31630280D01*
X326436615Y-31630280D01*
X326436615Y-31530280D01*
X326536615Y-31530280D01*
G37*
X326536615Y-31530280D02*
X326536615Y-31630280D01*
X326436615Y-31630280D01*
X326436615Y-31530280D01*
X326536615Y-31530280D01*
D10*
X338931250Y-25241250D02*
X338931250Y-27781250D01*
X338931250Y-27781250D02*
X341471250Y-27781250D01*
D11*
X337451773Y-29413154D02*
X337451773Y-28613154D01*
X337642250Y-28613154D01*
X337756535Y-28651250D01*
X337832726Y-28727440D01*
X337870821Y-28803630D01*
X337908916Y-28956011D01*
X337908916Y-29070297D01*
X337870821Y-29222678D01*
X337832726Y-29298869D01*
X337756535Y-29375059D01*
X337642250Y-29413154D01*
X337451773Y-29413154D01*
X338213678Y-28689345D02*
X338251773Y-28651250D01*
X338327964Y-28613154D01*
X338518440Y-28613154D01*
X338594630Y-28651250D01*
X338632726Y-28689345D01*
X338670821Y-28765535D01*
X338670821Y-28841726D01*
X338632726Y-28956011D01*
X338175583Y-29413154D01*
X338670821Y-29413154D01*
X337451773Y-39573154D02*
X337451773Y-38773154D01*
X337642250Y-38773154D01*
X337756535Y-38811250D01*
X337832726Y-38887440D01*
X337870821Y-38963630D01*
X337908916Y-39116011D01*
X337908916Y-39230297D01*
X337870821Y-39382678D01*
X337832726Y-39458869D01*
X337756535Y-39535059D01*
X337642250Y-39573154D01*
X337451773Y-39573154D01*
X338404154Y-38773154D02*
X338480345Y-38773154D01*
X338556535Y-38811250D01*
X338594630Y-38849345D01*
X338632726Y-38925535D01*
X338670821Y-39077916D01*
X338670821Y-39268392D01*
X338632726Y-39420773D01*
X338594630Y-39496964D01*
X338556535Y-39535059D01*
X338480345Y-39573154D01*
X338404154Y-39573154D01*
X338327964Y-39535059D01*
X338289869Y-39496964D01*
X338251773Y-39420773D01*
X338213678Y-39268392D01*
X338213678Y-39077916D01*
X338251773Y-38925535D01*
X338289869Y-38849345D01*
X338327964Y-38811250D01*
X338404154Y-38773154D01*
X337451773Y-37033154D02*
X337451773Y-36233154D01*
X337642250Y-36233154D01*
X337756535Y-36271250D01*
X337832726Y-36347440D01*
X337870821Y-36423630D01*
X337908916Y-36576011D01*
X337908916Y-36690297D01*
X337870821Y-36842678D01*
X337832726Y-36918869D01*
X337756535Y-36995059D01*
X337642250Y-37033154D01*
X337451773Y-37033154D01*
X338670821Y-37033154D02*
X338213678Y-37033154D01*
X338442250Y-37033154D02*
X338442250Y-36233154D01*
X338366059Y-36347440D01*
X338289869Y-36423630D01*
X338213678Y-36461726D01*
X337432726Y-33731250D02*
X337356535Y-33693154D01*
X337242250Y-33693154D01*
X337127964Y-33731250D01*
X337051773Y-33807440D01*
X337013678Y-33883630D01*
X336975583Y-34036011D01*
X336975583Y-34150297D01*
X337013678Y-34302678D01*
X337051773Y-34378869D01*
X337127964Y-34455059D01*
X337242250Y-34493154D01*
X337318440Y-34493154D01*
X337432726Y-34455059D01*
X337470821Y-34416964D01*
X337470821Y-34150297D01*
X337318440Y-34150297D01*
X337813678Y-34493154D02*
X337813678Y-33693154D01*
X338270821Y-34493154D01*
X338270821Y-33693154D01*
X338651773Y-34493154D02*
X338651773Y-33693154D01*
X338842250Y-33693154D01*
X338956535Y-33731250D01*
X339032726Y-33807440D01*
X339070821Y-33883630D01*
X339108916Y-34036011D01*
X339108916Y-34150297D01*
X339070821Y-34302678D01*
X339032726Y-34378869D01*
X338956535Y-34455059D01*
X338842250Y-34493154D01*
X338651773Y-34493154D01*
X337432726Y-31191250D02*
X337356535Y-31153154D01*
X337242250Y-31153154D01*
X337127964Y-31191250D01*
X337051773Y-31267440D01*
X337013678Y-31343630D01*
X336975583Y-31496011D01*
X336975583Y-31610297D01*
X337013678Y-31762678D01*
X337051773Y-31838869D01*
X337127964Y-31915059D01*
X337242250Y-31953154D01*
X337318440Y-31953154D01*
X337432726Y-31915059D01*
X337470821Y-31876964D01*
X337470821Y-31610297D01*
X337318440Y-31610297D01*
X337813678Y-31953154D02*
X337813678Y-31153154D01*
X338270821Y-31953154D01*
X338270821Y-31153154D01*
X338651773Y-31953154D02*
X338651773Y-31153154D01*
X338842250Y-31153154D01*
X338956535Y-31191250D01*
X339032726Y-31267440D01*
X339070821Y-31343630D01*
X339108916Y-31496011D01*
X339108916Y-31610297D01*
X339070821Y-31762678D01*
X339032726Y-31838869D01*
X338956535Y-31915059D01*
X338842250Y-31953154D01*
X338651773Y-31953154D01*
X337451773Y-42113154D02*
X337451773Y-41313154D01*
X337642250Y-41313154D01*
X337756535Y-41351250D01*
X337832726Y-41427440D01*
X337870821Y-41503630D01*
X337908916Y-41656011D01*
X337908916Y-41770297D01*
X337870821Y-41922678D01*
X337832726Y-41998869D01*
X337756535Y-42075059D01*
X337642250Y-42113154D01*
X337451773Y-42113154D01*
X338594630Y-41579821D02*
X338594630Y-42113154D01*
X338404154Y-41275059D02*
X338213678Y-41846488D01*
X338708916Y-41846488D01*
X337908916Y-44576964D02*
X337870821Y-44615059D01*
X337756535Y-44653154D01*
X337680345Y-44653154D01*
X337566059Y-44615059D01*
X337489869Y-44538869D01*
X337451773Y-44462678D01*
X337413678Y-44310297D01*
X337413678Y-44196011D01*
X337451773Y-44043630D01*
X337489869Y-43967440D01*
X337566059Y-43891250D01*
X337680345Y-43853154D01*
X337756535Y-43853154D01*
X337870821Y-43891250D01*
X337908916Y-43929345D01*
X338594630Y-43853154D02*
X338442250Y-43853154D01*
X338366059Y-43891250D01*
X338327964Y-43929345D01*
X338251773Y-44043630D01*
X338213678Y-44196011D01*
X338213678Y-44500773D01*
X338251773Y-44576964D01*
X338289869Y-44615059D01*
X338366059Y-44653154D01*
X338518440Y-44653154D01*
X338594630Y-44615059D01*
X338632726Y-44576964D01*
X338670821Y-44500773D01*
X338670821Y-44310297D01*
X338632726Y-44234107D01*
X338594630Y-44196011D01*
X338518440Y-44157916D01*
X338366059Y-44157916D01*
X338289869Y-44196011D01*
X338251773Y-44234107D01*
X338213678Y-44310297D01*
X337451773Y-47193154D02*
X337451773Y-46393154D01*
X337642250Y-46393154D01*
X337756535Y-46431250D01*
X337832726Y-46507440D01*
X337870821Y-46583630D01*
X337908916Y-46736011D01*
X337908916Y-46850297D01*
X337870821Y-47002678D01*
X337832726Y-47078869D01*
X337756535Y-47155059D01*
X337642250Y-47193154D01*
X337451773Y-47193154D01*
X338175583Y-46393154D02*
X338708916Y-46393154D01*
X338366059Y-47193154D01*
X337489869Y-49314107D02*
X337756535Y-49314107D01*
X337870821Y-49733154D02*
X337489869Y-49733154D01*
X337489869Y-48933154D01*
X337870821Y-48933154D01*
X338556535Y-48933154D02*
X338404154Y-48933154D01*
X338327964Y-48971250D01*
X338289869Y-49009345D01*
X338213678Y-49123630D01*
X338175583Y-49276011D01*
X338175583Y-49580773D01*
X338213678Y-49656964D01*
X338251773Y-49695059D01*
X338327964Y-49733154D01*
X338480345Y-49733154D01*
X338556535Y-49695059D01*
X338594630Y-49656964D01*
X338632726Y-49580773D01*
X338632726Y-49390297D01*
X338594630Y-49314107D01*
X338556535Y-49276011D01*
X338480345Y-49237916D01*
X338327964Y-49237916D01*
X338251773Y-49276011D01*
X338213678Y-49314107D01*
X338175583Y-49390297D01*
X337718440Y-51854107D02*
X337832726Y-51892202D01*
X337870821Y-51930297D01*
X337908916Y-52006488D01*
X337908916Y-52120773D01*
X337870821Y-52196964D01*
X337832726Y-52235059D01*
X337756535Y-52273154D01*
X337451773Y-52273154D01*
X337451773Y-51473154D01*
X337718440Y-51473154D01*
X337794630Y-51511250D01*
X337832726Y-51549345D01*
X337870821Y-51625535D01*
X337870821Y-51701726D01*
X337832726Y-51777916D01*
X337794630Y-51816011D01*
X337718440Y-51854107D01*
X337451773Y-51854107D01*
X338594630Y-51739821D02*
X338594630Y-52273154D01*
X338404154Y-51435059D02*
X338213678Y-52006488D01*
X338708916Y-52006488D01*
X338745547Y-53346241D02*
X338839828Y-53299101D01*
X338886969Y-53299101D01*
X338957679Y-53322671D01*
X339028390Y-53393382D01*
X339051960Y-53464092D01*
X339051960Y-53511233D01*
X339028390Y-53581943D01*
X338839828Y-53770505D01*
X338344853Y-53275530D01*
X338509845Y-53110539D01*
X338580556Y-53086969D01*
X338627696Y-53086969D01*
X338698407Y-53110539D01*
X338745547Y-53157679D01*
X338769117Y-53228390D01*
X338769117Y-53275530D01*
X338745547Y-53346241D01*
X338580556Y-53511233D01*
X339075530Y-52544853D02*
X338839828Y-52780556D01*
X339051960Y-53039828D01*
X339051960Y-52992688D01*
X339075530Y-52921977D01*
X339193382Y-52804126D01*
X339264092Y-52780556D01*
X339311233Y-52780556D01*
X339381943Y-52804126D01*
X339499794Y-52921977D01*
X339523365Y-52992688D01*
X339523365Y-53039828D01*
X339499794Y-53110539D01*
X339381943Y-53228390D01*
X339311233Y-53251960D01*
X339264092Y-53251960D01*
X326796440Y-49314107D02*
X326910726Y-49352202D01*
X326948821Y-49390297D01*
X326986916Y-49466488D01*
X326986916Y-49580773D01*
X326948821Y-49656964D01*
X326910726Y-49695059D01*
X326834535Y-49733154D01*
X326529773Y-49733154D01*
X326529773Y-48933154D01*
X326796440Y-48933154D01*
X326872630Y-48971250D01*
X326910726Y-49009345D01*
X326948821Y-49085535D01*
X326948821Y-49161726D01*
X326910726Y-49237916D01*
X326872630Y-49276011D01*
X326796440Y-49314107D01*
X326529773Y-49314107D01*
X327253583Y-48933154D02*
X327748821Y-48933154D01*
X327482154Y-49237916D01*
X327596440Y-49237916D01*
X327672630Y-49276011D01*
X327710726Y-49314107D01*
X327748821Y-49390297D01*
X327748821Y-49580773D01*
X327710726Y-49656964D01*
X327672630Y-49695059D01*
X327596440Y-49733154D01*
X327367869Y-49733154D01*
X327291678Y-49695059D01*
X327253583Y-49656964D01*
X326796440Y-46774107D02*
X326910726Y-46812202D01*
X326948821Y-46850297D01*
X326986916Y-46926488D01*
X326986916Y-47040773D01*
X326948821Y-47116964D01*
X326910726Y-47155059D01*
X326834535Y-47193154D01*
X326529773Y-47193154D01*
X326529773Y-46393154D01*
X326796440Y-46393154D01*
X326872630Y-46431250D01*
X326910726Y-46469345D01*
X326948821Y-46545535D01*
X326948821Y-46621726D01*
X326910726Y-46697916D01*
X326872630Y-46736011D01*
X326796440Y-46774107D01*
X326529773Y-46774107D01*
X327748821Y-47193154D02*
X327291678Y-47193154D01*
X327520250Y-47193154D02*
X327520250Y-46393154D01*
X327444059Y-46507440D01*
X327367869Y-46583630D01*
X327291678Y-46621726D01*
X326853583Y-36614107D02*
X326586916Y-36614107D01*
X326586916Y-37033154D02*
X326586916Y-36233154D01*
X326967869Y-36233154D01*
X327615488Y-36499821D02*
X327615488Y-37033154D01*
X327425011Y-36195059D02*
X327234535Y-36766488D01*
X327729773Y-36766488D01*
X326053583Y-33693154D02*
X326320250Y-34493154D01*
X326586916Y-33693154D01*
X327310726Y-34416964D02*
X327272630Y-34455059D01*
X327158345Y-34493154D01*
X327082154Y-34493154D01*
X326967869Y-34455059D01*
X326891678Y-34378869D01*
X326853583Y-34302678D01*
X326815488Y-34150297D01*
X326815488Y-34036011D01*
X326853583Y-33883630D01*
X326891678Y-33807440D01*
X326967869Y-33731250D01*
X327082154Y-33693154D01*
X327158345Y-33693154D01*
X327272630Y-33731250D01*
X327310726Y-33769345D01*
X328110726Y-34416964D02*
X328072630Y-34455059D01*
X327958345Y-34493154D01*
X327882154Y-34493154D01*
X327767869Y-34455059D01*
X327691678Y-34378869D01*
X327653583Y-34302678D01*
X327615488Y-34150297D01*
X327615488Y-34036011D01*
X327653583Y-33883630D01*
X327691678Y-33807440D01*
X327767869Y-33731250D01*
X327882154Y-33693154D01*
X327958345Y-33693154D01*
X328072630Y-33731250D01*
X328110726Y-33769345D01*
X326510726Y-28651250D02*
X326434535Y-28613154D01*
X326320250Y-28613154D01*
X326205964Y-28651250D01*
X326129773Y-28727440D01*
X326091678Y-28803630D01*
X326053583Y-28956011D01*
X326053583Y-29070297D01*
X326091678Y-29222678D01*
X326129773Y-29298869D01*
X326205964Y-29375059D01*
X326320250Y-29413154D01*
X326396440Y-29413154D01*
X326510726Y-29375059D01*
X326548821Y-29336964D01*
X326548821Y-29070297D01*
X326396440Y-29070297D01*
X326891678Y-29413154D02*
X326891678Y-28613154D01*
X327348821Y-29413154D01*
X327348821Y-28613154D01*
X327729773Y-29413154D02*
X327729773Y-28613154D01*
X327920250Y-28613154D01*
X328034535Y-28651250D01*
X328110726Y-28727440D01*
X328148821Y-28803630D01*
X328186916Y-28956011D01*
X328186916Y-29070297D01*
X328148821Y-29222678D01*
X328110726Y-29298869D01*
X328034535Y-29375059D01*
X327920250Y-29413154D01*
X327729773Y-29413154D01*
X326796440Y-26454107D02*
X326910726Y-26492202D01*
X326948821Y-26530297D01*
X326986916Y-26606488D01*
X326986916Y-26720773D01*
X326948821Y-26796964D01*
X326910726Y-26835059D01*
X326834535Y-26873154D01*
X326529773Y-26873154D01*
X326529773Y-26073154D01*
X326796440Y-26073154D01*
X326872630Y-26111250D01*
X326910726Y-26149345D01*
X326948821Y-26225535D01*
X326948821Y-26301726D01*
X326910726Y-26377916D01*
X326872630Y-26416011D01*
X326796440Y-26454107D01*
X326529773Y-26454107D01*
X327482154Y-26073154D02*
X327558345Y-26073154D01*
X327634535Y-26111250D01*
X327672630Y-26149345D01*
X327710726Y-26225535D01*
X327748821Y-26377916D01*
X327748821Y-26568392D01*
X327710726Y-26720773D01*
X327672630Y-26796964D01*
X327634535Y-26835059D01*
X327558345Y-26873154D01*
X327482154Y-26873154D01*
X327405964Y-26835059D01*
X327367869Y-26796964D01*
X327329773Y-26720773D01*
X327291678Y-26568392D01*
X327291678Y-26377916D01*
X327329773Y-26225535D01*
X327367869Y-26149345D01*
X327405964Y-26111250D01*
X327482154Y-26073154D01*
X326853583Y-39154107D02*
X326586916Y-39154107D01*
X326586916Y-39573154D02*
X326586916Y-38773154D01*
X326967869Y-38773154D01*
X327653583Y-38773154D02*
X327272630Y-38773154D01*
X327234535Y-39154107D01*
X327272630Y-39116011D01*
X327348821Y-39077916D01*
X327539297Y-39077916D01*
X327615488Y-39116011D01*
X327653583Y-39154107D01*
X327691678Y-39230297D01*
X327691678Y-39420773D01*
X327653583Y-39496964D01*
X327615488Y-39535059D01*
X327539297Y-39573154D01*
X327348821Y-39573154D01*
X327272630Y-39535059D01*
X327234535Y-39496964D01*
X326853583Y-41694107D02*
X326586916Y-41694107D01*
X326586916Y-42113154D02*
X326586916Y-41313154D01*
X326967869Y-41313154D01*
X327615488Y-41313154D02*
X327463107Y-41313154D01*
X327386916Y-41351250D01*
X327348821Y-41389345D01*
X327272630Y-41503630D01*
X327234535Y-41656011D01*
X327234535Y-41960773D01*
X327272630Y-42036964D01*
X327310726Y-42075059D01*
X327386916Y-42113154D01*
X327539297Y-42113154D01*
X327615488Y-42075059D01*
X327653583Y-42036964D01*
X327691678Y-41960773D01*
X327691678Y-41770297D01*
X327653583Y-41694107D01*
X327615488Y-41656011D01*
X327539297Y-41617916D01*
X327386916Y-41617916D01*
X327310726Y-41656011D01*
X327272630Y-41694107D01*
X327234535Y-41770297D01*
X326853583Y-44234107D02*
X326586916Y-44234107D01*
X326586916Y-44653154D02*
X326586916Y-43853154D01*
X326967869Y-43853154D01*
X327196440Y-43853154D02*
X327729773Y-43853154D01*
X327386916Y-44653154D01*
X326796440Y-51854107D02*
X326910726Y-51892202D01*
X326948821Y-51930297D01*
X326986916Y-52006488D01*
X326986916Y-52120773D01*
X326948821Y-52196964D01*
X326910726Y-52235059D01*
X326834535Y-52273154D01*
X326529773Y-52273154D01*
X326529773Y-51473154D01*
X326796440Y-51473154D01*
X326872630Y-51511250D01*
X326910726Y-51549345D01*
X326948821Y-51625535D01*
X326948821Y-51701726D01*
X326910726Y-51777916D01*
X326872630Y-51816011D01*
X326796440Y-51854107D01*
X326529773Y-51854107D01*
X327291678Y-51549345D02*
X327329773Y-51511250D01*
X327405964Y-51473154D01*
X327596440Y-51473154D01*
X327672630Y-51511250D01*
X327710726Y-51549345D01*
X327748821Y-51625535D01*
X327748821Y-51701726D01*
X327710726Y-51816011D01*
X327253583Y-52273154D01*
X327748821Y-52273154D01*
X333962645Y-26073154D02*
X334419788Y-26073154D01*
X334191217Y-26873154D02*
X334191217Y-26073154D01*
X334610264Y-26073154D02*
X335143598Y-26873154D01*
X335143598Y-26073154D02*
X334610264Y-26873154D01*
X335600741Y-26073154D02*
X335676931Y-26073154D01*
X335753122Y-26111250D01*
X335791217Y-26149345D01*
X335829312Y-26225535D01*
X335867407Y-26377916D01*
X335867407Y-26568392D01*
X335829312Y-26720773D01*
X335791217Y-26796964D01*
X335753122Y-26835059D01*
X335676931Y-26873154D01*
X335600741Y-26873154D01*
X335524550Y-26835059D01*
X335486455Y-26796964D01*
X335448360Y-26720773D01*
X335410264Y-26568392D01*
X335410264Y-26377916D01*
X335448360Y-26225535D01*
X335486455Y-26149345D01*
X335524550Y-26111250D01*
X335600741Y-26073154D01*
X336781693Y-26035059D02*
X336095979Y-27063630D01*
X337048360Y-26873154D02*
X337048360Y-26073154D01*
X337238836Y-26073154D01*
X337353122Y-26111250D01*
X337429312Y-26187440D01*
X337467407Y-26263630D01*
X337505502Y-26416011D01*
X337505502Y-26530297D01*
X337467407Y-26682678D01*
X337429312Y-26758869D01*
X337353122Y-26835059D01*
X337238836Y-26873154D01*
X337048360Y-26873154D01*
X337772169Y-26073154D02*
X338267407Y-26073154D01*
X338000741Y-26377916D01*
X338115026Y-26377916D01*
X338191217Y-26416011D01*
X338229312Y-26454107D01*
X338267407Y-26530297D01*
X338267407Y-26720773D01*
X338229312Y-26796964D01*
X338191217Y-26835059D01*
X338115026Y-26873154D01*
X337886455Y-26873154D01*
X337810264Y-26835059D01*
X337772169Y-26796964D01*
X327007916Y-31895059D02*
X327122202Y-31933154D01*
X327312678Y-31933154D01*
X327388869Y-31895059D01*
X327426964Y-31856964D01*
X327465059Y-31780773D01*
X327465059Y-31704583D01*
X327426964Y-31628392D01*
X327388869Y-31590297D01*
X327312678Y-31552202D01*
X327160297Y-31514107D01*
X327084107Y-31476011D01*
X327046011Y-31437916D01*
X327007916Y-31361726D01*
X327007916Y-31285535D01*
X327046011Y-31209345D01*
X327084107Y-31171250D01*
X327160297Y-31133154D01*
X327350773Y-31133154D01*
X327465059Y-31171250D01*
X327693630Y-31133154D02*
X328150773Y-31133154D01*
X327922202Y-31933154D02*
X327922202Y-31133154D01*
X336797916Y-53031250D02*
X336897916Y-53064583D01*
X336931250Y-53097916D01*
X336964583Y-53164583D01*
X336964583Y-53264583D01*
X336931250Y-53331250D01*
X336897916Y-53364583D01*
X336831250Y-53397916D01*
X336564583Y-53397916D01*
X336564583Y-52697916D01*
X336797916Y-52697916D01*
X336864583Y-52731250D01*
X336897916Y-52764583D01*
X336931250Y-52831250D01*
X336931250Y-52897916D01*
X336897916Y-52964583D01*
X336864583Y-52997916D01*
X336797916Y-53031250D01*
X336564583Y-53031250D01*
X337197916Y-52697916D02*
X337664583Y-52697916D01*
X337364583Y-53397916D01*
X327847916Y-53031250D02*
X327614583Y-53031250D01*
X327614583Y-53397916D02*
X327614583Y-52697916D01*
X327947916Y-52697916D01*
X328347916Y-52697916D02*
X328414583Y-52697916D01*
X328481250Y-52731250D01*
X328514583Y-52764583D01*
X328547916Y-52831250D01*
X328581250Y-52964583D01*
X328581250Y-53131250D01*
X328547916Y-53264583D01*
X328514583Y-53331250D01*
X328481250Y-53364583D01*
X328414583Y-53397916D01*
X328347916Y-53397916D01*
X328281250Y-53364583D01*
X328247916Y-53331250D01*
X328214583Y-53264583D01*
X328181250Y-53131250D01*
X328181250Y-52964583D01*
X328214583Y-52831250D01*
X328247916Y-52764583D01*
X328281250Y-52731250D01*
X328347916Y-52697916D01*
X326346241Y-53416952D02*
X326299101Y-53322671D01*
X326299101Y-53275530D01*
X326322671Y-53204820D01*
X326393382Y-53134109D01*
X326464092Y-53110539D01*
X326511233Y-53110539D01*
X326581943Y-53134109D01*
X326770505Y-53322671D01*
X326275530Y-53817646D01*
X326110539Y-53652654D01*
X326086969Y-53581943D01*
X326086969Y-53534803D01*
X326110539Y-53464092D01*
X326157679Y-53416952D01*
X326228390Y-53393382D01*
X326275530Y-53393382D01*
X326346241Y-53416952D01*
X326511233Y-53581943D01*
X325568424Y-53110539D02*
X325662705Y-53204820D01*
X325733415Y-53228390D01*
X325780556Y-53228390D01*
X325898407Y-53204820D01*
X326016258Y-53134109D01*
X326204820Y-52945547D01*
X326228390Y-52874837D01*
X326228390Y-52827696D01*
X326204820Y-52756985D01*
X326110539Y-52662705D01*
X326039828Y-52639134D01*
X325992688Y-52639134D01*
X325921977Y-52662705D01*
X325804126Y-52780556D01*
X325780556Y-52851266D01*
X325780556Y-52898407D01*
X325804126Y-52969117D01*
X325898407Y-53063398D01*
X325969117Y-53086969D01*
X326016258Y-53086969D01*
X326086969Y-53063398D01*
X332447916Y-53166964D02*
X332409821Y-53205059D01*
X332295535Y-53243154D01*
X332219345Y-53243154D01*
X332105059Y-53205059D01*
X332028869Y-53128869D01*
X331990773Y-53052678D01*
X331952678Y-52900297D01*
X331952678Y-52786011D01*
X331990773Y-52633630D01*
X332028869Y-52557440D01*
X332105059Y-52481250D01*
X332219345Y-52443154D01*
X332295535Y-52443154D01*
X332409821Y-52481250D01*
X332447916Y-52519345D01*
X332714583Y-52443154D02*
X333247916Y-52443154D01*
X332905059Y-53243154D01*
X329774583Y-52824107D02*
X329507916Y-52824107D01*
X329507916Y-53243154D02*
X329507916Y-52443154D01*
X329888869Y-52443154D01*
X330612678Y-53243154D02*
X330155535Y-53243154D01*
X330384107Y-53243154D02*
X330384107Y-52443154D01*
X330307916Y-52557440D01*
X330231726Y-52633630D01*
X330155535Y-52671726D01*
X334530773Y-53243154D02*
X334530773Y-52443154D01*
X334721250Y-52443154D01*
X334835535Y-52481250D01*
X334911726Y-52557440D01*
X334949821Y-52633630D01*
X334987916Y-52786011D01*
X334987916Y-52900297D01*
X334949821Y-53052678D01*
X334911726Y-53128869D01*
X334835535Y-53205059D01*
X334721250Y-53243154D01*
X334530773Y-53243154D01*
X335711726Y-52443154D02*
X335330773Y-52443154D01*
X335292678Y-52824107D01*
X335330773Y-52786011D01*
X335406964Y-52747916D01*
X335597440Y-52747916D01*
X335673630Y-52786011D01*
X335711726Y-52824107D01*
X335749821Y-52900297D01*
X335749821Y-53090773D01*
X335711726Y-53166964D01*
X335673630Y-53205059D01*
X335597440Y-53243154D01*
X335406964Y-53243154D01*
X335330773Y-53205059D01*
X335292678Y-53166964D01*
%TD*%
%LPC*%
D12*
%TO.C,U1*%
X337661250Y-54451250D03*
X335121250Y-54451250D03*
X332581250Y-54451250D03*
X330041250Y-54451250D03*
X327501250Y-54451250D03*
X324961250Y-26511250D03*
X339972650Y-54451250D03*
X324961250Y-29051250D03*
X324961250Y-31591250D03*
X324961250Y-34131250D03*
X324961250Y-36671250D03*
X324961250Y-39211250D03*
X324961250Y-41751250D03*
X324961250Y-44291250D03*
X324961250Y-46831250D03*
X324961250Y-49371250D03*
X324961250Y-51911250D03*
X324961250Y-54451250D03*
X340201250Y-51911250D03*
X340201250Y-49371250D03*
X340201250Y-46831250D03*
X340201250Y-44291250D03*
X340201250Y-41751250D03*
X340201250Y-39211250D03*
X340201250Y-36671250D03*
X340201250Y-34131250D03*
X340201250Y-31591250D03*
X340201250Y-29051250D03*
G36*
G01*
X339324950Y-25584950D02*
X341077550Y-25584950D01*
G75*
G02*
X341127550Y-25634950I0J-50000D01*
G01*
X341127550Y-27387550D01*
G75*
G02*
X341077550Y-27437550I-50000J0D01*
G01*
X339324950Y-27437550D01*
G75*
G02*
X339274950Y-27387550I0J50000D01*
G01*
X339274950Y-25634950D01*
G75*
G02*
X339324950Y-25584950I50000J0D01*
G01*
G37*
%TD*%
M02*
