%TF.GenerationSoftware,KiCad,Pcbnew,(5.1.8)-1*%
%TF.CreationDate,2020-11-30T17:03:09-06:00*%
%TF.ProjectId,customKeyboardV2.5,63757374-6f6d-44b6-9579-626f61726456,rev?*%
%TF.SameCoordinates,Original*%
%TF.FileFunction,Soldermask,Bot*%
%TF.FilePolarity,Negative*%
%FSLAX46Y46*%
G04 Gerber Fmt 4.6, Leading zero omitted, Abs format (unit mm)*
G04 Created by KiCad (PCBNEW (5.1.8)-1) date 2020-11-30 17:03:09*
%MOMM*%
%LPD*%
G01*
G04 APERTURE LIST*
%ADD10C,1.852600*%
%ADD11C,2.350000*%
G04 APERTURE END LIST*
D10*
%TO.C,U1*%
X337661250Y-54451250D03*
X335121250Y-54451250D03*
X332581250Y-54451250D03*
X330041250Y-54451250D03*
X327501250Y-54451250D03*
X324961250Y-26511250D03*
X339972650Y-54451250D03*
X324961250Y-29051250D03*
X324961250Y-31591250D03*
X324961250Y-34131250D03*
X324961250Y-36671250D03*
X324961250Y-39211250D03*
X324961250Y-41751250D03*
X324961250Y-44291250D03*
X324961250Y-46831250D03*
X324961250Y-49371250D03*
X324961250Y-51911250D03*
X324961250Y-54451250D03*
X340201250Y-51911250D03*
X340201250Y-49371250D03*
X340201250Y-46831250D03*
X340201250Y-44291250D03*
X340201250Y-41751250D03*
X340201250Y-39211250D03*
X340201250Y-36671250D03*
X340201250Y-34131250D03*
X340201250Y-31591250D03*
X340201250Y-29051250D03*
G36*
G01*
X339324950Y-25584950D02*
X341077550Y-25584950D01*
G75*
G02*
X341127550Y-25634950I0J-50000D01*
G01*
X341127550Y-27387550D01*
G75*
G02*
X341077550Y-27437550I-50000J0D01*
G01*
X339324950Y-27437550D01*
G75*
G02*
X339274950Y-27387550I0J50000D01*
G01*
X339274950Y-25634950D01*
G75*
G02*
X339324950Y-25584950I50000J0D01*
G01*
G37*
%TD*%
D11*
%TO.C,ALPS75*%
X343575000Y-27750000D03*
X348575000Y-27250000D03*
%TD*%
%TO.C,ALPS1*%
X49887500Y-27750000D03*
X54887500Y-27250000D03*
%TD*%
%TO.C,ALPS71*%
X304681250Y-92837500D03*
X309681250Y-92337500D03*
%TD*%
%TO.C,D66*%
G36*
G01*
X291662500Y-83943750D02*
X291662500Y-82743750D01*
G75*
G02*
X291712500Y-82693750I50000J0D01*
G01*
X292612500Y-82693750D01*
G75*
G02*
X292662500Y-82743750I0J-50000D01*
G01*
X292662500Y-83943750D01*
G75*
G02*
X292612500Y-83993750I-50000J0D01*
G01*
X291712500Y-83993750D01*
G75*
G02*
X291662500Y-83943750I0J50000D01*
G01*
G37*
G36*
G01*
X288362500Y-83943750D02*
X288362500Y-82743750D01*
G75*
G02*
X288412500Y-82693750I50000J0D01*
G01*
X289312500Y-82693750D01*
G75*
G02*
X289362500Y-82743750I0J-50000D01*
G01*
X289362500Y-83943750D01*
G75*
G02*
X289312500Y-83993750I-50000J0D01*
G01*
X288412500Y-83993750D01*
G75*
G02*
X288362500Y-83943750I0J50000D01*
G01*
G37*
%TD*%
%TO.C,D92*%
G36*
G01*
X385282500Y-141093750D02*
X385282500Y-139893750D01*
G75*
G02*
X385332500Y-139843750I50000J0D01*
G01*
X386232500Y-139843750D01*
G75*
G02*
X386282500Y-139893750I0J-50000D01*
G01*
X386282500Y-141093750D01*
G75*
G02*
X386232500Y-141143750I-50000J0D01*
G01*
X385332500Y-141143750D01*
G75*
G02*
X385282500Y-141093750I0J50000D01*
G01*
G37*
G36*
G01*
X381982500Y-141093750D02*
X381982500Y-139893750D01*
G75*
G02*
X382032500Y-139843750I50000J0D01*
G01*
X382932500Y-139843750D01*
G75*
G02*
X382982500Y-139893750I0J-50000D01*
G01*
X382982500Y-141093750D01*
G75*
G02*
X382932500Y-141143750I-50000J0D01*
G01*
X382032500Y-141143750D01*
G75*
G02*
X381982500Y-141093750I0J50000D01*
G01*
G37*
%TD*%
%TO.C,D91*%
G36*
G01*
X385325000Y-122043750D02*
X385325000Y-120843750D01*
G75*
G02*
X385375000Y-120793750I50000J0D01*
G01*
X386275000Y-120793750D01*
G75*
G02*
X386325000Y-120843750I0J-50000D01*
G01*
X386325000Y-122043750D01*
G75*
G02*
X386275000Y-122093750I-50000J0D01*
G01*
X385375000Y-122093750D01*
G75*
G02*
X385325000Y-122043750I0J50000D01*
G01*
G37*
G36*
G01*
X382025000Y-122043750D02*
X382025000Y-120843750D01*
G75*
G02*
X382075000Y-120793750I50000J0D01*
G01*
X382975000Y-120793750D01*
G75*
G02*
X383025000Y-120843750I0J-50000D01*
G01*
X383025000Y-122043750D01*
G75*
G02*
X382975000Y-122093750I-50000J0D01*
G01*
X382075000Y-122093750D01*
G75*
G02*
X382025000Y-122043750I0J50000D01*
G01*
G37*
%TD*%
%TO.C,D90*%
G36*
G01*
X385325000Y-102993750D02*
X385325000Y-101793750D01*
G75*
G02*
X385375000Y-101743750I50000J0D01*
G01*
X386275000Y-101743750D01*
G75*
G02*
X386325000Y-101793750I0J-50000D01*
G01*
X386325000Y-102993750D01*
G75*
G02*
X386275000Y-103043750I-50000J0D01*
G01*
X385375000Y-103043750D01*
G75*
G02*
X385325000Y-102993750I0J50000D01*
G01*
G37*
G36*
G01*
X382025000Y-102993750D02*
X382025000Y-101793750D01*
G75*
G02*
X382075000Y-101743750I50000J0D01*
G01*
X382975000Y-101743750D01*
G75*
G02*
X383025000Y-101793750I0J-50000D01*
G01*
X383025000Y-102993750D01*
G75*
G02*
X382975000Y-103043750I-50000J0D01*
G01*
X382075000Y-103043750D01*
G75*
G02*
X382025000Y-102993750I0J50000D01*
G01*
G37*
%TD*%
%TO.C,D89*%
G36*
G01*
X385325000Y-83943750D02*
X385325000Y-82743750D01*
G75*
G02*
X385375000Y-82693750I50000J0D01*
G01*
X386275000Y-82693750D01*
G75*
G02*
X386325000Y-82743750I0J-50000D01*
G01*
X386325000Y-83943750D01*
G75*
G02*
X386275000Y-83993750I-50000J0D01*
G01*
X385375000Y-83993750D01*
G75*
G02*
X385325000Y-83943750I0J50000D01*
G01*
G37*
G36*
G01*
X382025000Y-83943750D02*
X382025000Y-82743750D01*
G75*
G02*
X382075000Y-82693750I50000J0D01*
G01*
X382975000Y-82693750D01*
G75*
G02*
X383025000Y-82743750I0J-50000D01*
G01*
X383025000Y-83943750D01*
G75*
G02*
X382975000Y-83993750I-50000J0D01*
G01*
X382075000Y-83993750D01*
G75*
G02*
X382025000Y-83943750I0J50000D01*
G01*
G37*
%TD*%
%TO.C,D88*%
G36*
G01*
X385325000Y-64893750D02*
X385325000Y-63693750D01*
G75*
G02*
X385375000Y-63643750I50000J0D01*
G01*
X386275000Y-63643750D01*
G75*
G02*
X386325000Y-63693750I0J-50000D01*
G01*
X386325000Y-64893750D01*
G75*
G02*
X386275000Y-64943750I-50000J0D01*
G01*
X385375000Y-64943750D01*
G75*
G02*
X385325000Y-64893750I0J50000D01*
G01*
G37*
G36*
G01*
X382025000Y-64893750D02*
X382025000Y-63693750D01*
G75*
G02*
X382075000Y-63643750I50000J0D01*
G01*
X382975000Y-63643750D01*
G75*
G02*
X383025000Y-63693750I0J-50000D01*
G01*
X383025000Y-64893750D01*
G75*
G02*
X382975000Y-64943750I-50000J0D01*
G01*
X382075000Y-64943750D01*
G75*
G02*
X382025000Y-64893750I0J50000D01*
G01*
G37*
%TD*%
%TO.C,D87*%
G36*
G01*
X385325000Y-37906250D02*
X385325000Y-36706250D01*
G75*
G02*
X385375000Y-36656250I50000J0D01*
G01*
X386275000Y-36656250D01*
G75*
G02*
X386325000Y-36706250I0J-50000D01*
G01*
X386325000Y-37906250D01*
G75*
G02*
X386275000Y-37956250I-50000J0D01*
G01*
X385375000Y-37956250D01*
G75*
G02*
X385325000Y-37906250I0J50000D01*
G01*
G37*
G36*
G01*
X382025000Y-37906250D02*
X382025000Y-36706250D01*
G75*
G02*
X382075000Y-36656250I50000J0D01*
G01*
X382975000Y-36656250D01*
G75*
G02*
X383025000Y-36706250I0J-50000D01*
G01*
X383025000Y-37906250D01*
G75*
G02*
X382975000Y-37956250I-50000J0D01*
G01*
X382075000Y-37956250D01*
G75*
G02*
X382025000Y-37906250I0J50000D01*
G01*
G37*
%TD*%
%TO.C,D86*%
G36*
G01*
X366275000Y-141093750D02*
X366275000Y-139893750D01*
G75*
G02*
X366325000Y-139843750I50000J0D01*
G01*
X367225000Y-139843750D01*
G75*
G02*
X367275000Y-139893750I0J-50000D01*
G01*
X367275000Y-141093750D01*
G75*
G02*
X367225000Y-141143750I-50000J0D01*
G01*
X366325000Y-141143750D01*
G75*
G02*
X366275000Y-141093750I0J50000D01*
G01*
G37*
G36*
G01*
X362975000Y-141093750D02*
X362975000Y-139893750D01*
G75*
G02*
X363025000Y-139843750I50000J0D01*
G01*
X363925000Y-139843750D01*
G75*
G02*
X363975000Y-139893750I0J-50000D01*
G01*
X363975000Y-141093750D01*
G75*
G02*
X363925000Y-141143750I-50000J0D01*
G01*
X363025000Y-141143750D01*
G75*
G02*
X362975000Y-141093750I0J50000D01*
G01*
G37*
%TD*%
%TO.C,D85*%
G36*
G01*
X366275000Y-122043750D02*
X366275000Y-120843750D01*
G75*
G02*
X366325000Y-120793750I50000J0D01*
G01*
X367225000Y-120793750D01*
G75*
G02*
X367275000Y-120843750I0J-50000D01*
G01*
X367275000Y-122043750D01*
G75*
G02*
X367225000Y-122093750I-50000J0D01*
G01*
X366325000Y-122093750D01*
G75*
G02*
X366275000Y-122043750I0J50000D01*
G01*
G37*
G36*
G01*
X362975000Y-122043750D02*
X362975000Y-120843750D01*
G75*
G02*
X363025000Y-120793750I50000J0D01*
G01*
X363925000Y-120793750D01*
G75*
G02*
X363975000Y-120843750I0J-50000D01*
G01*
X363975000Y-122043750D01*
G75*
G02*
X363925000Y-122093750I-50000J0D01*
G01*
X363025000Y-122093750D01*
G75*
G02*
X362975000Y-122043750I0J50000D01*
G01*
G37*
%TD*%
%TO.C,D84*%
G36*
G01*
X366275000Y-102993750D02*
X366275000Y-101793750D01*
G75*
G02*
X366325000Y-101743750I50000J0D01*
G01*
X367225000Y-101743750D01*
G75*
G02*
X367275000Y-101793750I0J-50000D01*
G01*
X367275000Y-102993750D01*
G75*
G02*
X367225000Y-103043750I-50000J0D01*
G01*
X366325000Y-103043750D01*
G75*
G02*
X366275000Y-102993750I0J50000D01*
G01*
G37*
G36*
G01*
X362975000Y-102993750D02*
X362975000Y-101793750D01*
G75*
G02*
X363025000Y-101743750I50000J0D01*
G01*
X363925000Y-101743750D01*
G75*
G02*
X363975000Y-101793750I0J-50000D01*
G01*
X363975000Y-102993750D01*
G75*
G02*
X363925000Y-103043750I-50000J0D01*
G01*
X363025000Y-103043750D01*
G75*
G02*
X362975000Y-102993750I0J50000D01*
G01*
G37*
%TD*%
%TO.C,D83*%
G36*
G01*
X366275000Y-83943750D02*
X366275000Y-82743750D01*
G75*
G02*
X366325000Y-82693750I50000J0D01*
G01*
X367225000Y-82693750D01*
G75*
G02*
X367275000Y-82743750I0J-50000D01*
G01*
X367275000Y-83943750D01*
G75*
G02*
X367225000Y-83993750I-50000J0D01*
G01*
X366325000Y-83993750D01*
G75*
G02*
X366275000Y-83943750I0J50000D01*
G01*
G37*
G36*
G01*
X362975000Y-83943750D02*
X362975000Y-82743750D01*
G75*
G02*
X363025000Y-82693750I50000J0D01*
G01*
X363925000Y-82693750D01*
G75*
G02*
X363975000Y-82743750I0J-50000D01*
G01*
X363975000Y-83943750D01*
G75*
G02*
X363925000Y-83993750I-50000J0D01*
G01*
X363025000Y-83993750D01*
G75*
G02*
X362975000Y-83943750I0J50000D01*
G01*
G37*
%TD*%
%TO.C,D82*%
G36*
G01*
X366275000Y-64893750D02*
X366275000Y-63693750D01*
G75*
G02*
X366325000Y-63643750I50000J0D01*
G01*
X367225000Y-63643750D01*
G75*
G02*
X367275000Y-63693750I0J-50000D01*
G01*
X367275000Y-64893750D01*
G75*
G02*
X367225000Y-64943750I-50000J0D01*
G01*
X366325000Y-64943750D01*
G75*
G02*
X366275000Y-64893750I0J50000D01*
G01*
G37*
G36*
G01*
X362975000Y-64893750D02*
X362975000Y-63693750D01*
G75*
G02*
X363025000Y-63643750I50000J0D01*
G01*
X363925000Y-63643750D01*
G75*
G02*
X363975000Y-63693750I0J-50000D01*
G01*
X363975000Y-64893750D01*
G75*
G02*
X363925000Y-64943750I-50000J0D01*
G01*
X363025000Y-64943750D01*
G75*
G02*
X362975000Y-64893750I0J50000D01*
G01*
G37*
%TD*%
%TO.C,D81*%
G36*
G01*
X366275000Y-37906250D02*
X366275000Y-36706250D01*
G75*
G02*
X366325000Y-36656250I50000J0D01*
G01*
X367225000Y-36656250D01*
G75*
G02*
X367275000Y-36706250I0J-50000D01*
G01*
X367275000Y-37906250D01*
G75*
G02*
X367225000Y-37956250I-50000J0D01*
G01*
X366325000Y-37956250D01*
G75*
G02*
X366275000Y-37906250I0J50000D01*
G01*
G37*
G36*
G01*
X362975000Y-37906250D02*
X362975000Y-36706250D01*
G75*
G02*
X363025000Y-36656250I50000J0D01*
G01*
X363925000Y-36656250D01*
G75*
G02*
X363975000Y-36706250I0J-50000D01*
G01*
X363975000Y-37906250D01*
G75*
G02*
X363925000Y-37956250I-50000J0D01*
G01*
X363025000Y-37956250D01*
G75*
G02*
X362975000Y-37906250I0J50000D01*
G01*
G37*
%TD*%
%TO.C,D80*%
G36*
G01*
X347225000Y-141093750D02*
X347225000Y-139893750D01*
G75*
G02*
X347275000Y-139843750I50000J0D01*
G01*
X348175000Y-139843750D01*
G75*
G02*
X348225000Y-139893750I0J-50000D01*
G01*
X348225000Y-141093750D01*
G75*
G02*
X348175000Y-141143750I-50000J0D01*
G01*
X347275000Y-141143750D01*
G75*
G02*
X347225000Y-141093750I0J50000D01*
G01*
G37*
G36*
G01*
X343925000Y-141093750D02*
X343925000Y-139893750D01*
G75*
G02*
X343975000Y-139843750I50000J0D01*
G01*
X344875000Y-139843750D01*
G75*
G02*
X344925000Y-139893750I0J-50000D01*
G01*
X344925000Y-141093750D01*
G75*
G02*
X344875000Y-141143750I-50000J0D01*
G01*
X343975000Y-141143750D01*
G75*
G02*
X343925000Y-141093750I0J50000D01*
G01*
G37*
%TD*%
%TO.C,D79*%
G36*
G01*
X347225000Y-122043750D02*
X347225000Y-120843750D01*
G75*
G02*
X347275000Y-120793750I50000J0D01*
G01*
X348175000Y-120793750D01*
G75*
G02*
X348225000Y-120843750I0J-50000D01*
G01*
X348225000Y-122043750D01*
G75*
G02*
X348175000Y-122093750I-50000J0D01*
G01*
X347275000Y-122093750D01*
G75*
G02*
X347225000Y-122043750I0J50000D01*
G01*
G37*
G36*
G01*
X343925000Y-122043750D02*
X343925000Y-120843750D01*
G75*
G02*
X343975000Y-120793750I50000J0D01*
G01*
X344875000Y-120793750D01*
G75*
G02*
X344925000Y-120843750I0J-50000D01*
G01*
X344925000Y-122043750D01*
G75*
G02*
X344875000Y-122093750I-50000J0D01*
G01*
X343975000Y-122093750D01*
G75*
G02*
X343925000Y-122043750I0J50000D01*
G01*
G37*
%TD*%
%TO.C,D78*%
G36*
G01*
X347225000Y-102993750D02*
X347225000Y-101793750D01*
G75*
G02*
X347275000Y-101743750I50000J0D01*
G01*
X348175000Y-101743750D01*
G75*
G02*
X348225000Y-101793750I0J-50000D01*
G01*
X348225000Y-102993750D01*
G75*
G02*
X348175000Y-103043750I-50000J0D01*
G01*
X347275000Y-103043750D01*
G75*
G02*
X347225000Y-102993750I0J50000D01*
G01*
G37*
G36*
G01*
X343925000Y-102993750D02*
X343925000Y-101793750D01*
G75*
G02*
X343975000Y-101743750I50000J0D01*
G01*
X344875000Y-101743750D01*
G75*
G02*
X344925000Y-101793750I0J-50000D01*
G01*
X344925000Y-102993750D01*
G75*
G02*
X344875000Y-103043750I-50000J0D01*
G01*
X343975000Y-103043750D01*
G75*
G02*
X343925000Y-102993750I0J50000D01*
G01*
G37*
%TD*%
%TO.C,D77*%
G36*
G01*
X347225000Y-83943750D02*
X347225000Y-82743750D01*
G75*
G02*
X347275000Y-82693750I50000J0D01*
G01*
X348175000Y-82693750D01*
G75*
G02*
X348225000Y-82743750I0J-50000D01*
G01*
X348225000Y-83943750D01*
G75*
G02*
X348175000Y-83993750I-50000J0D01*
G01*
X347275000Y-83993750D01*
G75*
G02*
X347225000Y-83943750I0J50000D01*
G01*
G37*
G36*
G01*
X343925000Y-83943750D02*
X343925000Y-82743750D01*
G75*
G02*
X343975000Y-82693750I50000J0D01*
G01*
X344875000Y-82693750D01*
G75*
G02*
X344925000Y-82743750I0J-50000D01*
G01*
X344925000Y-83943750D01*
G75*
G02*
X344875000Y-83993750I-50000J0D01*
G01*
X343975000Y-83993750D01*
G75*
G02*
X343925000Y-83943750I0J50000D01*
G01*
G37*
%TD*%
%TO.C,D76*%
G36*
G01*
X347225000Y-64893750D02*
X347225000Y-63693750D01*
G75*
G02*
X347275000Y-63643750I50000J0D01*
G01*
X348175000Y-63643750D01*
G75*
G02*
X348225000Y-63693750I0J-50000D01*
G01*
X348225000Y-64893750D01*
G75*
G02*
X348175000Y-64943750I-50000J0D01*
G01*
X347275000Y-64943750D01*
G75*
G02*
X347225000Y-64893750I0J50000D01*
G01*
G37*
G36*
G01*
X343925000Y-64893750D02*
X343925000Y-63693750D01*
G75*
G02*
X343975000Y-63643750I50000J0D01*
G01*
X344875000Y-63643750D01*
G75*
G02*
X344925000Y-63693750I0J-50000D01*
G01*
X344925000Y-64893750D01*
G75*
G02*
X344875000Y-64943750I-50000J0D01*
G01*
X343975000Y-64943750D01*
G75*
G02*
X343925000Y-64893750I0J50000D01*
G01*
G37*
%TD*%
%TO.C,D75*%
G36*
G01*
X347225000Y-37906250D02*
X347225000Y-36706250D01*
G75*
G02*
X347275000Y-36656250I50000J0D01*
G01*
X348175000Y-36656250D01*
G75*
G02*
X348225000Y-36706250I0J-50000D01*
G01*
X348225000Y-37906250D01*
G75*
G02*
X348175000Y-37956250I-50000J0D01*
G01*
X347275000Y-37956250D01*
G75*
G02*
X347225000Y-37906250I0J50000D01*
G01*
G37*
G36*
G01*
X343925000Y-37906250D02*
X343925000Y-36706250D01*
G75*
G02*
X343975000Y-36656250I50000J0D01*
G01*
X344875000Y-36656250D01*
G75*
G02*
X344925000Y-36706250I0J-50000D01*
G01*
X344925000Y-37906250D01*
G75*
G02*
X344875000Y-37956250I-50000J0D01*
G01*
X343975000Y-37956250D01*
G75*
G02*
X343925000Y-37906250I0J50000D01*
G01*
G37*
%TD*%
%TO.C,D73*%
G36*
G01*
X310712500Y-64893750D02*
X310712500Y-63693750D01*
G75*
G02*
X310762500Y-63643750I50000J0D01*
G01*
X311662500Y-63643750D01*
G75*
G02*
X311712500Y-63693750I0J-50000D01*
G01*
X311712500Y-64893750D01*
G75*
G02*
X311662500Y-64943750I-50000J0D01*
G01*
X310762500Y-64943750D01*
G75*
G02*
X310712500Y-64893750I0J50000D01*
G01*
G37*
G36*
G01*
X307412500Y-64893750D02*
X307412500Y-63693750D01*
G75*
G02*
X307462500Y-63643750I50000J0D01*
G01*
X308362500Y-63643750D01*
G75*
G02*
X308412500Y-63693750I0J-50000D01*
G01*
X308412500Y-64893750D01*
G75*
G02*
X308362500Y-64943750I-50000J0D01*
G01*
X307462500Y-64943750D01*
G75*
G02*
X307412500Y-64893750I0J50000D01*
G01*
G37*
%TD*%
%TO.C,D74*%
G36*
G01*
X320237500Y-37906250D02*
X320237500Y-36706250D01*
G75*
G02*
X320287500Y-36656250I50000J0D01*
G01*
X321187500Y-36656250D01*
G75*
G02*
X321237500Y-36706250I0J-50000D01*
G01*
X321237500Y-37906250D01*
G75*
G02*
X321187500Y-37956250I-50000J0D01*
G01*
X320287500Y-37956250D01*
G75*
G02*
X320237500Y-37906250I0J50000D01*
G01*
G37*
G36*
G01*
X316937500Y-37906250D02*
X316937500Y-36706250D01*
G75*
G02*
X316987500Y-36656250I50000J0D01*
G01*
X317887500Y-36656250D01*
G75*
G02*
X317937500Y-36706250I0J-50000D01*
G01*
X317937500Y-37906250D01*
G75*
G02*
X317887500Y-37956250I-50000J0D01*
G01*
X316987500Y-37956250D01*
G75*
G02*
X316937500Y-37906250I0J50000D01*
G01*
G37*
%TD*%
%TO.C,D72*%
G36*
G01*
X315475000Y-83943750D02*
X315475000Y-82743750D01*
G75*
G02*
X315525000Y-82693750I50000J0D01*
G01*
X316425000Y-82693750D01*
G75*
G02*
X316475000Y-82743750I0J-50000D01*
G01*
X316475000Y-83943750D01*
G75*
G02*
X316425000Y-83993750I-50000J0D01*
G01*
X315525000Y-83993750D01*
G75*
G02*
X315475000Y-83943750I0J50000D01*
G01*
G37*
G36*
G01*
X312175000Y-83943750D02*
X312175000Y-82743750D01*
G75*
G02*
X312225000Y-82693750I50000J0D01*
G01*
X313125000Y-82693750D01*
G75*
G02*
X313175000Y-82743750I0J-50000D01*
G01*
X313175000Y-83943750D01*
G75*
G02*
X313125000Y-83993750I-50000J0D01*
G01*
X312225000Y-83993750D01*
G75*
G02*
X312175000Y-83943750I0J50000D01*
G01*
G37*
%TD*%
%TO.C,D71*%
G36*
G01*
X308331250Y-102993750D02*
X308331250Y-101793750D01*
G75*
G02*
X308381250Y-101743750I50000J0D01*
G01*
X309281250Y-101743750D01*
G75*
G02*
X309331250Y-101793750I0J-50000D01*
G01*
X309331250Y-102993750D01*
G75*
G02*
X309281250Y-103043750I-50000J0D01*
G01*
X308381250Y-103043750D01*
G75*
G02*
X308331250Y-102993750I0J50000D01*
G01*
G37*
G36*
G01*
X305031250Y-102993750D02*
X305031250Y-101793750D01*
G75*
G02*
X305081250Y-101743750I50000J0D01*
G01*
X305981250Y-101743750D01*
G75*
G02*
X306031250Y-101793750I0J-50000D01*
G01*
X306031250Y-102993750D01*
G75*
G02*
X305981250Y-103043750I-50000J0D01*
G01*
X305081250Y-103043750D01*
G75*
G02*
X305031250Y-102993750I0J50000D01*
G01*
G37*
%TD*%
%TO.C,D70*%
G36*
G01*
X317856250Y-141093750D02*
X317856250Y-139893750D01*
G75*
G02*
X317906250Y-139843750I50000J0D01*
G01*
X318806250Y-139843750D01*
G75*
G02*
X318856250Y-139893750I0J-50000D01*
G01*
X318856250Y-141093750D01*
G75*
G02*
X318806250Y-141143750I-50000J0D01*
G01*
X317906250Y-141143750D01*
G75*
G02*
X317856250Y-141093750I0J50000D01*
G01*
G37*
G36*
G01*
X314556250Y-141093750D02*
X314556250Y-139893750D01*
G75*
G02*
X314606250Y-139843750I50000J0D01*
G01*
X315506250Y-139843750D01*
G75*
G02*
X315556250Y-139893750I0J-50000D01*
G01*
X315556250Y-141093750D01*
G75*
G02*
X315506250Y-141143750I-50000J0D01*
G01*
X314606250Y-141143750D01*
G75*
G02*
X314556250Y-141093750I0J50000D01*
G01*
G37*
%TD*%
%TO.C,D69*%
G36*
G01*
X303568750Y-122043750D02*
X303568750Y-120843750D01*
G75*
G02*
X303618750Y-120793750I50000J0D01*
G01*
X304518750Y-120793750D01*
G75*
G02*
X304568750Y-120843750I0J-50000D01*
G01*
X304568750Y-122043750D01*
G75*
G02*
X304518750Y-122093750I-50000J0D01*
G01*
X303618750Y-122093750D01*
G75*
G02*
X303568750Y-122043750I0J50000D01*
G01*
G37*
G36*
G01*
X300268750Y-122043750D02*
X300268750Y-120843750D01*
G75*
G02*
X300318750Y-120793750I50000J0D01*
G01*
X301218750Y-120793750D01*
G75*
G02*
X301268750Y-120843750I0J-50000D01*
G01*
X301268750Y-122043750D01*
G75*
G02*
X301218750Y-122093750I-50000J0D01*
G01*
X300318750Y-122093750D01*
G75*
G02*
X300268750Y-122043750I0J50000D01*
G01*
G37*
%TD*%
%TO.C,D67*%
G36*
G01*
X282137500Y-64893750D02*
X282137500Y-63693750D01*
G75*
G02*
X282187500Y-63643750I50000J0D01*
G01*
X283087500Y-63643750D01*
G75*
G02*
X283137500Y-63693750I0J-50000D01*
G01*
X283137500Y-64893750D01*
G75*
G02*
X283087500Y-64943750I-50000J0D01*
G01*
X282187500Y-64943750D01*
G75*
G02*
X282137500Y-64893750I0J50000D01*
G01*
G37*
G36*
G01*
X278837500Y-64893750D02*
X278837500Y-63693750D01*
G75*
G02*
X278887500Y-63643750I50000J0D01*
G01*
X279787500Y-63643750D01*
G75*
G02*
X279837500Y-63693750I0J-50000D01*
G01*
X279837500Y-64893750D01*
G75*
G02*
X279787500Y-64943750I-50000J0D01*
G01*
X278887500Y-64943750D01*
G75*
G02*
X278837500Y-64893750I0J50000D01*
G01*
G37*
%TD*%
%TO.C,D68*%
G36*
G01*
X301187500Y-37906250D02*
X301187500Y-36706250D01*
G75*
G02*
X301237500Y-36656250I50000J0D01*
G01*
X302137500Y-36656250D01*
G75*
G02*
X302187500Y-36706250I0J-50000D01*
G01*
X302187500Y-37906250D01*
G75*
G02*
X302137500Y-37956250I-50000J0D01*
G01*
X301237500Y-37956250D01*
G75*
G02*
X301187500Y-37906250I0J50000D01*
G01*
G37*
G36*
G01*
X297887500Y-37906250D02*
X297887500Y-36706250D01*
G75*
G02*
X297937500Y-36656250I50000J0D01*
G01*
X298837500Y-36656250D01*
G75*
G02*
X298887500Y-36706250I0J-50000D01*
G01*
X298887500Y-37906250D01*
G75*
G02*
X298837500Y-37956250I-50000J0D01*
G01*
X297937500Y-37956250D01*
G75*
G02*
X297887500Y-37906250I0J50000D01*
G01*
G37*
%TD*%
%TO.C,D65*%
G36*
G01*
X277375000Y-102993750D02*
X277375000Y-101793750D01*
G75*
G02*
X277425000Y-101743750I50000J0D01*
G01*
X278325000Y-101743750D01*
G75*
G02*
X278375000Y-101793750I0J-50000D01*
G01*
X278375000Y-102993750D01*
G75*
G02*
X278325000Y-103043750I-50000J0D01*
G01*
X277425000Y-103043750D01*
G75*
G02*
X277375000Y-102993750I0J50000D01*
G01*
G37*
G36*
G01*
X274075000Y-102993750D02*
X274075000Y-101793750D01*
G75*
G02*
X274125000Y-101743750I50000J0D01*
G01*
X275025000Y-101743750D01*
G75*
G02*
X275075000Y-101793750I0J-50000D01*
G01*
X275075000Y-102993750D01*
G75*
G02*
X275025000Y-103043750I-50000J0D01*
G01*
X274125000Y-103043750D01*
G75*
G02*
X274075000Y-102993750I0J50000D01*
G01*
G37*
%TD*%
%TO.C,D62*%
G36*
G01*
X272612500Y-83943750D02*
X272612500Y-82743750D01*
G75*
G02*
X272662500Y-82693750I50000J0D01*
G01*
X273562500Y-82693750D01*
G75*
G02*
X273612500Y-82743750I0J-50000D01*
G01*
X273612500Y-83943750D01*
G75*
G02*
X273562500Y-83993750I-50000J0D01*
G01*
X272662500Y-83993750D01*
G75*
G02*
X272612500Y-83943750I0J50000D01*
G01*
G37*
G36*
G01*
X269312500Y-83943750D02*
X269312500Y-82743750D01*
G75*
G02*
X269362500Y-82693750I50000J0D01*
G01*
X270262500Y-82693750D01*
G75*
G02*
X270312500Y-82743750I0J-50000D01*
G01*
X270312500Y-83943750D01*
G75*
G02*
X270262500Y-83993750I-50000J0D01*
G01*
X269362500Y-83993750D01*
G75*
G02*
X269312500Y-83943750I0J50000D01*
G01*
G37*
%TD*%
%TO.C,D63*%
G36*
G01*
X294106250Y-141093750D02*
X294106250Y-139893750D01*
G75*
G02*
X294156250Y-139843750I50000J0D01*
G01*
X295056250Y-139843750D01*
G75*
G02*
X295106250Y-139893750I0J-50000D01*
G01*
X295106250Y-141093750D01*
G75*
G02*
X295056250Y-141143750I-50000J0D01*
G01*
X294156250Y-141143750D01*
G75*
G02*
X294106250Y-141093750I0J50000D01*
G01*
G37*
G36*
G01*
X290806250Y-141093750D02*
X290806250Y-139893750D01*
G75*
G02*
X290856250Y-139843750I50000J0D01*
G01*
X291756250Y-139843750D01*
G75*
G02*
X291806250Y-139893750I0J-50000D01*
G01*
X291806250Y-141093750D01*
G75*
G02*
X291756250Y-141143750I-50000J0D01*
G01*
X290856250Y-141143750D01*
G75*
G02*
X290806250Y-141093750I0J50000D01*
G01*
G37*
%TD*%
%TO.C,D61*%
G36*
G01*
X263150000Y-64893750D02*
X263150000Y-63693750D01*
G75*
G02*
X263200000Y-63643750I50000J0D01*
G01*
X264100000Y-63643750D01*
G75*
G02*
X264150000Y-63693750I0J-50000D01*
G01*
X264150000Y-64893750D01*
G75*
G02*
X264100000Y-64943750I-50000J0D01*
G01*
X263200000Y-64943750D01*
G75*
G02*
X263150000Y-64893750I0J50000D01*
G01*
G37*
G36*
G01*
X259850000Y-64893750D02*
X259850000Y-63693750D01*
G75*
G02*
X259900000Y-63643750I50000J0D01*
G01*
X260800000Y-63643750D01*
G75*
G02*
X260850000Y-63693750I0J-50000D01*
G01*
X260850000Y-64893750D01*
G75*
G02*
X260800000Y-64943750I-50000J0D01*
G01*
X259900000Y-64943750D01*
G75*
G02*
X259850000Y-64893750I0J50000D01*
G01*
G37*
%TD*%
%TO.C,D64*%
G36*
G01*
X282137500Y-37906250D02*
X282137500Y-36706250D01*
G75*
G02*
X282187500Y-36656250I50000J0D01*
G01*
X283087500Y-36656250D01*
G75*
G02*
X283137500Y-36706250I0J-50000D01*
G01*
X283137500Y-37906250D01*
G75*
G02*
X283087500Y-37956250I-50000J0D01*
G01*
X282187500Y-37956250D01*
G75*
G02*
X282137500Y-37906250I0J50000D01*
G01*
G37*
G36*
G01*
X278837500Y-37906250D02*
X278837500Y-36706250D01*
G75*
G02*
X278887500Y-36656250I50000J0D01*
G01*
X279787500Y-36656250D01*
G75*
G02*
X279837500Y-36706250I0J-50000D01*
G01*
X279837500Y-37906250D01*
G75*
G02*
X279787500Y-37956250I-50000J0D01*
G01*
X278887500Y-37956250D01*
G75*
G02*
X278837500Y-37906250I0J50000D01*
G01*
G37*
%TD*%
%TO.C,D60*%
G36*
G01*
X267850000Y-122043750D02*
X267850000Y-120843750D01*
G75*
G02*
X267900000Y-120793750I50000J0D01*
G01*
X268800000Y-120793750D01*
G75*
G02*
X268850000Y-120843750I0J-50000D01*
G01*
X268850000Y-122043750D01*
G75*
G02*
X268800000Y-122093750I-50000J0D01*
G01*
X267900000Y-122093750D01*
G75*
G02*
X267850000Y-122043750I0J50000D01*
G01*
G37*
G36*
G01*
X264550000Y-122043750D02*
X264550000Y-120843750D01*
G75*
G02*
X264600000Y-120793750I50000J0D01*
G01*
X265500000Y-120793750D01*
G75*
G02*
X265550000Y-120843750I0J-50000D01*
G01*
X265550000Y-122043750D01*
G75*
G02*
X265500000Y-122093750I-50000J0D01*
G01*
X264600000Y-122093750D01*
G75*
G02*
X264550000Y-122043750I0J50000D01*
G01*
G37*
%TD*%
%TO.C,D59*%
G36*
G01*
X258325000Y-102993750D02*
X258325000Y-101793750D01*
G75*
G02*
X258375000Y-101743750I50000J0D01*
G01*
X259275000Y-101743750D01*
G75*
G02*
X259325000Y-101793750I0J-50000D01*
G01*
X259325000Y-102993750D01*
G75*
G02*
X259275000Y-103043750I-50000J0D01*
G01*
X258375000Y-103043750D01*
G75*
G02*
X258325000Y-102993750I0J50000D01*
G01*
G37*
G36*
G01*
X255025000Y-102993750D02*
X255025000Y-101793750D01*
G75*
G02*
X255075000Y-101743750I50000J0D01*
G01*
X255975000Y-101743750D01*
G75*
G02*
X256025000Y-101793750I0J-50000D01*
G01*
X256025000Y-102993750D01*
G75*
G02*
X255975000Y-103043750I-50000J0D01*
G01*
X255075000Y-103043750D01*
G75*
G02*
X255025000Y-102993750I0J50000D01*
G01*
G37*
%TD*%
%TO.C,D57*%
G36*
G01*
X253562500Y-83943750D02*
X253562500Y-82743750D01*
G75*
G02*
X253612500Y-82693750I50000J0D01*
G01*
X254512500Y-82693750D01*
G75*
G02*
X254562500Y-82743750I0J-50000D01*
G01*
X254562500Y-83943750D01*
G75*
G02*
X254512500Y-83993750I-50000J0D01*
G01*
X253612500Y-83993750D01*
G75*
G02*
X253562500Y-83943750I0J50000D01*
G01*
G37*
G36*
G01*
X250262500Y-83943750D02*
X250262500Y-82743750D01*
G75*
G02*
X250312500Y-82693750I50000J0D01*
G01*
X251212500Y-82693750D01*
G75*
G02*
X251262500Y-82743750I0J-50000D01*
G01*
X251262500Y-83943750D01*
G75*
G02*
X251212500Y-83993750I-50000J0D01*
G01*
X250312500Y-83993750D01*
G75*
G02*
X250262500Y-83943750I0J50000D01*
G01*
G37*
%TD*%
%TO.C,D56*%
G36*
G01*
X244037500Y-64893750D02*
X244037500Y-63693750D01*
G75*
G02*
X244087500Y-63643750I50000J0D01*
G01*
X244987500Y-63643750D01*
G75*
G02*
X245037500Y-63693750I0J-50000D01*
G01*
X245037500Y-64893750D01*
G75*
G02*
X244987500Y-64943750I-50000J0D01*
G01*
X244087500Y-64943750D01*
G75*
G02*
X244037500Y-64893750I0J50000D01*
G01*
G37*
G36*
G01*
X240737500Y-64893750D02*
X240737500Y-63693750D01*
G75*
G02*
X240787500Y-63643750I50000J0D01*
G01*
X241687500Y-63643750D01*
G75*
G02*
X241737500Y-63693750I0J-50000D01*
G01*
X241737500Y-64893750D01*
G75*
G02*
X241687500Y-64943750I-50000J0D01*
G01*
X240787500Y-64943750D01*
G75*
G02*
X240737500Y-64893750I0J50000D01*
G01*
G37*
%TD*%
%TO.C,D58*%
G36*
G01*
X263087500Y-37906250D02*
X263087500Y-36706250D01*
G75*
G02*
X263137500Y-36656250I50000J0D01*
G01*
X264037500Y-36656250D01*
G75*
G02*
X264087500Y-36706250I0J-50000D01*
G01*
X264087500Y-37906250D01*
G75*
G02*
X264037500Y-37956250I-50000J0D01*
G01*
X263137500Y-37956250D01*
G75*
G02*
X263087500Y-37906250I0J50000D01*
G01*
G37*
G36*
G01*
X259787500Y-37906250D02*
X259787500Y-36706250D01*
G75*
G02*
X259837500Y-36656250I50000J0D01*
G01*
X260737500Y-36656250D01*
G75*
G02*
X260787500Y-36706250I0J-50000D01*
G01*
X260787500Y-37906250D01*
G75*
G02*
X260737500Y-37956250I-50000J0D01*
G01*
X259837500Y-37956250D01*
G75*
G02*
X259787500Y-37906250I0J50000D01*
G01*
G37*
%TD*%
%TO.C,D55*%
G36*
G01*
X248800000Y-122043750D02*
X248800000Y-120843750D01*
G75*
G02*
X248850000Y-120793750I50000J0D01*
G01*
X249750000Y-120793750D01*
G75*
G02*
X249800000Y-120843750I0J-50000D01*
G01*
X249800000Y-122043750D01*
G75*
G02*
X249750000Y-122093750I-50000J0D01*
G01*
X248850000Y-122093750D01*
G75*
G02*
X248800000Y-122043750I0J50000D01*
G01*
G37*
G36*
G01*
X245500000Y-122043750D02*
X245500000Y-120843750D01*
G75*
G02*
X245550000Y-120793750I50000J0D01*
G01*
X246450000Y-120793750D01*
G75*
G02*
X246500000Y-120843750I0J-50000D01*
G01*
X246500000Y-122043750D01*
G75*
G02*
X246450000Y-122093750I-50000J0D01*
G01*
X245550000Y-122093750D01*
G75*
G02*
X245500000Y-122043750I0J50000D01*
G01*
G37*
%TD*%
%TO.C,D54*%
G36*
G01*
X270231250Y-141093750D02*
X270231250Y-139893750D01*
G75*
G02*
X270281250Y-139843750I50000J0D01*
G01*
X271181250Y-139843750D01*
G75*
G02*
X271231250Y-139893750I0J-50000D01*
G01*
X271231250Y-141093750D01*
G75*
G02*
X271181250Y-141143750I-50000J0D01*
G01*
X270281250Y-141143750D01*
G75*
G02*
X270231250Y-141093750I0J50000D01*
G01*
G37*
G36*
G01*
X266931250Y-141093750D02*
X266931250Y-139893750D01*
G75*
G02*
X266981250Y-139843750I50000J0D01*
G01*
X267881250Y-139843750D01*
G75*
G02*
X267931250Y-139893750I0J-50000D01*
G01*
X267931250Y-141093750D01*
G75*
G02*
X267881250Y-141143750I-50000J0D01*
G01*
X266981250Y-141143750D01*
G75*
G02*
X266931250Y-141093750I0J50000D01*
G01*
G37*
%TD*%
%TO.C,D53*%
G36*
G01*
X239275000Y-102993750D02*
X239275000Y-101793750D01*
G75*
G02*
X239325000Y-101743750I50000J0D01*
G01*
X240225000Y-101743750D01*
G75*
G02*
X240275000Y-101793750I0J-50000D01*
G01*
X240275000Y-102993750D01*
G75*
G02*
X240225000Y-103043750I-50000J0D01*
G01*
X239325000Y-103043750D01*
G75*
G02*
X239275000Y-102993750I0J50000D01*
G01*
G37*
G36*
G01*
X235975000Y-102993750D02*
X235975000Y-101793750D01*
G75*
G02*
X236025000Y-101743750I50000J0D01*
G01*
X236925000Y-101743750D01*
G75*
G02*
X236975000Y-101793750I0J-50000D01*
G01*
X236975000Y-102993750D01*
G75*
G02*
X236925000Y-103043750I-50000J0D01*
G01*
X236025000Y-103043750D01*
G75*
G02*
X235975000Y-102993750I0J50000D01*
G01*
G37*
%TD*%
%TO.C,D52*%
G36*
G01*
X234512500Y-83943750D02*
X234512500Y-82743750D01*
G75*
G02*
X234562500Y-82693750I50000J0D01*
G01*
X235462500Y-82693750D01*
G75*
G02*
X235512500Y-82743750I0J-50000D01*
G01*
X235512500Y-83943750D01*
G75*
G02*
X235462500Y-83993750I-50000J0D01*
G01*
X234562500Y-83993750D01*
G75*
G02*
X234512500Y-83943750I0J50000D01*
G01*
G37*
G36*
G01*
X231212500Y-83943750D02*
X231212500Y-82743750D01*
G75*
G02*
X231262500Y-82693750I50000J0D01*
G01*
X232162500Y-82693750D01*
G75*
G02*
X232212500Y-82743750I0J-50000D01*
G01*
X232212500Y-83943750D01*
G75*
G02*
X232162500Y-83993750I-50000J0D01*
G01*
X231262500Y-83993750D01*
G75*
G02*
X231212500Y-83943750I0J50000D01*
G01*
G37*
%TD*%
%TO.C,D51*%
G36*
G01*
X225050000Y-64893750D02*
X225050000Y-63693750D01*
G75*
G02*
X225100000Y-63643750I50000J0D01*
G01*
X226000000Y-63643750D01*
G75*
G02*
X226050000Y-63693750I0J-50000D01*
G01*
X226050000Y-64893750D01*
G75*
G02*
X226000000Y-64943750I-50000J0D01*
G01*
X225100000Y-64943750D01*
G75*
G02*
X225050000Y-64893750I0J50000D01*
G01*
G37*
G36*
G01*
X221750000Y-64893750D02*
X221750000Y-63693750D01*
G75*
G02*
X221800000Y-63643750I50000J0D01*
G01*
X222700000Y-63643750D01*
G75*
G02*
X222750000Y-63693750I0J-50000D01*
G01*
X222750000Y-64893750D01*
G75*
G02*
X222700000Y-64943750I-50000J0D01*
G01*
X221800000Y-64943750D01*
G75*
G02*
X221750000Y-64893750I0J50000D01*
G01*
G37*
%TD*%
%TO.C,D50*%
G36*
G01*
X229750000Y-122043750D02*
X229750000Y-120843750D01*
G75*
G02*
X229800000Y-120793750I50000J0D01*
G01*
X230700000Y-120793750D01*
G75*
G02*
X230750000Y-120843750I0J-50000D01*
G01*
X230750000Y-122043750D01*
G75*
G02*
X230700000Y-122093750I-50000J0D01*
G01*
X229800000Y-122093750D01*
G75*
G02*
X229750000Y-122043750I0J50000D01*
G01*
G37*
G36*
G01*
X226450000Y-122043750D02*
X226450000Y-120843750D01*
G75*
G02*
X226500000Y-120793750I50000J0D01*
G01*
X227400000Y-120793750D01*
G75*
G02*
X227450000Y-120843750I0J-50000D01*
G01*
X227450000Y-122043750D01*
G75*
G02*
X227400000Y-122093750I-50000J0D01*
G01*
X226500000Y-122093750D01*
G75*
G02*
X226450000Y-122043750I0J50000D01*
G01*
G37*
%TD*%
%TO.C,D49*%
G36*
G01*
X232131250Y-37906250D02*
X232131250Y-36706250D01*
G75*
G02*
X232181250Y-36656250I50000J0D01*
G01*
X233081250Y-36656250D01*
G75*
G02*
X233131250Y-36706250I0J-50000D01*
G01*
X233131250Y-37906250D01*
G75*
G02*
X233081250Y-37956250I-50000J0D01*
G01*
X232181250Y-37956250D01*
G75*
G02*
X232131250Y-37906250I0J50000D01*
G01*
G37*
G36*
G01*
X228831250Y-37906250D02*
X228831250Y-36706250D01*
G75*
G02*
X228881250Y-36656250I50000J0D01*
G01*
X229781250Y-36656250D01*
G75*
G02*
X229831250Y-36706250I0J-50000D01*
G01*
X229831250Y-37906250D01*
G75*
G02*
X229781250Y-37956250I-50000J0D01*
G01*
X228881250Y-37956250D01*
G75*
G02*
X228831250Y-37906250I0J50000D01*
G01*
G37*
%TD*%
%TO.C,D48*%
G36*
G01*
X246418750Y-141093750D02*
X246418750Y-139893750D01*
G75*
G02*
X246468750Y-139843750I50000J0D01*
G01*
X247368750Y-139843750D01*
G75*
G02*
X247418750Y-139893750I0J-50000D01*
G01*
X247418750Y-141093750D01*
G75*
G02*
X247368750Y-141143750I-50000J0D01*
G01*
X246468750Y-141143750D01*
G75*
G02*
X246418750Y-141093750I0J50000D01*
G01*
G37*
G36*
G01*
X243118750Y-141093750D02*
X243118750Y-139893750D01*
G75*
G02*
X243168750Y-139843750I50000J0D01*
G01*
X244068750Y-139843750D01*
G75*
G02*
X244118750Y-139893750I0J-50000D01*
G01*
X244118750Y-141093750D01*
G75*
G02*
X244068750Y-141143750I-50000J0D01*
G01*
X243168750Y-141143750D01*
G75*
G02*
X243118750Y-141093750I0J50000D01*
G01*
G37*
%TD*%
%TO.C,D47*%
G36*
G01*
X220225000Y-102993750D02*
X220225000Y-101793750D01*
G75*
G02*
X220275000Y-101743750I50000J0D01*
G01*
X221175000Y-101743750D01*
G75*
G02*
X221225000Y-101793750I0J-50000D01*
G01*
X221225000Y-102993750D01*
G75*
G02*
X221175000Y-103043750I-50000J0D01*
G01*
X220275000Y-103043750D01*
G75*
G02*
X220225000Y-102993750I0J50000D01*
G01*
G37*
G36*
G01*
X216925000Y-102993750D02*
X216925000Y-101793750D01*
G75*
G02*
X216975000Y-101743750I50000J0D01*
G01*
X217875000Y-101743750D01*
G75*
G02*
X217925000Y-101793750I0J-50000D01*
G01*
X217925000Y-102993750D01*
G75*
G02*
X217875000Y-103043750I-50000J0D01*
G01*
X216975000Y-103043750D01*
G75*
G02*
X216925000Y-102993750I0J50000D01*
G01*
G37*
%TD*%
%TO.C,D46*%
G36*
G01*
X215462500Y-83943750D02*
X215462500Y-82743750D01*
G75*
G02*
X215512500Y-82693750I50000J0D01*
G01*
X216412500Y-82693750D01*
G75*
G02*
X216462500Y-82743750I0J-50000D01*
G01*
X216462500Y-83943750D01*
G75*
G02*
X216412500Y-83993750I-50000J0D01*
G01*
X215512500Y-83993750D01*
G75*
G02*
X215462500Y-83943750I0J50000D01*
G01*
G37*
G36*
G01*
X212162500Y-83943750D02*
X212162500Y-82743750D01*
G75*
G02*
X212212500Y-82693750I50000J0D01*
G01*
X213112500Y-82693750D01*
G75*
G02*
X213162500Y-82743750I0J-50000D01*
G01*
X213162500Y-83943750D01*
G75*
G02*
X213112500Y-83993750I-50000J0D01*
G01*
X212212500Y-83993750D01*
G75*
G02*
X212162500Y-83943750I0J50000D01*
G01*
G37*
%TD*%
%TO.C,D45*%
G36*
G01*
X205937500Y-64893750D02*
X205937500Y-63693750D01*
G75*
G02*
X205987500Y-63643750I50000J0D01*
G01*
X206887500Y-63643750D01*
G75*
G02*
X206937500Y-63693750I0J-50000D01*
G01*
X206937500Y-64893750D01*
G75*
G02*
X206887500Y-64943750I-50000J0D01*
G01*
X205987500Y-64943750D01*
G75*
G02*
X205937500Y-64893750I0J50000D01*
G01*
G37*
G36*
G01*
X202637500Y-64893750D02*
X202637500Y-63693750D01*
G75*
G02*
X202687500Y-63643750I50000J0D01*
G01*
X203587500Y-63643750D01*
G75*
G02*
X203637500Y-63693750I0J-50000D01*
G01*
X203637500Y-64893750D01*
G75*
G02*
X203587500Y-64943750I-50000J0D01*
G01*
X202687500Y-64943750D01*
G75*
G02*
X202637500Y-64893750I0J50000D01*
G01*
G37*
%TD*%
%TO.C,D44*%
G36*
G01*
X210762500Y-122043750D02*
X210762500Y-120843750D01*
G75*
G02*
X210812500Y-120793750I50000J0D01*
G01*
X211712500Y-120793750D01*
G75*
G02*
X211762500Y-120843750I0J-50000D01*
G01*
X211762500Y-122043750D01*
G75*
G02*
X211712500Y-122093750I-50000J0D01*
G01*
X210812500Y-122093750D01*
G75*
G02*
X210762500Y-122043750I0J50000D01*
G01*
G37*
G36*
G01*
X207462500Y-122043750D02*
X207462500Y-120843750D01*
G75*
G02*
X207512500Y-120793750I50000J0D01*
G01*
X208412500Y-120793750D01*
G75*
G02*
X208462500Y-120843750I0J-50000D01*
G01*
X208462500Y-122043750D01*
G75*
G02*
X208412500Y-122093750I-50000J0D01*
G01*
X207512500Y-122093750D01*
G75*
G02*
X207462500Y-122043750I0J50000D01*
G01*
G37*
%TD*%
%TO.C,D43*%
G36*
G01*
X213143750Y-37906250D02*
X213143750Y-36706250D01*
G75*
G02*
X213193750Y-36656250I50000J0D01*
G01*
X214093750Y-36656250D01*
G75*
G02*
X214143750Y-36706250I0J-50000D01*
G01*
X214143750Y-37906250D01*
G75*
G02*
X214093750Y-37956250I-50000J0D01*
G01*
X213193750Y-37956250D01*
G75*
G02*
X213143750Y-37906250I0J50000D01*
G01*
G37*
G36*
G01*
X209843750Y-37906250D02*
X209843750Y-36706250D01*
G75*
G02*
X209893750Y-36656250I50000J0D01*
G01*
X210793750Y-36656250D01*
G75*
G02*
X210843750Y-36706250I0J-50000D01*
G01*
X210843750Y-37906250D01*
G75*
G02*
X210793750Y-37956250I-50000J0D01*
G01*
X209893750Y-37956250D01*
G75*
G02*
X209843750Y-37906250I0J50000D01*
G01*
G37*
%TD*%
%TO.C,D42*%
G36*
G01*
X201175000Y-102993750D02*
X201175000Y-101793750D01*
G75*
G02*
X201225000Y-101743750I50000J0D01*
G01*
X202125000Y-101743750D01*
G75*
G02*
X202175000Y-101793750I0J-50000D01*
G01*
X202175000Y-102993750D01*
G75*
G02*
X202125000Y-103043750I-50000J0D01*
G01*
X201225000Y-103043750D01*
G75*
G02*
X201175000Y-102993750I0J50000D01*
G01*
G37*
G36*
G01*
X197875000Y-102993750D02*
X197875000Y-101793750D01*
G75*
G02*
X197925000Y-101743750I50000J0D01*
G01*
X198825000Y-101743750D01*
G75*
G02*
X198875000Y-101793750I0J-50000D01*
G01*
X198875000Y-102993750D01*
G75*
G02*
X198825000Y-103043750I-50000J0D01*
G01*
X197925000Y-103043750D01*
G75*
G02*
X197875000Y-102993750I0J50000D01*
G01*
G37*
%TD*%
%TO.C,D41*%
G36*
G01*
X196412500Y-83943750D02*
X196412500Y-82743750D01*
G75*
G02*
X196462500Y-82693750I50000J0D01*
G01*
X197362500Y-82693750D01*
G75*
G02*
X197412500Y-82743750I0J-50000D01*
G01*
X197412500Y-83943750D01*
G75*
G02*
X197362500Y-83993750I-50000J0D01*
G01*
X196462500Y-83993750D01*
G75*
G02*
X196412500Y-83943750I0J50000D01*
G01*
G37*
G36*
G01*
X193112500Y-83943750D02*
X193112500Y-82743750D01*
G75*
G02*
X193162500Y-82693750I50000J0D01*
G01*
X194062500Y-82693750D01*
G75*
G02*
X194112500Y-82743750I0J-50000D01*
G01*
X194112500Y-83943750D01*
G75*
G02*
X194062500Y-83993750I-50000J0D01*
G01*
X193162500Y-83993750D01*
G75*
G02*
X193112500Y-83943750I0J50000D01*
G01*
G37*
%TD*%
%TO.C,D40*%
G36*
G01*
X186887500Y-64893750D02*
X186887500Y-63693750D01*
G75*
G02*
X186937500Y-63643750I50000J0D01*
G01*
X187837500Y-63643750D01*
G75*
G02*
X187887500Y-63693750I0J-50000D01*
G01*
X187887500Y-64893750D01*
G75*
G02*
X187837500Y-64943750I-50000J0D01*
G01*
X186937500Y-64943750D01*
G75*
G02*
X186887500Y-64893750I0J50000D01*
G01*
G37*
G36*
G01*
X183587500Y-64893750D02*
X183587500Y-63693750D01*
G75*
G02*
X183637500Y-63643750I50000J0D01*
G01*
X184537500Y-63643750D01*
G75*
G02*
X184587500Y-63693750I0J-50000D01*
G01*
X184587500Y-64893750D01*
G75*
G02*
X184537500Y-64943750I-50000J0D01*
G01*
X183637500Y-64943750D01*
G75*
G02*
X183587500Y-64893750I0J50000D01*
G01*
G37*
%TD*%
%TO.C,D39*%
G36*
G01*
X191712500Y-122043750D02*
X191712500Y-120843750D01*
G75*
G02*
X191762500Y-120793750I50000J0D01*
G01*
X192662500Y-120793750D01*
G75*
G02*
X192712500Y-120843750I0J-50000D01*
G01*
X192712500Y-122043750D01*
G75*
G02*
X192662500Y-122093750I-50000J0D01*
G01*
X191762500Y-122093750D01*
G75*
G02*
X191712500Y-122043750I0J50000D01*
G01*
G37*
G36*
G01*
X188412500Y-122043750D02*
X188412500Y-120843750D01*
G75*
G02*
X188462500Y-120793750I50000J0D01*
G01*
X189362500Y-120793750D01*
G75*
G02*
X189412500Y-120843750I0J-50000D01*
G01*
X189412500Y-122043750D01*
G75*
G02*
X189362500Y-122093750I-50000J0D01*
G01*
X188462500Y-122093750D01*
G75*
G02*
X188412500Y-122043750I0J50000D01*
G01*
G37*
%TD*%
%TO.C,D38*%
G36*
G01*
X194093750Y-37906250D02*
X194093750Y-36706250D01*
G75*
G02*
X194143750Y-36656250I50000J0D01*
G01*
X195043750Y-36656250D01*
G75*
G02*
X195093750Y-36706250I0J-50000D01*
G01*
X195093750Y-37906250D01*
G75*
G02*
X195043750Y-37956250I-50000J0D01*
G01*
X194143750Y-37956250D01*
G75*
G02*
X194093750Y-37906250I0J50000D01*
G01*
G37*
G36*
G01*
X190793750Y-37906250D02*
X190793750Y-36706250D01*
G75*
G02*
X190843750Y-36656250I50000J0D01*
G01*
X191743750Y-36656250D01*
G75*
G02*
X191793750Y-36706250I0J-50000D01*
G01*
X191793750Y-37906250D01*
G75*
G02*
X191743750Y-37956250I-50000J0D01*
G01*
X190843750Y-37956250D01*
G75*
G02*
X190793750Y-37906250I0J50000D01*
G01*
G37*
%TD*%
%TO.C,D37*%
G36*
G01*
X182125000Y-102993750D02*
X182125000Y-101793750D01*
G75*
G02*
X182175000Y-101743750I50000J0D01*
G01*
X183075000Y-101743750D01*
G75*
G02*
X183125000Y-101793750I0J-50000D01*
G01*
X183125000Y-102993750D01*
G75*
G02*
X183075000Y-103043750I-50000J0D01*
G01*
X182175000Y-103043750D01*
G75*
G02*
X182125000Y-102993750I0J50000D01*
G01*
G37*
G36*
G01*
X178825000Y-102993750D02*
X178825000Y-101793750D01*
G75*
G02*
X178875000Y-101743750I50000J0D01*
G01*
X179775000Y-101743750D01*
G75*
G02*
X179825000Y-101793750I0J-50000D01*
G01*
X179825000Y-102993750D01*
G75*
G02*
X179775000Y-103043750I-50000J0D01*
G01*
X178875000Y-103043750D01*
G75*
G02*
X178825000Y-102993750I0J50000D01*
G01*
G37*
%TD*%
%TO.C,D36*%
G36*
G01*
X177362500Y-83943750D02*
X177362500Y-82743750D01*
G75*
G02*
X177412500Y-82693750I50000J0D01*
G01*
X178312500Y-82693750D01*
G75*
G02*
X178362500Y-82743750I0J-50000D01*
G01*
X178362500Y-83943750D01*
G75*
G02*
X178312500Y-83993750I-50000J0D01*
G01*
X177412500Y-83993750D01*
G75*
G02*
X177362500Y-83943750I0J50000D01*
G01*
G37*
G36*
G01*
X174062500Y-83943750D02*
X174062500Y-82743750D01*
G75*
G02*
X174112500Y-82693750I50000J0D01*
G01*
X175012500Y-82693750D01*
G75*
G02*
X175062500Y-82743750I0J-50000D01*
G01*
X175062500Y-83943750D01*
G75*
G02*
X175012500Y-83993750I-50000J0D01*
G01*
X174112500Y-83993750D01*
G75*
G02*
X174062500Y-83943750I0J50000D01*
G01*
G37*
%TD*%
%TO.C,D35*%
G36*
G01*
X167837500Y-64893750D02*
X167837500Y-63693750D01*
G75*
G02*
X167887500Y-63643750I50000J0D01*
G01*
X168787500Y-63643750D01*
G75*
G02*
X168837500Y-63693750I0J-50000D01*
G01*
X168837500Y-64893750D01*
G75*
G02*
X168787500Y-64943750I-50000J0D01*
G01*
X167887500Y-64943750D01*
G75*
G02*
X167837500Y-64893750I0J50000D01*
G01*
G37*
G36*
G01*
X164537500Y-64893750D02*
X164537500Y-63693750D01*
G75*
G02*
X164587500Y-63643750I50000J0D01*
G01*
X165487500Y-63643750D01*
G75*
G02*
X165537500Y-63693750I0J-50000D01*
G01*
X165537500Y-64893750D01*
G75*
G02*
X165487500Y-64943750I-50000J0D01*
G01*
X164587500Y-64943750D01*
G75*
G02*
X164537500Y-64893750I0J50000D01*
G01*
G37*
%TD*%
%TO.C,D34*%
G36*
G01*
X172662500Y-122043750D02*
X172662500Y-120843750D01*
G75*
G02*
X172712500Y-120793750I50000J0D01*
G01*
X173612500Y-120793750D01*
G75*
G02*
X173662500Y-120843750I0J-50000D01*
G01*
X173662500Y-122043750D01*
G75*
G02*
X173612500Y-122093750I-50000J0D01*
G01*
X172712500Y-122093750D01*
G75*
G02*
X172662500Y-122043750I0J50000D01*
G01*
G37*
G36*
G01*
X169362500Y-122043750D02*
X169362500Y-120843750D01*
G75*
G02*
X169412500Y-120793750I50000J0D01*
G01*
X170312500Y-120793750D01*
G75*
G02*
X170362500Y-120843750I0J-50000D01*
G01*
X170362500Y-122043750D01*
G75*
G02*
X170312500Y-122093750I-50000J0D01*
G01*
X169412500Y-122093750D01*
G75*
G02*
X169362500Y-122043750I0J50000D01*
G01*
G37*
%TD*%
%TO.C,D33*%
G36*
G01*
X174981250Y-141093750D02*
X174981250Y-139893750D01*
G75*
G02*
X175031250Y-139843750I50000J0D01*
G01*
X175931250Y-139843750D01*
G75*
G02*
X175981250Y-139893750I0J-50000D01*
G01*
X175981250Y-141093750D01*
G75*
G02*
X175931250Y-141143750I-50000J0D01*
G01*
X175031250Y-141143750D01*
G75*
G02*
X174981250Y-141093750I0J50000D01*
G01*
G37*
G36*
G01*
X171681250Y-141093750D02*
X171681250Y-139893750D01*
G75*
G02*
X171731250Y-139843750I50000J0D01*
G01*
X172631250Y-139843750D01*
G75*
G02*
X172681250Y-139893750I0J-50000D01*
G01*
X172681250Y-141093750D01*
G75*
G02*
X172631250Y-141143750I-50000J0D01*
G01*
X171731250Y-141143750D01*
G75*
G02*
X171681250Y-141093750I0J50000D01*
G01*
G37*
%TD*%
%TO.C,D32*%
G36*
G01*
X175043750Y-37906250D02*
X175043750Y-36706250D01*
G75*
G02*
X175093750Y-36656250I50000J0D01*
G01*
X175993750Y-36656250D01*
G75*
G02*
X176043750Y-36706250I0J-50000D01*
G01*
X176043750Y-37906250D01*
G75*
G02*
X175993750Y-37956250I-50000J0D01*
G01*
X175093750Y-37956250D01*
G75*
G02*
X175043750Y-37906250I0J50000D01*
G01*
G37*
G36*
G01*
X171743750Y-37906250D02*
X171743750Y-36706250D01*
G75*
G02*
X171793750Y-36656250I50000J0D01*
G01*
X172693750Y-36656250D01*
G75*
G02*
X172743750Y-36706250I0J-50000D01*
G01*
X172743750Y-37906250D01*
G75*
G02*
X172693750Y-37956250I-50000J0D01*
G01*
X171793750Y-37956250D01*
G75*
G02*
X171743750Y-37906250I0J50000D01*
G01*
G37*
%TD*%
%TO.C,D31*%
G36*
G01*
X163075000Y-102993750D02*
X163075000Y-101793750D01*
G75*
G02*
X163125000Y-101743750I50000J0D01*
G01*
X164025000Y-101743750D01*
G75*
G02*
X164075000Y-101793750I0J-50000D01*
G01*
X164075000Y-102993750D01*
G75*
G02*
X164025000Y-103043750I-50000J0D01*
G01*
X163125000Y-103043750D01*
G75*
G02*
X163075000Y-102993750I0J50000D01*
G01*
G37*
G36*
G01*
X159775000Y-102993750D02*
X159775000Y-101793750D01*
G75*
G02*
X159825000Y-101743750I50000J0D01*
G01*
X160725000Y-101743750D01*
G75*
G02*
X160775000Y-101793750I0J-50000D01*
G01*
X160775000Y-102993750D01*
G75*
G02*
X160725000Y-103043750I-50000J0D01*
G01*
X159825000Y-103043750D01*
G75*
G02*
X159775000Y-102993750I0J50000D01*
G01*
G37*
%TD*%
%TO.C,D30*%
G36*
G01*
X158312500Y-83943750D02*
X158312500Y-82743750D01*
G75*
G02*
X158362500Y-82693750I50000J0D01*
G01*
X159262500Y-82693750D01*
G75*
G02*
X159312500Y-82743750I0J-50000D01*
G01*
X159312500Y-83943750D01*
G75*
G02*
X159262500Y-83993750I-50000J0D01*
G01*
X158362500Y-83993750D01*
G75*
G02*
X158312500Y-83943750I0J50000D01*
G01*
G37*
G36*
G01*
X155012500Y-83943750D02*
X155012500Y-82743750D01*
G75*
G02*
X155062500Y-82693750I50000J0D01*
G01*
X155962500Y-82693750D01*
G75*
G02*
X156012500Y-82743750I0J-50000D01*
G01*
X156012500Y-83943750D01*
G75*
G02*
X155962500Y-83993750I-50000J0D01*
G01*
X155062500Y-83993750D01*
G75*
G02*
X155012500Y-83943750I0J50000D01*
G01*
G37*
%TD*%
%TO.C,D29*%
G36*
G01*
X148850000Y-64893750D02*
X148850000Y-63693750D01*
G75*
G02*
X148900000Y-63643750I50000J0D01*
G01*
X149800000Y-63643750D01*
G75*
G02*
X149850000Y-63693750I0J-50000D01*
G01*
X149850000Y-64893750D01*
G75*
G02*
X149800000Y-64943750I-50000J0D01*
G01*
X148900000Y-64943750D01*
G75*
G02*
X148850000Y-64893750I0J50000D01*
G01*
G37*
G36*
G01*
X145550000Y-64893750D02*
X145550000Y-63693750D01*
G75*
G02*
X145600000Y-63643750I50000J0D01*
G01*
X146500000Y-63643750D01*
G75*
G02*
X146550000Y-63693750I0J-50000D01*
G01*
X146550000Y-64893750D01*
G75*
G02*
X146500000Y-64943750I-50000J0D01*
G01*
X145600000Y-64943750D01*
G75*
G02*
X145550000Y-64893750I0J50000D01*
G01*
G37*
%TD*%
%TO.C,D28*%
G36*
G01*
X153612500Y-122043750D02*
X153612500Y-120843750D01*
G75*
G02*
X153662500Y-120793750I50000J0D01*
G01*
X154562500Y-120793750D01*
G75*
G02*
X154612500Y-120843750I0J-50000D01*
G01*
X154612500Y-122043750D01*
G75*
G02*
X154562500Y-122093750I-50000J0D01*
G01*
X153662500Y-122093750D01*
G75*
G02*
X153612500Y-122043750I0J50000D01*
G01*
G37*
G36*
G01*
X150312500Y-122043750D02*
X150312500Y-120843750D01*
G75*
G02*
X150362500Y-120793750I50000J0D01*
G01*
X151262500Y-120793750D01*
G75*
G02*
X151312500Y-120843750I0J-50000D01*
G01*
X151312500Y-122043750D01*
G75*
G02*
X151262500Y-122093750I-50000J0D01*
G01*
X150362500Y-122093750D01*
G75*
G02*
X150312500Y-122043750I0J50000D01*
G01*
G37*
%TD*%
%TO.C,D27*%
G36*
G01*
X144025000Y-102993750D02*
X144025000Y-101793750D01*
G75*
G02*
X144075000Y-101743750I50000J0D01*
G01*
X144975000Y-101743750D01*
G75*
G02*
X145025000Y-101793750I0J-50000D01*
G01*
X145025000Y-102993750D01*
G75*
G02*
X144975000Y-103043750I-50000J0D01*
G01*
X144075000Y-103043750D01*
G75*
G02*
X144025000Y-102993750I0J50000D01*
G01*
G37*
G36*
G01*
X140725000Y-102993750D02*
X140725000Y-101793750D01*
G75*
G02*
X140775000Y-101743750I50000J0D01*
G01*
X141675000Y-101743750D01*
G75*
G02*
X141725000Y-101793750I0J-50000D01*
G01*
X141725000Y-102993750D01*
G75*
G02*
X141675000Y-103043750I-50000J0D01*
G01*
X140775000Y-103043750D01*
G75*
G02*
X140725000Y-102993750I0J50000D01*
G01*
G37*
%TD*%
%TO.C,D26*%
G36*
G01*
X139325000Y-83943750D02*
X139325000Y-82743750D01*
G75*
G02*
X139375000Y-82693750I50000J0D01*
G01*
X140275000Y-82693750D01*
G75*
G02*
X140325000Y-82743750I0J-50000D01*
G01*
X140325000Y-83943750D01*
G75*
G02*
X140275000Y-83993750I-50000J0D01*
G01*
X139375000Y-83993750D01*
G75*
G02*
X139325000Y-83943750I0J50000D01*
G01*
G37*
G36*
G01*
X136025000Y-83943750D02*
X136025000Y-82743750D01*
G75*
G02*
X136075000Y-82693750I50000J0D01*
G01*
X136975000Y-82693750D01*
G75*
G02*
X137025000Y-82743750I0J-50000D01*
G01*
X137025000Y-83943750D01*
G75*
G02*
X136975000Y-83993750I-50000J0D01*
G01*
X136075000Y-83993750D01*
G75*
G02*
X136025000Y-83943750I0J50000D01*
G01*
G37*
%TD*%
%TO.C,D24*%
G36*
G01*
X142437500Y-37906250D02*
X142437500Y-36706250D01*
G75*
G02*
X142487500Y-36656250I50000J0D01*
G01*
X143387500Y-36656250D01*
G75*
G02*
X143437500Y-36706250I0J-50000D01*
G01*
X143437500Y-37906250D01*
G75*
G02*
X143387500Y-37956250I-50000J0D01*
G01*
X142487500Y-37956250D01*
G75*
G02*
X142437500Y-37906250I0J50000D01*
G01*
G37*
G36*
G01*
X139137500Y-37906250D02*
X139137500Y-36706250D01*
G75*
G02*
X139187500Y-36656250I50000J0D01*
G01*
X140087500Y-36656250D01*
G75*
G02*
X140137500Y-36706250I0J-50000D01*
G01*
X140137500Y-37906250D01*
G75*
G02*
X140087500Y-37956250I-50000J0D01*
G01*
X139187500Y-37956250D01*
G75*
G02*
X139137500Y-37906250I0J50000D01*
G01*
G37*
%TD*%
%TO.C,D25*%
G36*
G01*
X129800000Y-64893750D02*
X129800000Y-63693750D01*
G75*
G02*
X129850000Y-63643750I50000J0D01*
G01*
X130750000Y-63643750D01*
G75*
G02*
X130800000Y-63693750I0J-50000D01*
G01*
X130800000Y-64893750D01*
G75*
G02*
X130750000Y-64943750I-50000J0D01*
G01*
X129850000Y-64943750D01*
G75*
G02*
X129800000Y-64893750I0J50000D01*
G01*
G37*
G36*
G01*
X126500000Y-64893750D02*
X126500000Y-63693750D01*
G75*
G02*
X126550000Y-63643750I50000J0D01*
G01*
X127450000Y-63643750D01*
G75*
G02*
X127500000Y-63693750I0J-50000D01*
G01*
X127500000Y-64893750D01*
G75*
G02*
X127450000Y-64943750I-50000J0D01*
G01*
X126550000Y-64943750D01*
G75*
G02*
X126500000Y-64893750I0J50000D01*
G01*
G37*
%TD*%
%TO.C,D23*%
G36*
G01*
X134500000Y-122043750D02*
X134500000Y-120843750D01*
G75*
G02*
X134550000Y-120793750I50000J0D01*
G01*
X135450000Y-120793750D01*
G75*
G02*
X135500000Y-120843750I0J-50000D01*
G01*
X135500000Y-122043750D01*
G75*
G02*
X135450000Y-122093750I-50000J0D01*
G01*
X134550000Y-122093750D01*
G75*
G02*
X134500000Y-122043750I0J50000D01*
G01*
G37*
G36*
G01*
X131200000Y-122043750D02*
X131200000Y-120843750D01*
G75*
G02*
X131250000Y-120793750I50000J0D01*
G01*
X132150000Y-120793750D01*
G75*
G02*
X132200000Y-120843750I0J-50000D01*
G01*
X132200000Y-122043750D01*
G75*
G02*
X132150000Y-122093750I-50000J0D01*
G01*
X131250000Y-122093750D01*
G75*
G02*
X131200000Y-122043750I0J50000D01*
G01*
G37*
%TD*%
%TO.C,D22*%
G36*
G01*
X124975000Y-102993750D02*
X124975000Y-101793750D01*
G75*
G02*
X125025000Y-101743750I50000J0D01*
G01*
X125925000Y-101743750D01*
G75*
G02*
X125975000Y-101793750I0J-50000D01*
G01*
X125975000Y-102993750D01*
G75*
G02*
X125925000Y-103043750I-50000J0D01*
G01*
X125025000Y-103043750D01*
G75*
G02*
X124975000Y-102993750I0J50000D01*
G01*
G37*
G36*
G01*
X121675000Y-102993750D02*
X121675000Y-101793750D01*
G75*
G02*
X121725000Y-101743750I50000J0D01*
G01*
X122625000Y-101743750D01*
G75*
G02*
X122675000Y-101793750I0J-50000D01*
G01*
X122675000Y-102993750D01*
G75*
G02*
X122625000Y-103043750I-50000J0D01*
G01*
X121725000Y-103043750D01*
G75*
G02*
X121675000Y-102993750I0J50000D01*
G01*
G37*
%TD*%
%TO.C,D21*%
G36*
G01*
X120275000Y-83943750D02*
X120275000Y-82743750D01*
G75*
G02*
X120325000Y-82693750I50000J0D01*
G01*
X121225000Y-82693750D01*
G75*
G02*
X121275000Y-82743750I0J-50000D01*
G01*
X121275000Y-83943750D01*
G75*
G02*
X121225000Y-83993750I-50000J0D01*
G01*
X120325000Y-83993750D01*
G75*
G02*
X120275000Y-83943750I0J50000D01*
G01*
G37*
G36*
G01*
X116975000Y-83943750D02*
X116975000Y-82743750D01*
G75*
G02*
X117025000Y-82693750I50000J0D01*
G01*
X117925000Y-82693750D01*
G75*
G02*
X117975000Y-82743750I0J-50000D01*
G01*
X117975000Y-83943750D01*
G75*
G02*
X117925000Y-83993750I-50000J0D01*
G01*
X117025000Y-83993750D01*
G75*
G02*
X116975000Y-83943750I0J50000D01*
G01*
G37*
%TD*%
%TO.C,D19*%
G36*
G01*
X123450000Y-37906250D02*
X123450000Y-36706250D01*
G75*
G02*
X123500000Y-36656250I50000J0D01*
G01*
X124400000Y-36656250D01*
G75*
G02*
X124450000Y-36706250I0J-50000D01*
G01*
X124450000Y-37906250D01*
G75*
G02*
X124400000Y-37956250I-50000J0D01*
G01*
X123500000Y-37956250D01*
G75*
G02*
X123450000Y-37906250I0J50000D01*
G01*
G37*
G36*
G01*
X120150000Y-37906250D02*
X120150000Y-36706250D01*
G75*
G02*
X120200000Y-36656250I50000J0D01*
G01*
X121100000Y-36656250D01*
G75*
G02*
X121150000Y-36706250I0J-50000D01*
G01*
X121150000Y-37906250D01*
G75*
G02*
X121100000Y-37956250I-50000J0D01*
G01*
X120200000Y-37956250D01*
G75*
G02*
X120150000Y-37906250I0J50000D01*
G01*
G37*
%TD*%
%TO.C,D20*%
G36*
G01*
X110750000Y-64893750D02*
X110750000Y-63693750D01*
G75*
G02*
X110800000Y-63643750I50000J0D01*
G01*
X111700000Y-63643750D01*
G75*
G02*
X111750000Y-63693750I0J-50000D01*
G01*
X111750000Y-64893750D01*
G75*
G02*
X111700000Y-64943750I-50000J0D01*
G01*
X110800000Y-64943750D01*
G75*
G02*
X110750000Y-64893750I0J50000D01*
G01*
G37*
G36*
G01*
X107450000Y-64893750D02*
X107450000Y-63693750D01*
G75*
G02*
X107500000Y-63643750I50000J0D01*
G01*
X108400000Y-63643750D01*
G75*
G02*
X108450000Y-63693750I0J-50000D01*
G01*
X108450000Y-64893750D01*
G75*
G02*
X108400000Y-64943750I-50000J0D01*
G01*
X107500000Y-64943750D01*
G75*
G02*
X107450000Y-64893750I0J50000D01*
G01*
G37*
%TD*%
%TO.C,D18*%
G36*
G01*
X103543750Y-141093750D02*
X103543750Y-139893750D01*
G75*
G02*
X103593750Y-139843750I50000J0D01*
G01*
X104493750Y-139843750D01*
G75*
G02*
X104543750Y-139893750I0J-50000D01*
G01*
X104543750Y-141093750D01*
G75*
G02*
X104493750Y-141143750I-50000J0D01*
G01*
X103593750Y-141143750D01*
G75*
G02*
X103543750Y-141093750I0J50000D01*
G01*
G37*
G36*
G01*
X100243750Y-141093750D02*
X100243750Y-139893750D01*
G75*
G02*
X100293750Y-139843750I50000J0D01*
G01*
X101193750Y-139843750D01*
G75*
G02*
X101243750Y-139893750I0J-50000D01*
G01*
X101243750Y-141093750D01*
G75*
G02*
X101193750Y-141143750I-50000J0D01*
G01*
X100293750Y-141143750D01*
G75*
G02*
X100243750Y-141093750I0J50000D01*
G01*
G37*
%TD*%
%TO.C,D17*%
G36*
G01*
X115450000Y-122043750D02*
X115450000Y-120843750D01*
G75*
G02*
X115500000Y-120793750I50000J0D01*
G01*
X116400000Y-120793750D01*
G75*
G02*
X116450000Y-120843750I0J-50000D01*
G01*
X116450000Y-122043750D01*
G75*
G02*
X116400000Y-122093750I-50000J0D01*
G01*
X115500000Y-122093750D01*
G75*
G02*
X115450000Y-122043750I0J50000D01*
G01*
G37*
G36*
G01*
X112150000Y-122043750D02*
X112150000Y-120843750D01*
G75*
G02*
X112200000Y-120793750I50000J0D01*
G01*
X113100000Y-120793750D01*
G75*
G02*
X113150000Y-120843750I0J-50000D01*
G01*
X113150000Y-122043750D01*
G75*
G02*
X113100000Y-122093750I-50000J0D01*
G01*
X112200000Y-122093750D01*
G75*
G02*
X112150000Y-122043750I0J50000D01*
G01*
G37*
%TD*%
%TO.C,D16*%
G36*
G01*
X105987500Y-102993750D02*
X105987500Y-101793750D01*
G75*
G02*
X106037500Y-101743750I50000J0D01*
G01*
X106937500Y-101743750D01*
G75*
G02*
X106987500Y-101793750I0J-50000D01*
G01*
X106987500Y-102993750D01*
G75*
G02*
X106937500Y-103043750I-50000J0D01*
G01*
X106037500Y-103043750D01*
G75*
G02*
X105987500Y-102993750I0J50000D01*
G01*
G37*
G36*
G01*
X102687500Y-102993750D02*
X102687500Y-101793750D01*
G75*
G02*
X102737500Y-101743750I50000J0D01*
G01*
X103637500Y-101743750D01*
G75*
G02*
X103687500Y-101793750I0J-50000D01*
G01*
X103687500Y-102993750D01*
G75*
G02*
X103637500Y-103043750I-50000J0D01*
G01*
X102737500Y-103043750D01*
G75*
G02*
X102687500Y-102993750I0J50000D01*
G01*
G37*
%TD*%
%TO.C,D15*%
G36*
G01*
X101162500Y-83943750D02*
X101162500Y-82743750D01*
G75*
G02*
X101212500Y-82693750I50000J0D01*
G01*
X102112500Y-82693750D01*
G75*
G02*
X102162500Y-82743750I0J-50000D01*
G01*
X102162500Y-83943750D01*
G75*
G02*
X102112500Y-83993750I-50000J0D01*
G01*
X101212500Y-83993750D01*
G75*
G02*
X101162500Y-83943750I0J50000D01*
G01*
G37*
G36*
G01*
X97862500Y-83943750D02*
X97862500Y-82743750D01*
G75*
G02*
X97912500Y-82693750I50000J0D01*
G01*
X98812500Y-82693750D01*
G75*
G02*
X98862500Y-82743750I0J-50000D01*
G01*
X98862500Y-83943750D01*
G75*
G02*
X98812500Y-83993750I-50000J0D01*
G01*
X97912500Y-83993750D01*
G75*
G02*
X97862500Y-83943750I0J50000D01*
G01*
G37*
%TD*%
%TO.C,D13*%
G36*
G01*
X104337500Y-37906250D02*
X104337500Y-36706250D01*
G75*
G02*
X104387500Y-36656250I50000J0D01*
G01*
X105287500Y-36656250D01*
G75*
G02*
X105337500Y-36706250I0J-50000D01*
G01*
X105337500Y-37906250D01*
G75*
G02*
X105287500Y-37956250I-50000J0D01*
G01*
X104387500Y-37956250D01*
G75*
G02*
X104337500Y-37906250I0J50000D01*
G01*
G37*
G36*
G01*
X101037500Y-37906250D02*
X101037500Y-36706250D01*
G75*
G02*
X101087500Y-36656250I50000J0D01*
G01*
X101987500Y-36656250D01*
G75*
G02*
X102037500Y-36706250I0J-50000D01*
G01*
X102037500Y-37906250D01*
G75*
G02*
X101987500Y-37956250I-50000J0D01*
G01*
X101087500Y-37956250D01*
G75*
G02*
X101037500Y-37906250I0J50000D01*
G01*
G37*
%TD*%
%TO.C,D14*%
G36*
G01*
X91700000Y-64893750D02*
X91700000Y-63693750D01*
G75*
G02*
X91750000Y-63643750I50000J0D01*
G01*
X92650000Y-63643750D01*
G75*
G02*
X92700000Y-63693750I0J-50000D01*
G01*
X92700000Y-64893750D01*
G75*
G02*
X92650000Y-64943750I-50000J0D01*
G01*
X91750000Y-64943750D01*
G75*
G02*
X91700000Y-64893750I0J50000D01*
G01*
G37*
G36*
G01*
X88400000Y-64893750D02*
X88400000Y-63693750D01*
G75*
G02*
X88450000Y-63643750I50000J0D01*
G01*
X89350000Y-63643750D01*
G75*
G02*
X89400000Y-63693750I0J-50000D01*
G01*
X89400000Y-64893750D01*
G75*
G02*
X89350000Y-64943750I-50000J0D01*
G01*
X88450000Y-64943750D01*
G75*
G02*
X88400000Y-64893750I0J50000D01*
G01*
G37*
%TD*%
%TO.C,D12*%
G36*
G01*
X96400000Y-122043750D02*
X96400000Y-120843750D01*
G75*
G02*
X96450000Y-120793750I50000J0D01*
G01*
X97350000Y-120793750D01*
G75*
G02*
X97400000Y-120843750I0J-50000D01*
G01*
X97400000Y-122043750D01*
G75*
G02*
X97350000Y-122093750I-50000J0D01*
G01*
X96450000Y-122093750D01*
G75*
G02*
X96400000Y-122043750I0J50000D01*
G01*
G37*
G36*
G01*
X93100000Y-122043750D02*
X93100000Y-120843750D01*
G75*
G02*
X93150000Y-120793750I50000J0D01*
G01*
X94050000Y-120793750D01*
G75*
G02*
X94100000Y-120843750I0J-50000D01*
G01*
X94100000Y-122043750D01*
G75*
G02*
X94050000Y-122093750I-50000J0D01*
G01*
X93150000Y-122093750D01*
G75*
G02*
X93100000Y-122043750I0J50000D01*
G01*
G37*
%TD*%
%TO.C,D11*%
G36*
G01*
X79731250Y-141093750D02*
X79731250Y-139893750D01*
G75*
G02*
X79781250Y-139843750I50000J0D01*
G01*
X80681250Y-139843750D01*
G75*
G02*
X80731250Y-139893750I0J-50000D01*
G01*
X80731250Y-141093750D01*
G75*
G02*
X80681250Y-141143750I-50000J0D01*
G01*
X79781250Y-141143750D01*
G75*
G02*
X79731250Y-141093750I0J50000D01*
G01*
G37*
G36*
G01*
X76431250Y-141093750D02*
X76431250Y-139893750D01*
G75*
G02*
X76481250Y-139843750I50000J0D01*
G01*
X77381250Y-139843750D01*
G75*
G02*
X77431250Y-139893750I0J-50000D01*
G01*
X77431250Y-141093750D01*
G75*
G02*
X77381250Y-141143750I-50000J0D01*
G01*
X76481250Y-141143750D01*
G75*
G02*
X76431250Y-141093750I0J50000D01*
G01*
G37*
%TD*%
%TO.C,D10*%
G36*
G01*
X86875000Y-102993750D02*
X86875000Y-101793750D01*
G75*
G02*
X86925000Y-101743750I50000J0D01*
G01*
X87825000Y-101743750D01*
G75*
G02*
X87875000Y-101793750I0J-50000D01*
G01*
X87875000Y-102993750D01*
G75*
G02*
X87825000Y-103043750I-50000J0D01*
G01*
X86925000Y-103043750D01*
G75*
G02*
X86875000Y-102993750I0J50000D01*
G01*
G37*
G36*
G01*
X83575000Y-102993750D02*
X83575000Y-101793750D01*
G75*
G02*
X83625000Y-101743750I50000J0D01*
G01*
X84525000Y-101743750D01*
G75*
G02*
X84575000Y-101793750I0J-50000D01*
G01*
X84575000Y-102993750D01*
G75*
G02*
X84525000Y-103043750I-50000J0D01*
G01*
X83625000Y-103043750D01*
G75*
G02*
X83575000Y-102993750I0J50000D01*
G01*
G37*
%TD*%
%TO.C,D9*%
G36*
G01*
X82112500Y-83943750D02*
X82112500Y-82743750D01*
G75*
G02*
X82162500Y-82693750I50000J0D01*
G01*
X83062500Y-82693750D01*
G75*
G02*
X83112500Y-82743750I0J-50000D01*
G01*
X83112500Y-83943750D01*
G75*
G02*
X83062500Y-83993750I-50000J0D01*
G01*
X82162500Y-83993750D01*
G75*
G02*
X82112500Y-83943750I0J50000D01*
G01*
G37*
G36*
G01*
X78812500Y-83943750D02*
X78812500Y-82743750D01*
G75*
G02*
X78862500Y-82693750I50000J0D01*
G01*
X79762500Y-82693750D01*
G75*
G02*
X79812500Y-82743750I0J-50000D01*
G01*
X79812500Y-83943750D01*
G75*
G02*
X79762500Y-83993750I-50000J0D01*
G01*
X78862500Y-83993750D01*
G75*
G02*
X78812500Y-83943750I0J50000D01*
G01*
G37*
%TD*%
%TO.C,D7*%
G36*
G01*
X85350000Y-37906250D02*
X85350000Y-36706250D01*
G75*
G02*
X85400000Y-36656250I50000J0D01*
G01*
X86300000Y-36656250D01*
G75*
G02*
X86350000Y-36706250I0J-50000D01*
G01*
X86350000Y-37906250D01*
G75*
G02*
X86300000Y-37956250I-50000J0D01*
G01*
X85400000Y-37956250D01*
G75*
G02*
X85350000Y-37906250I0J50000D01*
G01*
G37*
G36*
G01*
X82050000Y-37906250D02*
X82050000Y-36706250D01*
G75*
G02*
X82100000Y-36656250I50000J0D01*
G01*
X83000000Y-36656250D01*
G75*
G02*
X83050000Y-36706250I0J-50000D01*
G01*
X83050000Y-37906250D01*
G75*
G02*
X83000000Y-37956250I-50000J0D01*
G01*
X82100000Y-37956250D01*
G75*
G02*
X82050000Y-37906250I0J50000D01*
G01*
G37*
%TD*%
%TO.C,D8*%
G36*
G01*
X72587500Y-64893750D02*
X72587500Y-63693750D01*
G75*
G02*
X72637500Y-63643750I50000J0D01*
G01*
X73537500Y-63643750D01*
G75*
G02*
X73587500Y-63693750I0J-50000D01*
G01*
X73587500Y-64893750D01*
G75*
G02*
X73537500Y-64943750I-50000J0D01*
G01*
X72637500Y-64943750D01*
G75*
G02*
X72587500Y-64893750I0J50000D01*
G01*
G37*
G36*
G01*
X69287500Y-64893750D02*
X69287500Y-63693750D01*
G75*
G02*
X69337500Y-63643750I50000J0D01*
G01*
X70237500Y-63643750D01*
G75*
G02*
X70287500Y-63693750I0J-50000D01*
G01*
X70287500Y-64893750D01*
G75*
G02*
X70237500Y-64943750I-50000J0D01*
G01*
X69337500Y-64943750D01*
G75*
G02*
X69287500Y-64893750I0J50000D01*
G01*
G37*
%TD*%
%TO.C,D6*%
G36*
G01*
X65443750Y-122043750D02*
X65443750Y-120843750D01*
G75*
G02*
X65493750Y-120793750I50000J0D01*
G01*
X66393750Y-120793750D01*
G75*
G02*
X66443750Y-120843750I0J-50000D01*
G01*
X66443750Y-122043750D01*
G75*
G02*
X66393750Y-122093750I-50000J0D01*
G01*
X65493750Y-122093750D01*
G75*
G02*
X65443750Y-122043750I0J50000D01*
G01*
G37*
G36*
G01*
X62143750Y-122043750D02*
X62143750Y-120843750D01*
G75*
G02*
X62193750Y-120793750I50000J0D01*
G01*
X63093750Y-120793750D01*
G75*
G02*
X63143750Y-120843750I0J-50000D01*
G01*
X63143750Y-122043750D01*
G75*
G02*
X63093750Y-122093750I-50000J0D01*
G01*
X62193750Y-122093750D01*
G75*
G02*
X62143750Y-122043750I0J50000D01*
G01*
G37*
%TD*%
%TO.C,D5*%
G36*
G01*
X55918750Y-141093750D02*
X55918750Y-139893750D01*
G75*
G02*
X55968750Y-139843750I50000J0D01*
G01*
X56868750Y-139843750D01*
G75*
G02*
X56918750Y-139893750I0J-50000D01*
G01*
X56918750Y-141093750D01*
G75*
G02*
X56868750Y-141143750I-50000J0D01*
G01*
X55968750Y-141143750D01*
G75*
G02*
X55918750Y-141093750I0J50000D01*
G01*
G37*
G36*
G01*
X52618750Y-141093750D02*
X52618750Y-139893750D01*
G75*
G02*
X52668750Y-139843750I50000J0D01*
G01*
X53568750Y-139843750D01*
G75*
G02*
X53618750Y-139893750I0J-50000D01*
G01*
X53618750Y-141093750D01*
G75*
G02*
X53568750Y-141143750I-50000J0D01*
G01*
X52668750Y-141143750D01*
G75*
G02*
X52618750Y-141093750I0J50000D01*
G01*
G37*
%TD*%
%TO.C,D4*%
G36*
G01*
X60681250Y-102993750D02*
X60681250Y-101793750D01*
G75*
G02*
X60731250Y-101743750I50000J0D01*
G01*
X61631250Y-101743750D01*
G75*
G02*
X61681250Y-101793750I0J-50000D01*
G01*
X61681250Y-102993750D01*
G75*
G02*
X61631250Y-103043750I-50000J0D01*
G01*
X60731250Y-103043750D01*
G75*
G02*
X60681250Y-102993750I0J50000D01*
G01*
G37*
G36*
G01*
X57381250Y-102993750D02*
X57381250Y-101793750D01*
G75*
G02*
X57431250Y-101743750I50000J0D01*
G01*
X58331250Y-101743750D01*
G75*
G02*
X58381250Y-101793750I0J-50000D01*
G01*
X58381250Y-102993750D01*
G75*
G02*
X58331250Y-103043750I-50000J0D01*
G01*
X57431250Y-103043750D01*
G75*
G02*
X57381250Y-102993750I0J50000D01*
G01*
G37*
%TD*%
%TO.C,D3*%
G36*
G01*
X58300000Y-83943750D02*
X58300000Y-82743750D01*
G75*
G02*
X58350000Y-82693750I50000J0D01*
G01*
X59250000Y-82693750D01*
G75*
G02*
X59300000Y-82743750I0J-50000D01*
G01*
X59300000Y-83943750D01*
G75*
G02*
X59250000Y-83993750I-50000J0D01*
G01*
X58350000Y-83993750D01*
G75*
G02*
X58300000Y-83943750I0J50000D01*
G01*
G37*
G36*
G01*
X55000000Y-83943750D02*
X55000000Y-82743750D01*
G75*
G02*
X55050000Y-82693750I50000J0D01*
G01*
X55950000Y-82693750D01*
G75*
G02*
X56000000Y-82743750I0J-50000D01*
G01*
X56000000Y-83943750D01*
G75*
G02*
X55950000Y-83993750I-50000J0D01*
G01*
X55050000Y-83993750D01*
G75*
G02*
X55000000Y-83943750I0J50000D01*
G01*
G37*
%TD*%
%TO.C,D2*%
G36*
G01*
X53537500Y-64893750D02*
X53537500Y-63693750D01*
G75*
G02*
X53587500Y-63643750I50000J0D01*
G01*
X54487500Y-63643750D01*
G75*
G02*
X54537500Y-63693750I0J-50000D01*
G01*
X54537500Y-64893750D01*
G75*
G02*
X54487500Y-64943750I-50000J0D01*
G01*
X53587500Y-64943750D01*
G75*
G02*
X53537500Y-64893750I0J50000D01*
G01*
G37*
G36*
G01*
X50237500Y-64893750D02*
X50237500Y-63693750D01*
G75*
G02*
X50287500Y-63643750I50000J0D01*
G01*
X51187500Y-63643750D01*
G75*
G02*
X51237500Y-63693750I0J-50000D01*
G01*
X51237500Y-64893750D01*
G75*
G02*
X51187500Y-64943750I-50000J0D01*
G01*
X50287500Y-64943750D01*
G75*
G02*
X50237500Y-64893750I0J50000D01*
G01*
G37*
%TD*%
%TO.C,D1*%
G36*
G01*
X53537500Y-37906250D02*
X53537500Y-36706250D01*
G75*
G02*
X53587500Y-36656250I50000J0D01*
G01*
X54487500Y-36656250D01*
G75*
G02*
X54537500Y-36706250I0J-50000D01*
G01*
X54537500Y-37906250D01*
G75*
G02*
X54487500Y-37956250I-50000J0D01*
G01*
X53587500Y-37956250D01*
G75*
G02*
X53537500Y-37906250I0J50000D01*
G01*
G37*
G36*
G01*
X50237500Y-37906250D02*
X50237500Y-36706250D01*
G75*
G02*
X50287500Y-36656250I50000J0D01*
G01*
X51187500Y-36656250D01*
G75*
G02*
X51237500Y-36706250I0J-50000D01*
G01*
X51237500Y-37906250D01*
G75*
G02*
X51187500Y-37956250I-50000J0D01*
G01*
X50287500Y-37956250D01*
G75*
G02*
X50237500Y-37906250I0J50000D01*
G01*
G37*
%TD*%
%TO.C,ALPS66*%
X288012500Y-73787500D03*
X293012500Y-73287500D03*
%TD*%
%TO.C,ALPS92*%
X381675000Y-130937500D03*
X386675000Y-130437500D03*
%TD*%
%TO.C,ALPS91*%
X381675000Y-111887500D03*
X386675000Y-111387500D03*
%TD*%
%TO.C,ALPS90*%
X381675000Y-92837500D03*
X386675000Y-92337500D03*
%TD*%
%TO.C,ALPS89*%
X381675000Y-73787500D03*
X386675000Y-73287500D03*
%TD*%
%TO.C,ALPS88*%
X381675000Y-54737500D03*
X386675000Y-54237500D03*
%TD*%
%TO.C,ALPS87*%
X381675000Y-27750000D03*
X386675000Y-27250000D03*
%TD*%
%TO.C,ALPS86*%
X362625000Y-130937500D03*
X367625000Y-130437500D03*
%TD*%
%TO.C,ALPS85*%
X362625000Y-111887500D03*
X367625000Y-111387500D03*
%TD*%
%TO.C,ALPS84*%
X362625000Y-92837500D03*
X367625000Y-92337500D03*
%TD*%
%TO.C,ALPS83*%
X362625000Y-73787500D03*
X367625000Y-73287500D03*
%TD*%
%TO.C,ALPS82*%
X362625000Y-54737500D03*
X367625000Y-54237500D03*
%TD*%
%TO.C,ALPS81*%
X362625000Y-27750000D03*
X367625000Y-27250000D03*
%TD*%
%TO.C,ALPS80*%
X343575000Y-130937500D03*
X348575000Y-130437500D03*
%TD*%
%TO.C,ALPS79*%
X343575000Y-111887500D03*
X348575000Y-111387500D03*
%TD*%
%TO.C,ALPS78*%
X343575000Y-92837500D03*
X348575000Y-92337500D03*
%TD*%
%TO.C,ALPS77*%
X343575000Y-73787500D03*
X348575000Y-73287500D03*
%TD*%
%TO.C,ALPS76*%
X343575000Y-54737500D03*
X348575000Y-54237500D03*
%TD*%
%TO.C,ALPS73*%
X307062500Y-54737500D03*
X312062500Y-54237500D03*
%TD*%
%TO.C,ALPS74*%
X316587500Y-27750000D03*
X321587500Y-27250000D03*
%TD*%
%TO.C,ALPS72*%
X311825000Y-73787500D03*
X316825000Y-73287500D03*
%TD*%
%TO.C,ALPS70*%
X314206250Y-130937500D03*
X319206250Y-130437500D03*
%TD*%
%TO.C,ALPS69*%
X299918750Y-111887500D03*
X304918750Y-111387500D03*
%TD*%
%TO.C,ALPS67*%
X278487500Y-54737500D03*
X283487500Y-54237500D03*
%TD*%
%TO.C,ALPS68*%
X297537500Y-27750000D03*
X302537500Y-27250000D03*
%TD*%
%TO.C,ALPS65*%
X273725000Y-92837500D03*
X278725000Y-92337500D03*
%TD*%
%TO.C,ALPS62*%
X268962500Y-73787500D03*
X273962500Y-73287500D03*
%TD*%
%TO.C,ALPS63*%
X290393750Y-130937500D03*
X295393750Y-130437500D03*
%TD*%
%TO.C,ALPS61*%
X259437500Y-54737500D03*
X264437500Y-54237500D03*
%TD*%
%TO.C,ALPS64*%
X278487500Y-27750000D03*
X283487500Y-27250000D03*
%TD*%
%TO.C,ALPS60*%
X264200000Y-111887500D03*
X269200000Y-111387500D03*
%TD*%
%TO.C,ALPS59*%
X254675000Y-92837500D03*
X259675000Y-92337500D03*
%TD*%
%TO.C,ALPS57*%
X249912500Y-73787500D03*
X254912500Y-73287500D03*
%TD*%
%TO.C,ALPS56*%
X240387500Y-54737500D03*
X245387500Y-54237500D03*
%TD*%
%TO.C,ALPS58*%
X259437500Y-27750000D03*
X264437500Y-27250000D03*
%TD*%
%TO.C,ALPS55*%
X245150000Y-111887500D03*
X250150000Y-111387500D03*
%TD*%
%TO.C,ALPS54*%
X266581250Y-130937500D03*
X271581250Y-130437500D03*
%TD*%
%TO.C,ALPS53*%
X235625000Y-92837500D03*
X240625000Y-92337500D03*
%TD*%
%TO.C,ALPS52*%
X230862500Y-73787500D03*
X235862500Y-73287500D03*
%TD*%
%TO.C,ALPS51*%
X221337500Y-54737500D03*
X226337500Y-54237500D03*
%TD*%
%TO.C,ALPS50*%
X226100000Y-111887500D03*
X231100000Y-111387500D03*
%TD*%
%TO.C,ALPS49*%
X228481250Y-27750000D03*
X233481250Y-27250000D03*
%TD*%
%TO.C,ALPS48*%
X242768750Y-130937500D03*
X247768750Y-130437500D03*
%TD*%
%TO.C,ALPS47*%
X216575000Y-92837500D03*
X221575000Y-92337500D03*
%TD*%
%TO.C,ALPS46*%
X211812500Y-73787500D03*
X216812500Y-73287500D03*
%TD*%
%TO.C,ALPS45*%
X202287500Y-54737500D03*
X207287500Y-54237500D03*
%TD*%
%TO.C,ALPS44*%
X207050000Y-111887500D03*
X212050000Y-111387500D03*
%TD*%
%TO.C,ALPS43*%
X209431250Y-27750000D03*
X214431250Y-27250000D03*
%TD*%
%TO.C,ALPS42*%
X197525000Y-92837500D03*
X202525000Y-92337500D03*
%TD*%
%TO.C,ALPS41*%
X192762500Y-73787500D03*
X197762500Y-73287500D03*
%TD*%
%TO.C,ALPS40*%
X183237500Y-54737500D03*
X188237500Y-54237500D03*
%TD*%
%TO.C,ALPS39*%
X188000000Y-111887500D03*
X193000000Y-111387500D03*
%TD*%
%TO.C,ALPS38*%
X190381250Y-27750000D03*
X195381250Y-27250000D03*
%TD*%
%TO.C,ALPS37*%
X178475000Y-92837500D03*
X183475000Y-92337500D03*
%TD*%
%TO.C,ALPS36*%
X173712500Y-73787500D03*
X178712500Y-73287500D03*
%TD*%
%TO.C,ALPS35*%
X164187500Y-54737500D03*
X169187500Y-54237500D03*
%TD*%
%TO.C,ALPS34*%
X168950000Y-111887500D03*
X173950000Y-111387500D03*
%TD*%
%TO.C,ALPS33*%
X171331250Y-130937500D03*
X176331250Y-130437500D03*
%TD*%
%TO.C,ALPS32*%
X171331250Y-27750000D03*
X176331250Y-27250000D03*
%TD*%
%TO.C,ALPS31*%
X159425000Y-92837500D03*
X164425000Y-92337500D03*
%TD*%
%TO.C,ALPS30*%
X154662500Y-73787500D03*
X159662500Y-73287500D03*
%TD*%
%TO.C,ALPS29*%
X145137500Y-54737500D03*
X150137500Y-54237500D03*
%TD*%
%TO.C,ALPS28*%
X149900000Y-111887500D03*
X154900000Y-111387500D03*
%TD*%
%TO.C,ALPS27*%
X140375000Y-92837500D03*
X145375000Y-92337500D03*
%TD*%
%TO.C,ALPS26*%
X135612500Y-73787500D03*
X140612500Y-73287500D03*
%TD*%
%TO.C,ALPS24*%
X138787500Y-27750000D03*
X143787500Y-27250000D03*
%TD*%
%TO.C,ALPS25*%
X126087500Y-54737500D03*
X131087500Y-54237500D03*
%TD*%
%TO.C,ALPS23*%
X130850000Y-111887500D03*
X135850000Y-111387500D03*
%TD*%
%TO.C,ALPS22*%
X121325000Y-92837500D03*
X126325000Y-92337500D03*
%TD*%
%TO.C,ALPS21*%
X116562500Y-73787500D03*
X121562500Y-73287500D03*
%TD*%
%TO.C,ALPS19*%
X119737500Y-27750000D03*
X124737500Y-27250000D03*
%TD*%
%TO.C,ALPS20*%
X107037500Y-54737500D03*
X112037500Y-54237500D03*
%TD*%
%TO.C,ALPS18*%
X99893750Y-130937500D03*
X104893750Y-130437500D03*
%TD*%
%TO.C,ALPS17*%
X111800000Y-111887500D03*
X116800000Y-111387500D03*
%TD*%
%TO.C,ALPS16*%
X102275000Y-92837500D03*
X107275000Y-92337500D03*
%TD*%
%TO.C,ALPS15*%
X97512500Y-73787500D03*
X102512500Y-73287500D03*
%TD*%
%TO.C,ALPS13*%
X100687500Y-27750000D03*
X105687500Y-27250000D03*
%TD*%
%TO.C,ALPS14*%
X87987500Y-54737500D03*
X92987500Y-54237500D03*
%TD*%
%TO.C,ALPS12*%
X92750000Y-111887500D03*
X97750000Y-111387500D03*
%TD*%
%TO.C,ALPS11*%
X76081250Y-130937500D03*
X81081250Y-130437500D03*
%TD*%
%TO.C,ALPS10*%
X83225000Y-92837500D03*
X88225000Y-92337500D03*
%TD*%
%TO.C,ALPS9*%
X78462500Y-73787500D03*
X83462500Y-73287500D03*
%TD*%
%TO.C,ALPS7*%
X81637500Y-27750000D03*
X86637500Y-27250000D03*
%TD*%
%TO.C,ALPS8*%
X68937500Y-54737500D03*
X73937500Y-54237500D03*
%TD*%
%TO.C,ALPS6*%
X61793750Y-111887500D03*
X66793750Y-111387500D03*
%TD*%
%TO.C,ALPS5*%
X52268750Y-130937500D03*
X57268750Y-130437500D03*
%TD*%
%TO.C,ALPS4*%
X57031250Y-92837500D03*
X62031250Y-92337500D03*
%TD*%
%TO.C,ALPS3*%
X54650000Y-73787500D03*
X59650000Y-73287500D03*
%TD*%
%TO.C,ALPS2*%
X49887500Y-54737500D03*
X54887500Y-54237500D03*
%TD*%
M02*
