M48
; DRILL file {KiCad (5.1.6)-1} date 08/03/20 21:57:25
; FORMAT={-:-/ absolute / inch / decimal}
; #@! TF.CreationDate,2020-08-03T21:57:25-05:00
; #@! TF.GenerationSoftware,Kicad,Pcbnew,(5.1.6)-1
; #@! TF.FileFunction,Plated,1,2,PTH
FMAT,2
INCH
T1C0.0157
T2C0.0236
T3C0.0579
%
G90
G05
T1
X1.9641Y-1.8797
X3.1562Y-1.7188
X3.4688Y-1.7188
X4.6845Y-1.6845
X4.9688Y-1.6562
X6.6875Y-1.5339
X7.4062Y-1.7831
X7.5Y-1.2188
X8.2188Y-1.5938
X8.9688Y-1.5339
X10.3438Y-1.6562
X10.6267Y-1.7831
X10.7517Y-1.6579
X11.3125Y-1.1211
X11.5938Y-1.9215
X11.6875Y-1.5339
X11.8438Y-1.6562
X11.8454Y-1.7517
X11.8767Y-1.7204
X11.9079Y-1.6892
X11.9392Y-1.6579
X11.9688Y-1.5339
X12.5294Y-1.9394
X12.5625Y-1.7839
X12.6235Y-2.2262
X12.625Y-2.0625
X12.6875Y-1.9062
X12.6875Y-2.3125
X12.6875Y-2.5625
X12.6928Y-2.1276
X12.75Y-1.8438
X12.75Y-2.625
X12.7812Y-2.25
X12.7812Y-2.375
X12.7812Y-2.7188
X12.7812Y-2.7812
X12.7849Y-2.1901
X12.8125Y-5.5625
X12.8131Y-1.9994
X12.8243Y-1.9062
X12.8324Y-1.8438
X12.8438Y-2.4062
X12.849Y-4.8177
X12.875Y-1.625
X12.875Y-2.625
X12.8802Y-4.0677
X12.9062Y-2.0654
X12.9312Y-2.5003
X12.9323Y-3.3177
X12.9375Y-1.7188
X12.9375Y-1.7581
X12.9375Y-2.125
X12.9401Y-1.8869
X12.9688Y-1.4375
X12.9706Y-2.5
X12.9999Y-2.5312
X13.0Y-2.6562
X13.0312Y-1.4688
X13.0625Y-2.0625
X13.0625Y-2.6875
X13.0625Y-2.75
X13.116Y-2.0475
X13.116Y-2.0475
X13.125Y-2.5938
X13.1563Y-2.4884
X13.1875Y-2.1562
X13.2161Y-1.5964
X13.2188Y-1.4375
X13.2394Y-1.2643
X13.2812Y-1.4375
X13.2812Y-2.0312
X13.3125Y-1.9688
X13.3125Y-2.5312
X13.3438Y-2.3759
X13.498Y-2.6562
X13.6875Y-2.2106
X13.6875Y-2.25
X14.248Y-2.25
X14.4375Y-2.25
X12.9766Y-1.188
X12.9766Y-1.2402
X13.0101Y-1.2402
X13.0103Y-1.188
X13.0436Y-1.2402
X13.0437Y-1.188
X13.077Y-1.2402
X13.0772Y-1.188
X13.1105Y-1.2402
X13.1107Y-1.188
X13.1439Y-1.2402
X13.1441Y-1.188
X13.1774Y-1.2402
X13.1776Y-1.188
X13.2109Y-1.2402
X13.2111Y-1.188
T3
X6.2766Y-3.655
X6.4734Y-3.6353
X15.0266Y-5.155
X15.2234Y-5.1353
X7.9641Y-2.155
X8.1609Y-2.1353
X9.8391Y-2.905
X10.0359Y-2.8853
X6.0891Y-2.905
X6.2859Y-2.8853
X4.5891Y-2.905
X4.7859Y-2.8853
X2.0578Y-5.155
X2.2547Y-5.1353
X3.9328Y-5.155
X4.1297Y-5.1353
X3.2141Y-1.0925
X3.4109Y-1.0728
X11.3391Y-2.905
X11.5359Y-2.8853
X11.8078Y-4.405
X12.0047Y-4.3853
X6.7453Y-5.155
X6.9422Y-5.1353
X12.2766Y-2.905
X12.4734Y-2.8853
X9.5578Y-5.155
X9.7547Y-5.1353
X15.0266Y-1.0925
X15.2234Y-1.0728
X7.4016Y-4.405
X7.5984Y-4.3853
X8.9016Y-4.405
X9.0984Y-4.3853
X7.5891Y-2.905
X7.7859Y-2.8853
X3.6516Y-4.405
X3.8484Y-4.3853
X5.4641Y-1.0925
X5.6609Y-1.0728
X4.4016Y-4.405
X4.5984Y-4.3853
X2.4328Y-4.405
X2.6297Y-4.3853
X13.5266Y-3.655
X13.7234Y-3.6353
X14.2766Y-5.155
X14.4734Y-5.1353
X11.4328Y-5.155
X11.6297Y-5.1353
X12.4641Y-1.0925
X12.6609Y-1.0728
X7.0266Y-3.655
X7.2234Y-3.6353
X11.7141Y-1.0925
X11.9109Y-1.0728
X13.5266Y-4.405
X13.7234Y-4.3853
X7.4953Y-1.0925
X7.6922Y-1.0728
X9.0891Y-2.905
X9.2859Y-2.8853
X10.5891Y-2.905
X10.7859Y-2.8853
X3.4641Y-2.155
X3.6609Y-2.1353
X4.9641Y-2.155
X5.1609Y-2.1353
X4.0266Y-3.655
X4.2234Y-3.6353
X2.2453Y-3.655
X2.4422Y-3.6353
X9.4641Y-2.155
X9.6609Y-2.1353
X6.8391Y-2.905
X7.0359Y-2.8853
X15.0266Y-4.405
X15.2234Y-4.3853
X10.7766Y-3.655
X10.9734Y-3.6353
X12.3703Y-5.155
X12.5672Y-5.1353
X8.7141Y-2.155
X8.9109Y-2.1353
X5.7141Y-2.155
X5.9109Y-2.1353
X10.2141Y-2.155
X10.4109Y-2.1353
X4.7766Y-3.655
X4.9734Y-3.6353
X5.1516Y-4.405
X5.3484Y-4.3853
X3.0891Y-2.905
X3.2859Y-2.8853
X1.9641Y-2.155
X2.1609Y-2.1353
X15.0266Y-2.905
X15.2234Y-2.8853
X2.1516Y-2.905
X2.3484Y-2.8853
X14.2766Y-3.655
X14.4734Y-3.6353
X9.6516Y-4.405
X9.8484Y-4.3853
X12.0891Y-2.155
X12.2859Y-2.1353
X6.7453Y-1.0925
X6.9422Y-1.0728
X14.2766Y-4.405
X14.4734Y-4.3853
X10.2141Y-1.0925
X10.4109Y-1.0728
X6.4641Y-2.155
X6.6609Y-2.1353
X7.7766Y-3.655
X7.9734Y-3.6353
X5.9016Y-4.405
X6.0984Y-4.3853
X2.7141Y-2.155
X2.9109Y-2.1353
X4.7141Y-1.0925
X4.9109Y-1.0728
X3.8391Y-2.905
X4.0359Y-2.8853
X14.2766Y-1.0925
X14.4734Y-1.0728
X1.9641Y-1.0925
X2.1609Y-1.0728
X13.5266Y-2.155
X13.7234Y-2.1353
X10.4953Y-5.155
X10.6922Y-5.1353
X6.6516Y-4.405
X6.8484Y-4.3853
X13.5266Y-5.155
X13.7234Y-5.1353
X8.9953Y-1.0925
X9.1922Y-1.0728
X10.4016Y-4.405
X10.5984Y-4.3853
X10.9641Y-2.155
X11.1609Y-2.1353
X8.1516Y-4.405
X8.3484Y-4.3853
X5.5266Y-3.655
X5.7234Y-3.6353
X11.9953Y-3.655
X12.1922Y-3.6353
X2.9953Y-5.155
X3.1922Y-5.1353
X3.9641Y-1.0925
X4.1609Y-1.0728
X13.5266Y-1.0925
X13.7234Y-1.0728
X8.5266Y-3.655
X8.7234Y-3.6353
X14.2766Y-2.155
X14.4734Y-2.1353
X10.9641Y-1.0925
X11.1609Y-1.0728
X8.3391Y-2.905
X8.5359Y-2.8853
X10.0266Y-3.655
X10.2234Y-3.6353
X9.2766Y-3.655
X9.4734Y-3.6353
X7.2141Y-2.155
X7.4109Y-2.1353
X5.3391Y-2.905
X5.5359Y-2.8853
X4.2141Y-2.155
X4.4109Y-2.1353
X3.2766Y-3.655
X3.4734Y-3.6353
X14.2766Y-2.905
X14.4734Y-2.8853
X15.0266Y-3.655
X15.2234Y-3.6353
X15.0266Y-2.155
X15.2234Y-2.1353
X8.2453Y-1.0925
X8.4422Y-1.0728
X13.5266Y-2.905
X13.7234Y-2.8853
T2
G00X12.9235Y-1.0528
M15
G01X12.9235Y-1.0843
M16
G05
G00X12.9235Y-1.172
M15
G01X12.9235Y-1.2311
M16
G05
G00X13.264Y-1.0528
M15
G01X13.264Y-1.0843
M16
G05
G00X13.264Y-1.172
M15
G01X13.264Y-1.2311
M16
G05
T0
M30
