%TF.GenerationSoftware,KiCad,Pcbnew,(5.1.6)-1*%
%TF.CreationDate,2020-08-03T21:57:09-05:00*%
%TF.ProjectId,customKeyboard,63757374-6f6d-44b6-9579-626f6172642e,rev?*%
%TF.SameCoordinates,Original*%
%TF.FileFunction,Legend,Bot*%
%TF.FilePolarity,Positive*%
%FSLAX46Y46*%
G04 Gerber Fmt 4.6, Leading zero omitted, Abs format (unit mm)*
G04 Created by KiCad (PCBNEW (5.1.6)-1) date 2020-08-03 21:57:09*
%MOMM*%
%LPD*%
G01*
G04 APERTURE LIST*
%ADD10C,0.150000*%
%ADD11C,0.120000*%
%ADD12C,2.350000*%
%ADD13R,1.300000X1.500000*%
%ADD14R,1.600000X0.650000*%
%ADD15R,0.650000X1.600000*%
%ADD16R,1.900000X1.200000*%
%ADD17C,0.750000*%
%ADD18O,1.000000X2.500000*%
%ADD19O,1.000000X1.800000*%
%ADD20R,1.000000X1.300000*%
G04 APERTURE END LIST*
D10*
X337819345Y-72683630D02*
X337819345Y-71683630D01*
X337247916Y-72683630D01*
X337247916Y-71683630D01*
X336390773Y-72636011D02*
X336486011Y-72683630D01*
X336676488Y-72683630D01*
X336771726Y-72636011D01*
X336819345Y-72540773D01*
X336819345Y-72159821D01*
X336771726Y-72064583D01*
X336676488Y-72016964D01*
X336486011Y-72016964D01*
X336390773Y-72064583D01*
X336343154Y-72159821D01*
X336343154Y-72255059D01*
X336819345Y-72350297D01*
X336009821Y-72016964D02*
X335771726Y-72683630D01*
X335533630Y-72016964D01*
X334390773Y-72683630D02*
X334390773Y-71683630D01*
X334057440Y-72397916D01*
X333724107Y-71683630D01*
X333724107Y-72683630D01*
X332819345Y-72683630D02*
X332819345Y-72159821D01*
X332866964Y-72064583D01*
X332962202Y-72016964D01*
X333152678Y-72016964D01*
X333247916Y-72064583D01*
X332819345Y-72636011D02*
X332914583Y-72683630D01*
X333152678Y-72683630D01*
X333247916Y-72636011D01*
X333295535Y-72540773D01*
X333295535Y-72445535D01*
X333247916Y-72350297D01*
X333152678Y-72302678D01*
X332914583Y-72302678D01*
X332819345Y-72255059D01*
X331914583Y-72683630D02*
X331914583Y-71683630D01*
X331914583Y-72636011D02*
X332009821Y-72683630D01*
X332200297Y-72683630D01*
X332295535Y-72636011D01*
X332343154Y-72588392D01*
X332390773Y-72493154D01*
X332390773Y-72207440D01*
X332343154Y-72112202D01*
X332295535Y-72064583D01*
X332200297Y-72016964D01*
X332009821Y-72016964D01*
X331914583Y-72064583D01*
X331057440Y-72636011D02*
X331152678Y-72683630D01*
X331343154Y-72683630D01*
X331438392Y-72636011D01*
X331486011Y-72540773D01*
X331486011Y-72159821D01*
X331438392Y-72064583D01*
X331343154Y-72016964D01*
X331152678Y-72016964D01*
X331057440Y-72064583D01*
X331009821Y-72159821D01*
X331009821Y-72255059D01*
X331486011Y-72350297D01*
X329962202Y-71683630D02*
X329390773Y-71683630D01*
X329676488Y-72683630D02*
X329676488Y-71683630D01*
X329057440Y-72683630D02*
X329057440Y-71683630D01*
X328628869Y-72683630D02*
X328628869Y-72159821D01*
X328676488Y-72064583D01*
X328771726Y-72016964D01*
X328914583Y-72016964D01*
X329009821Y-72064583D01*
X329057440Y-72112202D01*
X328152678Y-72683630D02*
X328152678Y-72016964D01*
X328152678Y-71683630D02*
X328200297Y-71731250D01*
X328152678Y-71778869D01*
X328105059Y-71731250D01*
X328152678Y-71683630D01*
X328152678Y-71778869D01*
X327724107Y-72636011D02*
X327628869Y-72683630D01*
X327438392Y-72683630D01*
X327343154Y-72636011D01*
X327295535Y-72540773D01*
X327295535Y-72493154D01*
X327343154Y-72397916D01*
X327438392Y-72350297D01*
X327581250Y-72350297D01*
X327676488Y-72302678D01*
X327724107Y-72207440D01*
X327724107Y-72159821D01*
X327676488Y-72064583D01*
X327581250Y-72016964D01*
X327438392Y-72016964D01*
X327343154Y-72064583D01*
D11*
%TO.C,F1*%
X338021250Y-34135436D02*
X338021250Y-35339564D01*
X339841250Y-34135436D02*
X339841250Y-35339564D01*
%TO.C,R5*%
X339641250Y-30564828D02*
X339641250Y-30047672D01*
X338221250Y-30564828D02*
X338221250Y-30047672D01*
%TO.C,R2*%
X331703750Y-35327328D02*
X331703750Y-34810172D01*
X330283750Y-35327328D02*
X330283750Y-34810172D01*
%TO.C,C7*%
X323140000Y-62447672D02*
X323140000Y-62964828D01*
X324560000Y-62447672D02*
X324560000Y-62964828D01*
%TO.C,R6*%
X326346078Y-35008750D02*
X325828922Y-35008750D01*
X326346078Y-36428750D02*
X325828922Y-36428750D01*
%TO.C,Y1*%
X320556250Y-54356250D02*
X323856250Y-54356250D01*
X323856250Y-54356250D02*
X323856250Y-58356250D01*
D10*
%TO.C,U1*%
X336962500Y-61531250D02*
X336387500Y-61531250D01*
X336962500Y-51181250D02*
X336287500Y-51181250D01*
X326612500Y-51181250D02*
X327287500Y-51181250D01*
X326612500Y-61531250D02*
X327287500Y-61531250D01*
X336962500Y-61531250D02*
X336962500Y-60856250D01*
X326612500Y-61531250D02*
X326612500Y-60856250D01*
X326612500Y-51181250D02*
X326612500Y-51856250D01*
X336962500Y-51181250D02*
X336962500Y-51856250D01*
X336387500Y-61531250D02*
X336387500Y-62806250D01*
%TO.C,SW1*%
X332787500Y-40481250D02*
G75*
G03*
X332787500Y-40481250I-1000000J0D01*
G01*
X329187500Y-37881250D02*
X329187500Y-43081250D01*
X334387500Y-37881250D02*
X329187500Y-37881250D01*
X334387500Y-43081250D02*
X334387500Y-37881250D01*
X329187500Y-43081250D02*
X334387500Y-43081250D01*
D11*
%TO.C,R4*%
X331252328Y-64377500D02*
X330735172Y-64377500D01*
X331252328Y-65797500D02*
X330735172Y-65797500D01*
%TO.C,R3*%
X334878750Y-35327328D02*
X334878750Y-34810172D01*
X333458750Y-35327328D02*
X333458750Y-34810172D01*
%TO.C,R1*%
X336808578Y-46121250D02*
X336291422Y-46121250D01*
X336808578Y-47541250D02*
X336291422Y-47541250D01*
D10*
%TO.C,J1*%
X332581250Y-25400000D02*
X332581250Y-26670000D01*
X328106250Y-22890000D02*
X328101250Y-23650000D01*
X328106250Y-22890000D02*
X337056250Y-22890000D01*
X337061250Y-23650000D02*
X337056250Y-22890000D01*
X328106250Y-32060000D02*
X337056250Y-32060000D01*
X327956250Y-25400000D02*
X337206250Y-25400000D01*
D11*
%TO.C,D92*%
X288262500Y-84343750D02*
X288262500Y-82343750D01*
X288262500Y-82343750D02*
X292162500Y-82343750D01*
X288262500Y-84343750D02*
X292162500Y-84343750D01*
%TO.C,D91*%
X381882500Y-141493750D02*
X381882500Y-139493750D01*
X381882500Y-139493750D02*
X385782500Y-139493750D01*
X381882500Y-141493750D02*
X385782500Y-141493750D01*
%TO.C,D90*%
X381925000Y-122443750D02*
X381925000Y-120443750D01*
X381925000Y-120443750D02*
X385825000Y-120443750D01*
X381925000Y-122443750D02*
X385825000Y-122443750D01*
%TO.C,D89*%
X381925000Y-103393750D02*
X381925000Y-101393750D01*
X381925000Y-101393750D02*
X385825000Y-101393750D01*
X381925000Y-103393750D02*
X385825000Y-103393750D01*
%TO.C,D88*%
X381925000Y-84343750D02*
X381925000Y-82343750D01*
X381925000Y-82343750D02*
X385825000Y-82343750D01*
X381925000Y-84343750D02*
X385825000Y-84343750D01*
%TO.C,D87*%
X381925000Y-65293750D02*
X381925000Y-63293750D01*
X381925000Y-63293750D02*
X385825000Y-63293750D01*
X381925000Y-65293750D02*
X385825000Y-65293750D01*
%TO.C,D86*%
X381925000Y-38306250D02*
X381925000Y-36306250D01*
X381925000Y-36306250D02*
X385825000Y-36306250D01*
X381925000Y-38306250D02*
X385825000Y-38306250D01*
%TO.C,D85*%
X362875000Y-141493750D02*
X362875000Y-139493750D01*
X362875000Y-139493750D02*
X366775000Y-139493750D01*
X362875000Y-141493750D02*
X366775000Y-141493750D01*
%TO.C,D84*%
X362875000Y-122443750D02*
X362875000Y-120443750D01*
X362875000Y-120443750D02*
X366775000Y-120443750D01*
X362875000Y-122443750D02*
X366775000Y-122443750D01*
%TO.C,D83*%
X362875000Y-103393750D02*
X362875000Y-101393750D01*
X362875000Y-101393750D02*
X366775000Y-101393750D01*
X362875000Y-103393750D02*
X366775000Y-103393750D01*
%TO.C,D82*%
X362875000Y-84343750D02*
X362875000Y-82343750D01*
X362875000Y-82343750D02*
X366775000Y-82343750D01*
X362875000Y-84343750D02*
X366775000Y-84343750D01*
%TO.C,D81*%
X362875000Y-65293750D02*
X362875000Y-63293750D01*
X362875000Y-63293750D02*
X366775000Y-63293750D01*
X362875000Y-65293750D02*
X366775000Y-65293750D01*
%TO.C,D80*%
X362875000Y-38306250D02*
X362875000Y-36306250D01*
X362875000Y-36306250D02*
X366775000Y-36306250D01*
X362875000Y-38306250D02*
X366775000Y-38306250D01*
%TO.C,D79*%
X343825000Y-141493750D02*
X343825000Y-139493750D01*
X343825000Y-139493750D02*
X347725000Y-139493750D01*
X343825000Y-141493750D02*
X347725000Y-141493750D01*
%TO.C,D78*%
X343825000Y-122443750D02*
X343825000Y-120443750D01*
X343825000Y-120443750D02*
X347725000Y-120443750D01*
X343825000Y-122443750D02*
X347725000Y-122443750D01*
%TO.C,D77*%
X343825000Y-103393750D02*
X343825000Y-101393750D01*
X343825000Y-101393750D02*
X347725000Y-101393750D01*
X343825000Y-103393750D02*
X347725000Y-103393750D01*
%TO.C,D76*%
X343825000Y-84343750D02*
X343825000Y-82343750D01*
X343825000Y-82343750D02*
X347725000Y-82343750D01*
X343825000Y-84343750D02*
X347725000Y-84343750D01*
%TO.C,D75*%
X343825000Y-65293750D02*
X343825000Y-63293750D01*
X343825000Y-63293750D02*
X347725000Y-63293750D01*
X343825000Y-65293750D02*
X347725000Y-65293750D01*
%TO.C,D74*%
X343825000Y-38306250D02*
X343825000Y-36306250D01*
X343825000Y-36306250D02*
X347725000Y-36306250D01*
X343825000Y-38306250D02*
X347725000Y-38306250D01*
%TO.C,D73*%
X307312500Y-65293750D02*
X307312500Y-63293750D01*
X307312500Y-63293750D02*
X311212500Y-63293750D01*
X307312500Y-65293750D02*
X311212500Y-65293750D01*
%TO.C,D72*%
X316837500Y-38306250D02*
X316837500Y-36306250D01*
X316837500Y-36306250D02*
X320737500Y-36306250D01*
X316837500Y-38306250D02*
X320737500Y-38306250D01*
%TO.C,D71*%
X312075000Y-84343750D02*
X312075000Y-82343750D01*
X312075000Y-82343750D02*
X315975000Y-82343750D01*
X312075000Y-84343750D02*
X315975000Y-84343750D01*
%TO.C,D70*%
X304931250Y-103393750D02*
X304931250Y-101393750D01*
X304931250Y-101393750D02*
X308831250Y-101393750D01*
X304931250Y-103393750D02*
X308831250Y-103393750D01*
%TO.C,D69*%
X314456250Y-141493750D02*
X314456250Y-139493750D01*
X314456250Y-139493750D02*
X318356250Y-139493750D01*
X314456250Y-141493750D02*
X318356250Y-141493750D01*
%TO.C,D68*%
X300168750Y-122443750D02*
X300168750Y-120443750D01*
X300168750Y-120443750D02*
X304068750Y-120443750D01*
X300168750Y-122443750D02*
X304068750Y-122443750D01*
%TO.C,D67*%
X278737500Y-65293750D02*
X278737500Y-63293750D01*
X278737500Y-63293750D02*
X282637500Y-63293750D01*
X278737500Y-65293750D02*
X282637500Y-65293750D01*
%TO.C,D66*%
X297787500Y-38306250D02*
X297787500Y-36306250D01*
X297787500Y-36306250D02*
X301687500Y-36306250D01*
X297787500Y-38306250D02*
X301687500Y-38306250D01*
%TO.C,D65*%
X273975000Y-103393750D02*
X273975000Y-101393750D01*
X273975000Y-101393750D02*
X277875000Y-101393750D01*
X273975000Y-103393750D02*
X277875000Y-103393750D01*
%TO.C,D64*%
X269212500Y-84343750D02*
X269212500Y-82343750D01*
X269212500Y-82343750D02*
X273112500Y-82343750D01*
X269212500Y-84343750D02*
X273112500Y-84343750D01*
%TO.C,D63*%
X290706250Y-141493750D02*
X290706250Y-139493750D01*
X290706250Y-139493750D02*
X294606250Y-139493750D01*
X290706250Y-141493750D02*
X294606250Y-141493750D01*
%TO.C,D62*%
X259750000Y-65293750D02*
X259750000Y-63293750D01*
X259750000Y-63293750D02*
X263650000Y-63293750D01*
X259750000Y-65293750D02*
X263650000Y-65293750D01*
%TO.C,D61*%
X278737500Y-38306250D02*
X278737500Y-36306250D01*
X278737500Y-36306250D02*
X282637500Y-36306250D01*
X278737500Y-38306250D02*
X282637500Y-38306250D01*
%TO.C,D60*%
X264450000Y-122443750D02*
X264450000Y-120443750D01*
X264450000Y-120443750D02*
X268350000Y-120443750D01*
X264450000Y-122443750D02*
X268350000Y-122443750D01*
%TO.C,D59*%
X254925000Y-103393750D02*
X254925000Y-101393750D01*
X254925000Y-101393750D02*
X258825000Y-101393750D01*
X254925000Y-103393750D02*
X258825000Y-103393750D01*
%TO.C,D58*%
X250162500Y-84343750D02*
X250162500Y-82343750D01*
X250162500Y-82343750D02*
X254062500Y-82343750D01*
X250162500Y-84343750D02*
X254062500Y-84343750D01*
%TO.C,D57*%
X240637500Y-65293750D02*
X240637500Y-63293750D01*
X240637500Y-63293750D02*
X244537500Y-63293750D01*
X240637500Y-65293750D02*
X244537500Y-65293750D01*
%TO.C,D56*%
X259687500Y-38306250D02*
X259687500Y-36306250D01*
X259687500Y-36306250D02*
X263587500Y-36306250D01*
X259687500Y-38306250D02*
X263587500Y-38306250D01*
%TO.C,D55*%
X245400000Y-122443750D02*
X245400000Y-120443750D01*
X245400000Y-120443750D02*
X249300000Y-120443750D01*
X245400000Y-122443750D02*
X249300000Y-122443750D01*
%TO.C,D54*%
X266831250Y-141493750D02*
X266831250Y-139493750D01*
X266831250Y-139493750D02*
X270731250Y-139493750D01*
X266831250Y-141493750D02*
X270731250Y-141493750D01*
%TO.C,D53*%
X235875000Y-103393750D02*
X235875000Y-101393750D01*
X235875000Y-101393750D02*
X239775000Y-101393750D01*
X235875000Y-103393750D02*
X239775000Y-103393750D01*
%TO.C,D52*%
X231112500Y-84343750D02*
X231112500Y-82343750D01*
X231112500Y-82343750D02*
X235012500Y-82343750D01*
X231112500Y-84343750D02*
X235012500Y-84343750D01*
%TO.C,D51*%
X221650000Y-65293750D02*
X221650000Y-63293750D01*
X221650000Y-63293750D02*
X225550000Y-63293750D01*
X221650000Y-65293750D02*
X225550000Y-65293750D01*
%TO.C,D50*%
X226350000Y-122443750D02*
X226350000Y-120443750D01*
X226350000Y-120443750D02*
X230250000Y-120443750D01*
X226350000Y-122443750D02*
X230250000Y-122443750D01*
%TO.C,D49*%
X228731250Y-39100000D02*
X228731250Y-37100000D01*
X228731250Y-37100000D02*
X232631250Y-37100000D01*
X228731250Y-39100000D02*
X232631250Y-39100000D01*
%TO.C,D48*%
X243018750Y-141493750D02*
X243018750Y-139493750D01*
X243018750Y-139493750D02*
X246918750Y-139493750D01*
X243018750Y-141493750D02*
X246918750Y-141493750D01*
%TO.C,D47*%
X216825000Y-103393750D02*
X216825000Y-101393750D01*
X216825000Y-101393750D02*
X220725000Y-101393750D01*
X216825000Y-103393750D02*
X220725000Y-103393750D01*
%TO.C,D46*%
X212062500Y-84343750D02*
X212062500Y-82343750D01*
X212062500Y-82343750D02*
X215962500Y-82343750D01*
X212062500Y-84343750D02*
X215962500Y-84343750D01*
%TO.C,D45*%
X202537500Y-65293750D02*
X202537500Y-63293750D01*
X202537500Y-63293750D02*
X206437500Y-63293750D01*
X202537500Y-65293750D02*
X206437500Y-65293750D01*
%TO.C,D44*%
X207362500Y-122443750D02*
X207362500Y-120443750D01*
X207362500Y-120443750D02*
X211262500Y-120443750D01*
X207362500Y-122443750D02*
X211262500Y-122443750D01*
%TO.C,D43*%
X209743750Y-38306250D02*
X209743750Y-36306250D01*
X209743750Y-36306250D02*
X213643750Y-36306250D01*
X209743750Y-38306250D02*
X213643750Y-38306250D01*
%TO.C,D42*%
X197775000Y-103393750D02*
X197775000Y-101393750D01*
X197775000Y-101393750D02*
X201675000Y-101393750D01*
X197775000Y-103393750D02*
X201675000Y-103393750D01*
%TO.C,D41*%
X193012500Y-84343750D02*
X193012500Y-82343750D01*
X193012500Y-82343750D02*
X196912500Y-82343750D01*
X193012500Y-84343750D02*
X196912500Y-84343750D01*
%TO.C,D40*%
X183487500Y-65293750D02*
X183487500Y-63293750D01*
X183487500Y-63293750D02*
X187387500Y-63293750D01*
X183487500Y-65293750D02*
X187387500Y-65293750D01*
%TO.C,D39*%
X188312500Y-122443750D02*
X188312500Y-120443750D01*
X188312500Y-120443750D02*
X192212500Y-120443750D01*
X188312500Y-122443750D02*
X192212500Y-122443750D01*
%TO.C,D38*%
X190693750Y-38306250D02*
X190693750Y-36306250D01*
X190693750Y-36306250D02*
X194593750Y-36306250D01*
X190693750Y-38306250D02*
X194593750Y-38306250D01*
%TO.C,D37*%
X178725000Y-103393750D02*
X178725000Y-101393750D01*
X178725000Y-101393750D02*
X182625000Y-101393750D01*
X178725000Y-103393750D02*
X182625000Y-103393750D01*
%TO.C,D36*%
X173962500Y-84343750D02*
X173962500Y-82343750D01*
X173962500Y-82343750D02*
X177862500Y-82343750D01*
X173962500Y-84343750D02*
X177862500Y-84343750D01*
%TO.C,D35*%
X164437500Y-65293750D02*
X164437500Y-63293750D01*
X164437500Y-63293750D02*
X168337500Y-63293750D01*
X164437500Y-65293750D02*
X168337500Y-65293750D01*
%TO.C,D34*%
X169262500Y-122443750D02*
X169262500Y-120443750D01*
X169262500Y-120443750D02*
X173162500Y-120443750D01*
X169262500Y-122443750D02*
X173162500Y-122443750D01*
%TO.C,D33*%
X171581250Y-141493750D02*
X171581250Y-139493750D01*
X171581250Y-139493750D02*
X175481250Y-139493750D01*
X171581250Y-141493750D02*
X175481250Y-141493750D01*
%TO.C,D32*%
X171643750Y-38306250D02*
X171643750Y-36306250D01*
X171643750Y-36306250D02*
X175543750Y-36306250D01*
X171643750Y-38306250D02*
X175543750Y-38306250D01*
%TO.C,D31*%
X159675000Y-103393750D02*
X159675000Y-101393750D01*
X159675000Y-101393750D02*
X163575000Y-101393750D01*
X159675000Y-103393750D02*
X163575000Y-103393750D01*
%TO.C,D30*%
X154912500Y-84343750D02*
X154912500Y-82343750D01*
X154912500Y-82343750D02*
X158812500Y-82343750D01*
X154912500Y-84343750D02*
X158812500Y-84343750D01*
%TO.C,D29*%
X145450000Y-65293750D02*
X145450000Y-63293750D01*
X145450000Y-63293750D02*
X149350000Y-63293750D01*
X145450000Y-65293750D02*
X149350000Y-65293750D01*
%TO.C,D28*%
X150212500Y-122443750D02*
X150212500Y-120443750D01*
X150212500Y-120443750D02*
X154112500Y-120443750D01*
X150212500Y-122443750D02*
X154112500Y-122443750D01*
%TO.C,D27*%
X140625000Y-103393750D02*
X140625000Y-101393750D01*
X140625000Y-101393750D02*
X144525000Y-101393750D01*
X140625000Y-103393750D02*
X144525000Y-103393750D01*
%TO.C,D26*%
X135925000Y-84343750D02*
X135925000Y-82343750D01*
X135925000Y-82343750D02*
X139825000Y-82343750D01*
X135925000Y-84343750D02*
X139825000Y-84343750D01*
%TO.C,D25*%
X139037500Y-38306250D02*
X139037500Y-36306250D01*
X139037500Y-36306250D02*
X142937500Y-36306250D01*
X139037500Y-38306250D02*
X142937500Y-38306250D01*
%TO.C,D24*%
X126400000Y-65293750D02*
X126400000Y-63293750D01*
X126400000Y-63293750D02*
X130300000Y-63293750D01*
X126400000Y-65293750D02*
X130300000Y-65293750D01*
%TO.C,D23*%
X131100000Y-122443750D02*
X131100000Y-120443750D01*
X131100000Y-120443750D02*
X135000000Y-120443750D01*
X131100000Y-122443750D02*
X135000000Y-122443750D01*
%TO.C,D22*%
X121575000Y-103393750D02*
X121575000Y-101393750D01*
X121575000Y-101393750D02*
X125475000Y-101393750D01*
X121575000Y-103393750D02*
X125475000Y-103393750D01*
%TO.C,D21*%
X116875000Y-84343750D02*
X116875000Y-82343750D01*
X116875000Y-82343750D02*
X120775000Y-82343750D01*
X116875000Y-84343750D02*
X120775000Y-84343750D01*
%TO.C,D20*%
X120050000Y-38306250D02*
X120050000Y-36306250D01*
X120050000Y-36306250D02*
X123950000Y-36306250D01*
X120050000Y-38306250D02*
X123950000Y-38306250D01*
%TO.C,D19*%
X107350000Y-65293750D02*
X107350000Y-63293750D01*
X107350000Y-63293750D02*
X111250000Y-63293750D01*
X107350000Y-65293750D02*
X111250000Y-65293750D01*
%TO.C,D18*%
X100143750Y-141493750D02*
X100143750Y-139493750D01*
X100143750Y-139493750D02*
X104043750Y-139493750D01*
X100143750Y-141493750D02*
X104043750Y-141493750D01*
%TO.C,D17*%
X112050000Y-122443750D02*
X112050000Y-120443750D01*
X112050000Y-120443750D02*
X115950000Y-120443750D01*
X112050000Y-122443750D02*
X115950000Y-122443750D01*
%TO.C,D16*%
X102587500Y-103393750D02*
X102587500Y-101393750D01*
X102587500Y-101393750D02*
X106487500Y-101393750D01*
X102587500Y-103393750D02*
X106487500Y-103393750D01*
%TO.C,D15*%
X97762500Y-84343750D02*
X97762500Y-82343750D01*
X97762500Y-82343750D02*
X101662500Y-82343750D01*
X97762500Y-84343750D02*
X101662500Y-84343750D01*
%TO.C,D14*%
X100937500Y-38306250D02*
X100937500Y-36306250D01*
X100937500Y-36306250D02*
X104837500Y-36306250D01*
X100937500Y-38306250D02*
X104837500Y-38306250D01*
%TO.C,D13*%
X88300000Y-65293750D02*
X88300000Y-63293750D01*
X88300000Y-63293750D02*
X92200000Y-63293750D01*
X88300000Y-65293750D02*
X92200000Y-65293750D01*
%TO.C,D12*%
X93000000Y-122443750D02*
X93000000Y-120443750D01*
X93000000Y-120443750D02*
X96900000Y-120443750D01*
X93000000Y-122443750D02*
X96900000Y-122443750D01*
%TO.C,D11*%
X76331250Y-141493750D02*
X76331250Y-139493750D01*
X76331250Y-139493750D02*
X80231250Y-139493750D01*
X76331250Y-141493750D02*
X80231250Y-141493750D01*
%TO.C,D10*%
X83475000Y-103393750D02*
X83475000Y-101393750D01*
X83475000Y-101393750D02*
X87375000Y-101393750D01*
X83475000Y-103393750D02*
X87375000Y-103393750D01*
%TO.C,D9*%
X78712500Y-84343750D02*
X78712500Y-82343750D01*
X78712500Y-82343750D02*
X82612500Y-82343750D01*
X78712500Y-84343750D02*
X82612500Y-84343750D01*
%TO.C,D8*%
X81950000Y-38306250D02*
X81950000Y-36306250D01*
X81950000Y-36306250D02*
X85850000Y-36306250D01*
X81950000Y-38306250D02*
X85850000Y-38306250D01*
%TO.C,D7*%
X69187500Y-65293750D02*
X69187500Y-63293750D01*
X69187500Y-63293750D02*
X73087500Y-63293750D01*
X69187500Y-65293750D02*
X73087500Y-65293750D01*
%TO.C,D6*%
X62043750Y-122443750D02*
X62043750Y-120443750D01*
X62043750Y-120443750D02*
X65943750Y-120443750D01*
X62043750Y-122443750D02*
X65943750Y-122443750D01*
%TO.C,D5*%
X52518750Y-141493750D02*
X52518750Y-139493750D01*
X52518750Y-139493750D02*
X56418750Y-139493750D01*
X52518750Y-141493750D02*
X56418750Y-141493750D01*
%TO.C,D4*%
X57281250Y-103393750D02*
X57281250Y-101393750D01*
X57281250Y-101393750D02*
X61181250Y-101393750D01*
X57281250Y-103393750D02*
X61181250Y-103393750D01*
%TO.C,D3*%
X54900000Y-84343750D02*
X54900000Y-82343750D01*
X54900000Y-82343750D02*
X58800000Y-82343750D01*
X54900000Y-84343750D02*
X58800000Y-84343750D01*
%TO.C,D2*%
X50137500Y-65293750D02*
X50137500Y-63293750D01*
X50137500Y-63293750D02*
X54037500Y-63293750D01*
X50137500Y-65293750D02*
X54037500Y-65293750D01*
%TO.C,D1*%
X50137500Y-38306250D02*
X50137500Y-36306250D01*
X50137500Y-36306250D02*
X54037500Y-36306250D01*
X50137500Y-38306250D02*
X54037500Y-38306250D01*
%TO.C,C6*%
X324560000Y-49471078D02*
X324560000Y-48953922D01*
X323140000Y-49471078D02*
X323140000Y-48953922D01*
%TO.C,C5*%
X340435000Y-62964828D02*
X340435000Y-62447672D01*
X339015000Y-62964828D02*
X339015000Y-62447672D01*
%TO.C,C4*%
X327139828Y-64377500D02*
X326622672Y-64377500D01*
X327139828Y-65797500D02*
X326622672Y-65797500D01*
%TO.C,C3*%
X340435000Y-49471078D02*
X340435000Y-48953922D01*
X339015000Y-49471078D02*
X339015000Y-48953922D01*
%TO.C,C2*%
X327139828Y-46121250D02*
X326622672Y-46121250D01*
X327139828Y-47541250D02*
X326622672Y-47541250D01*
%TO.C,C1*%
X335353922Y-65797500D02*
X335871078Y-65797500D01*
X335353922Y-64377500D02*
X335871078Y-64377500D01*
%TO.C,F1*%
D10*
X337039821Y-34404166D02*
X337039821Y-34070833D01*
X337563630Y-34070833D02*
X336563630Y-34070833D01*
X336563630Y-34547023D01*
X337563630Y-35451785D02*
X337563630Y-34880357D01*
X337563630Y-35166071D02*
X336563630Y-35166071D01*
X336706488Y-35070833D01*
X336801726Y-34975595D01*
X336849345Y-34880357D01*
%TO.C,R5*%
X341033630Y-30139583D02*
X340557440Y-29806250D01*
X341033630Y-29568154D02*
X340033630Y-29568154D01*
X340033630Y-29949107D01*
X340081250Y-30044345D01*
X340128869Y-30091964D01*
X340224107Y-30139583D01*
X340366964Y-30139583D01*
X340462202Y-30091964D01*
X340509821Y-30044345D01*
X340557440Y-29949107D01*
X340557440Y-29568154D01*
X340033630Y-31044345D02*
X340033630Y-30568154D01*
X340509821Y-30520535D01*
X340462202Y-30568154D01*
X340414583Y-30663392D01*
X340414583Y-30901488D01*
X340462202Y-30996726D01*
X340509821Y-31044345D01*
X340605059Y-31091964D01*
X340843154Y-31091964D01*
X340938392Y-31044345D01*
X340986011Y-30996726D01*
X341033630Y-30901488D01*
X341033630Y-30663392D01*
X340986011Y-30568154D01*
X340938392Y-30520535D01*
%TO.C,R2*%
X333096130Y-34902083D02*
X332619940Y-34568750D01*
X333096130Y-34330654D02*
X332096130Y-34330654D01*
X332096130Y-34711607D01*
X332143750Y-34806845D01*
X332191369Y-34854464D01*
X332286607Y-34902083D01*
X332429464Y-34902083D01*
X332524702Y-34854464D01*
X332572321Y-34806845D01*
X332619940Y-34711607D01*
X332619940Y-34330654D01*
X332191369Y-35283035D02*
X332143750Y-35330654D01*
X332096130Y-35425892D01*
X332096130Y-35663988D01*
X332143750Y-35759226D01*
X332191369Y-35806845D01*
X332286607Y-35854464D01*
X332381845Y-35854464D01*
X332524702Y-35806845D01*
X333096130Y-35235416D01*
X333096130Y-35854464D01*
%TO.C,C7*%
X322557142Y-62539583D02*
X322604761Y-62491964D01*
X322652380Y-62349107D01*
X322652380Y-62253869D01*
X322604761Y-62111011D01*
X322509523Y-62015773D01*
X322414285Y-61968154D01*
X322223809Y-61920535D01*
X322080952Y-61920535D01*
X321890476Y-61968154D01*
X321795238Y-62015773D01*
X321700000Y-62111011D01*
X321652380Y-62253869D01*
X321652380Y-62349107D01*
X321700000Y-62491964D01*
X321747619Y-62539583D01*
X321652380Y-62872916D02*
X321652380Y-63539583D01*
X322652380Y-63111011D01*
%TO.C,R6*%
X326254166Y-34521130D02*
X326587500Y-34044940D01*
X326825595Y-34521130D02*
X326825595Y-33521130D01*
X326444642Y-33521130D01*
X326349404Y-33568750D01*
X326301785Y-33616369D01*
X326254166Y-33711607D01*
X326254166Y-33854464D01*
X326301785Y-33949702D01*
X326349404Y-33997321D01*
X326444642Y-34044940D01*
X326825595Y-34044940D01*
X325397023Y-33521130D02*
X325587500Y-33521130D01*
X325682738Y-33568750D01*
X325730357Y-33616369D01*
X325825595Y-33759226D01*
X325873214Y-33949702D01*
X325873214Y-34330654D01*
X325825595Y-34425892D01*
X325777976Y-34473511D01*
X325682738Y-34521130D01*
X325492261Y-34521130D01*
X325397023Y-34473511D01*
X325349404Y-34425892D01*
X325301785Y-34330654D01*
X325301785Y-34092559D01*
X325349404Y-33997321D01*
X325397023Y-33949702D01*
X325492261Y-33902083D01*
X325682738Y-33902083D01*
X325777976Y-33949702D01*
X325825595Y-33997321D01*
X325873214Y-34092559D01*
%TO.C,Y1*%
X319732440Y-55880059D02*
X320208630Y-55880059D01*
X319208630Y-55546726D02*
X319732440Y-55880059D01*
X319208630Y-56213392D01*
X320208630Y-57070535D02*
X320208630Y-56499107D01*
X320208630Y-56784821D02*
X319208630Y-56784821D01*
X319351488Y-56689583D01*
X319446726Y-56594345D01*
X319494345Y-56499107D01*
%TO.C,U1*%
X338689880Y-55594345D02*
X339499404Y-55594345D01*
X339594642Y-55641964D01*
X339642261Y-55689583D01*
X339689880Y-55784821D01*
X339689880Y-55975297D01*
X339642261Y-56070535D01*
X339594642Y-56118154D01*
X339499404Y-56165773D01*
X338689880Y-56165773D01*
X339689880Y-57165773D02*
X339689880Y-56594345D01*
X339689880Y-56880059D02*
X338689880Y-56880059D01*
X338832738Y-56784821D01*
X338927976Y-56689583D01*
X338975595Y-56594345D01*
%TO.C,SW1*%
X333120833Y-36822011D02*
X332977976Y-36869630D01*
X332739880Y-36869630D01*
X332644642Y-36822011D01*
X332597023Y-36774392D01*
X332549404Y-36679154D01*
X332549404Y-36583916D01*
X332597023Y-36488678D01*
X332644642Y-36441059D01*
X332739880Y-36393440D01*
X332930357Y-36345821D01*
X333025595Y-36298202D01*
X333073214Y-36250583D01*
X333120833Y-36155345D01*
X333120833Y-36060107D01*
X333073214Y-35964869D01*
X333025595Y-35917250D01*
X332930357Y-35869630D01*
X332692261Y-35869630D01*
X332549404Y-35917250D01*
X332216071Y-35869630D02*
X331977976Y-36869630D01*
X331787500Y-36155345D01*
X331597023Y-36869630D01*
X331358928Y-35869630D01*
X330454166Y-36869630D02*
X331025595Y-36869630D01*
X330739880Y-36869630D02*
X330739880Y-35869630D01*
X330835119Y-36012488D01*
X330930357Y-36107726D01*
X331025595Y-36155345D01*
%TO.C,R4*%
X331160416Y-63889880D02*
X331493750Y-63413690D01*
X331731845Y-63889880D02*
X331731845Y-62889880D01*
X331350892Y-62889880D01*
X331255654Y-62937500D01*
X331208035Y-62985119D01*
X331160416Y-63080357D01*
X331160416Y-63223214D01*
X331208035Y-63318452D01*
X331255654Y-63366071D01*
X331350892Y-63413690D01*
X331731845Y-63413690D01*
X330303273Y-63223214D02*
X330303273Y-63889880D01*
X330541369Y-62842261D02*
X330779464Y-63556547D01*
X330160416Y-63556547D01*
%TO.C,R3*%
X336271130Y-34902083D02*
X335794940Y-34568750D01*
X336271130Y-34330654D02*
X335271130Y-34330654D01*
X335271130Y-34711607D01*
X335318750Y-34806845D01*
X335366369Y-34854464D01*
X335461607Y-34902083D01*
X335604464Y-34902083D01*
X335699702Y-34854464D01*
X335747321Y-34806845D01*
X335794940Y-34711607D01*
X335794940Y-34330654D01*
X335271130Y-35235416D02*
X335271130Y-35854464D01*
X335652083Y-35521130D01*
X335652083Y-35663988D01*
X335699702Y-35759226D01*
X335747321Y-35806845D01*
X335842559Y-35854464D01*
X336080654Y-35854464D01*
X336175892Y-35806845D01*
X336223511Y-35759226D01*
X336271130Y-35663988D01*
X336271130Y-35378273D01*
X336223511Y-35283035D01*
X336175892Y-35235416D01*
%TO.C,R1*%
X336716666Y-45633630D02*
X337050000Y-45157440D01*
X337288095Y-45633630D02*
X337288095Y-44633630D01*
X336907142Y-44633630D01*
X336811904Y-44681250D01*
X336764285Y-44728869D01*
X336716666Y-44824107D01*
X336716666Y-44966964D01*
X336764285Y-45062202D01*
X336811904Y-45109821D01*
X336907142Y-45157440D01*
X337288095Y-45157440D01*
X335764285Y-45633630D02*
X336335714Y-45633630D01*
X336050000Y-45633630D02*
X336050000Y-44633630D01*
X336145238Y-44776488D01*
X336240476Y-44871726D01*
X336335714Y-44919345D01*
%TO.C,J1*%
X332914583Y-23002380D02*
X332914583Y-23716666D01*
X332962202Y-23859523D01*
X333057440Y-23954761D01*
X333200297Y-24002380D01*
X333295535Y-24002380D01*
X331914583Y-24002380D02*
X332486011Y-24002380D01*
X332200297Y-24002380D02*
X332200297Y-23002380D01*
X332295535Y-23145238D01*
X332390773Y-23240476D01*
X332486011Y-23288095D01*
%TO.C,D92*%
X291726785Y-85796130D02*
X291726785Y-84796130D01*
X291488690Y-84796130D01*
X291345833Y-84843750D01*
X291250595Y-84938988D01*
X291202976Y-85034226D01*
X291155357Y-85224702D01*
X291155357Y-85367559D01*
X291202976Y-85558035D01*
X291250595Y-85653273D01*
X291345833Y-85748511D01*
X291488690Y-85796130D01*
X291726785Y-85796130D01*
X290679166Y-85796130D02*
X290488690Y-85796130D01*
X290393452Y-85748511D01*
X290345833Y-85700892D01*
X290250595Y-85558035D01*
X290202976Y-85367559D01*
X290202976Y-84986607D01*
X290250595Y-84891369D01*
X290298214Y-84843750D01*
X290393452Y-84796130D01*
X290583928Y-84796130D01*
X290679166Y-84843750D01*
X290726785Y-84891369D01*
X290774404Y-84986607D01*
X290774404Y-85224702D01*
X290726785Y-85319940D01*
X290679166Y-85367559D01*
X290583928Y-85415178D01*
X290393452Y-85415178D01*
X290298214Y-85367559D01*
X290250595Y-85319940D01*
X290202976Y-85224702D01*
X289822023Y-84891369D02*
X289774404Y-84843750D01*
X289679166Y-84796130D01*
X289441071Y-84796130D01*
X289345833Y-84843750D01*
X289298214Y-84891369D01*
X289250595Y-84986607D01*
X289250595Y-85081845D01*
X289298214Y-85224702D01*
X289869642Y-85796130D01*
X289250595Y-85796130D01*
%TO.C,D91*%
X385346785Y-142946130D02*
X385346785Y-141946130D01*
X385108690Y-141946130D01*
X384965833Y-141993750D01*
X384870595Y-142088988D01*
X384822976Y-142184226D01*
X384775357Y-142374702D01*
X384775357Y-142517559D01*
X384822976Y-142708035D01*
X384870595Y-142803273D01*
X384965833Y-142898511D01*
X385108690Y-142946130D01*
X385346785Y-142946130D01*
X384299166Y-142946130D02*
X384108690Y-142946130D01*
X384013452Y-142898511D01*
X383965833Y-142850892D01*
X383870595Y-142708035D01*
X383822976Y-142517559D01*
X383822976Y-142136607D01*
X383870595Y-142041369D01*
X383918214Y-141993750D01*
X384013452Y-141946130D01*
X384203928Y-141946130D01*
X384299166Y-141993750D01*
X384346785Y-142041369D01*
X384394404Y-142136607D01*
X384394404Y-142374702D01*
X384346785Y-142469940D01*
X384299166Y-142517559D01*
X384203928Y-142565178D01*
X384013452Y-142565178D01*
X383918214Y-142517559D01*
X383870595Y-142469940D01*
X383822976Y-142374702D01*
X382870595Y-142946130D02*
X383442023Y-142946130D01*
X383156309Y-142946130D02*
X383156309Y-141946130D01*
X383251547Y-142088988D01*
X383346785Y-142184226D01*
X383442023Y-142231845D01*
%TO.C,D90*%
X385389285Y-123896130D02*
X385389285Y-122896130D01*
X385151190Y-122896130D01*
X385008333Y-122943750D01*
X384913095Y-123038988D01*
X384865476Y-123134226D01*
X384817857Y-123324702D01*
X384817857Y-123467559D01*
X384865476Y-123658035D01*
X384913095Y-123753273D01*
X385008333Y-123848511D01*
X385151190Y-123896130D01*
X385389285Y-123896130D01*
X384341666Y-123896130D02*
X384151190Y-123896130D01*
X384055952Y-123848511D01*
X384008333Y-123800892D01*
X383913095Y-123658035D01*
X383865476Y-123467559D01*
X383865476Y-123086607D01*
X383913095Y-122991369D01*
X383960714Y-122943750D01*
X384055952Y-122896130D01*
X384246428Y-122896130D01*
X384341666Y-122943750D01*
X384389285Y-122991369D01*
X384436904Y-123086607D01*
X384436904Y-123324702D01*
X384389285Y-123419940D01*
X384341666Y-123467559D01*
X384246428Y-123515178D01*
X384055952Y-123515178D01*
X383960714Y-123467559D01*
X383913095Y-123419940D01*
X383865476Y-123324702D01*
X383246428Y-122896130D02*
X383151190Y-122896130D01*
X383055952Y-122943750D01*
X383008333Y-122991369D01*
X382960714Y-123086607D01*
X382913095Y-123277083D01*
X382913095Y-123515178D01*
X382960714Y-123705654D01*
X383008333Y-123800892D01*
X383055952Y-123848511D01*
X383151190Y-123896130D01*
X383246428Y-123896130D01*
X383341666Y-123848511D01*
X383389285Y-123800892D01*
X383436904Y-123705654D01*
X383484523Y-123515178D01*
X383484523Y-123277083D01*
X383436904Y-123086607D01*
X383389285Y-122991369D01*
X383341666Y-122943750D01*
X383246428Y-122896130D01*
%TO.C,D89*%
X385389285Y-104846130D02*
X385389285Y-103846130D01*
X385151190Y-103846130D01*
X385008333Y-103893750D01*
X384913095Y-103988988D01*
X384865476Y-104084226D01*
X384817857Y-104274702D01*
X384817857Y-104417559D01*
X384865476Y-104608035D01*
X384913095Y-104703273D01*
X385008333Y-104798511D01*
X385151190Y-104846130D01*
X385389285Y-104846130D01*
X384246428Y-104274702D02*
X384341666Y-104227083D01*
X384389285Y-104179464D01*
X384436904Y-104084226D01*
X384436904Y-104036607D01*
X384389285Y-103941369D01*
X384341666Y-103893750D01*
X384246428Y-103846130D01*
X384055952Y-103846130D01*
X383960714Y-103893750D01*
X383913095Y-103941369D01*
X383865476Y-104036607D01*
X383865476Y-104084226D01*
X383913095Y-104179464D01*
X383960714Y-104227083D01*
X384055952Y-104274702D01*
X384246428Y-104274702D01*
X384341666Y-104322321D01*
X384389285Y-104369940D01*
X384436904Y-104465178D01*
X384436904Y-104655654D01*
X384389285Y-104750892D01*
X384341666Y-104798511D01*
X384246428Y-104846130D01*
X384055952Y-104846130D01*
X383960714Y-104798511D01*
X383913095Y-104750892D01*
X383865476Y-104655654D01*
X383865476Y-104465178D01*
X383913095Y-104369940D01*
X383960714Y-104322321D01*
X384055952Y-104274702D01*
X383389285Y-104846130D02*
X383198809Y-104846130D01*
X383103571Y-104798511D01*
X383055952Y-104750892D01*
X382960714Y-104608035D01*
X382913095Y-104417559D01*
X382913095Y-104036607D01*
X382960714Y-103941369D01*
X383008333Y-103893750D01*
X383103571Y-103846130D01*
X383294047Y-103846130D01*
X383389285Y-103893750D01*
X383436904Y-103941369D01*
X383484523Y-104036607D01*
X383484523Y-104274702D01*
X383436904Y-104369940D01*
X383389285Y-104417559D01*
X383294047Y-104465178D01*
X383103571Y-104465178D01*
X383008333Y-104417559D01*
X382960714Y-104369940D01*
X382913095Y-104274702D01*
%TO.C,D88*%
X385389285Y-85796130D02*
X385389285Y-84796130D01*
X385151190Y-84796130D01*
X385008333Y-84843750D01*
X384913095Y-84938988D01*
X384865476Y-85034226D01*
X384817857Y-85224702D01*
X384817857Y-85367559D01*
X384865476Y-85558035D01*
X384913095Y-85653273D01*
X385008333Y-85748511D01*
X385151190Y-85796130D01*
X385389285Y-85796130D01*
X384246428Y-85224702D02*
X384341666Y-85177083D01*
X384389285Y-85129464D01*
X384436904Y-85034226D01*
X384436904Y-84986607D01*
X384389285Y-84891369D01*
X384341666Y-84843750D01*
X384246428Y-84796130D01*
X384055952Y-84796130D01*
X383960714Y-84843750D01*
X383913095Y-84891369D01*
X383865476Y-84986607D01*
X383865476Y-85034226D01*
X383913095Y-85129464D01*
X383960714Y-85177083D01*
X384055952Y-85224702D01*
X384246428Y-85224702D01*
X384341666Y-85272321D01*
X384389285Y-85319940D01*
X384436904Y-85415178D01*
X384436904Y-85605654D01*
X384389285Y-85700892D01*
X384341666Y-85748511D01*
X384246428Y-85796130D01*
X384055952Y-85796130D01*
X383960714Y-85748511D01*
X383913095Y-85700892D01*
X383865476Y-85605654D01*
X383865476Y-85415178D01*
X383913095Y-85319940D01*
X383960714Y-85272321D01*
X384055952Y-85224702D01*
X383294047Y-85224702D02*
X383389285Y-85177083D01*
X383436904Y-85129464D01*
X383484523Y-85034226D01*
X383484523Y-84986607D01*
X383436904Y-84891369D01*
X383389285Y-84843750D01*
X383294047Y-84796130D01*
X383103571Y-84796130D01*
X383008333Y-84843750D01*
X382960714Y-84891369D01*
X382913095Y-84986607D01*
X382913095Y-85034226D01*
X382960714Y-85129464D01*
X383008333Y-85177083D01*
X383103571Y-85224702D01*
X383294047Y-85224702D01*
X383389285Y-85272321D01*
X383436904Y-85319940D01*
X383484523Y-85415178D01*
X383484523Y-85605654D01*
X383436904Y-85700892D01*
X383389285Y-85748511D01*
X383294047Y-85796130D01*
X383103571Y-85796130D01*
X383008333Y-85748511D01*
X382960714Y-85700892D01*
X382913095Y-85605654D01*
X382913095Y-85415178D01*
X382960714Y-85319940D01*
X383008333Y-85272321D01*
X383103571Y-85224702D01*
%TO.C,D87*%
X385389285Y-66746130D02*
X385389285Y-65746130D01*
X385151190Y-65746130D01*
X385008333Y-65793750D01*
X384913095Y-65888988D01*
X384865476Y-65984226D01*
X384817857Y-66174702D01*
X384817857Y-66317559D01*
X384865476Y-66508035D01*
X384913095Y-66603273D01*
X385008333Y-66698511D01*
X385151190Y-66746130D01*
X385389285Y-66746130D01*
X384246428Y-66174702D02*
X384341666Y-66127083D01*
X384389285Y-66079464D01*
X384436904Y-65984226D01*
X384436904Y-65936607D01*
X384389285Y-65841369D01*
X384341666Y-65793750D01*
X384246428Y-65746130D01*
X384055952Y-65746130D01*
X383960714Y-65793750D01*
X383913095Y-65841369D01*
X383865476Y-65936607D01*
X383865476Y-65984226D01*
X383913095Y-66079464D01*
X383960714Y-66127083D01*
X384055952Y-66174702D01*
X384246428Y-66174702D01*
X384341666Y-66222321D01*
X384389285Y-66269940D01*
X384436904Y-66365178D01*
X384436904Y-66555654D01*
X384389285Y-66650892D01*
X384341666Y-66698511D01*
X384246428Y-66746130D01*
X384055952Y-66746130D01*
X383960714Y-66698511D01*
X383913095Y-66650892D01*
X383865476Y-66555654D01*
X383865476Y-66365178D01*
X383913095Y-66269940D01*
X383960714Y-66222321D01*
X384055952Y-66174702D01*
X383532142Y-65746130D02*
X382865476Y-65746130D01*
X383294047Y-66746130D01*
%TO.C,D86*%
X385389285Y-39758630D02*
X385389285Y-38758630D01*
X385151190Y-38758630D01*
X385008333Y-38806250D01*
X384913095Y-38901488D01*
X384865476Y-38996726D01*
X384817857Y-39187202D01*
X384817857Y-39330059D01*
X384865476Y-39520535D01*
X384913095Y-39615773D01*
X385008333Y-39711011D01*
X385151190Y-39758630D01*
X385389285Y-39758630D01*
X384246428Y-39187202D02*
X384341666Y-39139583D01*
X384389285Y-39091964D01*
X384436904Y-38996726D01*
X384436904Y-38949107D01*
X384389285Y-38853869D01*
X384341666Y-38806250D01*
X384246428Y-38758630D01*
X384055952Y-38758630D01*
X383960714Y-38806250D01*
X383913095Y-38853869D01*
X383865476Y-38949107D01*
X383865476Y-38996726D01*
X383913095Y-39091964D01*
X383960714Y-39139583D01*
X384055952Y-39187202D01*
X384246428Y-39187202D01*
X384341666Y-39234821D01*
X384389285Y-39282440D01*
X384436904Y-39377678D01*
X384436904Y-39568154D01*
X384389285Y-39663392D01*
X384341666Y-39711011D01*
X384246428Y-39758630D01*
X384055952Y-39758630D01*
X383960714Y-39711011D01*
X383913095Y-39663392D01*
X383865476Y-39568154D01*
X383865476Y-39377678D01*
X383913095Y-39282440D01*
X383960714Y-39234821D01*
X384055952Y-39187202D01*
X383008333Y-38758630D02*
X383198809Y-38758630D01*
X383294047Y-38806250D01*
X383341666Y-38853869D01*
X383436904Y-38996726D01*
X383484523Y-39187202D01*
X383484523Y-39568154D01*
X383436904Y-39663392D01*
X383389285Y-39711011D01*
X383294047Y-39758630D01*
X383103571Y-39758630D01*
X383008333Y-39711011D01*
X382960714Y-39663392D01*
X382913095Y-39568154D01*
X382913095Y-39330059D01*
X382960714Y-39234821D01*
X383008333Y-39187202D01*
X383103571Y-39139583D01*
X383294047Y-39139583D01*
X383389285Y-39187202D01*
X383436904Y-39234821D01*
X383484523Y-39330059D01*
%TO.C,D85*%
X366339285Y-142946130D02*
X366339285Y-141946130D01*
X366101190Y-141946130D01*
X365958333Y-141993750D01*
X365863095Y-142088988D01*
X365815476Y-142184226D01*
X365767857Y-142374702D01*
X365767857Y-142517559D01*
X365815476Y-142708035D01*
X365863095Y-142803273D01*
X365958333Y-142898511D01*
X366101190Y-142946130D01*
X366339285Y-142946130D01*
X365196428Y-142374702D02*
X365291666Y-142327083D01*
X365339285Y-142279464D01*
X365386904Y-142184226D01*
X365386904Y-142136607D01*
X365339285Y-142041369D01*
X365291666Y-141993750D01*
X365196428Y-141946130D01*
X365005952Y-141946130D01*
X364910714Y-141993750D01*
X364863095Y-142041369D01*
X364815476Y-142136607D01*
X364815476Y-142184226D01*
X364863095Y-142279464D01*
X364910714Y-142327083D01*
X365005952Y-142374702D01*
X365196428Y-142374702D01*
X365291666Y-142422321D01*
X365339285Y-142469940D01*
X365386904Y-142565178D01*
X365386904Y-142755654D01*
X365339285Y-142850892D01*
X365291666Y-142898511D01*
X365196428Y-142946130D01*
X365005952Y-142946130D01*
X364910714Y-142898511D01*
X364863095Y-142850892D01*
X364815476Y-142755654D01*
X364815476Y-142565178D01*
X364863095Y-142469940D01*
X364910714Y-142422321D01*
X365005952Y-142374702D01*
X363910714Y-141946130D02*
X364386904Y-141946130D01*
X364434523Y-142422321D01*
X364386904Y-142374702D01*
X364291666Y-142327083D01*
X364053571Y-142327083D01*
X363958333Y-142374702D01*
X363910714Y-142422321D01*
X363863095Y-142517559D01*
X363863095Y-142755654D01*
X363910714Y-142850892D01*
X363958333Y-142898511D01*
X364053571Y-142946130D01*
X364291666Y-142946130D01*
X364386904Y-142898511D01*
X364434523Y-142850892D01*
%TO.C,D84*%
X366339285Y-123896130D02*
X366339285Y-122896130D01*
X366101190Y-122896130D01*
X365958333Y-122943750D01*
X365863095Y-123038988D01*
X365815476Y-123134226D01*
X365767857Y-123324702D01*
X365767857Y-123467559D01*
X365815476Y-123658035D01*
X365863095Y-123753273D01*
X365958333Y-123848511D01*
X366101190Y-123896130D01*
X366339285Y-123896130D01*
X365196428Y-123324702D02*
X365291666Y-123277083D01*
X365339285Y-123229464D01*
X365386904Y-123134226D01*
X365386904Y-123086607D01*
X365339285Y-122991369D01*
X365291666Y-122943750D01*
X365196428Y-122896130D01*
X365005952Y-122896130D01*
X364910714Y-122943750D01*
X364863095Y-122991369D01*
X364815476Y-123086607D01*
X364815476Y-123134226D01*
X364863095Y-123229464D01*
X364910714Y-123277083D01*
X365005952Y-123324702D01*
X365196428Y-123324702D01*
X365291666Y-123372321D01*
X365339285Y-123419940D01*
X365386904Y-123515178D01*
X365386904Y-123705654D01*
X365339285Y-123800892D01*
X365291666Y-123848511D01*
X365196428Y-123896130D01*
X365005952Y-123896130D01*
X364910714Y-123848511D01*
X364863095Y-123800892D01*
X364815476Y-123705654D01*
X364815476Y-123515178D01*
X364863095Y-123419940D01*
X364910714Y-123372321D01*
X365005952Y-123324702D01*
X363958333Y-123229464D02*
X363958333Y-123896130D01*
X364196428Y-122848511D02*
X364434523Y-123562797D01*
X363815476Y-123562797D01*
%TO.C,D83*%
X366339285Y-104846130D02*
X366339285Y-103846130D01*
X366101190Y-103846130D01*
X365958333Y-103893750D01*
X365863095Y-103988988D01*
X365815476Y-104084226D01*
X365767857Y-104274702D01*
X365767857Y-104417559D01*
X365815476Y-104608035D01*
X365863095Y-104703273D01*
X365958333Y-104798511D01*
X366101190Y-104846130D01*
X366339285Y-104846130D01*
X365196428Y-104274702D02*
X365291666Y-104227083D01*
X365339285Y-104179464D01*
X365386904Y-104084226D01*
X365386904Y-104036607D01*
X365339285Y-103941369D01*
X365291666Y-103893750D01*
X365196428Y-103846130D01*
X365005952Y-103846130D01*
X364910714Y-103893750D01*
X364863095Y-103941369D01*
X364815476Y-104036607D01*
X364815476Y-104084226D01*
X364863095Y-104179464D01*
X364910714Y-104227083D01*
X365005952Y-104274702D01*
X365196428Y-104274702D01*
X365291666Y-104322321D01*
X365339285Y-104369940D01*
X365386904Y-104465178D01*
X365386904Y-104655654D01*
X365339285Y-104750892D01*
X365291666Y-104798511D01*
X365196428Y-104846130D01*
X365005952Y-104846130D01*
X364910714Y-104798511D01*
X364863095Y-104750892D01*
X364815476Y-104655654D01*
X364815476Y-104465178D01*
X364863095Y-104369940D01*
X364910714Y-104322321D01*
X365005952Y-104274702D01*
X364482142Y-103846130D02*
X363863095Y-103846130D01*
X364196428Y-104227083D01*
X364053571Y-104227083D01*
X363958333Y-104274702D01*
X363910714Y-104322321D01*
X363863095Y-104417559D01*
X363863095Y-104655654D01*
X363910714Y-104750892D01*
X363958333Y-104798511D01*
X364053571Y-104846130D01*
X364339285Y-104846130D01*
X364434523Y-104798511D01*
X364482142Y-104750892D01*
%TO.C,D82*%
X366339285Y-85796130D02*
X366339285Y-84796130D01*
X366101190Y-84796130D01*
X365958333Y-84843750D01*
X365863095Y-84938988D01*
X365815476Y-85034226D01*
X365767857Y-85224702D01*
X365767857Y-85367559D01*
X365815476Y-85558035D01*
X365863095Y-85653273D01*
X365958333Y-85748511D01*
X366101190Y-85796130D01*
X366339285Y-85796130D01*
X365196428Y-85224702D02*
X365291666Y-85177083D01*
X365339285Y-85129464D01*
X365386904Y-85034226D01*
X365386904Y-84986607D01*
X365339285Y-84891369D01*
X365291666Y-84843750D01*
X365196428Y-84796130D01*
X365005952Y-84796130D01*
X364910714Y-84843750D01*
X364863095Y-84891369D01*
X364815476Y-84986607D01*
X364815476Y-85034226D01*
X364863095Y-85129464D01*
X364910714Y-85177083D01*
X365005952Y-85224702D01*
X365196428Y-85224702D01*
X365291666Y-85272321D01*
X365339285Y-85319940D01*
X365386904Y-85415178D01*
X365386904Y-85605654D01*
X365339285Y-85700892D01*
X365291666Y-85748511D01*
X365196428Y-85796130D01*
X365005952Y-85796130D01*
X364910714Y-85748511D01*
X364863095Y-85700892D01*
X364815476Y-85605654D01*
X364815476Y-85415178D01*
X364863095Y-85319940D01*
X364910714Y-85272321D01*
X365005952Y-85224702D01*
X364434523Y-84891369D02*
X364386904Y-84843750D01*
X364291666Y-84796130D01*
X364053571Y-84796130D01*
X363958333Y-84843750D01*
X363910714Y-84891369D01*
X363863095Y-84986607D01*
X363863095Y-85081845D01*
X363910714Y-85224702D01*
X364482142Y-85796130D01*
X363863095Y-85796130D01*
%TO.C,D81*%
X366339285Y-66746130D02*
X366339285Y-65746130D01*
X366101190Y-65746130D01*
X365958333Y-65793750D01*
X365863095Y-65888988D01*
X365815476Y-65984226D01*
X365767857Y-66174702D01*
X365767857Y-66317559D01*
X365815476Y-66508035D01*
X365863095Y-66603273D01*
X365958333Y-66698511D01*
X366101190Y-66746130D01*
X366339285Y-66746130D01*
X365196428Y-66174702D02*
X365291666Y-66127083D01*
X365339285Y-66079464D01*
X365386904Y-65984226D01*
X365386904Y-65936607D01*
X365339285Y-65841369D01*
X365291666Y-65793750D01*
X365196428Y-65746130D01*
X365005952Y-65746130D01*
X364910714Y-65793750D01*
X364863095Y-65841369D01*
X364815476Y-65936607D01*
X364815476Y-65984226D01*
X364863095Y-66079464D01*
X364910714Y-66127083D01*
X365005952Y-66174702D01*
X365196428Y-66174702D01*
X365291666Y-66222321D01*
X365339285Y-66269940D01*
X365386904Y-66365178D01*
X365386904Y-66555654D01*
X365339285Y-66650892D01*
X365291666Y-66698511D01*
X365196428Y-66746130D01*
X365005952Y-66746130D01*
X364910714Y-66698511D01*
X364863095Y-66650892D01*
X364815476Y-66555654D01*
X364815476Y-66365178D01*
X364863095Y-66269940D01*
X364910714Y-66222321D01*
X365005952Y-66174702D01*
X363863095Y-66746130D02*
X364434523Y-66746130D01*
X364148809Y-66746130D02*
X364148809Y-65746130D01*
X364244047Y-65888988D01*
X364339285Y-65984226D01*
X364434523Y-66031845D01*
%TO.C,D80*%
X366339285Y-39758630D02*
X366339285Y-38758630D01*
X366101190Y-38758630D01*
X365958333Y-38806250D01*
X365863095Y-38901488D01*
X365815476Y-38996726D01*
X365767857Y-39187202D01*
X365767857Y-39330059D01*
X365815476Y-39520535D01*
X365863095Y-39615773D01*
X365958333Y-39711011D01*
X366101190Y-39758630D01*
X366339285Y-39758630D01*
X365196428Y-39187202D02*
X365291666Y-39139583D01*
X365339285Y-39091964D01*
X365386904Y-38996726D01*
X365386904Y-38949107D01*
X365339285Y-38853869D01*
X365291666Y-38806250D01*
X365196428Y-38758630D01*
X365005952Y-38758630D01*
X364910714Y-38806250D01*
X364863095Y-38853869D01*
X364815476Y-38949107D01*
X364815476Y-38996726D01*
X364863095Y-39091964D01*
X364910714Y-39139583D01*
X365005952Y-39187202D01*
X365196428Y-39187202D01*
X365291666Y-39234821D01*
X365339285Y-39282440D01*
X365386904Y-39377678D01*
X365386904Y-39568154D01*
X365339285Y-39663392D01*
X365291666Y-39711011D01*
X365196428Y-39758630D01*
X365005952Y-39758630D01*
X364910714Y-39711011D01*
X364863095Y-39663392D01*
X364815476Y-39568154D01*
X364815476Y-39377678D01*
X364863095Y-39282440D01*
X364910714Y-39234821D01*
X365005952Y-39187202D01*
X364196428Y-38758630D02*
X364101190Y-38758630D01*
X364005952Y-38806250D01*
X363958333Y-38853869D01*
X363910714Y-38949107D01*
X363863095Y-39139583D01*
X363863095Y-39377678D01*
X363910714Y-39568154D01*
X363958333Y-39663392D01*
X364005952Y-39711011D01*
X364101190Y-39758630D01*
X364196428Y-39758630D01*
X364291666Y-39711011D01*
X364339285Y-39663392D01*
X364386904Y-39568154D01*
X364434523Y-39377678D01*
X364434523Y-39139583D01*
X364386904Y-38949107D01*
X364339285Y-38853869D01*
X364291666Y-38806250D01*
X364196428Y-38758630D01*
%TO.C,D79*%
X347289285Y-142946130D02*
X347289285Y-141946130D01*
X347051190Y-141946130D01*
X346908333Y-141993750D01*
X346813095Y-142088988D01*
X346765476Y-142184226D01*
X346717857Y-142374702D01*
X346717857Y-142517559D01*
X346765476Y-142708035D01*
X346813095Y-142803273D01*
X346908333Y-142898511D01*
X347051190Y-142946130D01*
X347289285Y-142946130D01*
X346384523Y-141946130D02*
X345717857Y-141946130D01*
X346146428Y-142946130D01*
X345289285Y-142946130D02*
X345098809Y-142946130D01*
X345003571Y-142898511D01*
X344955952Y-142850892D01*
X344860714Y-142708035D01*
X344813095Y-142517559D01*
X344813095Y-142136607D01*
X344860714Y-142041369D01*
X344908333Y-141993750D01*
X345003571Y-141946130D01*
X345194047Y-141946130D01*
X345289285Y-141993750D01*
X345336904Y-142041369D01*
X345384523Y-142136607D01*
X345384523Y-142374702D01*
X345336904Y-142469940D01*
X345289285Y-142517559D01*
X345194047Y-142565178D01*
X345003571Y-142565178D01*
X344908333Y-142517559D01*
X344860714Y-142469940D01*
X344813095Y-142374702D01*
%TO.C,D78*%
X347289285Y-123896130D02*
X347289285Y-122896130D01*
X347051190Y-122896130D01*
X346908333Y-122943750D01*
X346813095Y-123038988D01*
X346765476Y-123134226D01*
X346717857Y-123324702D01*
X346717857Y-123467559D01*
X346765476Y-123658035D01*
X346813095Y-123753273D01*
X346908333Y-123848511D01*
X347051190Y-123896130D01*
X347289285Y-123896130D01*
X346384523Y-122896130D02*
X345717857Y-122896130D01*
X346146428Y-123896130D01*
X345194047Y-123324702D02*
X345289285Y-123277083D01*
X345336904Y-123229464D01*
X345384523Y-123134226D01*
X345384523Y-123086607D01*
X345336904Y-122991369D01*
X345289285Y-122943750D01*
X345194047Y-122896130D01*
X345003571Y-122896130D01*
X344908333Y-122943750D01*
X344860714Y-122991369D01*
X344813095Y-123086607D01*
X344813095Y-123134226D01*
X344860714Y-123229464D01*
X344908333Y-123277083D01*
X345003571Y-123324702D01*
X345194047Y-123324702D01*
X345289285Y-123372321D01*
X345336904Y-123419940D01*
X345384523Y-123515178D01*
X345384523Y-123705654D01*
X345336904Y-123800892D01*
X345289285Y-123848511D01*
X345194047Y-123896130D01*
X345003571Y-123896130D01*
X344908333Y-123848511D01*
X344860714Y-123800892D01*
X344813095Y-123705654D01*
X344813095Y-123515178D01*
X344860714Y-123419940D01*
X344908333Y-123372321D01*
X345003571Y-123324702D01*
%TO.C,D77*%
X347289285Y-104846130D02*
X347289285Y-103846130D01*
X347051190Y-103846130D01*
X346908333Y-103893750D01*
X346813095Y-103988988D01*
X346765476Y-104084226D01*
X346717857Y-104274702D01*
X346717857Y-104417559D01*
X346765476Y-104608035D01*
X346813095Y-104703273D01*
X346908333Y-104798511D01*
X347051190Y-104846130D01*
X347289285Y-104846130D01*
X346384523Y-103846130D02*
X345717857Y-103846130D01*
X346146428Y-104846130D01*
X345432142Y-103846130D02*
X344765476Y-103846130D01*
X345194047Y-104846130D01*
%TO.C,D76*%
X347289285Y-85796130D02*
X347289285Y-84796130D01*
X347051190Y-84796130D01*
X346908333Y-84843750D01*
X346813095Y-84938988D01*
X346765476Y-85034226D01*
X346717857Y-85224702D01*
X346717857Y-85367559D01*
X346765476Y-85558035D01*
X346813095Y-85653273D01*
X346908333Y-85748511D01*
X347051190Y-85796130D01*
X347289285Y-85796130D01*
X346384523Y-84796130D02*
X345717857Y-84796130D01*
X346146428Y-85796130D01*
X344908333Y-84796130D02*
X345098809Y-84796130D01*
X345194047Y-84843750D01*
X345241666Y-84891369D01*
X345336904Y-85034226D01*
X345384523Y-85224702D01*
X345384523Y-85605654D01*
X345336904Y-85700892D01*
X345289285Y-85748511D01*
X345194047Y-85796130D01*
X345003571Y-85796130D01*
X344908333Y-85748511D01*
X344860714Y-85700892D01*
X344813095Y-85605654D01*
X344813095Y-85367559D01*
X344860714Y-85272321D01*
X344908333Y-85224702D01*
X345003571Y-85177083D01*
X345194047Y-85177083D01*
X345289285Y-85224702D01*
X345336904Y-85272321D01*
X345384523Y-85367559D01*
%TO.C,D75*%
X347289285Y-66746130D02*
X347289285Y-65746130D01*
X347051190Y-65746130D01*
X346908333Y-65793750D01*
X346813095Y-65888988D01*
X346765476Y-65984226D01*
X346717857Y-66174702D01*
X346717857Y-66317559D01*
X346765476Y-66508035D01*
X346813095Y-66603273D01*
X346908333Y-66698511D01*
X347051190Y-66746130D01*
X347289285Y-66746130D01*
X346384523Y-65746130D02*
X345717857Y-65746130D01*
X346146428Y-66746130D01*
X344860714Y-65746130D02*
X345336904Y-65746130D01*
X345384523Y-66222321D01*
X345336904Y-66174702D01*
X345241666Y-66127083D01*
X345003571Y-66127083D01*
X344908333Y-66174702D01*
X344860714Y-66222321D01*
X344813095Y-66317559D01*
X344813095Y-66555654D01*
X344860714Y-66650892D01*
X344908333Y-66698511D01*
X345003571Y-66746130D01*
X345241666Y-66746130D01*
X345336904Y-66698511D01*
X345384523Y-66650892D01*
%TO.C,D74*%
X347289285Y-39758630D02*
X347289285Y-38758630D01*
X347051190Y-38758630D01*
X346908333Y-38806250D01*
X346813095Y-38901488D01*
X346765476Y-38996726D01*
X346717857Y-39187202D01*
X346717857Y-39330059D01*
X346765476Y-39520535D01*
X346813095Y-39615773D01*
X346908333Y-39711011D01*
X347051190Y-39758630D01*
X347289285Y-39758630D01*
X346384523Y-38758630D02*
X345717857Y-38758630D01*
X346146428Y-39758630D01*
X344908333Y-39091964D02*
X344908333Y-39758630D01*
X345146428Y-38711011D02*
X345384523Y-39425297D01*
X344765476Y-39425297D01*
%TO.C,D73*%
X310776785Y-66746130D02*
X310776785Y-65746130D01*
X310538690Y-65746130D01*
X310395833Y-65793750D01*
X310300595Y-65888988D01*
X310252976Y-65984226D01*
X310205357Y-66174702D01*
X310205357Y-66317559D01*
X310252976Y-66508035D01*
X310300595Y-66603273D01*
X310395833Y-66698511D01*
X310538690Y-66746130D01*
X310776785Y-66746130D01*
X309872023Y-65746130D02*
X309205357Y-65746130D01*
X309633928Y-66746130D01*
X308919642Y-65746130D02*
X308300595Y-65746130D01*
X308633928Y-66127083D01*
X308491071Y-66127083D01*
X308395833Y-66174702D01*
X308348214Y-66222321D01*
X308300595Y-66317559D01*
X308300595Y-66555654D01*
X308348214Y-66650892D01*
X308395833Y-66698511D01*
X308491071Y-66746130D01*
X308776785Y-66746130D01*
X308872023Y-66698511D01*
X308919642Y-66650892D01*
%TO.C,D72*%
X320301785Y-39758630D02*
X320301785Y-38758630D01*
X320063690Y-38758630D01*
X319920833Y-38806250D01*
X319825595Y-38901488D01*
X319777976Y-38996726D01*
X319730357Y-39187202D01*
X319730357Y-39330059D01*
X319777976Y-39520535D01*
X319825595Y-39615773D01*
X319920833Y-39711011D01*
X320063690Y-39758630D01*
X320301785Y-39758630D01*
X319397023Y-38758630D02*
X318730357Y-38758630D01*
X319158928Y-39758630D01*
X318397023Y-38853869D02*
X318349404Y-38806250D01*
X318254166Y-38758630D01*
X318016071Y-38758630D01*
X317920833Y-38806250D01*
X317873214Y-38853869D01*
X317825595Y-38949107D01*
X317825595Y-39044345D01*
X317873214Y-39187202D01*
X318444642Y-39758630D01*
X317825595Y-39758630D01*
%TO.C,D71*%
X315539285Y-85796130D02*
X315539285Y-84796130D01*
X315301190Y-84796130D01*
X315158333Y-84843750D01*
X315063095Y-84938988D01*
X315015476Y-85034226D01*
X314967857Y-85224702D01*
X314967857Y-85367559D01*
X315015476Y-85558035D01*
X315063095Y-85653273D01*
X315158333Y-85748511D01*
X315301190Y-85796130D01*
X315539285Y-85796130D01*
X314634523Y-84796130D02*
X313967857Y-84796130D01*
X314396428Y-85796130D01*
X313063095Y-85796130D02*
X313634523Y-85796130D01*
X313348809Y-85796130D02*
X313348809Y-84796130D01*
X313444047Y-84938988D01*
X313539285Y-85034226D01*
X313634523Y-85081845D01*
%TO.C,D70*%
X308395535Y-104846130D02*
X308395535Y-103846130D01*
X308157440Y-103846130D01*
X308014583Y-103893750D01*
X307919345Y-103988988D01*
X307871726Y-104084226D01*
X307824107Y-104274702D01*
X307824107Y-104417559D01*
X307871726Y-104608035D01*
X307919345Y-104703273D01*
X308014583Y-104798511D01*
X308157440Y-104846130D01*
X308395535Y-104846130D01*
X307490773Y-103846130D02*
X306824107Y-103846130D01*
X307252678Y-104846130D01*
X306252678Y-103846130D02*
X306157440Y-103846130D01*
X306062202Y-103893750D01*
X306014583Y-103941369D01*
X305966964Y-104036607D01*
X305919345Y-104227083D01*
X305919345Y-104465178D01*
X305966964Y-104655654D01*
X306014583Y-104750892D01*
X306062202Y-104798511D01*
X306157440Y-104846130D01*
X306252678Y-104846130D01*
X306347916Y-104798511D01*
X306395535Y-104750892D01*
X306443154Y-104655654D01*
X306490773Y-104465178D01*
X306490773Y-104227083D01*
X306443154Y-104036607D01*
X306395535Y-103941369D01*
X306347916Y-103893750D01*
X306252678Y-103846130D01*
%TO.C,D69*%
X317920535Y-142946130D02*
X317920535Y-141946130D01*
X317682440Y-141946130D01*
X317539583Y-141993750D01*
X317444345Y-142088988D01*
X317396726Y-142184226D01*
X317349107Y-142374702D01*
X317349107Y-142517559D01*
X317396726Y-142708035D01*
X317444345Y-142803273D01*
X317539583Y-142898511D01*
X317682440Y-142946130D01*
X317920535Y-142946130D01*
X316491964Y-141946130D02*
X316682440Y-141946130D01*
X316777678Y-141993750D01*
X316825297Y-142041369D01*
X316920535Y-142184226D01*
X316968154Y-142374702D01*
X316968154Y-142755654D01*
X316920535Y-142850892D01*
X316872916Y-142898511D01*
X316777678Y-142946130D01*
X316587202Y-142946130D01*
X316491964Y-142898511D01*
X316444345Y-142850892D01*
X316396726Y-142755654D01*
X316396726Y-142517559D01*
X316444345Y-142422321D01*
X316491964Y-142374702D01*
X316587202Y-142327083D01*
X316777678Y-142327083D01*
X316872916Y-142374702D01*
X316920535Y-142422321D01*
X316968154Y-142517559D01*
X315920535Y-142946130D02*
X315730059Y-142946130D01*
X315634821Y-142898511D01*
X315587202Y-142850892D01*
X315491964Y-142708035D01*
X315444345Y-142517559D01*
X315444345Y-142136607D01*
X315491964Y-142041369D01*
X315539583Y-141993750D01*
X315634821Y-141946130D01*
X315825297Y-141946130D01*
X315920535Y-141993750D01*
X315968154Y-142041369D01*
X316015773Y-142136607D01*
X316015773Y-142374702D01*
X315968154Y-142469940D01*
X315920535Y-142517559D01*
X315825297Y-142565178D01*
X315634821Y-142565178D01*
X315539583Y-142517559D01*
X315491964Y-142469940D01*
X315444345Y-142374702D01*
%TO.C,D68*%
X303633035Y-123896130D02*
X303633035Y-122896130D01*
X303394940Y-122896130D01*
X303252083Y-122943750D01*
X303156845Y-123038988D01*
X303109226Y-123134226D01*
X303061607Y-123324702D01*
X303061607Y-123467559D01*
X303109226Y-123658035D01*
X303156845Y-123753273D01*
X303252083Y-123848511D01*
X303394940Y-123896130D01*
X303633035Y-123896130D01*
X302204464Y-122896130D02*
X302394940Y-122896130D01*
X302490178Y-122943750D01*
X302537797Y-122991369D01*
X302633035Y-123134226D01*
X302680654Y-123324702D01*
X302680654Y-123705654D01*
X302633035Y-123800892D01*
X302585416Y-123848511D01*
X302490178Y-123896130D01*
X302299702Y-123896130D01*
X302204464Y-123848511D01*
X302156845Y-123800892D01*
X302109226Y-123705654D01*
X302109226Y-123467559D01*
X302156845Y-123372321D01*
X302204464Y-123324702D01*
X302299702Y-123277083D01*
X302490178Y-123277083D01*
X302585416Y-123324702D01*
X302633035Y-123372321D01*
X302680654Y-123467559D01*
X301537797Y-123324702D02*
X301633035Y-123277083D01*
X301680654Y-123229464D01*
X301728273Y-123134226D01*
X301728273Y-123086607D01*
X301680654Y-122991369D01*
X301633035Y-122943750D01*
X301537797Y-122896130D01*
X301347321Y-122896130D01*
X301252083Y-122943750D01*
X301204464Y-122991369D01*
X301156845Y-123086607D01*
X301156845Y-123134226D01*
X301204464Y-123229464D01*
X301252083Y-123277083D01*
X301347321Y-123324702D01*
X301537797Y-123324702D01*
X301633035Y-123372321D01*
X301680654Y-123419940D01*
X301728273Y-123515178D01*
X301728273Y-123705654D01*
X301680654Y-123800892D01*
X301633035Y-123848511D01*
X301537797Y-123896130D01*
X301347321Y-123896130D01*
X301252083Y-123848511D01*
X301204464Y-123800892D01*
X301156845Y-123705654D01*
X301156845Y-123515178D01*
X301204464Y-123419940D01*
X301252083Y-123372321D01*
X301347321Y-123324702D01*
%TO.C,D67*%
X282201785Y-66746130D02*
X282201785Y-65746130D01*
X281963690Y-65746130D01*
X281820833Y-65793750D01*
X281725595Y-65888988D01*
X281677976Y-65984226D01*
X281630357Y-66174702D01*
X281630357Y-66317559D01*
X281677976Y-66508035D01*
X281725595Y-66603273D01*
X281820833Y-66698511D01*
X281963690Y-66746130D01*
X282201785Y-66746130D01*
X280773214Y-65746130D02*
X280963690Y-65746130D01*
X281058928Y-65793750D01*
X281106547Y-65841369D01*
X281201785Y-65984226D01*
X281249404Y-66174702D01*
X281249404Y-66555654D01*
X281201785Y-66650892D01*
X281154166Y-66698511D01*
X281058928Y-66746130D01*
X280868452Y-66746130D01*
X280773214Y-66698511D01*
X280725595Y-66650892D01*
X280677976Y-66555654D01*
X280677976Y-66317559D01*
X280725595Y-66222321D01*
X280773214Y-66174702D01*
X280868452Y-66127083D01*
X281058928Y-66127083D01*
X281154166Y-66174702D01*
X281201785Y-66222321D01*
X281249404Y-66317559D01*
X280344642Y-65746130D02*
X279677976Y-65746130D01*
X280106547Y-66746130D01*
%TO.C,D66*%
X301251785Y-39758630D02*
X301251785Y-38758630D01*
X301013690Y-38758630D01*
X300870833Y-38806250D01*
X300775595Y-38901488D01*
X300727976Y-38996726D01*
X300680357Y-39187202D01*
X300680357Y-39330059D01*
X300727976Y-39520535D01*
X300775595Y-39615773D01*
X300870833Y-39711011D01*
X301013690Y-39758630D01*
X301251785Y-39758630D01*
X299823214Y-38758630D02*
X300013690Y-38758630D01*
X300108928Y-38806250D01*
X300156547Y-38853869D01*
X300251785Y-38996726D01*
X300299404Y-39187202D01*
X300299404Y-39568154D01*
X300251785Y-39663392D01*
X300204166Y-39711011D01*
X300108928Y-39758630D01*
X299918452Y-39758630D01*
X299823214Y-39711011D01*
X299775595Y-39663392D01*
X299727976Y-39568154D01*
X299727976Y-39330059D01*
X299775595Y-39234821D01*
X299823214Y-39187202D01*
X299918452Y-39139583D01*
X300108928Y-39139583D01*
X300204166Y-39187202D01*
X300251785Y-39234821D01*
X300299404Y-39330059D01*
X298870833Y-38758630D02*
X299061309Y-38758630D01*
X299156547Y-38806250D01*
X299204166Y-38853869D01*
X299299404Y-38996726D01*
X299347023Y-39187202D01*
X299347023Y-39568154D01*
X299299404Y-39663392D01*
X299251785Y-39711011D01*
X299156547Y-39758630D01*
X298966071Y-39758630D01*
X298870833Y-39711011D01*
X298823214Y-39663392D01*
X298775595Y-39568154D01*
X298775595Y-39330059D01*
X298823214Y-39234821D01*
X298870833Y-39187202D01*
X298966071Y-39139583D01*
X299156547Y-39139583D01*
X299251785Y-39187202D01*
X299299404Y-39234821D01*
X299347023Y-39330059D01*
%TO.C,D65*%
X277439285Y-104846130D02*
X277439285Y-103846130D01*
X277201190Y-103846130D01*
X277058333Y-103893750D01*
X276963095Y-103988988D01*
X276915476Y-104084226D01*
X276867857Y-104274702D01*
X276867857Y-104417559D01*
X276915476Y-104608035D01*
X276963095Y-104703273D01*
X277058333Y-104798511D01*
X277201190Y-104846130D01*
X277439285Y-104846130D01*
X276010714Y-103846130D02*
X276201190Y-103846130D01*
X276296428Y-103893750D01*
X276344047Y-103941369D01*
X276439285Y-104084226D01*
X276486904Y-104274702D01*
X276486904Y-104655654D01*
X276439285Y-104750892D01*
X276391666Y-104798511D01*
X276296428Y-104846130D01*
X276105952Y-104846130D01*
X276010714Y-104798511D01*
X275963095Y-104750892D01*
X275915476Y-104655654D01*
X275915476Y-104417559D01*
X275963095Y-104322321D01*
X276010714Y-104274702D01*
X276105952Y-104227083D01*
X276296428Y-104227083D01*
X276391666Y-104274702D01*
X276439285Y-104322321D01*
X276486904Y-104417559D01*
X275010714Y-103846130D02*
X275486904Y-103846130D01*
X275534523Y-104322321D01*
X275486904Y-104274702D01*
X275391666Y-104227083D01*
X275153571Y-104227083D01*
X275058333Y-104274702D01*
X275010714Y-104322321D01*
X274963095Y-104417559D01*
X274963095Y-104655654D01*
X275010714Y-104750892D01*
X275058333Y-104798511D01*
X275153571Y-104846130D01*
X275391666Y-104846130D01*
X275486904Y-104798511D01*
X275534523Y-104750892D01*
%TO.C,D64*%
X272676785Y-85796130D02*
X272676785Y-84796130D01*
X272438690Y-84796130D01*
X272295833Y-84843750D01*
X272200595Y-84938988D01*
X272152976Y-85034226D01*
X272105357Y-85224702D01*
X272105357Y-85367559D01*
X272152976Y-85558035D01*
X272200595Y-85653273D01*
X272295833Y-85748511D01*
X272438690Y-85796130D01*
X272676785Y-85796130D01*
X271248214Y-84796130D02*
X271438690Y-84796130D01*
X271533928Y-84843750D01*
X271581547Y-84891369D01*
X271676785Y-85034226D01*
X271724404Y-85224702D01*
X271724404Y-85605654D01*
X271676785Y-85700892D01*
X271629166Y-85748511D01*
X271533928Y-85796130D01*
X271343452Y-85796130D01*
X271248214Y-85748511D01*
X271200595Y-85700892D01*
X271152976Y-85605654D01*
X271152976Y-85367559D01*
X271200595Y-85272321D01*
X271248214Y-85224702D01*
X271343452Y-85177083D01*
X271533928Y-85177083D01*
X271629166Y-85224702D01*
X271676785Y-85272321D01*
X271724404Y-85367559D01*
X270295833Y-85129464D02*
X270295833Y-85796130D01*
X270533928Y-84748511D02*
X270772023Y-85462797D01*
X270152976Y-85462797D01*
%TO.C,D63*%
X294170535Y-142946130D02*
X294170535Y-141946130D01*
X293932440Y-141946130D01*
X293789583Y-141993750D01*
X293694345Y-142088988D01*
X293646726Y-142184226D01*
X293599107Y-142374702D01*
X293599107Y-142517559D01*
X293646726Y-142708035D01*
X293694345Y-142803273D01*
X293789583Y-142898511D01*
X293932440Y-142946130D01*
X294170535Y-142946130D01*
X292741964Y-141946130D02*
X292932440Y-141946130D01*
X293027678Y-141993750D01*
X293075297Y-142041369D01*
X293170535Y-142184226D01*
X293218154Y-142374702D01*
X293218154Y-142755654D01*
X293170535Y-142850892D01*
X293122916Y-142898511D01*
X293027678Y-142946130D01*
X292837202Y-142946130D01*
X292741964Y-142898511D01*
X292694345Y-142850892D01*
X292646726Y-142755654D01*
X292646726Y-142517559D01*
X292694345Y-142422321D01*
X292741964Y-142374702D01*
X292837202Y-142327083D01*
X293027678Y-142327083D01*
X293122916Y-142374702D01*
X293170535Y-142422321D01*
X293218154Y-142517559D01*
X292313392Y-141946130D02*
X291694345Y-141946130D01*
X292027678Y-142327083D01*
X291884821Y-142327083D01*
X291789583Y-142374702D01*
X291741964Y-142422321D01*
X291694345Y-142517559D01*
X291694345Y-142755654D01*
X291741964Y-142850892D01*
X291789583Y-142898511D01*
X291884821Y-142946130D01*
X292170535Y-142946130D01*
X292265773Y-142898511D01*
X292313392Y-142850892D01*
%TO.C,D62*%
X263214285Y-66746130D02*
X263214285Y-65746130D01*
X262976190Y-65746130D01*
X262833333Y-65793750D01*
X262738095Y-65888988D01*
X262690476Y-65984226D01*
X262642857Y-66174702D01*
X262642857Y-66317559D01*
X262690476Y-66508035D01*
X262738095Y-66603273D01*
X262833333Y-66698511D01*
X262976190Y-66746130D01*
X263214285Y-66746130D01*
X261785714Y-65746130D02*
X261976190Y-65746130D01*
X262071428Y-65793750D01*
X262119047Y-65841369D01*
X262214285Y-65984226D01*
X262261904Y-66174702D01*
X262261904Y-66555654D01*
X262214285Y-66650892D01*
X262166666Y-66698511D01*
X262071428Y-66746130D01*
X261880952Y-66746130D01*
X261785714Y-66698511D01*
X261738095Y-66650892D01*
X261690476Y-66555654D01*
X261690476Y-66317559D01*
X261738095Y-66222321D01*
X261785714Y-66174702D01*
X261880952Y-66127083D01*
X262071428Y-66127083D01*
X262166666Y-66174702D01*
X262214285Y-66222321D01*
X262261904Y-66317559D01*
X261309523Y-65841369D02*
X261261904Y-65793750D01*
X261166666Y-65746130D01*
X260928571Y-65746130D01*
X260833333Y-65793750D01*
X260785714Y-65841369D01*
X260738095Y-65936607D01*
X260738095Y-66031845D01*
X260785714Y-66174702D01*
X261357142Y-66746130D01*
X260738095Y-66746130D01*
%TO.C,D61*%
X282201785Y-39758630D02*
X282201785Y-38758630D01*
X281963690Y-38758630D01*
X281820833Y-38806250D01*
X281725595Y-38901488D01*
X281677976Y-38996726D01*
X281630357Y-39187202D01*
X281630357Y-39330059D01*
X281677976Y-39520535D01*
X281725595Y-39615773D01*
X281820833Y-39711011D01*
X281963690Y-39758630D01*
X282201785Y-39758630D01*
X280773214Y-38758630D02*
X280963690Y-38758630D01*
X281058928Y-38806250D01*
X281106547Y-38853869D01*
X281201785Y-38996726D01*
X281249404Y-39187202D01*
X281249404Y-39568154D01*
X281201785Y-39663392D01*
X281154166Y-39711011D01*
X281058928Y-39758630D01*
X280868452Y-39758630D01*
X280773214Y-39711011D01*
X280725595Y-39663392D01*
X280677976Y-39568154D01*
X280677976Y-39330059D01*
X280725595Y-39234821D01*
X280773214Y-39187202D01*
X280868452Y-39139583D01*
X281058928Y-39139583D01*
X281154166Y-39187202D01*
X281201785Y-39234821D01*
X281249404Y-39330059D01*
X279725595Y-39758630D02*
X280297023Y-39758630D01*
X280011309Y-39758630D02*
X280011309Y-38758630D01*
X280106547Y-38901488D01*
X280201785Y-38996726D01*
X280297023Y-39044345D01*
%TO.C,D60*%
X267914285Y-123896130D02*
X267914285Y-122896130D01*
X267676190Y-122896130D01*
X267533333Y-122943750D01*
X267438095Y-123038988D01*
X267390476Y-123134226D01*
X267342857Y-123324702D01*
X267342857Y-123467559D01*
X267390476Y-123658035D01*
X267438095Y-123753273D01*
X267533333Y-123848511D01*
X267676190Y-123896130D01*
X267914285Y-123896130D01*
X266485714Y-122896130D02*
X266676190Y-122896130D01*
X266771428Y-122943750D01*
X266819047Y-122991369D01*
X266914285Y-123134226D01*
X266961904Y-123324702D01*
X266961904Y-123705654D01*
X266914285Y-123800892D01*
X266866666Y-123848511D01*
X266771428Y-123896130D01*
X266580952Y-123896130D01*
X266485714Y-123848511D01*
X266438095Y-123800892D01*
X266390476Y-123705654D01*
X266390476Y-123467559D01*
X266438095Y-123372321D01*
X266485714Y-123324702D01*
X266580952Y-123277083D01*
X266771428Y-123277083D01*
X266866666Y-123324702D01*
X266914285Y-123372321D01*
X266961904Y-123467559D01*
X265771428Y-122896130D02*
X265676190Y-122896130D01*
X265580952Y-122943750D01*
X265533333Y-122991369D01*
X265485714Y-123086607D01*
X265438095Y-123277083D01*
X265438095Y-123515178D01*
X265485714Y-123705654D01*
X265533333Y-123800892D01*
X265580952Y-123848511D01*
X265676190Y-123896130D01*
X265771428Y-123896130D01*
X265866666Y-123848511D01*
X265914285Y-123800892D01*
X265961904Y-123705654D01*
X266009523Y-123515178D01*
X266009523Y-123277083D01*
X265961904Y-123086607D01*
X265914285Y-122991369D01*
X265866666Y-122943750D01*
X265771428Y-122896130D01*
%TO.C,D59*%
X258389285Y-104846130D02*
X258389285Y-103846130D01*
X258151190Y-103846130D01*
X258008333Y-103893750D01*
X257913095Y-103988988D01*
X257865476Y-104084226D01*
X257817857Y-104274702D01*
X257817857Y-104417559D01*
X257865476Y-104608035D01*
X257913095Y-104703273D01*
X258008333Y-104798511D01*
X258151190Y-104846130D01*
X258389285Y-104846130D01*
X256913095Y-103846130D02*
X257389285Y-103846130D01*
X257436904Y-104322321D01*
X257389285Y-104274702D01*
X257294047Y-104227083D01*
X257055952Y-104227083D01*
X256960714Y-104274702D01*
X256913095Y-104322321D01*
X256865476Y-104417559D01*
X256865476Y-104655654D01*
X256913095Y-104750892D01*
X256960714Y-104798511D01*
X257055952Y-104846130D01*
X257294047Y-104846130D01*
X257389285Y-104798511D01*
X257436904Y-104750892D01*
X256389285Y-104846130D02*
X256198809Y-104846130D01*
X256103571Y-104798511D01*
X256055952Y-104750892D01*
X255960714Y-104608035D01*
X255913095Y-104417559D01*
X255913095Y-104036607D01*
X255960714Y-103941369D01*
X256008333Y-103893750D01*
X256103571Y-103846130D01*
X256294047Y-103846130D01*
X256389285Y-103893750D01*
X256436904Y-103941369D01*
X256484523Y-104036607D01*
X256484523Y-104274702D01*
X256436904Y-104369940D01*
X256389285Y-104417559D01*
X256294047Y-104465178D01*
X256103571Y-104465178D01*
X256008333Y-104417559D01*
X255960714Y-104369940D01*
X255913095Y-104274702D01*
%TO.C,D58*%
X253626785Y-85796130D02*
X253626785Y-84796130D01*
X253388690Y-84796130D01*
X253245833Y-84843750D01*
X253150595Y-84938988D01*
X253102976Y-85034226D01*
X253055357Y-85224702D01*
X253055357Y-85367559D01*
X253102976Y-85558035D01*
X253150595Y-85653273D01*
X253245833Y-85748511D01*
X253388690Y-85796130D01*
X253626785Y-85796130D01*
X252150595Y-84796130D02*
X252626785Y-84796130D01*
X252674404Y-85272321D01*
X252626785Y-85224702D01*
X252531547Y-85177083D01*
X252293452Y-85177083D01*
X252198214Y-85224702D01*
X252150595Y-85272321D01*
X252102976Y-85367559D01*
X252102976Y-85605654D01*
X252150595Y-85700892D01*
X252198214Y-85748511D01*
X252293452Y-85796130D01*
X252531547Y-85796130D01*
X252626785Y-85748511D01*
X252674404Y-85700892D01*
X251531547Y-85224702D02*
X251626785Y-85177083D01*
X251674404Y-85129464D01*
X251722023Y-85034226D01*
X251722023Y-84986607D01*
X251674404Y-84891369D01*
X251626785Y-84843750D01*
X251531547Y-84796130D01*
X251341071Y-84796130D01*
X251245833Y-84843750D01*
X251198214Y-84891369D01*
X251150595Y-84986607D01*
X251150595Y-85034226D01*
X251198214Y-85129464D01*
X251245833Y-85177083D01*
X251341071Y-85224702D01*
X251531547Y-85224702D01*
X251626785Y-85272321D01*
X251674404Y-85319940D01*
X251722023Y-85415178D01*
X251722023Y-85605654D01*
X251674404Y-85700892D01*
X251626785Y-85748511D01*
X251531547Y-85796130D01*
X251341071Y-85796130D01*
X251245833Y-85748511D01*
X251198214Y-85700892D01*
X251150595Y-85605654D01*
X251150595Y-85415178D01*
X251198214Y-85319940D01*
X251245833Y-85272321D01*
X251341071Y-85224702D01*
%TO.C,D57*%
X244101785Y-66746130D02*
X244101785Y-65746130D01*
X243863690Y-65746130D01*
X243720833Y-65793750D01*
X243625595Y-65888988D01*
X243577976Y-65984226D01*
X243530357Y-66174702D01*
X243530357Y-66317559D01*
X243577976Y-66508035D01*
X243625595Y-66603273D01*
X243720833Y-66698511D01*
X243863690Y-66746130D01*
X244101785Y-66746130D01*
X242625595Y-65746130D02*
X243101785Y-65746130D01*
X243149404Y-66222321D01*
X243101785Y-66174702D01*
X243006547Y-66127083D01*
X242768452Y-66127083D01*
X242673214Y-66174702D01*
X242625595Y-66222321D01*
X242577976Y-66317559D01*
X242577976Y-66555654D01*
X242625595Y-66650892D01*
X242673214Y-66698511D01*
X242768452Y-66746130D01*
X243006547Y-66746130D01*
X243101785Y-66698511D01*
X243149404Y-66650892D01*
X242244642Y-65746130D02*
X241577976Y-65746130D01*
X242006547Y-66746130D01*
%TO.C,D56*%
X263151785Y-39758630D02*
X263151785Y-38758630D01*
X262913690Y-38758630D01*
X262770833Y-38806250D01*
X262675595Y-38901488D01*
X262627976Y-38996726D01*
X262580357Y-39187202D01*
X262580357Y-39330059D01*
X262627976Y-39520535D01*
X262675595Y-39615773D01*
X262770833Y-39711011D01*
X262913690Y-39758630D01*
X263151785Y-39758630D01*
X261675595Y-38758630D02*
X262151785Y-38758630D01*
X262199404Y-39234821D01*
X262151785Y-39187202D01*
X262056547Y-39139583D01*
X261818452Y-39139583D01*
X261723214Y-39187202D01*
X261675595Y-39234821D01*
X261627976Y-39330059D01*
X261627976Y-39568154D01*
X261675595Y-39663392D01*
X261723214Y-39711011D01*
X261818452Y-39758630D01*
X262056547Y-39758630D01*
X262151785Y-39711011D01*
X262199404Y-39663392D01*
X260770833Y-38758630D02*
X260961309Y-38758630D01*
X261056547Y-38806250D01*
X261104166Y-38853869D01*
X261199404Y-38996726D01*
X261247023Y-39187202D01*
X261247023Y-39568154D01*
X261199404Y-39663392D01*
X261151785Y-39711011D01*
X261056547Y-39758630D01*
X260866071Y-39758630D01*
X260770833Y-39711011D01*
X260723214Y-39663392D01*
X260675595Y-39568154D01*
X260675595Y-39330059D01*
X260723214Y-39234821D01*
X260770833Y-39187202D01*
X260866071Y-39139583D01*
X261056547Y-39139583D01*
X261151785Y-39187202D01*
X261199404Y-39234821D01*
X261247023Y-39330059D01*
%TO.C,D55*%
X248864285Y-123896130D02*
X248864285Y-122896130D01*
X248626190Y-122896130D01*
X248483333Y-122943750D01*
X248388095Y-123038988D01*
X248340476Y-123134226D01*
X248292857Y-123324702D01*
X248292857Y-123467559D01*
X248340476Y-123658035D01*
X248388095Y-123753273D01*
X248483333Y-123848511D01*
X248626190Y-123896130D01*
X248864285Y-123896130D01*
X247388095Y-122896130D02*
X247864285Y-122896130D01*
X247911904Y-123372321D01*
X247864285Y-123324702D01*
X247769047Y-123277083D01*
X247530952Y-123277083D01*
X247435714Y-123324702D01*
X247388095Y-123372321D01*
X247340476Y-123467559D01*
X247340476Y-123705654D01*
X247388095Y-123800892D01*
X247435714Y-123848511D01*
X247530952Y-123896130D01*
X247769047Y-123896130D01*
X247864285Y-123848511D01*
X247911904Y-123800892D01*
X246435714Y-122896130D02*
X246911904Y-122896130D01*
X246959523Y-123372321D01*
X246911904Y-123324702D01*
X246816666Y-123277083D01*
X246578571Y-123277083D01*
X246483333Y-123324702D01*
X246435714Y-123372321D01*
X246388095Y-123467559D01*
X246388095Y-123705654D01*
X246435714Y-123800892D01*
X246483333Y-123848511D01*
X246578571Y-123896130D01*
X246816666Y-123896130D01*
X246911904Y-123848511D01*
X246959523Y-123800892D01*
%TO.C,D54*%
X270295535Y-142946130D02*
X270295535Y-141946130D01*
X270057440Y-141946130D01*
X269914583Y-141993750D01*
X269819345Y-142088988D01*
X269771726Y-142184226D01*
X269724107Y-142374702D01*
X269724107Y-142517559D01*
X269771726Y-142708035D01*
X269819345Y-142803273D01*
X269914583Y-142898511D01*
X270057440Y-142946130D01*
X270295535Y-142946130D01*
X268819345Y-141946130D02*
X269295535Y-141946130D01*
X269343154Y-142422321D01*
X269295535Y-142374702D01*
X269200297Y-142327083D01*
X268962202Y-142327083D01*
X268866964Y-142374702D01*
X268819345Y-142422321D01*
X268771726Y-142517559D01*
X268771726Y-142755654D01*
X268819345Y-142850892D01*
X268866964Y-142898511D01*
X268962202Y-142946130D01*
X269200297Y-142946130D01*
X269295535Y-142898511D01*
X269343154Y-142850892D01*
X267914583Y-142279464D02*
X267914583Y-142946130D01*
X268152678Y-141898511D02*
X268390773Y-142612797D01*
X267771726Y-142612797D01*
%TO.C,D53*%
X239339285Y-104846130D02*
X239339285Y-103846130D01*
X239101190Y-103846130D01*
X238958333Y-103893750D01*
X238863095Y-103988988D01*
X238815476Y-104084226D01*
X238767857Y-104274702D01*
X238767857Y-104417559D01*
X238815476Y-104608035D01*
X238863095Y-104703273D01*
X238958333Y-104798511D01*
X239101190Y-104846130D01*
X239339285Y-104846130D01*
X237863095Y-103846130D02*
X238339285Y-103846130D01*
X238386904Y-104322321D01*
X238339285Y-104274702D01*
X238244047Y-104227083D01*
X238005952Y-104227083D01*
X237910714Y-104274702D01*
X237863095Y-104322321D01*
X237815476Y-104417559D01*
X237815476Y-104655654D01*
X237863095Y-104750892D01*
X237910714Y-104798511D01*
X238005952Y-104846130D01*
X238244047Y-104846130D01*
X238339285Y-104798511D01*
X238386904Y-104750892D01*
X237482142Y-103846130D02*
X236863095Y-103846130D01*
X237196428Y-104227083D01*
X237053571Y-104227083D01*
X236958333Y-104274702D01*
X236910714Y-104322321D01*
X236863095Y-104417559D01*
X236863095Y-104655654D01*
X236910714Y-104750892D01*
X236958333Y-104798511D01*
X237053571Y-104846130D01*
X237339285Y-104846130D01*
X237434523Y-104798511D01*
X237482142Y-104750892D01*
%TO.C,D52*%
X234576785Y-85796130D02*
X234576785Y-84796130D01*
X234338690Y-84796130D01*
X234195833Y-84843750D01*
X234100595Y-84938988D01*
X234052976Y-85034226D01*
X234005357Y-85224702D01*
X234005357Y-85367559D01*
X234052976Y-85558035D01*
X234100595Y-85653273D01*
X234195833Y-85748511D01*
X234338690Y-85796130D01*
X234576785Y-85796130D01*
X233100595Y-84796130D02*
X233576785Y-84796130D01*
X233624404Y-85272321D01*
X233576785Y-85224702D01*
X233481547Y-85177083D01*
X233243452Y-85177083D01*
X233148214Y-85224702D01*
X233100595Y-85272321D01*
X233052976Y-85367559D01*
X233052976Y-85605654D01*
X233100595Y-85700892D01*
X233148214Y-85748511D01*
X233243452Y-85796130D01*
X233481547Y-85796130D01*
X233576785Y-85748511D01*
X233624404Y-85700892D01*
X232672023Y-84891369D02*
X232624404Y-84843750D01*
X232529166Y-84796130D01*
X232291071Y-84796130D01*
X232195833Y-84843750D01*
X232148214Y-84891369D01*
X232100595Y-84986607D01*
X232100595Y-85081845D01*
X232148214Y-85224702D01*
X232719642Y-85796130D01*
X232100595Y-85796130D01*
%TO.C,D51*%
X225114285Y-66746130D02*
X225114285Y-65746130D01*
X224876190Y-65746130D01*
X224733333Y-65793750D01*
X224638095Y-65888988D01*
X224590476Y-65984226D01*
X224542857Y-66174702D01*
X224542857Y-66317559D01*
X224590476Y-66508035D01*
X224638095Y-66603273D01*
X224733333Y-66698511D01*
X224876190Y-66746130D01*
X225114285Y-66746130D01*
X223638095Y-65746130D02*
X224114285Y-65746130D01*
X224161904Y-66222321D01*
X224114285Y-66174702D01*
X224019047Y-66127083D01*
X223780952Y-66127083D01*
X223685714Y-66174702D01*
X223638095Y-66222321D01*
X223590476Y-66317559D01*
X223590476Y-66555654D01*
X223638095Y-66650892D01*
X223685714Y-66698511D01*
X223780952Y-66746130D01*
X224019047Y-66746130D01*
X224114285Y-66698511D01*
X224161904Y-66650892D01*
X222638095Y-66746130D02*
X223209523Y-66746130D01*
X222923809Y-66746130D02*
X222923809Y-65746130D01*
X223019047Y-65888988D01*
X223114285Y-65984226D01*
X223209523Y-66031845D01*
%TO.C,D50*%
X229814285Y-123896130D02*
X229814285Y-122896130D01*
X229576190Y-122896130D01*
X229433333Y-122943750D01*
X229338095Y-123038988D01*
X229290476Y-123134226D01*
X229242857Y-123324702D01*
X229242857Y-123467559D01*
X229290476Y-123658035D01*
X229338095Y-123753273D01*
X229433333Y-123848511D01*
X229576190Y-123896130D01*
X229814285Y-123896130D01*
X228338095Y-122896130D02*
X228814285Y-122896130D01*
X228861904Y-123372321D01*
X228814285Y-123324702D01*
X228719047Y-123277083D01*
X228480952Y-123277083D01*
X228385714Y-123324702D01*
X228338095Y-123372321D01*
X228290476Y-123467559D01*
X228290476Y-123705654D01*
X228338095Y-123800892D01*
X228385714Y-123848511D01*
X228480952Y-123896130D01*
X228719047Y-123896130D01*
X228814285Y-123848511D01*
X228861904Y-123800892D01*
X227671428Y-122896130D02*
X227576190Y-122896130D01*
X227480952Y-122943750D01*
X227433333Y-122991369D01*
X227385714Y-123086607D01*
X227338095Y-123277083D01*
X227338095Y-123515178D01*
X227385714Y-123705654D01*
X227433333Y-123800892D01*
X227480952Y-123848511D01*
X227576190Y-123896130D01*
X227671428Y-123896130D01*
X227766666Y-123848511D01*
X227814285Y-123800892D01*
X227861904Y-123705654D01*
X227909523Y-123515178D01*
X227909523Y-123277083D01*
X227861904Y-123086607D01*
X227814285Y-122991369D01*
X227766666Y-122943750D01*
X227671428Y-122896130D01*
%TO.C,D49*%
X232195535Y-40552380D02*
X232195535Y-39552380D01*
X231957440Y-39552380D01*
X231814583Y-39600000D01*
X231719345Y-39695238D01*
X231671726Y-39790476D01*
X231624107Y-39980952D01*
X231624107Y-40123809D01*
X231671726Y-40314285D01*
X231719345Y-40409523D01*
X231814583Y-40504761D01*
X231957440Y-40552380D01*
X232195535Y-40552380D01*
X230766964Y-39885714D02*
X230766964Y-40552380D01*
X231005059Y-39504761D02*
X231243154Y-40219047D01*
X230624107Y-40219047D01*
X230195535Y-40552380D02*
X230005059Y-40552380D01*
X229909821Y-40504761D01*
X229862202Y-40457142D01*
X229766964Y-40314285D01*
X229719345Y-40123809D01*
X229719345Y-39742857D01*
X229766964Y-39647619D01*
X229814583Y-39600000D01*
X229909821Y-39552380D01*
X230100297Y-39552380D01*
X230195535Y-39600000D01*
X230243154Y-39647619D01*
X230290773Y-39742857D01*
X230290773Y-39980952D01*
X230243154Y-40076190D01*
X230195535Y-40123809D01*
X230100297Y-40171428D01*
X229909821Y-40171428D01*
X229814583Y-40123809D01*
X229766964Y-40076190D01*
X229719345Y-39980952D01*
%TO.C,D48*%
X246483035Y-142946130D02*
X246483035Y-141946130D01*
X246244940Y-141946130D01*
X246102083Y-141993750D01*
X246006845Y-142088988D01*
X245959226Y-142184226D01*
X245911607Y-142374702D01*
X245911607Y-142517559D01*
X245959226Y-142708035D01*
X246006845Y-142803273D01*
X246102083Y-142898511D01*
X246244940Y-142946130D01*
X246483035Y-142946130D01*
X245054464Y-142279464D02*
X245054464Y-142946130D01*
X245292559Y-141898511D02*
X245530654Y-142612797D01*
X244911607Y-142612797D01*
X244387797Y-142374702D02*
X244483035Y-142327083D01*
X244530654Y-142279464D01*
X244578273Y-142184226D01*
X244578273Y-142136607D01*
X244530654Y-142041369D01*
X244483035Y-141993750D01*
X244387797Y-141946130D01*
X244197321Y-141946130D01*
X244102083Y-141993750D01*
X244054464Y-142041369D01*
X244006845Y-142136607D01*
X244006845Y-142184226D01*
X244054464Y-142279464D01*
X244102083Y-142327083D01*
X244197321Y-142374702D01*
X244387797Y-142374702D01*
X244483035Y-142422321D01*
X244530654Y-142469940D01*
X244578273Y-142565178D01*
X244578273Y-142755654D01*
X244530654Y-142850892D01*
X244483035Y-142898511D01*
X244387797Y-142946130D01*
X244197321Y-142946130D01*
X244102083Y-142898511D01*
X244054464Y-142850892D01*
X244006845Y-142755654D01*
X244006845Y-142565178D01*
X244054464Y-142469940D01*
X244102083Y-142422321D01*
X244197321Y-142374702D01*
%TO.C,D47*%
X220289285Y-104846130D02*
X220289285Y-103846130D01*
X220051190Y-103846130D01*
X219908333Y-103893750D01*
X219813095Y-103988988D01*
X219765476Y-104084226D01*
X219717857Y-104274702D01*
X219717857Y-104417559D01*
X219765476Y-104608035D01*
X219813095Y-104703273D01*
X219908333Y-104798511D01*
X220051190Y-104846130D01*
X220289285Y-104846130D01*
X218860714Y-104179464D02*
X218860714Y-104846130D01*
X219098809Y-103798511D02*
X219336904Y-104512797D01*
X218717857Y-104512797D01*
X218432142Y-103846130D02*
X217765476Y-103846130D01*
X218194047Y-104846130D01*
%TO.C,D46*%
X215526785Y-85796130D02*
X215526785Y-84796130D01*
X215288690Y-84796130D01*
X215145833Y-84843750D01*
X215050595Y-84938988D01*
X215002976Y-85034226D01*
X214955357Y-85224702D01*
X214955357Y-85367559D01*
X215002976Y-85558035D01*
X215050595Y-85653273D01*
X215145833Y-85748511D01*
X215288690Y-85796130D01*
X215526785Y-85796130D01*
X214098214Y-85129464D02*
X214098214Y-85796130D01*
X214336309Y-84748511D02*
X214574404Y-85462797D01*
X213955357Y-85462797D01*
X213145833Y-84796130D02*
X213336309Y-84796130D01*
X213431547Y-84843750D01*
X213479166Y-84891369D01*
X213574404Y-85034226D01*
X213622023Y-85224702D01*
X213622023Y-85605654D01*
X213574404Y-85700892D01*
X213526785Y-85748511D01*
X213431547Y-85796130D01*
X213241071Y-85796130D01*
X213145833Y-85748511D01*
X213098214Y-85700892D01*
X213050595Y-85605654D01*
X213050595Y-85367559D01*
X213098214Y-85272321D01*
X213145833Y-85224702D01*
X213241071Y-85177083D01*
X213431547Y-85177083D01*
X213526785Y-85224702D01*
X213574404Y-85272321D01*
X213622023Y-85367559D01*
%TO.C,D45*%
X206001785Y-66746130D02*
X206001785Y-65746130D01*
X205763690Y-65746130D01*
X205620833Y-65793750D01*
X205525595Y-65888988D01*
X205477976Y-65984226D01*
X205430357Y-66174702D01*
X205430357Y-66317559D01*
X205477976Y-66508035D01*
X205525595Y-66603273D01*
X205620833Y-66698511D01*
X205763690Y-66746130D01*
X206001785Y-66746130D01*
X204573214Y-66079464D02*
X204573214Y-66746130D01*
X204811309Y-65698511D02*
X205049404Y-66412797D01*
X204430357Y-66412797D01*
X203573214Y-65746130D02*
X204049404Y-65746130D01*
X204097023Y-66222321D01*
X204049404Y-66174702D01*
X203954166Y-66127083D01*
X203716071Y-66127083D01*
X203620833Y-66174702D01*
X203573214Y-66222321D01*
X203525595Y-66317559D01*
X203525595Y-66555654D01*
X203573214Y-66650892D01*
X203620833Y-66698511D01*
X203716071Y-66746130D01*
X203954166Y-66746130D01*
X204049404Y-66698511D01*
X204097023Y-66650892D01*
%TO.C,D44*%
X210826785Y-123896130D02*
X210826785Y-122896130D01*
X210588690Y-122896130D01*
X210445833Y-122943750D01*
X210350595Y-123038988D01*
X210302976Y-123134226D01*
X210255357Y-123324702D01*
X210255357Y-123467559D01*
X210302976Y-123658035D01*
X210350595Y-123753273D01*
X210445833Y-123848511D01*
X210588690Y-123896130D01*
X210826785Y-123896130D01*
X209398214Y-123229464D02*
X209398214Y-123896130D01*
X209636309Y-122848511D02*
X209874404Y-123562797D01*
X209255357Y-123562797D01*
X208445833Y-123229464D02*
X208445833Y-123896130D01*
X208683928Y-122848511D02*
X208922023Y-123562797D01*
X208302976Y-123562797D01*
%TO.C,D43*%
X213208035Y-39758630D02*
X213208035Y-38758630D01*
X212969940Y-38758630D01*
X212827083Y-38806250D01*
X212731845Y-38901488D01*
X212684226Y-38996726D01*
X212636607Y-39187202D01*
X212636607Y-39330059D01*
X212684226Y-39520535D01*
X212731845Y-39615773D01*
X212827083Y-39711011D01*
X212969940Y-39758630D01*
X213208035Y-39758630D01*
X211779464Y-39091964D02*
X211779464Y-39758630D01*
X212017559Y-38711011D02*
X212255654Y-39425297D01*
X211636607Y-39425297D01*
X211350892Y-38758630D02*
X210731845Y-38758630D01*
X211065178Y-39139583D01*
X210922321Y-39139583D01*
X210827083Y-39187202D01*
X210779464Y-39234821D01*
X210731845Y-39330059D01*
X210731845Y-39568154D01*
X210779464Y-39663392D01*
X210827083Y-39711011D01*
X210922321Y-39758630D01*
X211208035Y-39758630D01*
X211303273Y-39711011D01*
X211350892Y-39663392D01*
%TO.C,D42*%
X201239285Y-104846130D02*
X201239285Y-103846130D01*
X201001190Y-103846130D01*
X200858333Y-103893750D01*
X200763095Y-103988988D01*
X200715476Y-104084226D01*
X200667857Y-104274702D01*
X200667857Y-104417559D01*
X200715476Y-104608035D01*
X200763095Y-104703273D01*
X200858333Y-104798511D01*
X201001190Y-104846130D01*
X201239285Y-104846130D01*
X199810714Y-104179464D02*
X199810714Y-104846130D01*
X200048809Y-103798511D02*
X200286904Y-104512797D01*
X199667857Y-104512797D01*
X199334523Y-103941369D02*
X199286904Y-103893750D01*
X199191666Y-103846130D01*
X198953571Y-103846130D01*
X198858333Y-103893750D01*
X198810714Y-103941369D01*
X198763095Y-104036607D01*
X198763095Y-104131845D01*
X198810714Y-104274702D01*
X199382142Y-104846130D01*
X198763095Y-104846130D01*
%TO.C,D41*%
X196476785Y-85796130D02*
X196476785Y-84796130D01*
X196238690Y-84796130D01*
X196095833Y-84843750D01*
X196000595Y-84938988D01*
X195952976Y-85034226D01*
X195905357Y-85224702D01*
X195905357Y-85367559D01*
X195952976Y-85558035D01*
X196000595Y-85653273D01*
X196095833Y-85748511D01*
X196238690Y-85796130D01*
X196476785Y-85796130D01*
X195048214Y-85129464D02*
X195048214Y-85796130D01*
X195286309Y-84748511D02*
X195524404Y-85462797D01*
X194905357Y-85462797D01*
X194000595Y-85796130D02*
X194572023Y-85796130D01*
X194286309Y-85796130D02*
X194286309Y-84796130D01*
X194381547Y-84938988D01*
X194476785Y-85034226D01*
X194572023Y-85081845D01*
%TO.C,D40*%
X186951785Y-66746130D02*
X186951785Y-65746130D01*
X186713690Y-65746130D01*
X186570833Y-65793750D01*
X186475595Y-65888988D01*
X186427976Y-65984226D01*
X186380357Y-66174702D01*
X186380357Y-66317559D01*
X186427976Y-66508035D01*
X186475595Y-66603273D01*
X186570833Y-66698511D01*
X186713690Y-66746130D01*
X186951785Y-66746130D01*
X185523214Y-66079464D02*
X185523214Y-66746130D01*
X185761309Y-65698511D02*
X185999404Y-66412797D01*
X185380357Y-66412797D01*
X184808928Y-65746130D02*
X184713690Y-65746130D01*
X184618452Y-65793750D01*
X184570833Y-65841369D01*
X184523214Y-65936607D01*
X184475595Y-66127083D01*
X184475595Y-66365178D01*
X184523214Y-66555654D01*
X184570833Y-66650892D01*
X184618452Y-66698511D01*
X184713690Y-66746130D01*
X184808928Y-66746130D01*
X184904166Y-66698511D01*
X184951785Y-66650892D01*
X184999404Y-66555654D01*
X185047023Y-66365178D01*
X185047023Y-66127083D01*
X184999404Y-65936607D01*
X184951785Y-65841369D01*
X184904166Y-65793750D01*
X184808928Y-65746130D01*
%TO.C,D39*%
X191776785Y-123896130D02*
X191776785Y-122896130D01*
X191538690Y-122896130D01*
X191395833Y-122943750D01*
X191300595Y-123038988D01*
X191252976Y-123134226D01*
X191205357Y-123324702D01*
X191205357Y-123467559D01*
X191252976Y-123658035D01*
X191300595Y-123753273D01*
X191395833Y-123848511D01*
X191538690Y-123896130D01*
X191776785Y-123896130D01*
X190872023Y-122896130D02*
X190252976Y-122896130D01*
X190586309Y-123277083D01*
X190443452Y-123277083D01*
X190348214Y-123324702D01*
X190300595Y-123372321D01*
X190252976Y-123467559D01*
X190252976Y-123705654D01*
X190300595Y-123800892D01*
X190348214Y-123848511D01*
X190443452Y-123896130D01*
X190729166Y-123896130D01*
X190824404Y-123848511D01*
X190872023Y-123800892D01*
X189776785Y-123896130D02*
X189586309Y-123896130D01*
X189491071Y-123848511D01*
X189443452Y-123800892D01*
X189348214Y-123658035D01*
X189300595Y-123467559D01*
X189300595Y-123086607D01*
X189348214Y-122991369D01*
X189395833Y-122943750D01*
X189491071Y-122896130D01*
X189681547Y-122896130D01*
X189776785Y-122943750D01*
X189824404Y-122991369D01*
X189872023Y-123086607D01*
X189872023Y-123324702D01*
X189824404Y-123419940D01*
X189776785Y-123467559D01*
X189681547Y-123515178D01*
X189491071Y-123515178D01*
X189395833Y-123467559D01*
X189348214Y-123419940D01*
X189300595Y-123324702D01*
%TO.C,D38*%
X194158035Y-39758630D02*
X194158035Y-38758630D01*
X193919940Y-38758630D01*
X193777083Y-38806250D01*
X193681845Y-38901488D01*
X193634226Y-38996726D01*
X193586607Y-39187202D01*
X193586607Y-39330059D01*
X193634226Y-39520535D01*
X193681845Y-39615773D01*
X193777083Y-39711011D01*
X193919940Y-39758630D01*
X194158035Y-39758630D01*
X193253273Y-38758630D02*
X192634226Y-38758630D01*
X192967559Y-39139583D01*
X192824702Y-39139583D01*
X192729464Y-39187202D01*
X192681845Y-39234821D01*
X192634226Y-39330059D01*
X192634226Y-39568154D01*
X192681845Y-39663392D01*
X192729464Y-39711011D01*
X192824702Y-39758630D01*
X193110416Y-39758630D01*
X193205654Y-39711011D01*
X193253273Y-39663392D01*
X192062797Y-39187202D02*
X192158035Y-39139583D01*
X192205654Y-39091964D01*
X192253273Y-38996726D01*
X192253273Y-38949107D01*
X192205654Y-38853869D01*
X192158035Y-38806250D01*
X192062797Y-38758630D01*
X191872321Y-38758630D01*
X191777083Y-38806250D01*
X191729464Y-38853869D01*
X191681845Y-38949107D01*
X191681845Y-38996726D01*
X191729464Y-39091964D01*
X191777083Y-39139583D01*
X191872321Y-39187202D01*
X192062797Y-39187202D01*
X192158035Y-39234821D01*
X192205654Y-39282440D01*
X192253273Y-39377678D01*
X192253273Y-39568154D01*
X192205654Y-39663392D01*
X192158035Y-39711011D01*
X192062797Y-39758630D01*
X191872321Y-39758630D01*
X191777083Y-39711011D01*
X191729464Y-39663392D01*
X191681845Y-39568154D01*
X191681845Y-39377678D01*
X191729464Y-39282440D01*
X191777083Y-39234821D01*
X191872321Y-39187202D01*
%TO.C,D37*%
X182189285Y-104846130D02*
X182189285Y-103846130D01*
X181951190Y-103846130D01*
X181808333Y-103893750D01*
X181713095Y-103988988D01*
X181665476Y-104084226D01*
X181617857Y-104274702D01*
X181617857Y-104417559D01*
X181665476Y-104608035D01*
X181713095Y-104703273D01*
X181808333Y-104798511D01*
X181951190Y-104846130D01*
X182189285Y-104846130D01*
X181284523Y-103846130D02*
X180665476Y-103846130D01*
X180998809Y-104227083D01*
X180855952Y-104227083D01*
X180760714Y-104274702D01*
X180713095Y-104322321D01*
X180665476Y-104417559D01*
X180665476Y-104655654D01*
X180713095Y-104750892D01*
X180760714Y-104798511D01*
X180855952Y-104846130D01*
X181141666Y-104846130D01*
X181236904Y-104798511D01*
X181284523Y-104750892D01*
X180332142Y-103846130D02*
X179665476Y-103846130D01*
X180094047Y-104846130D01*
%TO.C,D36*%
X177426785Y-85796130D02*
X177426785Y-84796130D01*
X177188690Y-84796130D01*
X177045833Y-84843750D01*
X176950595Y-84938988D01*
X176902976Y-85034226D01*
X176855357Y-85224702D01*
X176855357Y-85367559D01*
X176902976Y-85558035D01*
X176950595Y-85653273D01*
X177045833Y-85748511D01*
X177188690Y-85796130D01*
X177426785Y-85796130D01*
X176522023Y-84796130D02*
X175902976Y-84796130D01*
X176236309Y-85177083D01*
X176093452Y-85177083D01*
X175998214Y-85224702D01*
X175950595Y-85272321D01*
X175902976Y-85367559D01*
X175902976Y-85605654D01*
X175950595Y-85700892D01*
X175998214Y-85748511D01*
X176093452Y-85796130D01*
X176379166Y-85796130D01*
X176474404Y-85748511D01*
X176522023Y-85700892D01*
X175045833Y-84796130D02*
X175236309Y-84796130D01*
X175331547Y-84843750D01*
X175379166Y-84891369D01*
X175474404Y-85034226D01*
X175522023Y-85224702D01*
X175522023Y-85605654D01*
X175474404Y-85700892D01*
X175426785Y-85748511D01*
X175331547Y-85796130D01*
X175141071Y-85796130D01*
X175045833Y-85748511D01*
X174998214Y-85700892D01*
X174950595Y-85605654D01*
X174950595Y-85367559D01*
X174998214Y-85272321D01*
X175045833Y-85224702D01*
X175141071Y-85177083D01*
X175331547Y-85177083D01*
X175426785Y-85224702D01*
X175474404Y-85272321D01*
X175522023Y-85367559D01*
%TO.C,D35*%
X167901785Y-66746130D02*
X167901785Y-65746130D01*
X167663690Y-65746130D01*
X167520833Y-65793750D01*
X167425595Y-65888988D01*
X167377976Y-65984226D01*
X167330357Y-66174702D01*
X167330357Y-66317559D01*
X167377976Y-66508035D01*
X167425595Y-66603273D01*
X167520833Y-66698511D01*
X167663690Y-66746130D01*
X167901785Y-66746130D01*
X166997023Y-65746130D02*
X166377976Y-65746130D01*
X166711309Y-66127083D01*
X166568452Y-66127083D01*
X166473214Y-66174702D01*
X166425595Y-66222321D01*
X166377976Y-66317559D01*
X166377976Y-66555654D01*
X166425595Y-66650892D01*
X166473214Y-66698511D01*
X166568452Y-66746130D01*
X166854166Y-66746130D01*
X166949404Y-66698511D01*
X166997023Y-66650892D01*
X165473214Y-65746130D02*
X165949404Y-65746130D01*
X165997023Y-66222321D01*
X165949404Y-66174702D01*
X165854166Y-66127083D01*
X165616071Y-66127083D01*
X165520833Y-66174702D01*
X165473214Y-66222321D01*
X165425595Y-66317559D01*
X165425595Y-66555654D01*
X165473214Y-66650892D01*
X165520833Y-66698511D01*
X165616071Y-66746130D01*
X165854166Y-66746130D01*
X165949404Y-66698511D01*
X165997023Y-66650892D01*
%TO.C,D34*%
X172726785Y-123896130D02*
X172726785Y-122896130D01*
X172488690Y-122896130D01*
X172345833Y-122943750D01*
X172250595Y-123038988D01*
X172202976Y-123134226D01*
X172155357Y-123324702D01*
X172155357Y-123467559D01*
X172202976Y-123658035D01*
X172250595Y-123753273D01*
X172345833Y-123848511D01*
X172488690Y-123896130D01*
X172726785Y-123896130D01*
X171822023Y-122896130D02*
X171202976Y-122896130D01*
X171536309Y-123277083D01*
X171393452Y-123277083D01*
X171298214Y-123324702D01*
X171250595Y-123372321D01*
X171202976Y-123467559D01*
X171202976Y-123705654D01*
X171250595Y-123800892D01*
X171298214Y-123848511D01*
X171393452Y-123896130D01*
X171679166Y-123896130D01*
X171774404Y-123848511D01*
X171822023Y-123800892D01*
X170345833Y-123229464D02*
X170345833Y-123896130D01*
X170583928Y-122848511D02*
X170822023Y-123562797D01*
X170202976Y-123562797D01*
%TO.C,D33*%
X175045535Y-142946130D02*
X175045535Y-141946130D01*
X174807440Y-141946130D01*
X174664583Y-141993750D01*
X174569345Y-142088988D01*
X174521726Y-142184226D01*
X174474107Y-142374702D01*
X174474107Y-142517559D01*
X174521726Y-142708035D01*
X174569345Y-142803273D01*
X174664583Y-142898511D01*
X174807440Y-142946130D01*
X175045535Y-142946130D01*
X174140773Y-141946130D02*
X173521726Y-141946130D01*
X173855059Y-142327083D01*
X173712202Y-142327083D01*
X173616964Y-142374702D01*
X173569345Y-142422321D01*
X173521726Y-142517559D01*
X173521726Y-142755654D01*
X173569345Y-142850892D01*
X173616964Y-142898511D01*
X173712202Y-142946130D01*
X173997916Y-142946130D01*
X174093154Y-142898511D01*
X174140773Y-142850892D01*
X173188392Y-141946130D02*
X172569345Y-141946130D01*
X172902678Y-142327083D01*
X172759821Y-142327083D01*
X172664583Y-142374702D01*
X172616964Y-142422321D01*
X172569345Y-142517559D01*
X172569345Y-142755654D01*
X172616964Y-142850892D01*
X172664583Y-142898511D01*
X172759821Y-142946130D01*
X173045535Y-142946130D01*
X173140773Y-142898511D01*
X173188392Y-142850892D01*
%TO.C,D32*%
X175108035Y-39758630D02*
X175108035Y-38758630D01*
X174869940Y-38758630D01*
X174727083Y-38806250D01*
X174631845Y-38901488D01*
X174584226Y-38996726D01*
X174536607Y-39187202D01*
X174536607Y-39330059D01*
X174584226Y-39520535D01*
X174631845Y-39615773D01*
X174727083Y-39711011D01*
X174869940Y-39758630D01*
X175108035Y-39758630D01*
X174203273Y-38758630D02*
X173584226Y-38758630D01*
X173917559Y-39139583D01*
X173774702Y-39139583D01*
X173679464Y-39187202D01*
X173631845Y-39234821D01*
X173584226Y-39330059D01*
X173584226Y-39568154D01*
X173631845Y-39663392D01*
X173679464Y-39711011D01*
X173774702Y-39758630D01*
X174060416Y-39758630D01*
X174155654Y-39711011D01*
X174203273Y-39663392D01*
X173203273Y-38853869D02*
X173155654Y-38806250D01*
X173060416Y-38758630D01*
X172822321Y-38758630D01*
X172727083Y-38806250D01*
X172679464Y-38853869D01*
X172631845Y-38949107D01*
X172631845Y-39044345D01*
X172679464Y-39187202D01*
X173250892Y-39758630D01*
X172631845Y-39758630D01*
%TO.C,D31*%
X163139285Y-104846130D02*
X163139285Y-103846130D01*
X162901190Y-103846130D01*
X162758333Y-103893750D01*
X162663095Y-103988988D01*
X162615476Y-104084226D01*
X162567857Y-104274702D01*
X162567857Y-104417559D01*
X162615476Y-104608035D01*
X162663095Y-104703273D01*
X162758333Y-104798511D01*
X162901190Y-104846130D01*
X163139285Y-104846130D01*
X162234523Y-103846130D02*
X161615476Y-103846130D01*
X161948809Y-104227083D01*
X161805952Y-104227083D01*
X161710714Y-104274702D01*
X161663095Y-104322321D01*
X161615476Y-104417559D01*
X161615476Y-104655654D01*
X161663095Y-104750892D01*
X161710714Y-104798511D01*
X161805952Y-104846130D01*
X162091666Y-104846130D01*
X162186904Y-104798511D01*
X162234523Y-104750892D01*
X160663095Y-104846130D02*
X161234523Y-104846130D01*
X160948809Y-104846130D02*
X160948809Y-103846130D01*
X161044047Y-103988988D01*
X161139285Y-104084226D01*
X161234523Y-104131845D01*
%TO.C,D30*%
X158376785Y-85796130D02*
X158376785Y-84796130D01*
X158138690Y-84796130D01*
X157995833Y-84843750D01*
X157900595Y-84938988D01*
X157852976Y-85034226D01*
X157805357Y-85224702D01*
X157805357Y-85367559D01*
X157852976Y-85558035D01*
X157900595Y-85653273D01*
X157995833Y-85748511D01*
X158138690Y-85796130D01*
X158376785Y-85796130D01*
X157472023Y-84796130D02*
X156852976Y-84796130D01*
X157186309Y-85177083D01*
X157043452Y-85177083D01*
X156948214Y-85224702D01*
X156900595Y-85272321D01*
X156852976Y-85367559D01*
X156852976Y-85605654D01*
X156900595Y-85700892D01*
X156948214Y-85748511D01*
X157043452Y-85796130D01*
X157329166Y-85796130D01*
X157424404Y-85748511D01*
X157472023Y-85700892D01*
X156233928Y-84796130D02*
X156138690Y-84796130D01*
X156043452Y-84843750D01*
X155995833Y-84891369D01*
X155948214Y-84986607D01*
X155900595Y-85177083D01*
X155900595Y-85415178D01*
X155948214Y-85605654D01*
X155995833Y-85700892D01*
X156043452Y-85748511D01*
X156138690Y-85796130D01*
X156233928Y-85796130D01*
X156329166Y-85748511D01*
X156376785Y-85700892D01*
X156424404Y-85605654D01*
X156472023Y-85415178D01*
X156472023Y-85177083D01*
X156424404Y-84986607D01*
X156376785Y-84891369D01*
X156329166Y-84843750D01*
X156233928Y-84796130D01*
%TO.C,D29*%
X148914285Y-66746130D02*
X148914285Y-65746130D01*
X148676190Y-65746130D01*
X148533333Y-65793750D01*
X148438095Y-65888988D01*
X148390476Y-65984226D01*
X148342857Y-66174702D01*
X148342857Y-66317559D01*
X148390476Y-66508035D01*
X148438095Y-66603273D01*
X148533333Y-66698511D01*
X148676190Y-66746130D01*
X148914285Y-66746130D01*
X147961904Y-65841369D02*
X147914285Y-65793750D01*
X147819047Y-65746130D01*
X147580952Y-65746130D01*
X147485714Y-65793750D01*
X147438095Y-65841369D01*
X147390476Y-65936607D01*
X147390476Y-66031845D01*
X147438095Y-66174702D01*
X148009523Y-66746130D01*
X147390476Y-66746130D01*
X146914285Y-66746130D02*
X146723809Y-66746130D01*
X146628571Y-66698511D01*
X146580952Y-66650892D01*
X146485714Y-66508035D01*
X146438095Y-66317559D01*
X146438095Y-65936607D01*
X146485714Y-65841369D01*
X146533333Y-65793750D01*
X146628571Y-65746130D01*
X146819047Y-65746130D01*
X146914285Y-65793750D01*
X146961904Y-65841369D01*
X147009523Y-65936607D01*
X147009523Y-66174702D01*
X146961904Y-66269940D01*
X146914285Y-66317559D01*
X146819047Y-66365178D01*
X146628571Y-66365178D01*
X146533333Y-66317559D01*
X146485714Y-66269940D01*
X146438095Y-66174702D01*
%TO.C,D28*%
X153676785Y-123896130D02*
X153676785Y-122896130D01*
X153438690Y-122896130D01*
X153295833Y-122943750D01*
X153200595Y-123038988D01*
X153152976Y-123134226D01*
X153105357Y-123324702D01*
X153105357Y-123467559D01*
X153152976Y-123658035D01*
X153200595Y-123753273D01*
X153295833Y-123848511D01*
X153438690Y-123896130D01*
X153676785Y-123896130D01*
X152724404Y-122991369D02*
X152676785Y-122943750D01*
X152581547Y-122896130D01*
X152343452Y-122896130D01*
X152248214Y-122943750D01*
X152200595Y-122991369D01*
X152152976Y-123086607D01*
X152152976Y-123181845D01*
X152200595Y-123324702D01*
X152772023Y-123896130D01*
X152152976Y-123896130D01*
X151581547Y-123324702D02*
X151676785Y-123277083D01*
X151724404Y-123229464D01*
X151772023Y-123134226D01*
X151772023Y-123086607D01*
X151724404Y-122991369D01*
X151676785Y-122943750D01*
X151581547Y-122896130D01*
X151391071Y-122896130D01*
X151295833Y-122943750D01*
X151248214Y-122991369D01*
X151200595Y-123086607D01*
X151200595Y-123134226D01*
X151248214Y-123229464D01*
X151295833Y-123277083D01*
X151391071Y-123324702D01*
X151581547Y-123324702D01*
X151676785Y-123372321D01*
X151724404Y-123419940D01*
X151772023Y-123515178D01*
X151772023Y-123705654D01*
X151724404Y-123800892D01*
X151676785Y-123848511D01*
X151581547Y-123896130D01*
X151391071Y-123896130D01*
X151295833Y-123848511D01*
X151248214Y-123800892D01*
X151200595Y-123705654D01*
X151200595Y-123515178D01*
X151248214Y-123419940D01*
X151295833Y-123372321D01*
X151391071Y-123324702D01*
%TO.C,D27*%
X144089285Y-104846130D02*
X144089285Y-103846130D01*
X143851190Y-103846130D01*
X143708333Y-103893750D01*
X143613095Y-103988988D01*
X143565476Y-104084226D01*
X143517857Y-104274702D01*
X143517857Y-104417559D01*
X143565476Y-104608035D01*
X143613095Y-104703273D01*
X143708333Y-104798511D01*
X143851190Y-104846130D01*
X144089285Y-104846130D01*
X143136904Y-103941369D02*
X143089285Y-103893750D01*
X142994047Y-103846130D01*
X142755952Y-103846130D01*
X142660714Y-103893750D01*
X142613095Y-103941369D01*
X142565476Y-104036607D01*
X142565476Y-104131845D01*
X142613095Y-104274702D01*
X143184523Y-104846130D01*
X142565476Y-104846130D01*
X142232142Y-103846130D02*
X141565476Y-103846130D01*
X141994047Y-104846130D01*
%TO.C,D26*%
X139389285Y-85796130D02*
X139389285Y-84796130D01*
X139151190Y-84796130D01*
X139008333Y-84843750D01*
X138913095Y-84938988D01*
X138865476Y-85034226D01*
X138817857Y-85224702D01*
X138817857Y-85367559D01*
X138865476Y-85558035D01*
X138913095Y-85653273D01*
X139008333Y-85748511D01*
X139151190Y-85796130D01*
X139389285Y-85796130D01*
X138436904Y-84891369D02*
X138389285Y-84843750D01*
X138294047Y-84796130D01*
X138055952Y-84796130D01*
X137960714Y-84843750D01*
X137913095Y-84891369D01*
X137865476Y-84986607D01*
X137865476Y-85081845D01*
X137913095Y-85224702D01*
X138484523Y-85796130D01*
X137865476Y-85796130D01*
X137008333Y-84796130D02*
X137198809Y-84796130D01*
X137294047Y-84843750D01*
X137341666Y-84891369D01*
X137436904Y-85034226D01*
X137484523Y-85224702D01*
X137484523Y-85605654D01*
X137436904Y-85700892D01*
X137389285Y-85748511D01*
X137294047Y-85796130D01*
X137103571Y-85796130D01*
X137008333Y-85748511D01*
X136960714Y-85700892D01*
X136913095Y-85605654D01*
X136913095Y-85367559D01*
X136960714Y-85272321D01*
X137008333Y-85224702D01*
X137103571Y-85177083D01*
X137294047Y-85177083D01*
X137389285Y-85224702D01*
X137436904Y-85272321D01*
X137484523Y-85367559D01*
%TO.C,D25*%
X142501785Y-39758630D02*
X142501785Y-38758630D01*
X142263690Y-38758630D01*
X142120833Y-38806250D01*
X142025595Y-38901488D01*
X141977976Y-38996726D01*
X141930357Y-39187202D01*
X141930357Y-39330059D01*
X141977976Y-39520535D01*
X142025595Y-39615773D01*
X142120833Y-39711011D01*
X142263690Y-39758630D01*
X142501785Y-39758630D01*
X141549404Y-38853869D02*
X141501785Y-38806250D01*
X141406547Y-38758630D01*
X141168452Y-38758630D01*
X141073214Y-38806250D01*
X141025595Y-38853869D01*
X140977976Y-38949107D01*
X140977976Y-39044345D01*
X141025595Y-39187202D01*
X141597023Y-39758630D01*
X140977976Y-39758630D01*
X140073214Y-38758630D02*
X140549404Y-38758630D01*
X140597023Y-39234821D01*
X140549404Y-39187202D01*
X140454166Y-39139583D01*
X140216071Y-39139583D01*
X140120833Y-39187202D01*
X140073214Y-39234821D01*
X140025595Y-39330059D01*
X140025595Y-39568154D01*
X140073214Y-39663392D01*
X140120833Y-39711011D01*
X140216071Y-39758630D01*
X140454166Y-39758630D01*
X140549404Y-39711011D01*
X140597023Y-39663392D01*
%TO.C,D24*%
X129864285Y-66746130D02*
X129864285Y-65746130D01*
X129626190Y-65746130D01*
X129483333Y-65793750D01*
X129388095Y-65888988D01*
X129340476Y-65984226D01*
X129292857Y-66174702D01*
X129292857Y-66317559D01*
X129340476Y-66508035D01*
X129388095Y-66603273D01*
X129483333Y-66698511D01*
X129626190Y-66746130D01*
X129864285Y-66746130D01*
X128911904Y-65841369D02*
X128864285Y-65793750D01*
X128769047Y-65746130D01*
X128530952Y-65746130D01*
X128435714Y-65793750D01*
X128388095Y-65841369D01*
X128340476Y-65936607D01*
X128340476Y-66031845D01*
X128388095Y-66174702D01*
X128959523Y-66746130D01*
X128340476Y-66746130D01*
X127483333Y-66079464D02*
X127483333Y-66746130D01*
X127721428Y-65698511D02*
X127959523Y-66412797D01*
X127340476Y-66412797D01*
%TO.C,D23*%
X134564285Y-123896130D02*
X134564285Y-122896130D01*
X134326190Y-122896130D01*
X134183333Y-122943750D01*
X134088095Y-123038988D01*
X134040476Y-123134226D01*
X133992857Y-123324702D01*
X133992857Y-123467559D01*
X134040476Y-123658035D01*
X134088095Y-123753273D01*
X134183333Y-123848511D01*
X134326190Y-123896130D01*
X134564285Y-123896130D01*
X133611904Y-122991369D02*
X133564285Y-122943750D01*
X133469047Y-122896130D01*
X133230952Y-122896130D01*
X133135714Y-122943750D01*
X133088095Y-122991369D01*
X133040476Y-123086607D01*
X133040476Y-123181845D01*
X133088095Y-123324702D01*
X133659523Y-123896130D01*
X133040476Y-123896130D01*
X132707142Y-122896130D02*
X132088095Y-122896130D01*
X132421428Y-123277083D01*
X132278571Y-123277083D01*
X132183333Y-123324702D01*
X132135714Y-123372321D01*
X132088095Y-123467559D01*
X132088095Y-123705654D01*
X132135714Y-123800892D01*
X132183333Y-123848511D01*
X132278571Y-123896130D01*
X132564285Y-123896130D01*
X132659523Y-123848511D01*
X132707142Y-123800892D01*
%TO.C,D22*%
X125039285Y-104846130D02*
X125039285Y-103846130D01*
X124801190Y-103846130D01*
X124658333Y-103893750D01*
X124563095Y-103988988D01*
X124515476Y-104084226D01*
X124467857Y-104274702D01*
X124467857Y-104417559D01*
X124515476Y-104608035D01*
X124563095Y-104703273D01*
X124658333Y-104798511D01*
X124801190Y-104846130D01*
X125039285Y-104846130D01*
X124086904Y-103941369D02*
X124039285Y-103893750D01*
X123944047Y-103846130D01*
X123705952Y-103846130D01*
X123610714Y-103893750D01*
X123563095Y-103941369D01*
X123515476Y-104036607D01*
X123515476Y-104131845D01*
X123563095Y-104274702D01*
X124134523Y-104846130D01*
X123515476Y-104846130D01*
X123134523Y-103941369D02*
X123086904Y-103893750D01*
X122991666Y-103846130D01*
X122753571Y-103846130D01*
X122658333Y-103893750D01*
X122610714Y-103941369D01*
X122563095Y-104036607D01*
X122563095Y-104131845D01*
X122610714Y-104274702D01*
X123182142Y-104846130D01*
X122563095Y-104846130D01*
%TO.C,D21*%
X120339285Y-85796130D02*
X120339285Y-84796130D01*
X120101190Y-84796130D01*
X119958333Y-84843750D01*
X119863095Y-84938988D01*
X119815476Y-85034226D01*
X119767857Y-85224702D01*
X119767857Y-85367559D01*
X119815476Y-85558035D01*
X119863095Y-85653273D01*
X119958333Y-85748511D01*
X120101190Y-85796130D01*
X120339285Y-85796130D01*
X119386904Y-84891369D02*
X119339285Y-84843750D01*
X119244047Y-84796130D01*
X119005952Y-84796130D01*
X118910714Y-84843750D01*
X118863095Y-84891369D01*
X118815476Y-84986607D01*
X118815476Y-85081845D01*
X118863095Y-85224702D01*
X119434523Y-85796130D01*
X118815476Y-85796130D01*
X117863095Y-85796130D02*
X118434523Y-85796130D01*
X118148809Y-85796130D02*
X118148809Y-84796130D01*
X118244047Y-84938988D01*
X118339285Y-85034226D01*
X118434523Y-85081845D01*
%TO.C,D20*%
X123514285Y-39758630D02*
X123514285Y-38758630D01*
X123276190Y-38758630D01*
X123133333Y-38806250D01*
X123038095Y-38901488D01*
X122990476Y-38996726D01*
X122942857Y-39187202D01*
X122942857Y-39330059D01*
X122990476Y-39520535D01*
X123038095Y-39615773D01*
X123133333Y-39711011D01*
X123276190Y-39758630D01*
X123514285Y-39758630D01*
X122561904Y-38853869D02*
X122514285Y-38806250D01*
X122419047Y-38758630D01*
X122180952Y-38758630D01*
X122085714Y-38806250D01*
X122038095Y-38853869D01*
X121990476Y-38949107D01*
X121990476Y-39044345D01*
X122038095Y-39187202D01*
X122609523Y-39758630D01*
X121990476Y-39758630D01*
X121371428Y-38758630D02*
X121276190Y-38758630D01*
X121180952Y-38806250D01*
X121133333Y-38853869D01*
X121085714Y-38949107D01*
X121038095Y-39139583D01*
X121038095Y-39377678D01*
X121085714Y-39568154D01*
X121133333Y-39663392D01*
X121180952Y-39711011D01*
X121276190Y-39758630D01*
X121371428Y-39758630D01*
X121466666Y-39711011D01*
X121514285Y-39663392D01*
X121561904Y-39568154D01*
X121609523Y-39377678D01*
X121609523Y-39139583D01*
X121561904Y-38949107D01*
X121514285Y-38853869D01*
X121466666Y-38806250D01*
X121371428Y-38758630D01*
%TO.C,D19*%
X110814285Y-66746130D02*
X110814285Y-65746130D01*
X110576190Y-65746130D01*
X110433333Y-65793750D01*
X110338095Y-65888988D01*
X110290476Y-65984226D01*
X110242857Y-66174702D01*
X110242857Y-66317559D01*
X110290476Y-66508035D01*
X110338095Y-66603273D01*
X110433333Y-66698511D01*
X110576190Y-66746130D01*
X110814285Y-66746130D01*
X109290476Y-66746130D02*
X109861904Y-66746130D01*
X109576190Y-66746130D02*
X109576190Y-65746130D01*
X109671428Y-65888988D01*
X109766666Y-65984226D01*
X109861904Y-66031845D01*
X108814285Y-66746130D02*
X108623809Y-66746130D01*
X108528571Y-66698511D01*
X108480952Y-66650892D01*
X108385714Y-66508035D01*
X108338095Y-66317559D01*
X108338095Y-65936607D01*
X108385714Y-65841369D01*
X108433333Y-65793750D01*
X108528571Y-65746130D01*
X108719047Y-65746130D01*
X108814285Y-65793750D01*
X108861904Y-65841369D01*
X108909523Y-65936607D01*
X108909523Y-66174702D01*
X108861904Y-66269940D01*
X108814285Y-66317559D01*
X108719047Y-66365178D01*
X108528571Y-66365178D01*
X108433333Y-66317559D01*
X108385714Y-66269940D01*
X108338095Y-66174702D01*
%TO.C,D18*%
X103608035Y-142946130D02*
X103608035Y-141946130D01*
X103369940Y-141946130D01*
X103227083Y-141993750D01*
X103131845Y-142088988D01*
X103084226Y-142184226D01*
X103036607Y-142374702D01*
X103036607Y-142517559D01*
X103084226Y-142708035D01*
X103131845Y-142803273D01*
X103227083Y-142898511D01*
X103369940Y-142946130D01*
X103608035Y-142946130D01*
X102084226Y-142946130D02*
X102655654Y-142946130D01*
X102369940Y-142946130D02*
X102369940Y-141946130D01*
X102465178Y-142088988D01*
X102560416Y-142184226D01*
X102655654Y-142231845D01*
X101512797Y-142374702D02*
X101608035Y-142327083D01*
X101655654Y-142279464D01*
X101703273Y-142184226D01*
X101703273Y-142136607D01*
X101655654Y-142041369D01*
X101608035Y-141993750D01*
X101512797Y-141946130D01*
X101322321Y-141946130D01*
X101227083Y-141993750D01*
X101179464Y-142041369D01*
X101131845Y-142136607D01*
X101131845Y-142184226D01*
X101179464Y-142279464D01*
X101227083Y-142327083D01*
X101322321Y-142374702D01*
X101512797Y-142374702D01*
X101608035Y-142422321D01*
X101655654Y-142469940D01*
X101703273Y-142565178D01*
X101703273Y-142755654D01*
X101655654Y-142850892D01*
X101608035Y-142898511D01*
X101512797Y-142946130D01*
X101322321Y-142946130D01*
X101227083Y-142898511D01*
X101179464Y-142850892D01*
X101131845Y-142755654D01*
X101131845Y-142565178D01*
X101179464Y-142469940D01*
X101227083Y-142422321D01*
X101322321Y-142374702D01*
%TO.C,D17*%
X115514285Y-123896130D02*
X115514285Y-122896130D01*
X115276190Y-122896130D01*
X115133333Y-122943750D01*
X115038095Y-123038988D01*
X114990476Y-123134226D01*
X114942857Y-123324702D01*
X114942857Y-123467559D01*
X114990476Y-123658035D01*
X115038095Y-123753273D01*
X115133333Y-123848511D01*
X115276190Y-123896130D01*
X115514285Y-123896130D01*
X113990476Y-123896130D02*
X114561904Y-123896130D01*
X114276190Y-123896130D02*
X114276190Y-122896130D01*
X114371428Y-123038988D01*
X114466666Y-123134226D01*
X114561904Y-123181845D01*
X113657142Y-122896130D02*
X112990476Y-122896130D01*
X113419047Y-123896130D01*
%TO.C,D16*%
X106051785Y-104846130D02*
X106051785Y-103846130D01*
X105813690Y-103846130D01*
X105670833Y-103893750D01*
X105575595Y-103988988D01*
X105527976Y-104084226D01*
X105480357Y-104274702D01*
X105480357Y-104417559D01*
X105527976Y-104608035D01*
X105575595Y-104703273D01*
X105670833Y-104798511D01*
X105813690Y-104846130D01*
X106051785Y-104846130D01*
X104527976Y-104846130D02*
X105099404Y-104846130D01*
X104813690Y-104846130D02*
X104813690Y-103846130D01*
X104908928Y-103988988D01*
X105004166Y-104084226D01*
X105099404Y-104131845D01*
X103670833Y-103846130D02*
X103861309Y-103846130D01*
X103956547Y-103893750D01*
X104004166Y-103941369D01*
X104099404Y-104084226D01*
X104147023Y-104274702D01*
X104147023Y-104655654D01*
X104099404Y-104750892D01*
X104051785Y-104798511D01*
X103956547Y-104846130D01*
X103766071Y-104846130D01*
X103670833Y-104798511D01*
X103623214Y-104750892D01*
X103575595Y-104655654D01*
X103575595Y-104417559D01*
X103623214Y-104322321D01*
X103670833Y-104274702D01*
X103766071Y-104227083D01*
X103956547Y-104227083D01*
X104051785Y-104274702D01*
X104099404Y-104322321D01*
X104147023Y-104417559D01*
%TO.C,D15*%
X101226785Y-85796130D02*
X101226785Y-84796130D01*
X100988690Y-84796130D01*
X100845833Y-84843750D01*
X100750595Y-84938988D01*
X100702976Y-85034226D01*
X100655357Y-85224702D01*
X100655357Y-85367559D01*
X100702976Y-85558035D01*
X100750595Y-85653273D01*
X100845833Y-85748511D01*
X100988690Y-85796130D01*
X101226785Y-85796130D01*
X99702976Y-85796130D02*
X100274404Y-85796130D01*
X99988690Y-85796130D02*
X99988690Y-84796130D01*
X100083928Y-84938988D01*
X100179166Y-85034226D01*
X100274404Y-85081845D01*
X98798214Y-84796130D02*
X99274404Y-84796130D01*
X99322023Y-85272321D01*
X99274404Y-85224702D01*
X99179166Y-85177083D01*
X98941071Y-85177083D01*
X98845833Y-85224702D01*
X98798214Y-85272321D01*
X98750595Y-85367559D01*
X98750595Y-85605654D01*
X98798214Y-85700892D01*
X98845833Y-85748511D01*
X98941071Y-85796130D01*
X99179166Y-85796130D01*
X99274404Y-85748511D01*
X99322023Y-85700892D01*
%TO.C,D14*%
X104401785Y-39758630D02*
X104401785Y-38758630D01*
X104163690Y-38758630D01*
X104020833Y-38806250D01*
X103925595Y-38901488D01*
X103877976Y-38996726D01*
X103830357Y-39187202D01*
X103830357Y-39330059D01*
X103877976Y-39520535D01*
X103925595Y-39615773D01*
X104020833Y-39711011D01*
X104163690Y-39758630D01*
X104401785Y-39758630D01*
X102877976Y-39758630D02*
X103449404Y-39758630D01*
X103163690Y-39758630D02*
X103163690Y-38758630D01*
X103258928Y-38901488D01*
X103354166Y-38996726D01*
X103449404Y-39044345D01*
X102020833Y-39091964D02*
X102020833Y-39758630D01*
X102258928Y-38711011D02*
X102497023Y-39425297D01*
X101877976Y-39425297D01*
%TO.C,D13*%
X91764285Y-66746130D02*
X91764285Y-65746130D01*
X91526190Y-65746130D01*
X91383333Y-65793750D01*
X91288095Y-65888988D01*
X91240476Y-65984226D01*
X91192857Y-66174702D01*
X91192857Y-66317559D01*
X91240476Y-66508035D01*
X91288095Y-66603273D01*
X91383333Y-66698511D01*
X91526190Y-66746130D01*
X91764285Y-66746130D01*
X90240476Y-66746130D02*
X90811904Y-66746130D01*
X90526190Y-66746130D02*
X90526190Y-65746130D01*
X90621428Y-65888988D01*
X90716666Y-65984226D01*
X90811904Y-66031845D01*
X89907142Y-65746130D02*
X89288095Y-65746130D01*
X89621428Y-66127083D01*
X89478571Y-66127083D01*
X89383333Y-66174702D01*
X89335714Y-66222321D01*
X89288095Y-66317559D01*
X89288095Y-66555654D01*
X89335714Y-66650892D01*
X89383333Y-66698511D01*
X89478571Y-66746130D01*
X89764285Y-66746130D01*
X89859523Y-66698511D01*
X89907142Y-66650892D01*
%TO.C,D12*%
X96464285Y-123896130D02*
X96464285Y-122896130D01*
X96226190Y-122896130D01*
X96083333Y-122943750D01*
X95988095Y-123038988D01*
X95940476Y-123134226D01*
X95892857Y-123324702D01*
X95892857Y-123467559D01*
X95940476Y-123658035D01*
X95988095Y-123753273D01*
X96083333Y-123848511D01*
X96226190Y-123896130D01*
X96464285Y-123896130D01*
X94940476Y-123896130D02*
X95511904Y-123896130D01*
X95226190Y-123896130D02*
X95226190Y-122896130D01*
X95321428Y-123038988D01*
X95416666Y-123134226D01*
X95511904Y-123181845D01*
X94559523Y-122991369D02*
X94511904Y-122943750D01*
X94416666Y-122896130D01*
X94178571Y-122896130D01*
X94083333Y-122943750D01*
X94035714Y-122991369D01*
X93988095Y-123086607D01*
X93988095Y-123181845D01*
X94035714Y-123324702D01*
X94607142Y-123896130D01*
X93988095Y-123896130D01*
%TO.C,D11*%
X79795535Y-142946130D02*
X79795535Y-141946130D01*
X79557440Y-141946130D01*
X79414583Y-141993750D01*
X79319345Y-142088988D01*
X79271726Y-142184226D01*
X79224107Y-142374702D01*
X79224107Y-142517559D01*
X79271726Y-142708035D01*
X79319345Y-142803273D01*
X79414583Y-142898511D01*
X79557440Y-142946130D01*
X79795535Y-142946130D01*
X78271726Y-142946130D02*
X78843154Y-142946130D01*
X78557440Y-142946130D02*
X78557440Y-141946130D01*
X78652678Y-142088988D01*
X78747916Y-142184226D01*
X78843154Y-142231845D01*
X77319345Y-142946130D02*
X77890773Y-142946130D01*
X77605059Y-142946130D02*
X77605059Y-141946130D01*
X77700297Y-142088988D01*
X77795535Y-142184226D01*
X77890773Y-142231845D01*
%TO.C,D10*%
X86939285Y-104846130D02*
X86939285Y-103846130D01*
X86701190Y-103846130D01*
X86558333Y-103893750D01*
X86463095Y-103988988D01*
X86415476Y-104084226D01*
X86367857Y-104274702D01*
X86367857Y-104417559D01*
X86415476Y-104608035D01*
X86463095Y-104703273D01*
X86558333Y-104798511D01*
X86701190Y-104846130D01*
X86939285Y-104846130D01*
X85415476Y-104846130D02*
X85986904Y-104846130D01*
X85701190Y-104846130D02*
X85701190Y-103846130D01*
X85796428Y-103988988D01*
X85891666Y-104084226D01*
X85986904Y-104131845D01*
X84796428Y-103846130D02*
X84701190Y-103846130D01*
X84605952Y-103893750D01*
X84558333Y-103941369D01*
X84510714Y-104036607D01*
X84463095Y-104227083D01*
X84463095Y-104465178D01*
X84510714Y-104655654D01*
X84558333Y-104750892D01*
X84605952Y-104798511D01*
X84701190Y-104846130D01*
X84796428Y-104846130D01*
X84891666Y-104798511D01*
X84939285Y-104750892D01*
X84986904Y-104655654D01*
X85034523Y-104465178D01*
X85034523Y-104227083D01*
X84986904Y-104036607D01*
X84939285Y-103941369D01*
X84891666Y-103893750D01*
X84796428Y-103846130D01*
%TO.C,D9*%
X81700595Y-85796130D02*
X81700595Y-84796130D01*
X81462500Y-84796130D01*
X81319642Y-84843750D01*
X81224404Y-84938988D01*
X81176785Y-85034226D01*
X81129166Y-85224702D01*
X81129166Y-85367559D01*
X81176785Y-85558035D01*
X81224404Y-85653273D01*
X81319642Y-85748511D01*
X81462500Y-85796130D01*
X81700595Y-85796130D01*
X80652976Y-85796130D02*
X80462500Y-85796130D01*
X80367261Y-85748511D01*
X80319642Y-85700892D01*
X80224404Y-85558035D01*
X80176785Y-85367559D01*
X80176785Y-84986607D01*
X80224404Y-84891369D01*
X80272023Y-84843750D01*
X80367261Y-84796130D01*
X80557738Y-84796130D01*
X80652976Y-84843750D01*
X80700595Y-84891369D01*
X80748214Y-84986607D01*
X80748214Y-85224702D01*
X80700595Y-85319940D01*
X80652976Y-85367559D01*
X80557738Y-85415178D01*
X80367261Y-85415178D01*
X80272023Y-85367559D01*
X80224404Y-85319940D01*
X80176785Y-85224702D01*
%TO.C,D8*%
X84938095Y-39758630D02*
X84938095Y-38758630D01*
X84700000Y-38758630D01*
X84557142Y-38806250D01*
X84461904Y-38901488D01*
X84414285Y-38996726D01*
X84366666Y-39187202D01*
X84366666Y-39330059D01*
X84414285Y-39520535D01*
X84461904Y-39615773D01*
X84557142Y-39711011D01*
X84700000Y-39758630D01*
X84938095Y-39758630D01*
X83795238Y-39187202D02*
X83890476Y-39139583D01*
X83938095Y-39091964D01*
X83985714Y-38996726D01*
X83985714Y-38949107D01*
X83938095Y-38853869D01*
X83890476Y-38806250D01*
X83795238Y-38758630D01*
X83604761Y-38758630D01*
X83509523Y-38806250D01*
X83461904Y-38853869D01*
X83414285Y-38949107D01*
X83414285Y-38996726D01*
X83461904Y-39091964D01*
X83509523Y-39139583D01*
X83604761Y-39187202D01*
X83795238Y-39187202D01*
X83890476Y-39234821D01*
X83938095Y-39282440D01*
X83985714Y-39377678D01*
X83985714Y-39568154D01*
X83938095Y-39663392D01*
X83890476Y-39711011D01*
X83795238Y-39758630D01*
X83604761Y-39758630D01*
X83509523Y-39711011D01*
X83461904Y-39663392D01*
X83414285Y-39568154D01*
X83414285Y-39377678D01*
X83461904Y-39282440D01*
X83509523Y-39234821D01*
X83604761Y-39187202D01*
%TO.C,D7*%
X72175595Y-66746130D02*
X72175595Y-65746130D01*
X71937500Y-65746130D01*
X71794642Y-65793750D01*
X71699404Y-65888988D01*
X71651785Y-65984226D01*
X71604166Y-66174702D01*
X71604166Y-66317559D01*
X71651785Y-66508035D01*
X71699404Y-66603273D01*
X71794642Y-66698511D01*
X71937500Y-66746130D01*
X72175595Y-66746130D01*
X71270833Y-65746130D02*
X70604166Y-65746130D01*
X71032738Y-66746130D01*
%TO.C,D6*%
X65031845Y-123896130D02*
X65031845Y-122896130D01*
X64793750Y-122896130D01*
X64650892Y-122943750D01*
X64555654Y-123038988D01*
X64508035Y-123134226D01*
X64460416Y-123324702D01*
X64460416Y-123467559D01*
X64508035Y-123658035D01*
X64555654Y-123753273D01*
X64650892Y-123848511D01*
X64793750Y-123896130D01*
X65031845Y-123896130D01*
X63603273Y-122896130D02*
X63793750Y-122896130D01*
X63888988Y-122943750D01*
X63936607Y-122991369D01*
X64031845Y-123134226D01*
X64079464Y-123324702D01*
X64079464Y-123705654D01*
X64031845Y-123800892D01*
X63984226Y-123848511D01*
X63888988Y-123896130D01*
X63698511Y-123896130D01*
X63603273Y-123848511D01*
X63555654Y-123800892D01*
X63508035Y-123705654D01*
X63508035Y-123467559D01*
X63555654Y-123372321D01*
X63603273Y-123324702D01*
X63698511Y-123277083D01*
X63888988Y-123277083D01*
X63984226Y-123324702D01*
X64031845Y-123372321D01*
X64079464Y-123467559D01*
%TO.C,D5*%
X55506845Y-142946130D02*
X55506845Y-141946130D01*
X55268750Y-141946130D01*
X55125892Y-141993750D01*
X55030654Y-142088988D01*
X54983035Y-142184226D01*
X54935416Y-142374702D01*
X54935416Y-142517559D01*
X54983035Y-142708035D01*
X55030654Y-142803273D01*
X55125892Y-142898511D01*
X55268750Y-142946130D01*
X55506845Y-142946130D01*
X54030654Y-141946130D02*
X54506845Y-141946130D01*
X54554464Y-142422321D01*
X54506845Y-142374702D01*
X54411607Y-142327083D01*
X54173511Y-142327083D01*
X54078273Y-142374702D01*
X54030654Y-142422321D01*
X53983035Y-142517559D01*
X53983035Y-142755654D01*
X54030654Y-142850892D01*
X54078273Y-142898511D01*
X54173511Y-142946130D01*
X54411607Y-142946130D01*
X54506845Y-142898511D01*
X54554464Y-142850892D01*
%TO.C,D4*%
X60269345Y-104846130D02*
X60269345Y-103846130D01*
X60031250Y-103846130D01*
X59888392Y-103893750D01*
X59793154Y-103988988D01*
X59745535Y-104084226D01*
X59697916Y-104274702D01*
X59697916Y-104417559D01*
X59745535Y-104608035D01*
X59793154Y-104703273D01*
X59888392Y-104798511D01*
X60031250Y-104846130D01*
X60269345Y-104846130D01*
X58840773Y-104179464D02*
X58840773Y-104846130D01*
X59078869Y-103798511D02*
X59316964Y-104512797D01*
X58697916Y-104512797D01*
%TO.C,D3*%
X57888095Y-85796130D02*
X57888095Y-84796130D01*
X57650000Y-84796130D01*
X57507142Y-84843750D01*
X57411904Y-84938988D01*
X57364285Y-85034226D01*
X57316666Y-85224702D01*
X57316666Y-85367559D01*
X57364285Y-85558035D01*
X57411904Y-85653273D01*
X57507142Y-85748511D01*
X57650000Y-85796130D01*
X57888095Y-85796130D01*
X56983333Y-84796130D02*
X56364285Y-84796130D01*
X56697619Y-85177083D01*
X56554761Y-85177083D01*
X56459523Y-85224702D01*
X56411904Y-85272321D01*
X56364285Y-85367559D01*
X56364285Y-85605654D01*
X56411904Y-85700892D01*
X56459523Y-85748511D01*
X56554761Y-85796130D01*
X56840476Y-85796130D01*
X56935714Y-85748511D01*
X56983333Y-85700892D01*
%TO.C,D2*%
X53125595Y-66746130D02*
X53125595Y-65746130D01*
X52887500Y-65746130D01*
X52744642Y-65793750D01*
X52649404Y-65888988D01*
X52601785Y-65984226D01*
X52554166Y-66174702D01*
X52554166Y-66317559D01*
X52601785Y-66508035D01*
X52649404Y-66603273D01*
X52744642Y-66698511D01*
X52887500Y-66746130D01*
X53125595Y-66746130D01*
X52173214Y-65841369D02*
X52125595Y-65793750D01*
X52030357Y-65746130D01*
X51792261Y-65746130D01*
X51697023Y-65793750D01*
X51649404Y-65841369D01*
X51601785Y-65936607D01*
X51601785Y-66031845D01*
X51649404Y-66174702D01*
X52220833Y-66746130D01*
X51601785Y-66746130D01*
%TO.C,D1*%
X53125595Y-39758630D02*
X53125595Y-38758630D01*
X52887500Y-38758630D01*
X52744642Y-38806250D01*
X52649404Y-38901488D01*
X52601785Y-38996726D01*
X52554166Y-39187202D01*
X52554166Y-39330059D01*
X52601785Y-39520535D01*
X52649404Y-39615773D01*
X52744642Y-39711011D01*
X52887500Y-39758630D01*
X53125595Y-39758630D01*
X51601785Y-39758630D02*
X52173214Y-39758630D01*
X51887500Y-39758630D02*
X51887500Y-38758630D01*
X51982738Y-38901488D01*
X52077976Y-38996726D01*
X52173214Y-39044345D01*
%TO.C,C6*%
X325857142Y-49045833D02*
X325904761Y-48998214D01*
X325952380Y-48855357D01*
X325952380Y-48760119D01*
X325904761Y-48617261D01*
X325809523Y-48522023D01*
X325714285Y-48474404D01*
X325523809Y-48426785D01*
X325380952Y-48426785D01*
X325190476Y-48474404D01*
X325095238Y-48522023D01*
X325000000Y-48617261D01*
X324952380Y-48760119D01*
X324952380Y-48855357D01*
X325000000Y-48998214D01*
X325047619Y-49045833D01*
X324952380Y-49902976D02*
X324952380Y-49712500D01*
X325000000Y-49617261D01*
X325047619Y-49569642D01*
X325190476Y-49474404D01*
X325380952Y-49426785D01*
X325761904Y-49426785D01*
X325857142Y-49474404D01*
X325904761Y-49522023D01*
X325952380Y-49617261D01*
X325952380Y-49807738D01*
X325904761Y-49902976D01*
X325857142Y-49950595D01*
X325761904Y-49998214D01*
X325523809Y-49998214D01*
X325428571Y-49950595D01*
X325380952Y-49902976D01*
X325333333Y-49807738D01*
X325333333Y-49617261D01*
X325380952Y-49522023D01*
X325428571Y-49474404D01*
X325523809Y-49426785D01*
%TO.C,C5*%
X341732142Y-62539583D02*
X341779761Y-62491964D01*
X341827380Y-62349107D01*
X341827380Y-62253869D01*
X341779761Y-62111011D01*
X341684523Y-62015773D01*
X341589285Y-61968154D01*
X341398809Y-61920535D01*
X341255952Y-61920535D01*
X341065476Y-61968154D01*
X340970238Y-62015773D01*
X340875000Y-62111011D01*
X340827380Y-62253869D01*
X340827380Y-62349107D01*
X340875000Y-62491964D01*
X340922619Y-62539583D01*
X340827380Y-63444345D02*
X340827380Y-62968154D01*
X341303571Y-62920535D01*
X341255952Y-62968154D01*
X341208333Y-63063392D01*
X341208333Y-63301488D01*
X341255952Y-63396726D01*
X341303571Y-63444345D01*
X341398809Y-63491964D01*
X341636904Y-63491964D01*
X341732142Y-63444345D01*
X341779761Y-63396726D01*
X341827380Y-63301488D01*
X341827380Y-63063392D01*
X341779761Y-62968154D01*
X341732142Y-62920535D01*
%TO.C,C4*%
X327047916Y-63794642D02*
X327095535Y-63842261D01*
X327238392Y-63889880D01*
X327333630Y-63889880D01*
X327476488Y-63842261D01*
X327571726Y-63747023D01*
X327619345Y-63651785D01*
X327666964Y-63461309D01*
X327666964Y-63318452D01*
X327619345Y-63127976D01*
X327571726Y-63032738D01*
X327476488Y-62937500D01*
X327333630Y-62889880D01*
X327238392Y-62889880D01*
X327095535Y-62937500D01*
X327047916Y-62985119D01*
X326190773Y-63223214D02*
X326190773Y-63889880D01*
X326428869Y-62842261D02*
X326666964Y-63556547D01*
X326047916Y-63556547D01*
%TO.C,C3*%
X341732142Y-49045833D02*
X341779761Y-48998214D01*
X341827380Y-48855357D01*
X341827380Y-48760119D01*
X341779761Y-48617261D01*
X341684523Y-48522023D01*
X341589285Y-48474404D01*
X341398809Y-48426785D01*
X341255952Y-48426785D01*
X341065476Y-48474404D01*
X340970238Y-48522023D01*
X340875000Y-48617261D01*
X340827380Y-48760119D01*
X340827380Y-48855357D01*
X340875000Y-48998214D01*
X340922619Y-49045833D01*
X340827380Y-49379166D02*
X340827380Y-49998214D01*
X341208333Y-49664880D01*
X341208333Y-49807738D01*
X341255952Y-49902976D01*
X341303571Y-49950595D01*
X341398809Y-49998214D01*
X341636904Y-49998214D01*
X341732142Y-49950595D01*
X341779761Y-49902976D01*
X341827380Y-49807738D01*
X341827380Y-49522023D01*
X341779761Y-49426785D01*
X341732142Y-49379166D01*
%TO.C,C2*%
X327047916Y-45538392D02*
X327095535Y-45586011D01*
X327238392Y-45633630D01*
X327333630Y-45633630D01*
X327476488Y-45586011D01*
X327571726Y-45490773D01*
X327619345Y-45395535D01*
X327666964Y-45205059D01*
X327666964Y-45062202D01*
X327619345Y-44871726D01*
X327571726Y-44776488D01*
X327476488Y-44681250D01*
X327333630Y-44633630D01*
X327238392Y-44633630D01*
X327095535Y-44681250D01*
X327047916Y-44728869D01*
X326666964Y-44728869D02*
X326619345Y-44681250D01*
X326524107Y-44633630D01*
X326286011Y-44633630D01*
X326190773Y-44681250D01*
X326143154Y-44728869D01*
X326095535Y-44824107D01*
X326095535Y-44919345D01*
X326143154Y-45062202D01*
X326714583Y-45633630D01*
X326095535Y-45633630D01*
%TO.C,C1*%
X335779166Y-67094642D02*
X335826785Y-67142261D01*
X335969642Y-67189880D01*
X336064880Y-67189880D01*
X336207738Y-67142261D01*
X336302976Y-67047023D01*
X336350595Y-66951785D01*
X336398214Y-66761309D01*
X336398214Y-66618452D01*
X336350595Y-66427976D01*
X336302976Y-66332738D01*
X336207738Y-66237500D01*
X336064880Y-66189880D01*
X335969642Y-66189880D01*
X335826785Y-66237500D01*
X335779166Y-66285119D01*
X334826785Y-67189880D02*
X335398214Y-67189880D01*
X335112500Y-67189880D02*
X335112500Y-66189880D01*
X335207738Y-66332738D01*
X335302976Y-66427976D01*
X335398214Y-66475595D01*
%TD*%
%LPC*%
D12*
%TO.C,ALPS74*%
X343575000Y-27750000D03*
X348575000Y-27250000D03*
%TD*%
%TO.C,F1*%
G36*
G01*
X338276250Y-35462500D02*
X339586250Y-35462500D01*
G75*
G02*
X339856250Y-35732500I0J-270000D01*
G01*
X339856250Y-36542500D01*
G75*
G02*
X339586250Y-36812500I-270000J0D01*
G01*
X338276250Y-36812500D01*
G75*
G02*
X338006250Y-36542500I0J270000D01*
G01*
X338006250Y-35732500D01*
G75*
G02*
X338276250Y-35462500I270000J0D01*
G01*
G37*
G36*
G01*
X338276250Y-32662500D02*
X339586250Y-32662500D01*
G75*
G02*
X339856250Y-32932500I0J-270000D01*
G01*
X339856250Y-33742500D01*
G75*
G02*
X339586250Y-34012500I-270000J0D01*
G01*
X338276250Y-34012500D01*
G75*
G02*
X338006250Y-33742500I0J270000D01*
G01*
X338006250Y-32932500D01*
G75*
G02*
X338276250Y-32662500I270000J0D01*
G01*
G37*
%TD*%
%TO.C,R5*%
G36*
G01*
X339412500Y-29906250D02*
X338450000Y-29906250D01*
G75*
G02*
X338181250Y-29637500I0J268750D01*
G01*
X338181250Y-29100000D01*
G75*
G02*
X338450000Y-28831250I268750J0D01*
G01*
X339412500Y-28831250D01*
G75*
G02*
X339681250Y-29100000I0J-268750D01*
G01*
X339681250Y-29637500D01*
G75*
G02*
X339412500Y-29906250I-268750J0D01*
G01*
G37*
G36*
G01*
X339412500Y-31781250D02*
X338450000Y-31781250D01*
G75*
G02*
X338181250Y-31512500I0J268750D01*
G01*
X338181250Y-30975000D01*
G75*
G02*
X338450000Y-30706250I268750J0D01*
G01*
X339412500Y-30706250D01*
G75*
G02*
X339681250Y-30975000I0J-268750D01*
G01*
X339681250Y-31512500D01*
G75*
G02*
X339412500Y-31781250I-268750J0D01*
G01*
G37*
%TD*%
%TO.C,R2*%
G36*
G01*
X331475000Y-34668750D02*
X330512500Y-34668750D01*
G75*
G02*
X330243750Y-34400000I0J268750D01*
G01*
X330243750Y-33862500D01*
G75*
G02*
X330512500Y-33593750I268750J0D01*
G01*
X331475000Y-33593750D01*
G75*
G02*
X331743750Y-33862500I0J-268750D01*
G01*
X331743750Y-34400000D01*
G75*
G02*
X331475000Y-34668750I-268750J0D01*
G01*
G37*
G36*
G01*
X331475000Y-36543750D02*
X330512500Y-36543750D01*
G75*
G02*
X330243750Y-36275000I0J268750D01*
G01*
X330243750Y-35737500D01*
G75*
G02*
X330512500Y-35468750I268750J0D01*
G01*
X331475000Y-35468750D01*
G75*
G02*
X331743750Y-35737500I0J-268750D01*
G01*
X331743750Y-36275000D01*
G75*
G02*
X331475000Y-36543750I-268750J0D01*
G01*
G37*
%TD*%
%TO.C,C7*%
G36*
G01*
X323368750Y-63106250D02*
X324331250Y-63106250D01*
G75*
G02*
X324600000Y-63375000I0J-268750D01*
G01*
X324600000Y-63912500D01*
G75*
G02*
X324331250Y-64181250I-268750J0D01*
G01*
X323368750Y-64181250D01*
G75*
G02*
X323100000Y-63912500I0J268750D01*
G01*
X323100000Y-63375000D01*
G75*
G02*
X323368750Y-63106250I268750J0D01*
G01*
G37*
G36*
G01*
X323368750Y-61231250D02*
X324331250Y-61231250D01*
G75*
G02*
X324600000Y-61500000I0J-268750D01*
G01*
X324600000Y-62037500D01*
G75*
G02*
X324331250Y-62306250I-268750J0D01*
G01*
X323368750Y-62306250D01*
G75*
G02*
X323100000Y-62037500I0J268750D01*
G01*
X323100000Y-61500000D01*
G75*
G02*
X323368750Y-61231250I268750J0D01*
G01*
G37*
%TD*%
%TO.C,ALPS1*%
X49887500Y-27750000D03*
X54887500Y-27250000D03*
%TD*%
%TO.C,R6*%
G36*
G01*
X325687500Y-35237500D02*
X325687500Y-36200000D01*
G75*
G02*
X325418750Y-36468750I-268750J0D01*
G01*
X324881250Y-36468750D01*
G75*
G02*
X324612500Y-36200000I0J268750D01*
G01*
X324612500Y-35237500D01*
G75*
G02*
X324881250Y-34968750I268750J0D01*
G01*
X325418750Y-34968750D01*
G75*
G02*
X325687500Y-35237500I0J-268750D01*
G01*
G37*
G36*
G01*
X327562500Y-35237500D02*
X327562500Y-36200000D01*
G75*
G02*
X327293750Y-36468750I-268750J0D01*
G01*
X326756250Y-36468750D01*
G75*
G02*
X326487500Y-36200000I0J268750D01*
G01*
X326487500Y-35237500D01*
G75*
G02*
X326756250Y-34968750I268750J0D01*
G01*
X327293750Y-34968750D01*
G75*
G02*
X327562500Y-35237500I0J-268750D01*
G01*
G37*
%TD*%
%TO.C,ALPS70*%
X304681250Y-92837500D03*
X309681250Y-92337500D03*
%TD*%
D13*
%TO.C,Y1*%
X321356250Y-55256250D03*
X321356250Y-57456250D03*
X323056250Y-57456250D03*
X323056250Y-55256250D03*
%TD*%
D14*
%TO.C,U1*%
X337487500Y-60356250D03*
X337487500Y-59556250D03*
X337487500Y-58756250D03*
X337487500Y-57956250D03*
X337487500Y-57156250D03*
X337487500Y-56356250D03*
X337487500Y-55556250D03*
X337487500Y-54756250D03*
X337487500Y-53956250D03*
X337487500Y-53156250D03*
X337487500Y-52356250D03*
D15*
X335787500Y-50656250D03*
X334987500Y-50656250D03*
X334187500Y-50656250D03*
X333387500Y-50656250D03*
X332587500Y-50656250D03*
X331787500Y-50656250D03*
X330987500Y-50656250D03*
X330187500Y-50656250D03*
X329387500Y-50656250D03*
X328587500Y-50656250D03*
X327787500Y-50656250D03*
D14*
X326087500Y-52356250D03*
X326087500Y-53156250D03*
X326087500Y-53956250D03*
X326087500Y-54756250D03*
X326087500Y-55556250D03*
X326087500Y-56356250D03*
X326087500Y-57156250D03*
X326087500Y-57956250D03*
X326087500Y-58756250D03*
X326087500Y-59556250D03*
X326087500Y-60356250D03*
D15*
X327787500Y-62056250D03*
X328587500Y-62056250D03*
X329387500Y-62056250D03*
X330187500Y-62056250D03*
X330987500Y-62056250D03*
X331787500Y-62056250D03*
X332587500Y-62056250D03*
X333387500Y-62056250D03*
X334187500Y-62056250D03*
X334987500Y-62056250D03*
X335787500Y-62056250D03*
%TD*%
D16*
%TO.C,SW1*%
X328687500Y-38631250D03*
X334887500Y-42331250D03*
X328687500Y-42331250D03*
X334887500Y-38631250D03*
%TD*%
%TO.C,R4*%
G36*
G01*
X330593750Y-64606250D02*
X330593750Y-65568750D01*
G75*
G02*
X330325000Y-65837500I-268750J0D01*
G01*
X329787500Y-65837500D01*
G75*
G02*
X329518750Y-65568750I0J268750D01*
G01*
X329518750Y-64606250D01*
G75*
G02*
X329787500Y-64337500I268750J0D01*
G01*
X330325000Y-64337500D01*
G75*
G02*
X330593750Y-64606250I0J-268750D01*
G01*
G37*
G36*
G01*
X332468750Y-64606250D02*
X332468750Y-65568750D01*
G75*
G02*
X332200000Y-65837500I-268750J0D01*
G01*
X331662500Y-65837500D01*
G75*
G02*
X331393750Y-65568750I0J268750D01*
G01*
X331393750Y-64606250D01*
G75*
G02*
X331662500Y-64337500I268750J0D01*
G01*
X332200000Y-64337500D01*
G75*
G02*
X332468750Y-64606250I0J-268750D01*
G01*
G37*
%TD*%
%TO.C,R3*%
G36*
G01*
X334650000Y-34668750D02*
X333687500Y-34668750D01*
G75*
G02*
X333418750Y-34400000I0J268750D01*
G01*
X333418750Y-33862500D01*
G75*
G02*
X333687500Y-33593750I268750J0D01*
G01*
X334650000Y-33593750D01*
G75*
G02*
X334918750Y-33862500I0J-268750D01*
G01*
X334918750Y-34400000D01*
G75*
G02*
X334650000Y-34668750I-268750J0D01*
G01*
G37*
G36*
G01*
X334650000Y-36543750D02*
X333687500Y-36543750D01*
G75*
G02*
X333418750Y-36275000I0J268750D01*
G01*
X333418750Y-35737500D01*
G75*
G02*
X333687500Y-35468750I268750J0D01*
G01*
X334650000Y-35468750D01*
G75*
G02*
X334918750Y-35737500I0J-268750D01*
G01*
X334918750Y-36275000D01*
G75*
G02*
X334650000Y-36543750I-268750J0D01*
G01*
G37*
%TD*%
%TO.C,R1*%
G36*
G01*
X336150000Y-46350000D02*
X336150000Y-47312500D01*
G75*
G02*
X335881250Y-47581250I-268750J0D01*
G01*
X335343750Y-47581250D01*
G75*
G02*
X335075000Y-47312500I0J268750D01*
G01*
X335075000Y-46350000D01*
G75*
G02*
X335343750Y-46081250I268750J0D01*
G01*
X335881250Y-46081250D01*
G75*
G02*
X336150000Y-46350000I0J-268750D01*
G01*
G37*
G36*
G01*
X338025000Y-46350000D02*
X338025000Y-47312500D01*
G75*
G02*
X337756250Y-47581250I-268750J0D01*
G01*
X337218750Y-47581250D01*
G75*
G02*
X336950000Y-47312500I0J268750D01*
G01*
X336950000Y-46350000D01*
G75*
G02*
X337218750Y-46081250I268750J0D01*
G01*
X337756250Y-46081250D01*
G75*
G02*
X338025000Y-46350000I0J-268750D01*
G01*
G37*
%TD*%
D17*
%TO.C,J1*%
X331306250Y-31500000D03*
X329606250Y-31500000D03*
X330456250Y-31500000D03*
X332156250Y-31500000D03*
X333006250Y-31500000D03*
X333856250Y-31500000D03*
X334706250Y-31500000D03*
X335556250Y-31500000D03*
X329606250Y-30175000D03*
X330461250Y-30175000D03*
X331311250Y-30175000D03*
X332161250Y-30175000D03*
X333011250Y-30175000D03*
X333861250Y-30175000D03*
X334711250Y-30175000D03*
X335561250Y-30175000D03*
D18*
X328256250Y-30520000D03*
X336906250Y-30520000D03*
D19*
X328256250Y-27140000D03*
X336906250Y-27140000D03*
%TD*%
D20*
%TO.C,D92*%
X292162500Y-83343750D03*
X288862500Y-83343750D03*
%TD*%
%TO.C,D91*%
X385782500Y-140493750D03*
X382482500Y-140493750D03*
%TD*%
%TO.C,D90*%
X385825000Y-121443750D03*
X382525000Y-121443750D03*
%TD*%
%TO.C,D89*%
X385825000Y-102393750D03*
X382525000Y-102393750D03*
%TD*%
%TO.C,D88*%
X385825000Y-83343750D03*
X382525000Y-83343750D03*
%TD*%
%TO.C,D87*%
X385825000Y-64293750D03*
X382525000Y-64293750D03*
%TD*%
%TO.C,D86*%
X385825000Y-37306250D03*
X382525000Y-37306250D03*
%TD*%
%TO.C,D85*%
X366775000Y-140493750D03*
X363475000Y-140493750D03*
%TD*%
%TO.C,D84*%
X366775000Y-121443750D03*
X363475000Y-121443750D03*
%TD*%
%TO.C,D83*%
X366775000Y-102393750D03*
X363475000Y-102393750D03*
%TD*%
%TO.C,D82*%
X366775000Y-83343750D03*
X363475000Y-83343750D03*
%TD*%
%TO.C,D81*%
X366775000Y-64293750D03*
X363475000Y-64293750D03*
%TD*%
%TO.C,D80*%
X366775000Y-37306250D03*
X363475000Y-37306250D03*
%TD*%
%TO.C,D79*%
X347725000Y-140493750D03*
X344425000Y-140493750D03*
%TD*%
%TO.C,D78*%
X347725000Y-121443750D03*
X344425000Y-121443750D03*
%TD*%
%TO.C,D77*%
X347725000Y-102393750D03*
X344425000Y-102393750D03*
%TD*%
%TO.C,D76*%
X347725000Y-83343750D03*
X344425000Y-83343750D03*
%TD*%
%TO.C,D75*%
X347725000Y-64293750D03*
X344425000Y-64293750D03*
%TD*%
%TO.C,D74*%
X347725000Y-37306250D03*
X344425000Y-37306250D03*
%TD*%
%TO.C,D73*%
X311212500Y-64293750D03*
X307912500Y-64293750D03*
%TD*%
%TO.C,D72*%
X320737500Y-37306250D03*
X317437500Y-37306250D03*
%TD*%
%TO.C,D71*%
X315975000Y-83343750D03*
X312675000Y-83343750D03*
%TD*%
%TO.C,D70*%
X308831250Y-102393750D03*
X305531250Y-102393750D03*
%TD*%
%TO.C,D69*%
X318356250Y-140493750D03*
X315056250Y-140493750D03*
%TD*%
%TO.C,D68*%
X304068750Y-121443750D03*
X300768750Y-121443750D03*
%TD*%
%TO.C,D67*%
X282637500Y-64293750D03*
X279337500Y-64293750D03*
%TD*%
%TO.C,D66*%
X301687500Y-37306250D03*
X298387500Y-37306250D03*
%TD*%
%TO.C,D65*%
X277875000Y-102393750D03*
X274575000Y-102393750D03*
%TD*%
%TO.C,D64*%
X273112500Y-83343750D03*
X269812500Y-83343750D03*
%TD*%
%TO.C,D63*%
X294606250Y-140493750D03*
X291306250Y-140493750D03*
%TD*%
%TO.C,D62*%
X263650000Y-64293750D03*
X260350000Y-64293750D03*
%TD*%
%TO.C,D61*%
X282637500Y-37306250D03*
X279337500Y-37306250D03*
%TD*%
%TO.C,D60*%
X268350000Y-121443750D03*
X265050000Y-121443750D03*
%TD*%
%TO.C,D59*%
X258825000Y-102393750D03*
X255525000Y-102393750D03*
%TD*%
%TO.C,D58*%
X254062500Y-83343750D03*
X250762500Y-83343750D03*
%TD*%
%TO.C,D57*%
X244537500Y-64293750D03*
X241237500Y-64293750D03*
%TD*%
%TO.C,D56*%
X263587500Y-37306250D03*
X260287500Y-37306250D03*
%TD*%
%TO.C,D55*%
X249300000Y-121443750D03*
X246000000Y-121443750D03*
%TD*%
%TO.C,D54*%
X270731250Y-140493750D03*
X267431250Y-140493750D03*
%TD*%
%TO.C,D53*%
X239775000Y-102393750D03*
X236475000Y-102393750D03*
%TD*%
%TO.C,D52*%
X235012500Y-83343750D03*
X231712500Y-83343750D03*
%TD*%
%TO.C,D51*%
X225550000Y-64293750D03*
X222250000Y-64293750D03*
%TD*%
%TO.C,D50*%
X230250000Y-121443750D03*
X226950000Y-121443750D03*
%TD*%
%TO.C,D49*%
X232631250Y-38100000D03*
X229331250Y-38100000D03*
%TD*%
%TO.C,D48*%
X246918750Y-140493750D03*
X243618750Y-140493750D03*
%TD*%
%TO.C,D47*%
X220725000Y-102393750D03*
X217425000Y-102393750D03*
%TD*%
%TO.C,D46*%
X215962500Y-83343750D03*
X212662500Y-83343750D03*
%TD*%
%TO.C,D45*%
X206437500Y-64293750D03*
X203137500Y-64293750D03*
%TD*%
%TO.C,D44*%
X211262500Y-121443750D03*
X207962500Y-121443750D03*
%TD*%
%TO.C,D43*%
X213643750Y-37306250D03*
X210343750Y-37306250D03*
%TD*%
%TO.C,D42*%
X201675000Y-102393750D03*
X198375000Y-102393750D03*
%TD*%
%TO.C,D41*%
X196912500Y-83343750D03*
X193612500Y-83343750D03*
%TD*%
%TO.C,D40*%
X187387500Y-64293750D03*
X184087500Y-64293750D03*
%TD*%
%TO.C,D39*%
X192212500Y-121443750D03*
X188912500Y-121443750D03*
%TD*%
%TO.C,D38*%
X194593750Y-37306250D03*
X191293750Y-37306250D03*
%TD*%
%TO.C,D37*%
X182625000Y-102393750D03*
X179325000Y-102393750D03*
%TD*%
%TO.C,D36*%
X177862500Y-83343750D03*
X174562500Y-83343750D03*
%TD*%
%TO.C,D35*%
X168337500Y-64293750D03*
X165037500Y-64293750D03*
%TD*%
%TO.C,D34*%
X173162500Y-121443750D03*
X169862500Y-121443750D03*
%TD*%
%TO.C,D33*%
X175481250Y-140493750D03*
X172181250Y-140493750D03*
%TD*%
%TO.C,D32*%
X175543750Y-37306250D03*
X172243750Y-37306250D03*
%TD*%
%TO.C,D31*%
X163575000Y-102393750D03*
X160275000Y-102393750D03*
%TD*%
%TO.C,D30*%
X158812500Y-83343750D03*
X155512500Y-83343750D03*
%TD*%
%TO.C,D29*%
X149350000Y-64293750D03*
X146050000Y-64293750D03*
%TD*%
%TO.C,D28*%
X154112500Y-121443750D03*
X150812500Y-121443750D03*
%TD*%
%TO.C,D27*%
X144525000Y-102393750D03*
X141225000Y-102393750D03*
%TD*%
%TO.C,D26*%
X139825000Y-83343750D03*
X136525000Y-83343750D03*
%TD*%
%TO.C,D25*%
X142937500Y-37306250D03*
X139637500Y-37306250D03*
%TD*%
%TO.C,D24*%
X130300000Y-64293750D03*
X127000000Y-64293750D03*
%TD*%
%TO.C,D23*%
X135000000Y-121443750D03*
X131700000Y-121443750D03*
%TD*%
%TO.C,D22*%
X125475000Y-102393750D03*
X122175000Y-102393750D03*
%TD*%
%TO.C,D21*%
X120775000Y-83343750D03*
X117475000Y-83343750D03*
%TD*%
%TO.C,D20*%
X123950000Y-37306250D03*
X120650000Y-37306250D03*
%TD*%
%TO.C,D19*%
X111250000Y-64293750D03*
X107950000Y-64293750D03*
%TD*%
%TO.C,D18*%
X104043750Y-140493750D03*
X100743750Y-140493750D03*
%TD*%
%TO.C,D17*%
X115950000Y-121443750D03*
X112650000Y-121443750D03*
%TD*%
%TO.C,D16*%
X106487500Y-102393750D03*
X103187500Y-102393750D03*
%TD*%
%TO.C,D15*%
X101662500Y-83343750D03*
X98362500Y-83343750D03*
%TD*%
%TO.C,D14*%
X104837500Y-37306250D03*
X101537500Y-37306250D03*
%TD*%
%TO.C,D13*%
X92200000Y-64293750D03*
X88900000Y-64293750D03*
%TD*%
%TO.C,D12*%
X96900000Y-121443750D03*
X93600000Y-121443750D03*
%TD*%
%TO.C,D11*%
X80231250Y-140493750D03*
X76931250Y-140493750D03*
%TD*%
%TO.C,D10*%
X87375000Y-102393750D03*
X84075000Y-102393750D03*
%TD*%
%TO.C,D9*%
X82612500Y-83343750D03*
X79312500Y-83343750D03*
%TD*%
%TO.C,D8*%
X85850000Y-37306250D03*
X82550000Y-37306250D03*
%TD*%
%TO.C,D7*%
X73087500Y-64293750D03*
X69787500Y-64293750D03*
%TD*%
%TO.C,D6*%
X65943750Y-121443750D03*
X62643750Y-121443750D03*
%TD*%
%TO.C,D5*%
X56418750Y-140493750D03*
X53118750Y-140493750D03*
%TD*%
%TO.C,D4*%
X61181250Y-102393750D03*
X57881250Y-102393750D03*
%TD*%
%TO.C,D3*%
X58800000Y-83343750D03*
X55500000Y-83343750D03*
%TD*%
%TO.C,D2*%
X54037500Y-64293750D03*
X50737500Y-64293750D03*
%TD*%
%TO.C,D1*%
X54037500Y-37306250D03*
X50737500Y-37306250D03*
%TD*%
%TO.C,C6*%
G36*
G01*
X324331250Y-48812500D02*
X323368750Y-48812500D01*
G75*
G02*
X323100000Y-48543750I0J268750D01*
G01*
X323100000Y-48006250D01*
G75*
G02*
X323368750Y-47737500I268750J0D01*
G01*
X324331250Y-47737500D01*
G75*
G02*
X324600000Y-48006250I0J-268750D01*
G01*
X324600000Y-48543750D01*
G75*
G02*
X324331250Y-48812500I-268750J0D01*
G01*
G37*
G36*
G01*
X324331250Y-50687500D02*
X323368750Y-50687500D01*
G75*
G02*
X323100000Y-50418750I0J268750D01*
G01*
X323100000Y-49881250D01*
G75*
G02*
X323368750Y-49612500I268750J0D01*
G01*
X324331250Y-49612500D01*
G75*
G02*
X324600000Y-49881250I0J-268750D01*
G01*
X324600000Y-50418750D01*
G75*
G02*
X324331250Y-50687500I-268750J0D01*
G01*
G37*
%TD*%
%TO.C,C5*%
G36*
G01*
X340206250Y-62306250D02*
X339243750Y-62306250D01*
G75*
G02*
X338975000Y-62037500I0J268750D01*
G01*
X338975000Y-61500000D01*
G75*
G02*
X339243750Y-61231250I268750J0D01*
G01*
X340206250Y-61231250D01*
G75*
G02*
X340475000Y-61500000I0J-268750D01*
G01*
X340475000Y-62037500D01*
G75*
G02*
X340206250Y-62306250I-268750J0D01*
G01*
G37*
G36*
G01*
X340206250Y-64181250D02*
X339243750Y-64181250D01*
G75*
G02*
X338975000Y-63912500I0J268750D01*
G01*
X338975000Y-63375000D01*
G75*
G02*
X339243750Y-63106250I268750J0D01*
G01*
X340206250Y-63106250D01*
G75*
G02*
X340475000Y-63375000I0J-268750D01*
G01*
X340475000Y-63912500D01*
G75*
G02*
X340206250Y-64181250I-268750J0D01*
G01*
G37*
%TD*%
%TO.C,C4*%
G36*
G01*
X326481250Y-64606250D02*
X326481250Y-65568750D01*
G75*
G02*
X326212500Y-65837500I-268750J0D01*
G01*
X325675000Y-65837500D01*
G75*
G02*
X325406250Y-65568750I0J268750D01*
G01*
X325406250Y-64606250D01*
G75*
G02*
X325675000Y-64337500I268750J0D01*
G01*
X326212500Y-64337500D01*
G75*
G02*
X326481250Y-64606250I0J-268750D01*
G01*
G37*
G36*
G01*
X328356250Y-64606250D02*
X328356250Y-65568750D01*
G75*
G02*
X328087500Y-65837500I-268750J0D01*
G01*
X327550000Y-65837500D01*
G75*
G02*
X327281250Y-65568750I0J268750D01*
G01*
X327281250Y-64606250D01*
G75*
G02*
X327550000Y-64337500I268750J0D01*
G01*
X328087500Y-64337500D01*
G75*
G02*
X328356250Y-64606250I0J-268750D01*
G01*
G37*
%TD*%
%TO.C,C3*%
G36*
G01*
X340206250Y-48812500D02*
X339243750Y-48812500D01*
G75*
G02*
X338975000Y-48543750I0J268750D01*
G01*
X338975000Y-48006250D01*
G75*
G02*
X339243750Y-47737500I268750J0D01*
G01*
X340206250Y-47737500D01*
G75*
G02*
X340475000Y-48006250I0J-268750D01*
G01*
X340475000Y-48543750D01*
G75*
G02*
X340206250Y-48812500I-268750J0D01*
G01*
G37*
G36*
G01*
X340206250Y-50687500D02*
X339243750Y-50687500D01*
G75*
G02*
X338975000Y-50418750I0J268750D01*
G01*
X338975000Y-49881250D01*
G75*
G02*
X339243750Y-49612500I268750J0D01*
G01*
X340206250Y-49612500D01*
G75*
G02*
X340475000Y-49881250I0J-268750D01*
G01*
X340475000Y-50418750D01*
G75*
G02*
X340206250Y-50687500I-268750J0D01*
G01*
G37*
%TD*%
%TO.C,C2*%
G36*
G01*
X326481250Y-46350000D02*
X326481250Y-47312500D01*
G75*
G02*
X326212500Y-47581250I-268750J0D01*
G01*
X325675000Y-47581250D01*
G75*
G02*
X325406250Y-47312500I0J268750D01*
G01*
X325406250Y-46350000D01*
G75*
G02*
X325675000Y-46081250I268750J0D01*
G01*
X326212500Y-46081250D01*
G75*
G02*
X326481250Y-46350000I0J-268750D01*
G01*
G37*
G36*
G01*
X328356250Y-46350000D02*
X328356250Y-47312500D01*
G75*
G02*
X328087500Y-47581250I-268750J0D01*
G01*
X327550000Y-47581250D01*
G75*
G02*
X327281250Y-47312500I0J268750D01*
G01*
X327281250Y-46350000D01*
G75*
G02*
X327550000Y-46081250I268750J0D01*
G01*
X328087500Y-46081250D01*
G75*
G02*
X328356250Y-46350000I0J-268750D01*
G01*
G37*
%TD*%
%TO.C,C1*%
G36*
G01*
X336012500Y-65568750D02*
X336012500Y-64606250D01*
G75*
G02*
X336281250Y-64337500I268750J0D01*
G01*
X336818750Y-64337500D01*
G75*
G02*
X337087500Y-64606250I0J-268750D01*
G01*
X337087500Y-65568750D01*
G75*
G02*
X336818750Y-65837500I-268750J0D01*
G01*
X336281250Y-65837500D01*
G75*
G02*
X336012500Y-65568750I0J268750D01*
G01*
G37*
G36*
G01*
X334137500Y-65568750D02*
X334137500Y-64606250D01*
G75*
G02*
X334406250Y-64337500I268750J0D01*
G01*
X334943750Y-64337500D01*
G75*
G02*
X335212500Y-64606250I0J-268750D01*
G01*
X335212500Y-65568750D01*
G75*
G02*
X334943750Y-65837500I-268750J0D01*
G01*
X334406250Y-65837500D01*
G75*
G02*
X334137500Y-65568750I0J268750D01*
G01*
G37*
%TD*%
D12*
%TO.C,ALPS92*%
X288012500Y-73787500D03*
X293012500Y-73287500D03*
%TD*%
%TO.C,ALPS91*%
X381675000Y-130937500D03*
X386675000Y-130437500D03*
%TD*%
%TO.C,ALPS90*%
X381675000Y-111887500D03*
X386675000Y-111387500D03*
%TD*%
%TO.C,ALPS89*%
X381675000Y-92837500D03*
X386675000Y-92337500D03*
%TD*%
%TO.C,ALPS88*%
X381675000Y-73787500D03*
X386675000Y-73287500D03*
%TD*%
%TO.C,ALPS87*%
X381675000Y-54737500D03*
X386675000Y-54237500D03*
%TD*%
%TO.C,ALPS86*%
X381675000Y-27750000D03*
X386675000Y-27250000D03*
%TD*%
%TO.C,ALPS85*%
X362625000Y-130937500D03*
X367625000Y-130437500D03*
%TD*%
%TO.C,ALPS84*%
X362625000Y-111887500D03*
X367625000Y-111387500D03*
%TD*%
%TO.C,ALPS83*%
X362625000Y-92837500D03*
X367625000Y-92337500D03*
%TD*%
%TO.C,ALPS82*%
X362625000Y-73787500D03*
X367625000Y-73287500D03*
%TD*%
%TO.C,ALPS81*%
X362625000Y-54737500D03*
X367625000Y-54237500D03*
%TD*%
%TO.C,ALPS80*%
X362625000Y-27750000D03*
X367625000Y-27250000D03*
%TD*%
%TO.C,ALPS79*%
X343575000Y-130937500D03*
X348575000Y-130437500D03*
%TD*%
%TO.C,ALPS78*%
X343575000Y-111887500D03*
X348575000Y-111387500D03*
%TD*%
%TO.C,ALPS77*%
X343575000Y-92837500D03*
X348575000Y-92337500D03*
%TD*%
%TO.C,ALPS76*%
X343575000Y-73787500D03*
X348575000Y-73287500D03*
%TD*%
%TO.C,ALPS75*%
X343575000Y-54737500D03*
X348575000Y-54237500D03*
%TD*%
%TO.C,ALPS73*%
X307062500Y-54737500D03*
X312062500Y-54237500D03*
%TD*%
%TO.C,ALPS72*%
X316587500Y-27750000D03*
X321587500Y-27250000D03*
%TD*%
%TO.C,ALPS71*%
X311825000Y-73787500D03*
X316825000Y-73287500D03*
%TD*%
%TO.C,ALPS69*%
X314206250Y-130937500D03*
X319206250Y-130437500D03*
%TD*%
%TO.C,ALPS68*%
X299918750Y-111887500D03*
X304918750Y-111387500D03*
%TD*%
%TO.C,ALPS67*%
X278487500Y-54737500D03*
X283487500Y-54237500D03*
%TD*%
%TO.C,ALPS66*%
X297537500Y-27750000D03*
X302537500Y-27250000D03*
%TD*%
%TO.C,ALPS65*%
X273725000Y-92837500D03*
X278725000Y-92337500D03*
%TD*%
%TO.C,ALPS64*%
X268962500Y-73787500D03*
X273962500Y-73287500D03*
%TD*%
%TO.C,ALPS63*%
X290393750Y-130937500D03*
X295393750Y-130437500D03*
%TD*%
%TO.C,ALPS62*%
X259437500Y-54737500D03*
X264437500Y-54237500D03*
%TD*%
%TO.C,ALPS61*%
X278487500Y-27750000D03*
X283487500Y-27250000D03*
%TD*%
%TO.C,ALPS60*%
X264200000Y-111887500D03*
X269200000Y-111387500D03*
%TD*%
%TO.C,ALPS59*%
X254675000Y-92837500D03*
X259675000Y-92337500D03*
%TD*%
%TO.C,ALPS58*%
X249912500Y-73787500D03*
X254912500Y-73287500D03*
%TD*%
%TO.C,ALPS57*%
X240387500Y-54737500D03*
X245387500Y-54237500D03*
%TD*%
%TO.C,ALPS56*%
X259437500Y-27750000D03*
X264437500Y-27250000D03*
%TD*%
%TO.C,ALPS55*%
X245150000Y-111887500D03*
X250150000Y-111387500D03*
%TD*%
%TO.C,ALPS54*%
X266581250Y-130937500D03*
X271581250Y-130437500D03*
%TD*%
%TO.C,ALPS53*%
X235625000Y-92837500D03*
X240625000Y-92337500D03*
%TD*%
%TO.C,ALPS52*%
X230862500Y-73787500D03*
X235862500Y-73287500D03*
%TD*%
%TO.C,ALPS51*%
X221337500Y-54737500D03*
X226337500Y-54237500D03*
%TD*%
%TO.C,ALPS50*%
X226100000Y-111887500D03*
X231100000Y-111387500D03*
%TD*%
%TO.C,ALPS49*%
X228481250Y-27750000D03*
X233481250Y-27250000D03*
%TD*%
%TO.C,ALPS48*%
X242768750Y-130937500D03*
X247768750Y-130437500D03*
%TD*%
%TO.C,ALPS47*%
X216575000Y-92837500D03*
X221575000Y-92337500D03*
%TD*%
%TO.C,ALPS46*%
X211812500Y-73787500D03*
X216812500Y-73287500D03*
%TD*%
%TO.C,ALPS45*%
X202287500Y-54737500D03*
X207287500Y-54237500D03*
%TD*%
%TO.C,ALPS44*%
X207050000Y-111887500D03*
X212050000Y-111387500D03*
%TD*%
%TO.C,ALPS43*%
X209431250Y-27750000D03*
X214431250Y-27250000D03*
%TD*%
%TO.C,ALPS42*%
X197525000Y-92837500D03*
X202525000Y-92337500D03*
%TD*%
%TO.C,ALPS41*%
X192762500Y-73787500D03*
X197762500Y-73287500D03*
%TD*%
%TO.C,ALPS40*%
X183237500Y-54737500D03*
X188237500Y-54237500D03*
%TD*%
%TO.C,ALPS39*%
X188000000Y-111887500D03*
X193000000Y-111387500D03*
%TD*%
%TO.C,ALPS38*%
X190381250Y-27750000D03*
X195381250Y-27250000D03*
%TD*%
%TO.C,ALPS37*%
X178475000Y-92837500D03*
X183475000Y-92337500D03*
%TD*%
%TO.C,ALPS36*%
X173712500Y-73787500D03*
X178712500Y-73287500D03*
%TD*%
%TO.C,ALPS35*%
X164187500Y-54737500D03*
X169187500Y-54237500D03*
%TD*%
%TO.C,ALPS34*%
X168950000Y-111887500D03*
X173950000Y-111387500D03*
%TD*%
%TO.C,ALPS33*%
X171331250Y-130937500D03*
X176331250Y-130437500D03*
%TD*%
%TO.C,ALPS32*%
X171331250Y-27750000D03*
X176331250Y-27250000D03*
%TD*%
%TO.C,ALPS31*%
X159425000Y-92837500D03*
X164425000Y-92337500D03*
%TD*%
%TO.C,ALPS30*%
X154662500Y-73787500D03*
X159662500Y-73287500D03*
%TD*%
%TO.C,ALPS29*%
X145137500Y-54737500D03*
X150137500Y-54237500D03*
%TD*%
%TO.C,ALPS28*%
X149900000Y-111887500D03*
X154900000Y-111387500D03*
%TD*%
%TO.C,ALPS27*%
X140375000Y-92837500D03*
X145375000Y-92337500D03*
%TD*%
%TO.C,ALPS26*%
X135612500Y-73787500D03*
X140612500Y-73287500D03*
%TD*%
%TO.C,ALPS25*%
X138787500Y-27750000D03*
X143787500Y-27250000D03*
%TD*%
%TO.C,ALPS24*%
X126087500Y-54737500D03*
X131087500Y-54237500D03*
%TD*%
%TO.C,ALPS23*%
X130850000Y-111887500D03*
X135850000Y-111387500D03*
%TD*%
%TO.C,ALPS22*%
X121325000Y-92837500D03*
X126325000Y-92337500D03*
%TD*%
%TO.C,ALPS21*%
X116562500Y-73787500D03*
X121562500Y-73287500D03*
%TD*%
%TO.C,ALPS20*%
X119737500Y-27750000D03*
X124737500Y-27250000D03*
%TD*%
%TO.C,ALPS19*%
X107037500Y-54737500D03*
X112037500Y-54237500D03*
%TD*%
%TO.C,ALPS18*%
X99893750Y-130937500D03*
X104893750Y-130437500D03*
%TD*%
%TO.C,ALPS17*%
X111800000Y-111887500D03*
X116800000Y-111387500D03*
%TD*%
%TO.C,ALPS16*%
X102275000Y-92837500D03*
X107275000Y-92337500D03*
%TD*%
%TO.C,ALPS15*%
X97512500Y-73787500D03*
X102512500Y-73287500D03*
%TD*%
%TO.C,ALPS14*%
X100687500Y-27750000D03*
X105687500Y-27250000D03*
%TD*%
%TO.C,ALPS13*%
X87987500Y-54737500D03*
X92987500Y-54237500D03*
%TD*%
%TO.C,ALPS12*%
X92750000Y-111887500D03*
X97750000Y-111387500D03*
%TD*%
%TO.C,ALPS11*%
X76081250Y-130937500D03*
X81081250Y-130437500D03*
%TD*%
%TO.C,ALPS10*%
X83225000Y-92837500D03*
X88225000Y-92337500D03*
%TD*%
%TO.C,ALPS9*%
X78462500Y-73787500D03*
X83462500Y-73287500D03*
%TD*%
%TO.C,ALPS8*%
X81637500Y-27750000D03*
X86637500Y-27250000D03*
%TD*%
%TO.C,ALPS7*%
X68937500Y-54737500D03*
X73937500Y-54237500D03*
%TD*%
%TO.C,ALPS6*%
X61793750Y-111887500D03*
X66793750Y-111387500D03*
%TD*%
%TO.C,ALPS5*%
X52268750Y-130937500D03*
X57268750Y-130437500D03*
%TD*%
%TO.C,ALPS4*%
X57031250Y-92837500D03*
X62031250Y-92337500D03*
%TD*%
%TO.C,ALPS3*%
X54650000Y-73787500D03*
X59650000Y-73287500D03*
%TD*%
%TO.C,ALPS2*%
X49887500Y-54737500D03*
X54887500Y-54237500D03*
%TD*%
M02*
