%TF.GenerationSoftware,KiCad,Pcbnew,(5.1.6)-1*%
%TF.CreationDate,2020-08-03T21:56:52-05:00*%
%TF.ProjectId,customKeyboard,63757374-6f6d-44b6-9579-626f6172642e,rev?*%
%TF.SameCoordinates,Original*%
%TF.FileFunction,Soldermask,Bot*%
%TF.FilePolarity,Negative*%
%FSLAX46Y46*%
G04 Gerber Fmt 4.6, Leading zero omitted, Abs format (unit mm)*
G04 Created by KiCad (PCBNEW (5.1.6)-1) date 2020-08-03 21:56:52*
%MOMM*%
%LPD*%
G01*
G04 APERTURE LIST*
%ADD10C,2.350000*%
%ADD11R,1.300000X1.500000*%
%ADD12R,1.600000X0.650000*%
%ADD13R,0.650000X1.600000*%
%ADD14R,1.900000X1.200000*%
%ADD15C,0.750000*%
%ADD16O,1.000000X2.500000*%
%ADD17O,1.000000X1.800000*%
%ADD18R,1.000000X1.300000*%
G04 APERTURE END LIST*
D10*
%TO.C,ALPS74*%
X343575000Y-27750000D03*
X348575000Y-27250000D03*
%TD*%
%TO.C,F1*%
G36*
G01*
X338276250Y-35462500D02*
X339586250Y-35462500D01*
G75*
G02*
X339856250Y-35732500I0J-270000D01*
G01*
X339856250Y-36542500D01*
G75*
G02*
X339586250Y-36812500I-270000J0D01*
G01*
X338276250Y-36812500D01*
G75*
G02*
X338006250Y-36542500I0J270000D01*
G01*
X338006250Y-35732500D01*
G75*
G02*
X338276250Y-35462500I270000J0D01*
G01*
G37*
G36*
G01*
X338276250Y-32662500D02*
X339586250Y-32662500D01*
G75*
G02*
X339856250Y-32932500I0J-270000D01*
G01*
X339856250Y-33742500D01*
G75*
G02*
X339586250Y-34012500I-270000J0D01*
G01*
X338276250Y-34012500D01*
G75*
G02*
X338006250Y-33742500I0J270000D01*
G01*
X338006250Y-32932500D01*
G75*
G02*
X338276250Y-32662500I270000J0D01*
G01*
G37*
%TD*%
%TO.C,R5*%
G36*
G01*
X339412500Y-29906250D02*
X338450000Y-29906250D01*
G75*
G02*
X338181250Y-29637500I0J268750D01*
G01*
X338181250Y-29100000D01*
G75*
G02*
X338450000Y-28831250I268750J0D01*
G01*
X339412500Y-28831250D01*
G75*
G02*
X339681250Y-29100000I0J-268750D01*
G01*
X339681250Y-29637500D01*
G75*
G02*
X339412500Y-29906250I-268750J0D01*
G01*
G37*
G36*
G01*
X339412500Y-31781250D02*
X338450000Y-31781250D01*
G75*
G02*
X338181250Y-31512500I0J268750D01*
G01*
X338181250Y-30975000D01*
G75*
G02*
X338450000Y-30706250I268750J0D01*
G01*
X339412500Y-30706250D01*
G75*
G02*
X339681250Y-30975000I0J-268750D01*
G01*
X339681250Y-31512500D01*
G75*
G02*
X339412500Y-31781250I-268750J0D01*
G01*
G37*
%TD*%
%TO.C,R2*%
G36*
G01*
X331475000Y-34668750D02*
X330512500Y-34668750D01*
G75*
G02*
X330243750Y-34400000I0J268750D01*
G01*
X330243750Y-33862500D01*
G75*
G02*
X330512500Y-33593750I268750J0D01*
G01*
X331475000Y-33593750D01*
G75*
G02*
X331743750Y-33862500I0J-268750D01*
G01*
X331743750Y-34400000D01*
G75*
G02*
X331475000Y-34668750I-268750J0D01*
G01*
G37*
G36*
G01*
X331475000Y-36543750D02*
X330512500Y-36543750D01*
G75*
G02*
X330243750Y-36275000I0J268750D01*
G01*
X330243750Y-35737500D01*
G75*
G02*
X330512500Y-35468750I268750J0D01*
G01*
X331475000Y-35468750D01*
G75*
G02*
X331743750Y-35737500I0J-268750D01*
G01*
X331743750Y-36275000D01*
G75*
G02*
X331475000Y-36543750I-268750J0D01*
G01*
G37*
%TD*%
%TO.C,C7*%
G36*
G01*
X323368750Y-63106250D02*
X324331250Y-63106250D01*
G75*
G02*
X324600000Y-63375000I0J-268750D01*
G01*
X324600000Y-63912500D01*
G75*
G02*
X324331250Y-64181250I-268750J0D01*
G01*
X323368750Y-64181250D01*
G75*
G02*
X323100000Y-63912500I0J268750D01*
G01*
X323100000Y-63375000D01*
G75*
G02*
X323368750Y-63106250I268750J0D01*
G01*
G37*
G36*
G01*
X323368750Y-61231250D02*
X324331250Y-61231250D01*
G75*
G02*
X324600000Y-61500000I0J-268750D01*
G01*
X324600000Y-62037500D01*
G75*
G02*
X324331250Y-62306250I-268750J0D01*
G01*
X323368750Y-62306250D01*
G75*
G02*
X323100000Y-62037500I0J268750D01*
G01*
X323100000Y-61500000D01*
G75*
G02*
X323368750Y-61231250I268750J0D01*
G01*
G37*
%TD*%
%TO.C,ALPS1*%
X49887500Y-27750000D03*
X54887500Y-27250000D03*
%TD*%
%TO.C,R6*%
G36*
G01*
X325687500Y-35237500D02*
X325687500Y-36200000D01*
G75*
G02*
X325418750Y-36468750I-268750J0D01*
G01*
X324881250Y-36468750D01*
G75*
G02*
X324612500Y-36200000I0J268750D01*
G01*
X324612500Y-35237500D01*
G75*
G02*
X324881250Y-34968750I268750J0D01*
G01*
X325418750Y-34968750D01*
G75*
G02*
X325687500Y-35237500I0J-268750D01*
G01*
G37*
G36*
G01*
X327562500Y-35237500D02*
X327562500Y-36200000D01*
G75*
G02*
X327293750Y-36468750I-268750J0D01*
G01*
X326756250Y-36468750D01*
G75*
G02*
X326487500Y-36200000I0J268750D01*
G01*
X326487500Y-35237500D01*
G75*
G02*
X326756250Y-34968750I268750J0D01*
G01*
X327293750Y-34968750D01*
G75*
G02*
X327562500Y-35237500I0J-268750D01*
G01*
G37*
%TD*%
%TO.C,ALPS70*%
X304681250Y-92837500D03*
X309681250Y-92337500D03*
%TD*%
D11*
%TO.C,Y1*%
X321356250Y-55256250D03*
X321356250Y-57456250D03*
X323056250Y-57456250D03*
X323056250Y-55256250D03*
%TD*%
D12*
%TO.C,U1*%
X337487500Y-60356250D03*
X337487500Y-59556250D03*
X337487500Y-58756250D03*
X337487500Y-57956250D03*
X337487500Y-57156250D03*
X337487500Y-56356250D03*
X337487500Y-55556250D03*
X337487500Y-54756250D03*
X337487500Y-53956250D03*
X337487500Y-53156250D03*
X337487500Y-52356250D03*
D13*
X335787500Y-50656250D03*
X334987500Y-50656250D03*
X334187500Y-50656250D03*
X333387500Y-50656250D03*
X332587500Y-50656250D03*
X331787500Y-50656250D03*
X330987500Y-50656250D03*
X330187500Y-50656250D03*
X329387500Y-50656250D03*
X328587500Y-50656250D03*
X327787500Y-50656250D03*
D12*
X326087500Y-52356250D03*
X326087500Y-53156250D03*
X326087500Y-53956250D03*
X326087500Y-54756250D03*
X326087500Y-55556250D03*
X326087500Y-56356250D03*
X326087500Y-57156250D03*
X326087500Y-57956250D03*
X326087500Y-58756250D03*
X326087500Y-59556250D03*
X326087500Y-60356250D03*
D13*
X327787500Y-62056250D03*
X328587500Y-62056250D03*
X329387500Y-62056250D03*
X330187500Y-62056250D03*
X330987500Y-62056250D03*
X331787500Y-62056250D03*
X332587500Y-62056250D03*
X333387500Y-62056250D03*
X334187500Y-62056250D03*
X334987500Y-62056250D03*
X335787500Y-62056250D03*
%TD*%
D14*
%TO.C,SW1*%
X328687500Y-38631250D03*
X334887500Y-42331250D03*
X328687500Y-42331250D03*
X334887500Y-38631250D03*
%TD*%
%TO.C,R4*%
G36*
G01*
X330593750Y-64606250D02*
X330593750Y-65568750D01*
G75*
G02*
X330325000Y-65837500I-268750J0D01*
G01*
X329787500Y-65837500D01*
G75*
G02*
X329518750Y-65568750I0J268750D01*
G01*
X329518750Y-64606250D01*
G75*
G02*
X329787500Y-64337500I268750J0D01*
G01*
X330325000Y-64337500D01*
G75*
G02*
X330593750Y-64606250I0J-268750D01*
G01*
G37*
G36*
G01*
X332468750Y-64606250D02*
X332468750Y-65568750D01*
G75*
G02*
X332200000Y-65837500I-268750J0D01*
G01*
X331662500Y-65837500D01*
G75*
G02*
X331393750Y-65568750I0J268750D01*
G01*
X331393750Y-64606250D01*
G75*
G02*
X331662500Y-64337500I268750J0D01*
G01*
X332200000Y-64337500D01*
G75*
G02*
X332468750Y-64606250I0J-268750D01*
G01*
G37*
%TD*%
%TO.C,R3*%
G36*
G01*
X334650000Y-34668750D02*
X333687500Y-34668750D01*
G75*
G02*
X333418750Y-34400000I0J268750D01*
G01*
X333418750Y-33862500D01*
G75*
G02*
X333687500Y-33593750I268750J0D01*
G01*
X334650000Y-33593750D01*
G75*
G02*
X334918750Y-33862500I0J-268750D01*
G01*
X334918750Y-34400000D01*
G75*
G02*
X334650000Y-34668750I-268750J0D01*
G01*
G37*
G36*
G01*
X334650000Y-36543750D02*
X333687500Y-36543750D01*
G75*
G02*
X333418750Y-36275000I0J268750D01*
G01*
X333418750Y-35737500D01*
G75*
G02*
X333687500Y-35468750I268750J0D01*
G01*
X334650000Y-35468750D01*
G75*
G02*
X334918750Y-35737500I0J-268750D01*
G01*
X334918750Y-36275000D01*
G75*
G02*
X334650000Y-36543750I-268750J0D01*
G01*
G37*
%TD*%
%TO.C,R1*%
G36*
G01*
X336150000Y-46350000D02*
X336150000Y-47312500D01*
G75*
G02*
X335881250Y-47581250I-268750J0D01*
G01*
X335343750Y-47581250D01*
G75*
G02*
X335075000Y-47312500I0J268750D01*
G01*
X335075000Y-46350000D01*
G75*
G02*
X335343750Y-46081250I268750J0D01*
G01*
X335881250Y-46081250D01*
G75*
G02*
X336150000Y-46350000I0J-268750D01*
G01*
G37*
G36*
G01*
X338025000Y-46350000D02*
X338025000Y-47312500D01*
G75*
G02*
X337756250Y-47581250I-268750J0D01*
G01*
X337218750Y-47581250D01*
G75*
G02*
X336950000Y-47312500I0J268750D01*
G01*
X336950000Y-46350000D01*
G75*
G02*
X337218750Y-46081250I268750J0D01*
G01*
X337756250Y-46081250D01*
G75*
G02*
X338025000Y-46350000I0J-268750D01*
G01*
G37*
%TD*%
D15*
%TO.C,J1*%
X331306250Y-31500000D03*
X329606250Y-31500000D03*
X330456250Y-31500000D03*
X332156250Y-31500000D03*
X333006250Y-31500000D03*
X333856250Y-31500000D03*
X334706250Y-31500000D03*
X335556250Y-31500000D03*
X329606250Y-30175000D03*
X330461250Y-30175000D03*
X331311250Y-30175000D03*
X332161250Y-30175000D03*
X333011250Y-30175000D03*
X333861250Y-30175000D03*
X334711250Y-30175000D03*
X335561250Y-30175000D03*
D16*
X328256250Y-30520000D03*
X336906250Y-30520000D03*
D17*
X328256250Y-27140000D03*
X336906250Y-27140000D03*
%TD*%
D18*
%TO.C,D92*%
X292162500Y-83343750D03*
X288862500Y-83343750D03*
%TD*%
%TO.C,D91*%
X385782500Y-140493750D03*
X382482500Y-140493750D03*
%TD*%
%TO.C,D90*%
X385825000Y-121443750D03*
X382525000Y-121443750D03*
%TD*%
%TO.C,D89*%
X385825000Y-102393750D03*
X382525000Y-102393750D03*
%TD*%
%TO.C,D88*%
X385825000Y-83343750D03*
X382525000Y-83343750D03*
%TD*%
%TO.C,D87*%
X385825000Y-64293750D03*
X382525000Y-64293750D03*
%TD*%
%TO.C,D86*%
X385825000Y-37306250D03*
X382525000Y-37306250D03*
%TD*%
%TO.C,D85*%
X366775000Y-140493750D03*
X363475000Y-140493750D03*
%TD*%
%TO.C,D84*%
X366775000Y-121443750D03*
X363475000Y-121443750D03*
%TD*%
%TO.C,D83*%
X366775000Y-102393750D03*
X363475000Y-102393750D03*
%TD*%
%TO.C,D82*%
X366775000Y-83343750D03*
X363475000Y-83343750D03*
%TD*%
%TO.C,D81*%
X366775000Y-64293750D03*
X363475000Y-64293750D03*
%TD*%
%TO.C,D80*%
X366775000Y-37306250D03*
X363475000Y-37306250D03*
%TD*%
%TO.C,D79*%
X347725000Y-140493750D03*
X344425000Y-140493750D03*
%TD*%
%TO.C,D78*%
X347725000Y-121443750D03*
X344425000Y-121443750D03*
%TD*%
%TO.C,D77*%
X347725000Y-102393750D03*
X344425000Y-102393750D03*
%TD*%
%TO.C,D76*%
X347725000Y-83343750D03*
X344425000Y-83343750D03*
%TD*%
%TO.C,D75*%
X347725000Y-64293750D03*
X344425000Y-64293750D03*
%TD*%
%TO.C,D74*%
X347725000Y-37306250D03*
X344425000Y-37306250D03*
%TD*%
%TO.C,D73*%
X311212500Y-64293750D03*
X307912500Y-64293750D03*
%TD*%
%TO.C,D72*%
X320737500Y-37306250D03*
X317437500Y-37306250D03*
%TD*%
%TO.C,D71*%
X315975000Y-83343750D03*
X312675000Y-83343750D03*
%TD*%
%TO.C,D70*%
X308831250Y-102393750D03*
X305531250Y-102393750D03*
%TD*%
%TO.C,D69*%
X318356250Y-140493750D03*
X315056250Y-140493750D03*
%TD*%
%TO.C,D68*%
X304068750Y-121443750D03*
X300768750Y-121443750D03*
%TD*%
%TO.C,D67*%
X282637500Y-64293750D03*
X279337500Y-64293750D03*
%TD*%
%TO.C,D66*%
X301687500Y-37306250D03*
X298387500Y-37306250D03*
%TD*%
%TO.C,D65*%
X277875000Y-102393750D03*
X274575000Y-102393750D03*
%TD*%
%TO.C,D64*%
X273112500Y-83343750D03*
X269812500Y-83343750D03*
%TD*%
%TO.C,D63*%
X294606250Y-140493750D03*
X291306250Y-140493750D03*
%TD*%
%TO.C,D62*%
X263650000Y-64293750D03*
X260350000Y-64293750D03*
%TD*%
%TO.C,D61*%
X282637500Y-37306250D03*
X279337500Y-37306250D03*
%TD*%
%TO.C,D60*%
X268350000Y-121443750D03*
X265050000Y-121443750D03*
%TD*%
%TO.C,D59*%
X258825000Y-102393750D03*
X255525000Y-102393750D03*
%TD*%
%TO.C,D58*%
X254062500Y-83343750D03*
X250762500Y-83343750D03*
%TD*%
%TO.C,D57*%
X244537500Y-64293750D03*
X241237500Y-64293750D03*
%TD*%
%TO.C,D56*%
X263587500Y-37306250D03*
X260287500Y-37306250D03*
%TD*%
%TO.C,D55*%
X249300000Y-121443750D03*
X246000000Y-121443750D03*
%TD*%
%TO.C,D54*%
X270731250Y-140493750D03*
X267431250Y-140493750D03*
%TD*%
%TO.C,D53*%
X239775000Y-102393750D03*
X236475000Y-102393750D03*
%TD*%
%TO.C,D52*%
X235012500Y-83343750D03*
X231712500Y-83343750D03*
%TD*%
%TO.C,D51*%
X225550000Y-64293750D03*
X222250000Y-64293750D03*
%TD*%
%TO.C,D50*%
X230250000Y-121443750D03*
X226950000Y-121443750D03*
%TD*%
%TO.C,D49*%
X232631250Y-38100000D03*
X229331250Y-38100000D03*
%TD*%
%TO.C,D48*%
X246918750Y-140493750D03*
X243618750Y-140493750D03*
%TD*%
%TO.C,D47*%
X220725000Y-102393750D03*
X217425000Y-102393750D03*
%TD*%
%TO.C,D46*%
X215962500Y-83343750D03*
X212662500Y-83343750D03*
%TD*%
%TO.C,D45*%
X206437500Y-64293750D03*
X203137500Y-64293750D03*
%TD*%
%TO.C,D44*%
X211262500Y-121443750D03*
X207962500Y-121443750D03*
%TD*%
%TO.C,D43*%
X213643750Y-37306250D03*
X210343750Y-37306250D03*
%TD*%
%TO.C,D42*%
X201675000Y-102393750D03*
X198375000Y-102393750D03*
%TD*%
%TO.C,D41*%
X196912500Y-83343750D03*
X193612500Y-83343750D03*
%TD*%
%TO.C,D40*%
X187387500Y-64293750D03*
X184087500Y-64293750D03*
%TD*%
%TO.C,D39*%
X192212500Y-121443750D03*
X188912500Y-121443750D03*
%TD*%
%TO.C,D38*%
X194593750Y-37306250D03*
X191293750Y-37306250D03*
%TD*%
%TO.C,D37*%
X182625000Y-102393750D03*
X179325000Y-102393750D03*
%TD*%
%TO.C,D36*%
X177862500Y-83343750D03*
X174562500Y-83343750D03*
%TD*%
%TO.C,D35*%
X168337500Y-64293750D03*
X165037500Y-64293750D03*
%TD*%
%TO.C,D34*%
X173162500Y-121443750D03*
X169862500Y-121443750D03*
%TD*%
%TO.C,D33*%
X175481250Y-140493750D03*
X172181250Y-140493750D03*
%TD*%
%TO.C,D32*%
X175543750Y-37306250D03*
X172243750Y-37306250D03*
%TD*%
%TO.C,D31*%
X163575000Y-102393750D03*
X160275000Y-102393750D03*
%TD*%
%TO.C,D30*%
X158812500Y-83343750D03*
X155512500Y-83343750D03*
%TD*%
%TO.C,D29*%
X149350000Y-64293750D03*
X146050000Y-64293750D03*
%TD*%
%TO.C,D28*%
X154112500Y-121443750D03*
X150812500Y-121443750D03*
%TD*%
%TO.C,D27*%
X144525000Y-102393750D03*
X141225000Y-102393750D03*
%TD*%
%TO.C,D26*%
X139825000Y-83343750D03*
X136525000Y-83343750D03*
%TD*%
%TO.C,D25*%
X142937500Y-37306250D03*
X139637500Y-37306250D03*
%TD*%
%TO.C,D24*%
X130300000Y-64293750D03*
X127000000Y-64293750D03*
%TD*%
%TO.C,D23*%
X135000000Y-121443750D03*
X131700000Y-121443750D03*
%TD*%
%TO.C,D22*%
X125475000Y-102393750D03*
X122175000Y-102393750D03*
%TD*%
%TO.C,D21*%
X120775000Y-83343750D03*
X117475000Y-83343750D03*
%TD*%
%TO.C,D20*%
X123950000Y-37306250D03*
X120650000Y-37306250D03*
%TD*%
%TO.C,D19*%
X111250000Y-64293750D03*
X107950000Y-64293750D03*
%TD*%
%TO.C,D18*%
X104043750Y-140493750D03*
X100743750Y-140493750D03*
%TD*%
%TO.C,D17*%
X115950000Y-121443750D03*
X112650000Y-121443750D03*
%TD*%
%TO.C,D16*%
X106487500Y-102393750D03*
X103187500Y-102393750D03*
%TD*%
%TO.C,D15*%
X101662500Y-83343750D03*
X98362500Y-83343750D03*
%TD*%
%TO.C,D14*%
X104837500Y-37306250D03*
X101537500Y-37306250D03*
%TD*%
%TO.C,D13*%
X92200000Y-64293750D03*
X88900000Y-64293750D03*
%TD*%
%TO.C,D12*%
X96900000Y-121443750D03*
X93600000Y-121443750D03*
%TD*%
%TO.C,D11*%
X80231250Y-140493750D03*
X76931250Y-140493750D03*
%TD*%
%TO.C,D10*%
X87375000Y-102393750D03*
X84075000Y-102393750D03*
%TD*%
%TO.C,D9*%
X82612500Y-83343750D03*
X79312500Y-83343750D03*
%TD*%
%TO.C,D8*%
X85850000Y-37306250D03*
X82550000Y-37306250D03*
%TD*%
%TO.C,D7*%
X73087500Y-64293750D03*
X69787500Y-64293750D03*
%TD*%
%TO.C,D6*%
X65943750Y-121443750D03*
X62643750Y-121443750D03*
%TD*%
%TO.C,D5*%
X56418750Y-140493750D03*
X53118750Y-140493750D03*
%TD*%
%TO.C,D4*%
X61181250Y-102393750D03*
X57881250Y-102393750D03*
%TD*%
%TO.C,D3*%
X58800000Y-83343750D03*
X55500000Y-83343750D03*
%TD*%
%TO.C,D2*%
X54037500Y-64293750D03*
X50737500Y-64293750D03*
%TD*%
%TO.C,D1*%
X54037500Y-37306250D03*
X50737500Y-37306250D03*
%TD*%
%TO.C,C6*%
G36*
G01*
X324331250Y-48812500D02*
X323368750Y-48812500D01*
G75*
G02*
X323100000Y-48543750I0J268750D01*
G01*
X323100000Y-48006250D01*
G75*
G02*
X323368750Y-47737500I268750J0D01*
G01*
X324331250Y-47737500D01*
G75*
G02*
X324600000Y-48006250I0J-268750D01*
G01*
X324600000Y-48543750D01*
G75*
G02*
X324331250Y-48812500I-268750J0D01*
G01*
G37*
G36*
G01*
X324331250Y-50687500D02*
X323368750Y-50687500D01*
G75*
G02*
X323100000Y-50418750I0J268750D01*
G01*
X323100000Y-49881250D01*
G75*
G02*
X323368750Y-49612500I268750J0D01*
G01*
X324331250Y-49612500D01*
G75*
G02*
X324600000Y-49881250I0J-268750D01*
G01*
X324600000Y-50418750D01*
G75*
G02*
X324331250Y-50687500I-268750J0D01*
G01*
G37*
%TD*%
%TO.C,C5*%
G36*
G01*
X340206250Y-62306250D02*
X339243750Y-62306250D01*
G75*
G02*
X338975000Y-62037500I0J268750D01*
G01*
X338975000Y-61500000D01*
G75*
G02*
X339243750Y-61231250I268750J0D01*
G01*
X340206250Y-61231250D01*
G75*
G02*
X340475000Y-61500000I0J-268750D01*
G01*
X340475000Y-62037500D01*
G75*
G02*
X340206250Y-62306250I-268750J0D01*
G01*
G37*
G36*
G01*
X340206250Y-64181250D02*
X339243750Y-64181250D01*
G75*
G02*
X338975000Y-63912500I0J268750D01*
G01*
X338975000Y-63375000D01*
G75*
G02*
X339243750Y-63106250I268750J0D01*
G01*
X340206250Y-63106250D01*
G75*
G02*
X340475000Y-63375000I0J-268750D01*
G01*
X340475000Y-63912500D01*
G75*
G02*
X340206250Y-64181250I-268750J0D01*
G01*
G37*
%TD*%
%TO.C,C4*%
G36*
G01*
X326481250Y-64606250D02*
X326481250Y-65568750D01*
G75*
G02*
X326212500Y-65837500I-268750J0D01*
G01*
X325675000Y-65837500D01*
G75*
G02*
X325406250Y-65568750I0J268750D01*
G01*
X325406250Y-64606250D01*
G75*
G02*
X325675000Y-64337500I268750J0D01*
G01*
X326212500Y-64337500D01*
G75*
G02*
X326481250Y-64606250I0J-268750D01*
G01*
G37*
G36*
G01*
X328356250Y-64606250D02*
X328356250Y-65568750D01*
G75*
G02*
X328087500Y-65837500I-268750J0D01*
G01*
X327550000Y-65837500D01*
G75*
G02*
X327281250Y-65568750I0J268750D01*
G01*
X327281250Y-64606250D01*
G75*
G02*
X327550000Y-64337500I268750J0D01*
G01*
X328087500Y-64337500D01*
G75*
G02*
X328356250Y-64606250I0J-268750D01*
G01*
G37*
%TD*%
%TO.C,C3*%
G36*
G01*
X340206250Y-48812500D02*
X339243750Y-48812500D01*
G75*
G02*
X338975000Y-48543750I0J268750D01*
G01*
X338975000Y-48006250D01*
G75*
G02*
X339243750Y-47737500I268750J0D01*
G01*
X340206250Y-47737500D01*
G75*
G02*
X340475000Y-48006250I0J-268750D01*
G01*
X340475000Y-48543750D01*
G75*
G02*
X340206250Y-48812500I-268750J0D01*
G01*
G37*
G36*
G01*
X340206250Y-50687500D02*
X339243750Y-50687500D01*
G75*
G02*
X338975000Y-50418750I0J268750D01*
G01*
X338975000Y-49881250D01*
G75*
G02*
X339243750Y-49612500I268750J0D01*
G01*
X340206250Y-49612500D01*
G75*
G02*
X340475000Y-49881250I0J-268750D01*
G01*
X340475000Y-50418750D01*
G75*
G02*
X340206250Y-50687500I-268750J0D01*
G01*
G37*
%TD*%
%TO.C,C2*%
G36*
G01*
X326481250Y-46350000D02*
X326481250Y-47312500D01*
G75*
G02*
X326212500Y-47581250I-268750J0D01*
G01*
X325675000Y-47581250D01*
G75*
G02*
X325406250Y-47312500I0J268750D01*
G01*
X325406250Y-46350000D01*
G75*
G02*
X325675000Y-46081250I268750J0D01*
G01*
X326212500Y-46081250D01*
G75*
G02*
X326481250Y-46350000I0J-268750D01*
G01*
G37*
G36*
G01*
X328356250Y-46350000D02*
X328356250Y-47312500D01*
G75*
G02*
X328087500Y-47581250I-268750J0D01*
G01*
X327550000Y-47581250D01*
G75*
G02*
X327281250Y-47312500I0J268750D01*
G01*
X327281250Y-46350000D01*
G75*
G02*
X327550000Y-46081250I268750J0D01*
G01*
X328087500Y-46081250D01*
G75*
G02*
X328356250Y-46350000I0J-268750D01*
G01*
G37*
%TD*%
%TO.C,C1*%
G36*
G01*
X336012500Y-65568750D02*
X336012500Y-64606250D01*
G75*
G02*
X336281250Y-64337500I268750J0D01*
G01*
X336818750Y-64337500D01*
G75*
G02*
X337087500Y-64606250I0J-268750D01*
G01*
X337087500Y-65568750D01*
G75*
G02*
X336818750Y-65837500I-268750J0D01*
G01*
X336281250Y-65837500D01*
G75*
G02*
X336012500Y-65568750I0J268750D01*
G01*
G37*
G36*
G01*
X334137500Y-65568750D02*
X334137500Y-64606250D01*
G75*
G02*
X334406250Y-64337500I268750J0D01*
G01*
X334943750Y-64337500D01*
G75*
G02*
X335212500Y-64606250I0J-268750D01*
G01*
X335212500Y-65568750D01*
G75*
G02*
X334943750Y-65837500I-268750J0D01*
G01*
X334406250Y-65837500D01*
G75*
G02*
X334137500Y-65568750I0J268750D01*
G01*
G37*
%TD*%
D10*
%TO.C,ALPS92*%
X288012500Y-73787500D03*
X293012500Y-73287500D03*
%TD*%
%TO.C,ALPS91*%
X381675000Y-130937500D03*
X386675000Y-130437500D03*
%TD*%
%TO.C,ALPS90*%
X381675000Y-111887500D03*
X386675000Y-111387500D03*
%TD*%
%TO.C,ALPS89*%
X381675000Y-92837500D03*
X386675000Y-92337500D03*
%TD*%
%TO.C,ALPS88*%
X381675000Y-73787500D03*
X386675000Y-73287500D03*
%TD*%
%TO.C,ALPS87*%
X381675000Y-54737500D03*
X386675000Y-54237500D03*
%TD*%
%TO.C,ALPS86*%
X381675000Y-27750000D03*
X386675000Y-27250000D03*
%TD*%
%TO.C,ALPS85*%
X362625000Y-130937500D03*
X367625000Y-130437500D03*
%TD*%
%TO.C,ALPS84*%
X362625000Y-111887500D03*
X367625000Y-111387500D03*
%TD*%
%TO.C,ALPS83*%
X362625000Y-92837500D03*
X367625000Y-92337500D03*
%TD*%
%TO.C,ALPS82*%
X362625000Y-73787500D03*
X367625000Y-73287500D03*
%TD*%
%TO.C,ALPS81*%
X362625000Y-54737500D03*
X367625000Y-54237500D03*
%TD*%
%TO.C,ALPS80*%
X362625000Y-27750000D03*
X367625000Y-27250000D03*
%TD*%
%TO.C,ALPS79*%
X343575000Y-130937500D03*
X348575000Y-130437500D03*
%TD*%
%TO.C,ALPS78*%
X343575000Y-111887500D03*
X348575000Y-111387500D03*
%TD*%
%TO.C,ALPS77*%
X343575000Y-92837500D03*
X348575000Y-92337500D03*
%TD*%
%TO.C,ALPS76*%
X343575000Y-73787500D03*
X348575000Y-73287500D03*
%TD*%
%TO.C,ALPS75*%
X343575000Y-54737500D03*
X348575000Y-54237500D03*
%TD*%
%TO.C,ALPS73*%
X307062500Y-54737500D03*
X312062500Y-54237500D03*
%TD*%
%TO.C,ALPS72*%
X316587500Y-27750000D03*
X321587500Y-27250000D03*
%TD*%
%TO.C,ALPS71*%
X311825000Y-73787500D03*
X316825000Y-73287500D03*
%TD*%
%TO.C,ALPS69*%
X314206250Y-130937500D03*
X319206250Y-130437500D03*
%TD*%
%TO.C,ALPS68*%
X299918750Y-111887500D03*
X304918750Y-111387500D03*
%TD*%
%TO.C,ALPS67*%
X278487500Y-54737500D03*
X283487500Y-54237500D03*
%TD*%
%TO.C,ALPS66*%
X297537500Y-27750000D03*
X302537500Y-27250000D03*
%TD*%
%TO.C,ALPS65*%
X273725000Y-92837500D03*
X278725000Y-92337500D03*
%TD*%
%TO.C,ALPS64*%
X268962500Y-73787500D03*
X273962500Y-73287500D03*
%TD*%
%TO.C,ALPS63*%
X290393750Y-130937500D03*
X295393750Y-130437500D03*
%TD*%
%TO.C,ALPS62*%
X259437500Y-54737500D03*
X264437500Y-54237500D03*
%TD*%
%TO.C,ALPS61*%
X278487500Y-27750000D03*
X283487500Y-27250000D03*
%TD*%
%TO.C,ALPS60*%
X264200000Y-111887500D03*
X269200000Y-111387500D03*
%TD*%
%TO.C,ALPS59*%
X254675000Y-92837500D03*
X259675000Y-92337500D03*
%TD*%
%TO.C,ALPS58*%
X249912500Y-73787500D03*
X254912500Y-73287500D03*
%TD*%
%TO.C,ALPS57*%
X240387500Y-54737500D03*
X245387500Y-54237500D03*
%TD*%
%TO.C,ALPS56*%
X259437500Y-27750000D03*
X264437500Y-27250000D03*
%TD*%
%TO.C,ALPS55*%
X245150000Y-111887500D03*
X250150000Y-111387500D03*
%TD*%
%TO.C,ALPS54*%
X266581250Y-130937500D03*
X271581250Y-130437500D03*
%TD*%
%TO.C,ALPS53*%
X235625000Y-92837500D03*
X240625000Y-92337500D03*
%TD*%
%TO.C,ALPS52*%
X230862500Y-73787500D03*
X235862500Y-73287500D03*
%TD*%
%TO.C,ALPS51*%
X221337500Y-54737500D03*
X226337500Y-54237500D03*
%TD*%
%TO.C,ALPS50*%
X226100000Y-111887500D03*
X231100000Y-111387500D03*
%TD*%
%TO.C,ALPS49*%
X228481250Y-27750000D03*
X233481250Y-27250000D03*
%TD*%
%TO.C,ALPS48*%
X242768750Y-130937500D03*
X247768750Y-130437500D03*
%TD*%
%TO.C,ALPS47*%
X216575000Y-92837500D03*
X221575000Y-92337500D03*
%TD*%
%TO.C,ALPS46*%
X211812500Y-73787500D03*
X216812500Y-73287500D03*
%TD*%
%TO.C,ALPS45*%
X202287500Y-54737500D03*
X207287500Y-54237500D03*
%TD*%
%TO.C,ALPS44*%
X207050000Y-111887500D03*
X212050000Y-111387500D03*
%TD*%
%TO.C,ALPS43*%
X209431250Y-27750000D03*
X214431250Y-27250000D03*
%TD*%
%TO.C,ALPS42*%
X197525000Y-92837500D03*
X202525000Y-92337500D03*
%TD*%
%TO.C,ALPS41*%
X192762500Y-73787500D03*
X197762500Y-73287500D03*
%TD*%
%TO.C,ALPS40*%
X183237500Y-54737500D03*
X188237500Y-54237500D03*
%TD*%
%TO.C,ALPS39*%
X188000000Y-111887500D03*
X193000000Y-111387500D03*
%TD*%
%TO.C,ALPS38*%
X190381250Y-27750000D03*
X195381250Y-27250000D03*
%TD*%
%TO.C,ALPS37*%
X178475000Y-92837500D03*
X183475000Y-92337500D03*
%TD*%
%TO.C,ALPS36*%
X173712500Y-73787500D03*
X178712500Y-73287500D03*
%TD*%
%TO.C,ALPS35*%
X164187500Y-54737500D03*
X169187500Y-54237500D03*
%TD*%
%TO.C,ALPS34*%
X168950000Y-111887500D03*
X173950000Y-111387500D03*
%TD*%
%TO.C,ALPS33*%
X171331250Y-130937500D03*
X176331250Y-130437500D03*
%TD*%
%TO.C,ALPS32*%
X171331250Y-27750000D03*
X176331250Y-27250000D03*
%TD*%
%TO.C,ALPS31*%
X159425000Y-92837500D03*
X164425000Y-92337500D03*
%TD*%
%TO.C,ALPS30*%
X154662500Y-73787500D03*
X159662500Y-73287500D03*
%TD*%
%TO.C,ALPS29*%
X145137500Y-54737500D03*
X150137500Y-54237500D03*
%TD*%
%TO.C,ALPS28*%
X149900000Y-111887500D03*
X154900000Y-111387500D03*
%TD*%
%TO.C,ALPS27*%
X140375000Y-92837500D03*
X145375000Y-92337500D03*
%TD*%
%TO.C,ALPS26*%
X135612500Y-73787500D03*
X140612500Y-73287500D03*
%TD*%
%TO.C,ALPS25*%
X138787500Y-27750000D03*
X143787500Y-27250000D03*
%TD*%
%TO.C,ALPS24*%
X126087500Y-54737500D03*
X131087500Y-54237500D03*
%TD*%
%TO.C,ALPS23*%
X130850000Y-111887500D03*
X135850000Y-111387500D03*
%TD*%
%TO.C,ALPS22*%
X121325000Y-92837500D03*
X126325000Y-92337500D03*
%TD*%
%TO.C,ALPS21*%
X116562500Y-73787500D03*
X121562500Y-73287500D03*
%TD*%
%TO.C,ALPS20*%
X119737500Y-27750000D03*
X124737500Y-27250000D03*
%TD*%
%TO.C,ALPS19*%
X107037500Y-54737500D03*
X112037500Y-54237500D03*
%TD*%
%TO.C,ALPS18*%
X99893750Y-130937500D03*
X104893750Y-130437500D03*
%TD*%
%TO.C,ALPS17*%
X111800000Y-111887500D03*
X116800000Y-111387500D03*
%TD*%
%TO.C,ALPS16*%
X102275000Y-92837500D03*
X107275000Y-92337500D03*
%TD*%
%TO.C,ALPS15*%
X97512500Y-73787500D03*
X102512500Y-73287500D03*
%TD*%
%TO.C,ALPS14*%
X100687500Y-27750000D03*
X105687500Y-27250000D03*
%TD*%
%TO.C,ALPS13*%
X87987500Y-54737500D03*
X92987500Y-54237500D03*
%TD*%
%TO.C,ALPS12*%
X92750000Y-111887500D03*
X97750000Y-111387500D03*
%TD*%
%TO.C,ALPS11*%
X76081250Y-130937500D03*
X81081250Y-130437500D03*
%TD*%
%TO.C,ALPS10*%
X83225000Y-92837500D03*
X88225000Y-92337500D03*
%TD*%
%TO.C,ALPS9*%
X78462500Y-73787500D03*
X83462500Y-73287500D03*
%TD*%
%TO.C,ALPS8*%
X81637500Y-27750000D03*
X86637500Y-27250000D03*
%TD*%
%TO.C,ALPS7*%
X68937500Y-54737500D03*
X73937500Y-54237500D03*
%TD*%
%TO.C,ALPS6*%
X61793750Y-111887500D03*
X66793750Y-111387500D03*
%TD*%
%TO.C,ALPS5*%
X52268750Y-130937500D03*
X57268750Y-130437500D03*
%TD*%
%TO.C,ALPS4*%
X57031250Y-92837500D03*
X62031250Y-92337500D03*
%TD*%
%TO.C,ALPS3*%
X54650000Y-73787500D03*
X59650000Y-73287500D03*
%TD*%
%TO.C,ALPS2*%
X49887500Y-54737500D03*
X54887500Y-54237500D03*
%TD*%
M02*
