%TF.GenerationSoftware,KiCad,Pcbnew,(5.1.6)-1*%
%TF.CreationDate,2020-08-03T21:56:52-05:00*%
%TF.ProjectId,customKeyboard,63757374-6f6d-44b6-9579-626f6172642e,rev?*%
%TF.SameCoordinates,Original*%
%TF.FileFunction,Paste,Bot*%
%TF.FilePolarity,Positive*%
%FSLAX46Y46*%
G04 Gerber Fmt 4.6, Leading zero omitted, Abs format (unit mm)*
G04 Created by KiCad (PCBNEW (5.1.6)-1) date 2020-08-03 21:56:52*
%MOMM*%
%LPD*%
G01*
G04 APERTURE LIST*
%ADD10R,1.200000X1.400000*%
%ADD11R,1.500000X0.550000*%
%ADD12R,0.550000X1.500000*%
%ADD13R,1.800000X1.100000*%
%ADD14R,0.900000X1.200000*%
G04 APERTURE END LIST*
%TO.C,F1*%
G36*
G01*
X338306250Y-35512500D02*
X339556250Y-35512500D01*
G75*
G02*
X339806250Y-35762500I0J-250000D01*
G01*
X339806250Y-36512500D01*
G75*
G02*
X339556250Y-36762500I-250000J0D01*
G01*
X338306250Y-36762500D01*
G75*
G02*
X338056250Y-36512500I0J250000D01*
G01*
X338056250Y-35762500D01*
G75*
G02*
X338306250Y-35512500I250000J0D01*
G01*
G37*
G36*
G01*
X338306250Y-32712500D02*
X339556250Y-32712500D01*
G75*
G02*
X339806250Y-32962500I0J-250000D01*
G01*
X339806250Y-33712500D01*
G75*
G02*
X339556250Y-33962500I-250000J0D01*
G01*
X338306250Y-33962500D01*
G75*
G02*
X338056250Y-33712500I0J250000D01*
G01*
X338056250Y-32962500D01*
G75*
G02*
X338306250Y-32712500I250000J0D01*
G01*
G37*
%TD*%
%TO.C,R5*%
G36*
G01*
X339387500Y-29856250D02*
X338475000Y-29856250D01*
G75*
G02*
X338231250Y-29612500I0J243750D01*
G01*
X338231250Y-29125000D01*
G75*
G02*
X338475000Y-28881250I243750J0D01*
G01*
X339387500Y-28881250D01*
G75*
G02*
X339631250Y-29125000I0J-243750D01*
G01*
X339631250Y-29612500D01*
G75*
G02*
X339387500Y-29856250I-243750J0D01*
G01*
G37*
G36*
G01*
X339387500Y-31731250D02*
X338475000Y-31731250D01*
G75*
G02*
X338231250Y-31487500I0J243750D01*
G01*
X338231250Y-31000000D01*
G75*
G02*
X338475000Y-30756250I243750J0D01*
G01*
X339387500Y-30756250D01*
G75*
G02*
X339631250Y-31000000I0J-243750D01*
G01*
X339631250Y-31487500D01*
G75*
G02*
X339387500Y-31731250I-243750J0D01*
G01*
G37*
%TD*%
%TO.C,R2*%
G36*
G01*
X331450000Y-34618750D02*
X330537500Y-34618750D01*
G75*
G02*
X330293750Y-34375000I0J243750D01*
G01*
X330293750Y-33887500D01*
G75*
G02*
X330537500Y-33643750I243750J0D01*
G01*
X331450000Y-33643750D01*
G75*
G02*
X331693750Y-33887500I0J-243750D01*
G01*
X331693750Y-34375000D01*
G75*
G02*
X331450000Y-34618750I-243750J0D01*
G01*
G37*
G36*
G01*
X331450000Y-36493750D02*
X330537500Y-36493750D01*
G75*
G02*
X330293750Y-36250000I0J243750D01*
G01*
X330293750Y-35762500D01*
G75*
G02*
X330537500Y-35518750I243750J0D01*
G01*
X331450000Y-35518750D01*
G75*
G02*
X331693750Y-35762500I0J-243750D01*
G01*
X331693750Y-36250000D01*
G75*
G02*
X331450000Y-36493750I-243750J0D01*
G01*
G37*
%TD*%
%TO.C,C7*%
G36*
G01*
X323393750Y-63156250D02*
X324306250Y-63156250D01*
G75*
G02*
X324550000Y-63400000I0J-243750D01*
G01*
X324550000Y-63887500D01*
G75*
G02*
X324306250Y-64131250I-243750J0D01*
G01*
X323393750Y-64131250D01*
G75*
G02*
X323150000Y-63887500I0J243750D01*
G01*
X323150000Y-63400000D01*
G75*
G02*
X323393750Y-63156250I243750J0D01*
G01*
G37*
G36*
G01*
X323393750Y-61281250D02*
X324306250Y-61281250D01*
G75*
G02*
X324550000Y-61525000I0J-243750D01*
G01*
X324550000Y-62012500D01*
G75*
G02*
X324306250Y-62256250I-243750J0D01*
G01*
X323393750Y-62256250D01*
G75*
G02*
X323150000Y-62012500I0J243750D01*
G01*
X323150000Y-61525000D01*
G75*
G02*
X323393750Y-61281250I243750J0D01*
G01*
G37*
%TD*%
%TO.C,R6*%
G36*
G01*
X325637500Y-35262500D02*
X325637500Y-36175000D01*
G75*
G02*
X325393750Y-36418750I-243750J0D01*
G01*
X324906250Y-36418750D01*
G75*
G02*
X324662500Y-36175000I0J243750D01*
G01*
X324662500Y-35262500D01*
G75*
G02*
X324906250Y-35018750I243750J0D01*
G01*
X325393750Y-35018750D01*
G75*
G02*
X325637500Y-35262500I0J-243750D01*
G01*
G37*
G36*
G01*
X327512500Y-35262500D02*
X327512500Y-36175000D01*
G75*
G02*
X327268750Y-36418750I-243750J0D01*
G01*
X326781250Y-36418750D01*
G75*
G02*
X326537500Y-36175000I0J243750D01*
G01*
X326537500Y-35262500D01*
G75*
G02*
X326781250Y-35018750I243750J0D01*
G01*
X327268750Y-35018750D01*
G75*
G02*
X327512500Y-35262500I0J-243750D01*
G01*
G37*
%TD*%
D10*
%TO.C,Y1*%
X321356250Y-55256250D03*
X321356250Y-57456250D03*
X323056250Y-57456250D03*
X323056250Y-55256250D03*
%TD*%
D11*
%TO.C,U1*%
X337487500Y-60356250D03*
X337487500Y-59556250D03*
X337487500Y-58756250D03*
X337487500Y-57956250D03*
X337487500Y-57156250D03*
X337487500Y-56356250D03*
X337487500Y-55556250D03*
X337487500Y-54756250D03*
X337487500Y-53956250D03*
X337487500Y-53156250D03*
X337487500Y-52356250D03*
D12*
X335787500Y-50656250D03*
X334987500Y-50656250D03*
X334187500Y-50656250D03*
X333387500Y-50656250D03*
X332587500Y-50656250D03*
X331787500Y-50656250D03*
X330987500Y-50656250D03*
X330187500Y-50656250D03*
X329387500Y-50656250D03*
X328587500Y-50656250D03*
X327787500Y-50656250D03*
D11*
X326087500Y-52356250D03*
X326087500Y-53156250D03*
X326087500Y-53956250D03*
X326087500Y-54756250D03*
X326087500Y-55556250D03*
X326087500Y-56356250D03*
X326087500Y-57156250D03*
X326087500Y-57956250D03*
X326087500Y-58756250D03*
X326087500Y-59556250D03*
X326087500Y-60356250D03*
D12*
X327787500Y-62056250D03*
X328587500Y-62056250D03*
X329387500Y-62056250D03*
X330187500Y-62056250D03*
X330987500Y-62056250D03*
X331787500Y-62056250D03*
X332587500Y-62056250D03*
X333387500Y-62056250D03*
X334187500Y-62056250D03*
X334987500Y-62056250D03*
X335787500Y-62056250D03*
%TD*%
D13*
%TO.C,SW1*%
X328687500Y-38631250D03*
X334887500Y-42331250D03*
X328687500Y-42331250D03*
X334887500Y-38631250D03*
%TD*%
%TO.C,R4*%
G36*
G01*
X330543750Y-64631250D02*
X330543750Y-65543750D01*
G75*
G02*
X330300000Y-65787500I-243750J0D01*
G01*
X329812500Y-65787500D01*
G75*
G02*
X329568750Y-65543750I0J243750D01*
G01*
X329568750Y-64631250D01*
G75*
G02*
X329812500Y-64387500I243750J0D01*
G01*
X330300000Y-64387500D01*
G75*
G02*
X330543750Y-64631250I0J-243750D01*
G01*
G37*
G36*
G01*
X332418750Y-64631250D02*
X332418750Y-65543750D01*
G75*
G02*
X332175000Y-65787500I-243750J0D01*
G01*
X331687500Y-65787500D01*
G75*
G02*
X331443750Y-65543750I0J243750D01*
G01*
X331443750Y-64631250D01*
G75*
G02*
X331687500Y-64387500I243750J0D01*
G01*
X332175000Y-64387500D01*
G75*
G02*
X332418750Y-64631250I0J-243750D01*
G01*
G37*
%TD*%
%TO.C,R3*%
G36*
G01*
X334625000Y-34618750D02*
X333712500Y-34618750D01*
G75*
G02*
X333468750Y-34375000I0J243750D01*
G01*
X333468750Y-33887500D01*
G75*
G02*
X333712500Y-33643750I243750J0D01*
G01*
X334625000Y-33643750D01*
G75*
G02*
X334868750Y-33887500I0J-243750D01*
G01*
X334868750Y-34375000D01*
G75*
G02*
X334625000Y-34618750I-243750J0D01*
G01*
G37*
G36*
G01*
X334625000Y-36493750D02*
X333712500Y-36493750D01*
G75*
G02*
X333468750Y-36250000I0J243750D01*
G01*
X333468750Y-35762500D01*
G75*
G02*
X333712500Y-35518750I243750J0D01*
G01*
X334625000Y-35518750D01*
G75*
G02*
X334868750Y-35762500I0J-243750D01*
G01*
X334868750Y-36250000D01*
G75*
G02*
X334625000Y-36493750I-243750J0D01*
G01*
G37*
%TD*%
%TO.C,R1*%
G36*
G01*
X336100000Y-46375000D02*
X336100000Y-47287500D01*
G75*
G02*
X335856250Y-47531250I-243750J0D01*
G01*
X335368750Y-47531250D01*
G75*
G02*
X335125000Y-47287500I0J243750D01*
G01*
X335125000Y-46375000D01*
G75*
G02*
X335368750Y-46131250I243750J0D01*
G01*
X335856250Y-46131250D01*
G75*
G02*
X336100000Y-46375000I0J-243750D01*
G01*
G37*
G36*
G01*
X337975000Y-46375000D02*
X337975000Y-47287500D01*
G75*
G02*
X337731250Y-47531250I-243750J0D01*
G01*
X337243750Y-47531250D01*
G75*
G02*
X337000000Y-47287500I0J243750D01*
G01*
X337000000Y-46375000D01*
G75*
G02*
X337243750Y-46131250I243750J0D01*
G01*
X337731250Y-46131250D01*
G75*
G02*
X337975000Y-46375000I0J-243750D01*
G01*
G37*
%TD*%
D14*
%TO.C,D92*%
X292162500Y-83343750D03*
X288862500Y-83343750D03*
%TD*%
%TO.C,D91*%
X385782500Y-140493750D03*
X382482500Y-140493750D03*
%TD*%
%TO.C,D90*%
X385825000Y-121443750D03*
X382525000Y-121443750D03*
%TD*%
%TO.C,D89*%
X385825000Y-102393750D03*
X382525000Y-102393750D03*
%TD*%
%TO.C,D88*%
X385825000Y-83343750D03*
X382525000Y-83343750D03*
%TD*%
%TO.C,D87*%
X385825000Y-64293750D03*
X382525000Y-64293750D03*
%TD*%
%TO.C,D86*%
X385825000Y-37306250D03*
X382525000Y-37306250D03*
%TD*%
%TO.C,D85*%
X366775000Y-140493750D03*
X363475000Y-140493750D03*
%TD*%
%TO.C,D84*%
X366775000Y-121443750D03*
X363475000Y-121443750D03*
%TD*%
%TO.C,D83*%
X366775000Y-102393750D03*
X363475000Y-102393750D03*
%TD*%
%TO.C,D82*%
X366775000Y-83343750D03*
X363475000Y-83343750D03*
%TD*%
%TO.C,D81*%
X366775000Y-64293750D03*
X363475000Y-64293750D03*
%TD*%
%TO.C,D80*%
X366775000Y-37306250D03*
X363475000Y-37306250D03*
%TD*%
%TO.C,D79*%
X347725000Y-140493750D03*
X344425000Y-140493750D03*
%TD*%
%TO.C,D78*%
X347725000Y-121443750D03*
X344425000Y-121443750D03*
%TD*%
%TO.C,D77*%
X347725000Y-102393750D03*
X344425000Y-102393750D03*
%TD*%
%TO.C,D76*%
X347725000Y-83343750D03*
X344425000Y-83343750D03*
%TD*%
%TO.C,D75*%
X347725000Y-64293750D03*
X344425000Y-64293750D03*
%TD*%
%TO.C,D74*%
X347725000Y-37306250D03*
X344425000Y-37306250D03*
%TD*%
%TO.C,D73*%
X311212500Y-64293750D03*
X307912500Y-64293750D03*
%TD*%
%TO.C,D72*%
X320737500Y-37306250D03*
X317437500Y-37306250D03*
%TD*%
%TO.C,D71*%
X315975000Y-83343750D03*
X312675000Y-83343750D03*
%TD*%
%TO.C,D70*%
X308831250Y-102393750D03*
X305531250Y-102393750D03*
%TD*%
%TO.C,D69*%
X318356250Y-140493750D03*
X315056250Y-140493750D03*
%TD*%
%TO.C,D68*%
X304068750Y-121443750D03*
X300768750Y-121443750D03*
%TD*%
%TO.C,D67*%
X282637500Y-64293750D03*
X279337500Y-64293750D03*
%TD*%
%TO.C,D66*%
X301687500Y-37306250D03*
X298387500Y-37306250D03*
%TD*%
%TO.C,D65*%
X277875000Y-102393750D03*
X274575000Y-102393750D03*
%TD*%
%TO.C,D64*%
X273112500Y-83343750D03*
X269812500Y-83343750D03*
%TD*%
%TO.C,D63*%
X294606250Y-140493750D03*
X291306250Y-140493750D03*
%TD*%
%TO.C,D62*%
X263650000Y-64293750D03*
X260350000Y-64293750D03*
%TD*%
%TO.C,D61*%
X282637500Y-37306250D03*
X279337500Y-37306250D03*
%TD*%
%TO.C,D60*%
X268350000Y-121443750D03*
X265050000Y-121443750D03*
%TD*%
%TO.C,D59*%
X258825000Y-102393750D03*
X255525000Y-102393750D03*
%TD*%
%TO.C,D58*%
X254062500Y-83343750D03*
X250762500Y-83343750D03*
%TD*%
%TO.C,D57*%
X244537500Y-64293750D03*
X241237500Y-64293750D03*
%TD*%
%TO.C,D56*%
X263587500Y-37306250D03*
X260287500Y-37306250D03*
%TD*%
%TO.C,D55*%
X249300000Y-121443750D03*
X246000000Y-121443750D03*
%TD*%
%TO.C,D54*%
X270731250Y-140493750D03*
X267431250Y-140493750D03*
%TD*%
%TO.C,D53*%
X239775000Y-102393750D03*
X236475000Y-102393750D03*
%TD*%
%TO.C,D52*%
X235012500Y-83343750D03*
X231712500Y-83343750D03*
%TD*%
%TO.C,D51*%
X225550000Y-64293750D03*
X222250000Y-64293750D03*
%TD*%
%TO.C,D50*%
X230250000Y-121443750D03*
X226950000Y-121443750D03*
%TD*%
%TO.C,D49*%
X232631250Y-38100000D03*
X229331250Y-38100000D03*
%TD*%
%TO.C,D48*%
X246918750Y-140493750D03*
X243618750Y-140493750D03*
%TD*%
%TO.C,D47*%
X220725000Y-102393750D03*
X217425000Y-102393750D03*
%TD*%
%TO.C,D46*%
X215962500Y-83343750D03*
X212662500Y-83343750D03*
%TD*%
%TO.C,D45*%
X206437500Y-64293750D03*
X203137500Y-64293750D03*
%TD*%
%TO.C,D44*%
X211262500Y-121443750D03*
X207962500Y-121443750D03*
%TD*%
%TO.C,D43*%
X213643750Y-37306250D03*
X210343750Y-37306250D03*
%TD*%
%TO.C,D42*%
X201675000Y-102393750D03*
X198375000Y-102393750D03*
%TD*%
%TO.C,D41*%
X196912500Y-83343750D03*
X193612500Y-83343750D03*
%TD*%
%TO.C,D40*%
X187387500Y-64293750D03*
X184087500Y-64293750D03*
%TD*%
%TO.C,D39*%
X192212500Y-121443750D03*
X188912500Y-121443750D03*
%TD*%
%TO.C,D38*%
X194593750Y-37306250D03*
X191293750Y-37306250D03*
%TD*%
%TO.C,D37*%
X182625000Y-102393750D03*
X179325000Y-102393750D03*
%TD*%
%TO.C,D36*%
X177862500Y-83343750D03*
X174562500Y-83343750D03*
%TD*%
%TO.C,D35*%
X168337500Y-64293750D03*
X165037500Y-64293750D03*
%TD*%
%TO.C,D34*%
X173162500Y-121443750D03*
X169862500Y-121443750D03*
%TD*%
%TO.C,D33*%
X175481250Y-140493750D03*
X172181250Y-140493750D03*
%TD*%
%TO.C,D32*%
X175543750Y-37306250D03*
X172243750Y-37306250D03*
%TD*%
%TO.C,D31*%
X163575000Y-102393750D03*
X160275000Y-102393750D03*
%TD*%
%TO.C,D30*%
X158812500Y-83343750D03*
X155512500Y-83343750D03*
%TD*%
%TO.C,D29*%
X149350000Y-64293750D03*
X146050000Y-64293750D03*
%TD*%
%TO.C,D28*%
X154112500Y-121443750D03*
X150812500Y-121443750D03*
%TD*%
%TO.C,D27*%
X144525000Y-102393750D03*
X141225000Y-102393750D03*
%TD*%
%TO.C,D26*%
X139825000Y-83343750D03*
X136525000Y-83343750D03*
%TD*%
%TO.C,D25*%
X142937500Y-37306250D03*
X139637500Y-37306250D03*
%TD*%
%TO.C,D24*%
X130300000Y-64293750D03*
X127000000Y-64293750D03*
%TD*%
%TO.C,D23*%
X135000000Y-121443750D03*
X131700000Y-121443750D03*
%TD*%
%TO.C,D22*%
X125475000Y-102393750D03*
X122175000Y-102393750D03*
%TD*%
%TO.C,D21*%
X120775000Y-83343750D03*
X117475000Y-83343750D03*
%TD*%
%TO.C,D20*%
X123950000Y-37306250D03*
X120650000Y-37306250D03*
%TD*%
%TO.C,D19*%
X111250000Y-64293750D03*
X107950000Y-64293750D03*
%TD*%
%TO.C,D18*%
X104043750Y-140493750D03*
X100743750Y-140493750D03*
%TD*%
%TO.C,D17*%
X115950000Y-121443750D03*
X112650000Y-121443750D03*
%TD*%
%TO.C,D16*%
X106487500Y-102393750D03*
X103187500Y-102393750D03*
%TD*%
%TO.C,D15*%
X101662500Y-83343750D03*
X98362500Y-83343750D03*
%TD*%
%TO.C,D14*%
X104837500Y-37306250D03*
X101537500Y-37306250D03*
%TD*%
%TO.C,D13*%
X92200000Y-64293750D03*
X88900000Y-64293750D03*
%TD*%
%TO.C,D12*%
X96900000Y-121443750D03*
X93600000Y-121443750D03*
%TD*%
%TO.C,D11*%
X80231250Y-140493750D03*
X76931250Y-140493750D03*
%TD*%
%TO.C,D10*%
X87375000Y-102393750D03*
X84075000Y-102393750D03*
%TD*%
%TO.C,D9*%
X82612500Y-83343750D03*
X79312500Y-83343750D03*
%TD*%
%TO.C,D8*%
X85850000Y-37306250D03*
X82550000Y-37306250D03*
%TD*%
%TO.C,D7*%
X73087500Y-64293750D03*
X69787500Y-64293750D03*
%TD*%
%TO.C,D6*%
X65943750Y-121443750D03*
X62643750Y-121443750D03*
%TD*%
%TO.C,D5*%
X56418750Y-140493750D03*
X53118750Y-140493750D03*
%TD*%
%TO.C,D4*%
X61181250Y-102393750D03*
X57881250Y-102393750D03*
%TD*%
%TO.C,D3*%
X58800000Y-83343750D03*
X55500000Y-83343750D03*
%TD*%
%TO.C,D2*%
X54037500Y-64293750D03*
X50737500Y-64293750D03*
%TD*%
%TO.C,D1*%
X54037500Y-37306250D03*
X50737500Y-37306250D03*
%TD*%
%TO.C,C6*%
G36*
G01*
X324306250Y-48762500D02*
X323393750Y-48762500D01*
G75*
G02*
X323150000Y-48518750I0J243750D01*
G01*
X323150000Y-48031250D01*
G75*
G02*
X323393750Y-47787500I243750J0D01*
G01*
X324306250Y-47787500D01*
G75*
G02*
X324550000Y-48031250I0J-243750D01*
G01*
X324550000Y-48518750D01*
G75*
G02*
X324306250Y-48762500I-243750J0D01*
G01*
G37*
G36*
G01*
X324306250Y-50637500D02*
X323393750Y-50637500D01*
G75*
G02*
X323150000Y-50393750I0J243750D01*
G01*
X323150000Y-49906250D01*
G75*
G02*
X323393750Y-49662500I243750J0D01*
G01*
X324306250Y-49662500D01*
G75*
G02*
X324550000Y-49906250I0J-243750D01*
G01*
X324550000Y-50393750D01*
G75*
G02*
X324306250Y-50637500I-243750J0D01*
G01*
G37*
%TD*%
%TO.C,C5*%
G36*
G01*
X340181250Y-62256250D02*
X339268750Y-62256250D01*
G75*
G02*
X339025000Y-62012500I0J243750D01*
G01*
X339025000Y-61525000D01*
G75*
G02*
X339268750Y-61281250I243750J0D01*
G01*
X340181250Y-61281250D01*
G75*
G02*
X340425000Y-61525000I0J-243750D01*
G01*
X340425000Y-62012500D01*
G75*
G02*
X340181250Y-62256250I-243750J0D01*
G01*
G37*
G36*
G01*
X340181250Y-64131250D02*
X339268750Y-64131250D01*
G75*
G02*
X339025000Y-63887500I0J243750D01*
G01*
X339025000Y-63400000D01*
G75*
G02*
X339268750Y-63156250I243750J0D01*
G01*
X340181250Y-63156250D01*
G75*
G02*
X340425000Y-63400000I0J-243750D01*
G01*
X340425000Y-63887500D01*
G75*
G02*
X340181250Y-64131250I-243750J0D01*
G01*
G37*
%TD*%
%TO.C,C4*%
G36*
G01*
X326431250Y-64631250D02*
X326431250Y-65543750D01*
G75*
G02*
X326187500Y-65787500I-243750J0D01*
G01*
X325700000Y-65787500D01*
G75*
G02*
X325456250Y-65543750I0J243750D01*
G01*
X325456250Y-64631250D01*
G75*
G02*
X325700000Y-64387500I243750J0D01*
G01*
X326187500Y-64387500D01*
G75*
G02*
X326431250Y-64631250I0J-243750D01*
G01*
G37*
G36*
G01*
X328306250Y-64631250D02*
X328306250Y-65543750D01*
G75*
G02*
X328062500Y-65787500I-243750J0D01*
G01*
X327575000Y-65787500D01*
G75*
G02*
X327331250Y-65543750I0J243750D01*
G01*
X327331250Y-64631250D01*
G75*
G02*
X327575000Y-64387500I243750J0D01*
G01*
X328062500Y-64387500D01*
G75*
G02*
X328306250Y-64631250I0J-243750D01*
G01*
G37*
%TD*%
%TO.C,C3*%
G36*
G01*
X340181250Y-48762500D02*
X339268750Y-48762500D01*
G75*
G02*
X339025000Y-48518750I0J243750D01*
G01*
X339025000Y-48031250D01*
G75*
G02*
X339268750Y-47787500I243750J0D01*
G01*
X340181250Y-47787500D01*
G75*
G02*
X340425000Y-48031250I0J-243750D01*
G01*
X340425000Y-48518750D01*
G75*
G02*
X340181250Y-48762500I-243750J0D01*
G01*
G37*
G36*
G01*
X340181250Y-50637500D02*
X339268750Y-50637500D01*
G75*
G02*
X339025000Y-50393750I0J243750D01*
G01*
X339025000Y-49906250D01*
G75*
G02*
X339268750Y-49662500I243750J0D01*
G01*
X340181250Y-49662500D01*
G75*
G02*
X340425000Y-49906250I0J-243750D01*
G01*
X340425000Y-50393750D01*
G75*
G02*
X340181250Y-50637500I-243750J0D01*
G01*
G37*
%TD*%
%TO.C,C2*%
G36*
G01*
X326431250Y-46375000D02*
X326431250Y-47287500D01*
G75*
G02*
X326187500Y-47531250I-243750J0D01*
G01*
X325700000Y-47531250D01*
G75*
G02*
X325456250Y-47287500I0J243750D01*
G01*
X325456250Y-46375000D01*
G75*
G02*
X325700000Y-46131250I243750J0D01*
G01*
X326187500Y-46131250D01*
G75*
G02*
X326431250Y-46375000I0J-243750D01*
G01*
G37*
G36*
G01*
X328306250Y-46375000D02*
X328306250Y-47287500D01*
G75*
G02*
X328062500Y-47531250I-243750J0D01*
G01*
X327575000Y-47531250D01*
G75*
G02*
X327331250Y-47287500I0J243750D01*
G01*
X327331250Y-46375000D01*
G75*
G02*
X327575000Y-46131250I243750J0D01*
G01*
X328062500Y-46131250D01*
G75*
G02*
X328306250Y-46375000I0J-243750D01*
G01*
G37*
%TD*%
%TO.C,C1*%
G36*
G01*
X336062500Y-65543750D02*
X336062500Y-64631250D01*
G75*
G02*
X336306250Y-64387500I243750J0D01*
G01*
X336793750Y-64387500D01*
G75*
G02*
X337037500Y-64631250I0J-243750D01*
G01*
X337037500Y-65543750D01*
G75*
G02*
X336793750Y-65787500I-243750J0D01*
G01*
X336306250Y-65787500D01*
G75*
G02*
X336062500Y-65543750I0J243750D01*
G01*
G37*
G36*
G01*
X334187500Y-65543750D02*
X334187500Y-64631250D01*
G75*
G02*
X334431250Y-64387500I243750J0D01*
G01*
X334918750Y-64387500D01*
G75*
G02*
X335162500Y-64631250I0J-243750D01*
G01*
X335162500Y-65543750D01*
G75*
G02*
X334918750Y-65787500I-243750J0D01*
G01*
X334431250Y-65787500D01*
G75*
G02*
X334187500Y-65543750I0J243750D01*
G01*
G37*
%TD*%
M02*
